<?xml version="1.0" encoding="UTF-8"?>
<svg width="245px" height="159px" viewBox="0 0 245 159" version="1.1" xmlns="http://www.w3.org/2000/svg" xmlns:xlink="http://www.w3.org/1999/xlink">
    <title>5DA60862-E8FA-4725-A2FA-9FA9016859D6</title>
    <defs>
        <linearGradient x1="0.202271145%" y1="51.4108952%" x2="100.592488%" y2="51.4108952%" id="linearGradient-1">
            <stop stop-color="#F2B066" offset="0%"></stop>
            <stop stop-color="#F2B36D" offset="13.31%"></stop>
            <stop stop-color="#F2BC7F" offset="32.17%"></stop>
            <stop stop-color="#F2CA9E" offset="54.33%"></stop>
            <stop stop-color="#F2DEC8" offset="78.8%"></stop>
            <stop stop-color="#F2F2F2" offset="100%"></stop>
        </linearGradient>
    </defs>
    <g id="Page-1" stroke="none" stroke-width="1" fill="none" fill-rule="evenodd">
        <g id="how_testd_works" transform="translate(-59.000000, -400.000000)">
            <g id="1_jane3" transform="translate(59.000000, 400.000000)">
                <path d="M171.751825,90 C171.618005,90 171.484185,90 171.216545,90 L83.9659367,84.621673 C79.8175182,84.3593156 76.6058394,81.7357414 76.4720195,78.5874525 L75,27.6901141 C75,26.378327 75.5352798,25.0665399 76.6058394,23.8859316 C78.0778589,22.4429658 80.3527981,21.5247148 82.7615572,21.5247148 C86.5531928,21.5040084 89.3969196,21.4884786 91.2927374,21.4781254 C110.748636,21.3718753 139.932485,21.2125002 178.844282,21 C180.851582,21 182.591241,21.6558935 183.79562,22.8365019 C184.3309,23.4923954 185,24.4106464 185,25.7224335 L177.907543,85.539924 C177.639903,88.0323194 174.963504,90 171.751825,90 Z" id="XMLID_1_" stroke="#FDCA21" fill="#0F84A9" fill-rule="nonzero"></path>
                <g id="Group" transform="translate(98.000000, 0.000000)" fill-rule="nonzero">
                    <g transform="translate(62.598846, 45.708837)" fill="#F2B066" id="Path">
                        <path d="M1.93636364,4.79620465 C1.66998557,4.66297674 1.4036075,4.79620465 1.13722944,4.92943256 C0.870851371,5.06266047 0.737662338,5.32911628 0.604473304,5.59557209 L0.604473304,5.59557209 C0.471284271,6.12848372 0.737662338,6.79462326 1.4036075,6.92785116 L5.66565657,8.12690233 L6.1984127,5.99525581 L1.93636364,4.79620465 Z"></path>
                        <path d="M1.8031746,7.32753488 C1.53679654,7.19430698 1.27041847,7.32753488 1.0040404,7.46076279 C0.737662338,7.5939907 0.604473304,7.86044651 0.471284271,8.12690233 L0.471284271,8.12690233 C0.338095238,8.65981395 0.604473304,9.32595349 1.27041847,9.4591814 L3.53463203,10.1253209 C4.2005772,10.2585488 4.9997114,9.85886512 5.26608947,9.19272558 L5.53246753,8.39335814 L1.8031746,7.32753488 Z"></path>
                        <path d="M3.0018759,2.39810233 C2.73549784,2.26487442 2.46911977,2.39810233 2.2027417,2.53133023 C1.93636364,2.66455814 1.8031746,2.93101395 1.66998557,3.19746977 L1.66998557,3.19746977 C1.53679654,3.7303814 1.8031746,4.39652093 2.46911977,4.52974884 L6.1984127,5.59557209 L6.73116883,3.46392558 L3.0018759,2.39810233 Z"></path>
                        <path d="M4.46695527,0.266455814 C4.2005772,0.133227907 3.93419913,0.266455814 3.66782107,0.399683721 C3.401443,0.532911628 3.26825397,0.799367442 3.13506494,1.06582326 L3.13506494,1.06582326 C3.0018759,1.59873488 3.26825397,2.26487442 3.93419913,2.39810233 L6.86435786,3.19746977 L7.13073593,2.39810233 C7.26392496,1.9984186 7.13073593,1.73196279 6.9975469,1.33227907 C6.86435786,1.06582326 6.46479076,0.799367442 6.1984127,0.666139535 L4.46695527,0.266455814 Z"></path>
                    </g>
                    <g>
                        <path d="M36.8318903,54.9015628 C22.7138528,65.0268837 5.3992785,63.6946047 1.4036075,60.2306791 C0.870851371,59.8309953 0.338095238,59.1648558 0.0717171717,58.6319442 C9.52813853,55.3012465 7.26392496,46.3749767 7.13073593,45.975293 C7.13073593,45.975293 7.13073593,45.975293 7.13073593,45.975293 C6.73116883,42.9110512 5.13290043,39.7135814 3.8010101,37.1822512 C-4.58989899,21.8610419 5.7988456,6.40660465 5.7988456,6.40660465 L43.0917749,12.1354047 C43.0917749,12.1354047 55.478355,41.5787721 36.8318903,54.9015628 Z" id="Path" fill="#241405"></path>
                        <path d="M48.0197691,63.6946047 C46.6878788,63.0284651 38.1637807,55.7009302 34.0349206,52.2370047 C32.8362193,51.1711814 30.9715729,51.0379535 29.6396825,51.9705488 C28.8405483,52.5034605 28.4409812,53.3028279 28.3077922,54.2354233 C28.3077922,55.1680186 28.5741703,55.967386 29.3733045,56.6335256 C34.9672439,61.2965023 46.8210678,71.0221395 49.6180375,70.2227721 C53.3473304,69.2901767 64.8015873,51.3044093 64.8015873,51.3044093 L59.2076479,50.371814 C59.3408369,50.371814 49.7512266,64.7604279 48.0197691,63.6946047 Z" id="Path" fill="#F2B066"></path>
                        <path d="M13.3906205,85.4107535 C13.3906205,85.4107535 7.26392496,93.8041116 13.3906205,99 L38.5633478,99 C38.5633478,99 43.7577201,89.1411349 36.9650794,84.0784744 L13.3906205,85.4107535 Z" id="Path" fill="#241405"></path>
                        <g transform="translate(19.978355, 40.840186)">
                            <rect id="Rectangle" fill="#F2B066" x="0.204906205" y="0.60535814" width="7.85815296" height="16.5202605"></rect>
                            <path d="M8.06305916,0.338902326 L8.06305916,7.5332093 C-0.0614718615,8.73226047 0.204906205,0.338902326 0.204906205,0.338902326 L8.06305916,0.338902326 Z" id="Path" fill="#9D644D" opacity="0.43"></path>
                        </g>
                        <path d="M33.1025974,70.8889116 C33.2357864,69.9563163 33.5021645,69.0237209 33.7685426,68.2243535 C33.9017316,68.0911256 33.9017316,67.8246698 34.0349206,67.6914419 C34.1681097,67.2917581 34.4344877,67.0253023 34.7008658,66.7588465 C34.8340548,66.6256186 34.9672439,66.4923907 35.1004329,66.4923907 C35.1004329,66.4923907 35.1004329,66.4923907 35.1004329,66.4923907 C35.2336219,66.3591628 35.5,66.2259349 35.633189,65.9594791 C35.633189,65.9594791 35.633189,65.9594791 35.633189,65.9594791 C35.633189,65.9594791 35.633189,65.9594791 35.633189,65.9594791 C39.0961039,62.3623256 34.5676768,57.5661209 34.5676768,57.5661209 L31.2379509,51.0379535 C31.2379509,51.0379535 31.1047619,51.0379535 31.1047619,51.0379535 C30.8383838,50.9047256 30.5720058,50.9047256 30.1724387,50.9047256 C29.7728716,50.9047256 29.2401154,50.9047256 28.8405483,50.7714977 C28.8405483,50.7714977 28.7073593,50.7714977 28.7073593,50.7714977 L28.1746032,50.7714977 L28.1746032,50.7714977 C27.7750361,52.1037767 26.5763348,53.4360558 25.2444444,53.4360558 C22.1810967,53.5692837 20.1832612,50.9047256 20.0500722,50.6382698 C20.0500722,50.6382698 20.0500722,50.6382698 20.0500722,50.6382698 C20.0500722,50.6382698 20.0500722,50.6382698 19.9168831,50.6382698 C19.6505051,50.6382698 19.384127,50.6382698 19.1177489,50.6382698 C18.4518038,50.6382698 17.9190476,50.7714977 17.3862915,50.7714977 C16.3207792,50.9047256 14.9888889,51.0379535 14.0565657,51.3044093 C12.9910534,51.5708651 11.9255411,51.9705488 10.9932179,52.6366884 C10.8600289,52.7699163 10.8600289,52.7699163 10.8600289,52.7699163 C11.392785,54.9015628 14.9888889,63.6946047 15.9212121,70.2227721 C16.3207792,73.0205581 16.5871573,75.2854326 16.3207792,75.9515721 C16.0544012,76.6177116 15.6548341,77.550307 15.388456,78.7493581 C15.388456,78.7493581 15.388456,78.7493581 15.388456,78.7493581 C14.4561328,81.6803721 13.3906205,85.4107535 13.3906205,85.4107535 C13.3906205,85.4107535 29.3733045,89.007907 35.8995671,84.744614 C35.8995671,84.744614 35.8995671,84.744614 35.8995671,84.744614 C36.2991342,84.4781581 36.5655123,84.2117023 36.8318903,83.9452465 C35.8995671,81.4139163 32.8362193,74.8857488 33.1025974,70.8889116 Z" id="Path" fill="#9C1313"></path>
                        <path d="M35.2336219,66.092707 C35.2336219,66.092707 35.2336219,66.092707 35.2336219,66.092707 C35.1004329,66.2259349 34.8340548,66.4923907 34.7008658,66.6256186 C34.7008658,66.6256186 34.7008658,66.6256186 34.7008658,66.6256186 C34.5676768,66.7588465 34.5676768,66.8920744 34.4344877,67.0253023 C34.1681097,67.2917581 34.1681097,67.558214 33.9017316,67.9578977 C33.7685426,68.0911256 33.7685426,68.3575814 33.6353535,68.6240372 C31.7707071,68.890493 28.7073593,68.6240372 28.0414141,68.4908093 C27.2422799,68.3575814 25.1112554,69.4234047 22.9802309,69.4234047 C20.8492063,69.4234047 19.1177489,68.3575814 18.1854257,66.7588465 C20.7160173,69.2901767 27.7750361,66.8920744 27.7750361,66.8920744 C32.4366522,68.4908093 35.1004329,66.2259349 35.2336219,66.092707 Z" id="Path" fill="#0E0F2D" opacity="0.33"></path>
                        <path d="M15.7880231,75.5518884 C15.7880231,75.5518884 29.9060606,77.8167628 33.9017316,75.1522047 C34.5676768,75.6851163 34.4344877,76.4844837 34.4344877,76.4844837 C34.4344877,76.4844837 29.7728716,79.2822698 15.7880231,76.7509395 L15.7880231,75.5518884 Z" id="Path" fill="#F6F6F6"></path>
                        <g transform="translate(0.870851, 0.000000)">
                            <g id="Path">
                                <path d="M41.0222222,34.2512372 C41.0222222,34.2512372 41.0222222,34.2512372 41.0222222,34.2512372 C39.2907648,38.3813023 35.4282828,44.2433302 31.0330447,45.7088372 C29.8343434,46.1085209 28.236075,46.2417488 26.6378066,45.975293 C26.1050505,45.975293 25.5722944,45.8420651 25.0395382,45.7088372 C19.3124098,44.509786 12.3865801,40.246493 8.92366522,33.3186419 C8.92366522,33.3186419 8.92366522,33.3186419 8.92366522,33.3186419 C8.92366522,33.3186419 8.92366522,33.3186419 8.92366522,33.3186419 C8.92366522,33.3186419 3.1965368,35.7167442 2.7969697,27.7230698 C2.7969697,27.7230698 2.53059163,22.9268651 5.46075036,23.9926884 L8.92366522,23.9926884 L8.92366522,11.602493 C8.92366522,11.602493 9.05685426,11.4692651 9.45642136,11.3360372 C12.2533911,9.87053023 25.7054834,3.74204651 38.3584416,11.3360372 C38.4916306,11.4692651 38.6248196,11.4692651 38.8911977,11.602493 C38.8911977,11.602493 39.4239538,25.8578791 41.1554113,30.5208558 C41.5549784,31.5866791 41.5549784,33.052186 41.0222222,34.2512372 Z" fill="#F2B066"></path>
                                <path d="M26.7709957,45.975293 C26.6378066,45.975293 26.6378066,45.975293 26.7709957,45.975293 C26.1050505,45.8420651 25.7054834,45.8420651 25.1727273,45.7088372 C19.4455988,44.509786 12.5197691,40.246493 9.05685426,33.3186419 C9.05685426,33.3186419 9.05685426,33.3186419 9.05685426,33.3186419 C9.05685426,33.3186419 9.05685426,33.3186419 9.05685426,33.3186419 C9.05685426,33.3186419 3.32972583,35.7167442 2.93015873,27.7230698 C2.93015873,27.7230698 2.66378066,22.9268651 5.59393939,23.9926884 L5.86031746,23.9926884 C6.92582973,24.7920558 7.32539683,13.6009116 8.25772006,17.4645209 L10.3887446,16.9316093 C10.3887446,16.9316093 13.3189033,15.7325581 12.3865801,19.3297116 C9.05685426,31.1869953 13.0525253,41.712 26.7709957,45.975293 Z" fill="#9D644D" opacity="0.43"></path>
                                <path d="M10.1223665,19.9958512 C10.1223665,19.9958512 25.5722944,14.6667349 28.6356421,11.4692651 C31.2994228,13.2012279 39.2907648,17.5977488 39.2907648,17.5977488 L39.0243867,14.4002791 L29.8343434,5.20755349 L8.92366522,14.533507 L10.1223665,19.9958512 Z" fill="#9D644D" opacity="0.43"></path>
                                <path d="M6.39307359,31.5866791 C6.12669553,31.5866791 5.86031746,31.4534512 5.59393939,31.3202233 C5.46075036,31.3202233 5.46075036,31.1869953 5.59393939,31.1869953 C5.59393939,31.0537674 5.72712843,31.0537674 5.72712843,31.1869953 C5.99350649,31.3202233 6.39307359,31.4534512 6.65945166,31.3202233 C6.92582973,31.0537674 6.79264069,29.8547163 6.25988456,29.1885767 C6.12669553,28.9221209 6.12669553,28.788893 6.12669553,28.6556651 C6.25988456,28.5224372 6.39307359,28.3892093 6.79264069,28.3892093 C6.92582973,28.3892093 7.05901876,28.3892093 7.19220779,28.2559814 C7.32539683,28.1227535 7.19220779,27.9895256 7.19220779,27.8562977 C6.65945166,27.1901581 5.72712843,26.1243349 4.92799423,26.3907907 C4.52842713,26.5240186 4.3952381,26.6572465 4.26204906,26.9237023 C4.12886003,27.323386 4.52842713,27.8562977 4.52842713,27.8562977 C4.52842713,27.8562977 4.52842713,27.9895256 4.52842713,28.1227535 C4.52842713,28.1227535 4.3952381,28.1227535 4.26204906,28.1227535 C4.26204906,28.1227535 3.72929293,27.5898419 3.86248196,26.9237023 C3.995671,26.5240186 4.26204906,26.3907907 4.66161616,26.1243349 C5.59393939,25.7246512 6.52626263,26.7904744 7.19220779,27.7230698 C7.32539683,27.9895256 7.32539683,28.2559814 7.19220779,28.3892093 C7.05901876,28.6556651 6.79264069,28.6556651 6.52626263,28.6556651 C6.12669553,28.6556651 6.12669553,28.788893 6.12669553,28.788893 C6.12669553,28.788893 6.12669553,28.9221209 6.12669553,29.0553488 C6.52626263,29.5882605 6.92582973,31.0537674 6.39307359,31.5866791 C6.79264069,31.5866791 6.65945166,31.5866791 6.39307359,31.5866791 Z" fill="#352113"></path>
                                <g transform="translate(14.650794, 22.188279)">
                                    <path d="M7.59177489,3.93605581 C7.59177489,3.93605581 7.85815296,0.871813953 5.32756133,0.338902326 C2.7969697,-0.194009302 1.9978355,2.33732093 1.9978355,2.33732093 C1.9978355,2.33732093 4.3952381,1.13826977 7.59177489,3.93605581 Z" fill="#352113" opacity="0.3"></path>
                                    <path d="M1.9978355,2.20409302 C1.9978355,2.20409302 1.73145743,4.46896744 4.26204906,5.26833488 C6.79264069,5.93447442 8.52409812,4.46896744 7.19220779,3.40314419 C5.99350649,2.47054884 3.72929293,1.6711814 1.9978355,2.20409302 Z" fill="#FFFFFF"></path>
                                    <g transform="translate(0.000000, 1.332279)" fill="#3F210D">
                                        <path d="M6.92582973,2.60377674 C6.92582973,3.40314419 6.39307359,4.06928372 5.72712843,4.20251163 C5.06118326,4.20251163 4.3952381,3.53637209 4.3952381,2.73700465 C4.3952381,1.93763721 4.92799423,1.27149767 5.59393939,1.13826977 C6.25988456,1.00504186 6.92582973,1.6711814 6.92582973,2.60377674 Z"></path>
                                        <g>
                                            <path d="M7.59177489,2.60377674 C7.59177489,2.47054884 7.59177489,2.47054884 7.45858586,2.33732093 C7.45858586,2.20409302 7.32539683,2.07086512 7.32539683,2.07086512 C7.19220779,1.93763721 7.19220779,1.8044093 7.05901876,1.6711814 C6.92582973,1.53795349 6.79264069,1.40472558 6.65945166,1.27149767 C6.52626263,1.13826977 6.25988456,1.00504186 6.12669553,0.871813953 C5.86031746,0.738586047 5.72712843,0.738586047 5.46075036,0.60535814 C5.19437229,0.60535814 4.92799423,0.472130233 4.79480519,0.472130233 C4.66161616,0.472130233 4.66161616,0.472130233 4.52842713,0.472130233 C4.3952381,0.472130233 4.26204906,0.472130233 4.12886003,0.472130233 C3.86248196,0.472130233 2.26421356,0.60535814 1.73145743,0.472130233 C1.46507937,0.472130233 1.06551227,0.338902326 0.799134199,0.338902326 C0.799134199,0.338902326 0.3995671,0.205674419 0.266378066,0.205674419 C0.266378066,0.338902326 0.665945166,0.60535814 0.665945166,0.60535814 C0.932323232,0.738586047 1.1987013,0.871813953 1.46507937,1.00504186 C1.73145743,1.13826977 1.86464646,1.40472558 1.9978355,1.6711814 C1.9978355,1.6711814 2.13102453,0.871813953 2.93015873,0.871813953 C2.93015873,0.871813953 3.06334776,0.871813953 3.06334776,0.871813953 C3.1965368,0.871813953 3.32972583,0.871813953 3.5961039,0.871813953 C3.72929293,0.871813953 3.995671,0.871813953 4.12886003,0.871813953 C4.26204906,0.871813953 4.52842713,0.871813953 4.66161616,1.00504186 C4.79480519,1.00504186 5.06118326,1.13826977 5.19437229,1.13826977 C5.32756133,1.13826977 5.59393939,1.27149767 5.72712843,1.27149767 C5.86031746,1.27149767 5.86031746,1.40472558 5.99350649,1.40472558 C6.12669553,1.40472558 6.12669553,1.53795349 6.25988456,1.53795349 C6.39307359,1.6711814 6.52626263,1.6711814 6.65945166,1.8044093 C6.79264069,1.93763721 6.92582973,1.93763721 7.05901876,2.07086512 C7.32539683,2.20409302 7.45858586,2.47054884 7.59177489,2.47054884 C7.72496392,2.60377674 7.72496392,2.60377674 7.72496392,2.60377674 C7.72496392,2.60377674 7.59177489,2.73700465 7.59177489,2.60377674 Z"></path>
                                            <path d="M1.46507937,1.00504186 C1.46507937,1.00504186 0.3995671,0.738586047 0.266378066,0.60535814 C0.532756133,0.871813953 1.9978355,1.6711814 1.9978355,1.6711814 C1.86464646,1.6711814 1.86464646,1.27149767 1.46507937,1.00504186 Z"></path>
                                        </g>
                                    </g>
                                </g>
                                <g transform="translate(31.965368, 22.648744)">
                                    <path d="M0.3995671,3.20913488 C0.3995671,3.20913488 0.3995671,0.411348837 2.7969697,0.144893023 C5.19437229,-0.121562791 5.72712843,2.27653953 5.72712843,2.27653953 C5.72712843,2.27653953 3.5961039,1.07748837 0.3995671,3.20913488 Z" fill="#352113" opacity="0.3"></path>
                                    <path d="M5.72712843,2.27653953 C5.72712843,2.27653953 5.72712843,4.40818605 3.32972583,4.80786977 C0.932323232,5.20755349 -0.532756133,3.6088186 0.799134199,2.80945116 C1.9978355,2.14331163 4.26204906,1.6104 5.72712843,2.27653953 Z" fill="#FFFFFF"></path>
                                    <g transform="translate(0.000000, 1.743628)" fill="#3F210D">
                                        <path d="M2.53059163,1.59873488 C2.53059163,2.39810233 3.06334776,2.93101395 3.72929293,2.93101395 C4.3952381,2.93101395 4.92799423,2.26487442 4.92799423,1.59873488 C4.92799423,0.799367442 4.3952381,0.266455814 3.72929293,0.266455814 C2.93015873,0.266455814 2.53059163,0.932595349 2.53059163,1.59873488 Z"></path>
                                        <g>
                                            <path d="M0.3995671,1.46550698 C0.3995671,1.46550698 0.3995671,1.33227907 0.532756133,1.19905116 C0.532756133,1.06582326 0.665945166,1.06582326 0.665945166,0.932595349 C0.799134199,0.799367442 0.799134199,0.666139535 0.932323232,0.666139535 C1.06551227,0.532911628 1.1987013,0.399683721 1.33189033,0.399683721 C1.46507937,0.266455814 1.73145743,0.266455814 1.86464646,0.133227907 C1.9978355,4.73320608e-15 2.26421356,4.73320608e-15 2.53059163,4.73320608e-15 C2.7969697,4.73320608e-15 2.93015873,4.73320608e-15 3.1965368,4.73320608e-15 C3.32972583,4.73320608e-15 3.32972583,4.73320608e-15 3.46291486,4.73320608e-15 C3.5961039,4.73320608e-15 3.72929293,4.73320608e-15 3.86248196,4.73320608e-15 C3.995671,4.73320608e-15 5.59393939,0.266455814 5.99350649,0.266455814 C6.25988456,0.266455814 6.52626263,0.266455814 6.79264069,0.133227907 C6.79264069,0.133227907 7.19220779,4.73320608e-15 7.19220779,0.133227907 C7.19220779,0.266455814 6.79264069,0.399683721 6.79264069,0.399683721 C6.52626263,0.532911628 6.25988456,0.532911628 5.99350649,0.799367442 C5.72712843,0.932595349 5.59393939,1.19905116 5.46075036,1.33227907 C5.46075036,1.33227907 5.46075036,0.666139535 4.66161616,0.532911628 C4.66161616,0.532911628 4.52842713,0.532911628 4.52842713,0.532911628 C4.3952381,0.532911628 4.26204906,0.532911628 4.12886003,0.532911628 C3.995671,0.532911628 3.86248196,0.532911628 3.5961039,0.532911628 C3.46291486,0.532911628 3.1965368,0.532911628 3.06334776,0.532911628 C2.93015873,0.532911628 2.66378066,0.532911628 2.53059163,0.532911628 C2.3974026,0.532911628 2.26421356,0.532911628 1.9978355,0.666139535 C1.86464646,0.666139535 1.86464646,0.666139535 1.73145743,0.799367442 C1.5982684,0.799367442 1.5982684,0.799367442 1.46507937,0.932595349 C1.33189033,0.932595349 1.1987013,1.06582326 1.06551227,1.06582326 C0.932323232,1.19905116 0.799134199,1.19905116 0.665945166,1.33227907 C0.3995671,1.46550698 0.266378066,1.59873488 0.133189033,1.73196279 C9.46365e-15,1.8651907 9.46365e-15,1.8651907 9.46365e-15,1.8651907 C9.46365e-15,1.8651907 0.3995671,1.59873488 0.3995671,1.46550698 Z"></path>
                                            <path d="M6.25988456,0.799367442 C6.25988456,0.799367442 7.32539683,0.666139535 7.45858586,0.666139535 C7.19220779,0.932595349 5.72712843,1.46550698 5.72712843,1.46550698 C5.72712843,1.19905116 5.72712843,0.932595349 6.25988456,0.799367442 Z"></path>
                                        </g>
                                    </g>
                                </g>
                                <g transform="translate(20.439394, 35.050605)">
                                    <g>
                                        <path d="M6.33160173,7.19430698 C6.33160173,7.19430698 6.5979798,7.19430698 6.9975469,7.32753488 C7.13073593,7.32753488 7.397114,7.32753488 7.66349206,7.46076279 C7.92987013,7.46076279 8.1962482,7.5939907 8.32943723,7.5939907 C8.46262626,7.5939907 8.5958153,7.5939907 8.72900433,7.5939907 C8.86219336,7.5939907 8.9953824,7.5939907 9.12857143,7.5939907 C9.26176046,7.5939907 9.39494949,7.5939907 9.39494949,7.5939907 C9.52813853,7.5939907 9.52813853,7.5939907 9.66132756,7.5939907 C9.79451659,7.5939907 9.79451659,7.5939907 9.92770563,7.46076279 C10.0608947,7.46076279 10.0608947,7.46076279 10.0608947,7.32753488 C10.1940837,7.32753488 10.1940837,7.19430698 10.1940837,7.19430698 C10.1940837,7.19430698 10.1940837,7.19430698 10.0608947,7.32753488 C10.0608947,7.32753488 9.92770563,7.46076279 9.92770563,7.46076279 C9.92770563,7.46076279 9.79451659,7.5939907 9.66132756,7.5939907 C9.66132756,7.5939907 9.52813853,7.5939907 9.52813853,7.5939907 C9.52813853,7.5939907 9.39494949,7.5939907 9.39494949,7.5939907 C9.26176046,7.5939907 9.12857143,7.5939907 8.9953824,7.5939907 C8.72900433,7.5939907 8.46262626,7.5939907 8.1962482,7.5939907 C7.92987013,7.5939907 7.66349206,7.46076279 7.53030303,7.46076279 C7.26392496,7.46076279 7.13073593,7.32753488 6.86435786,7.32753488 C6.46479076,7.32753488 6.33160173,7.19430698 6.33160173,7.19430698 Z" fill="#9D644D" opacity="0.43"></path>
                                        <g>
                                            <path d="M13.9233766,1.46550698 C13.9233766,1.46550698 13.9233766,1.46550698 13.9233766,1.46550698 C13.9233766,1.59873488 13.7901876,1.8651907 13.3906205,2.39810233 C13.2574315,2.53133023 12.7246753,3.06424186 12.7246753,3.19746977 C11.9255411,3.99683721 10.5936508,4.79620465 8.9953824,4.66297674 C6.86435786,4.52974884 4.86652237,3.7303814 3.26825397,2.79778605 C2.86868687,2.53133023 2.46911977,2.26487442 2.06955267,1.9984186 C2.06955267,1.9984186 2.06955267,1.9984186 2.06955267,1.9984186 C1.93636364,1.9984186 1.93636364,1.8651907 1.8031746,1.8651907 C1.8031746,1.8651907 1.8031746,1.8651907 1.8031746,1.8651907 C1.4036075,1.59873488 1.0040404,1.19905116 0.737662338,0.932595349 C0.604473304,0.799367442 0.471284271,0.666139535 0.338095238,0.399683721 C0.604473304,0.666139535 1.0040404,0.799367442 1.4036075,1.06582326 C2.33593074,1.46550698 3.66782107,1.9984186 4.86652237,2.13164651 C6.5979798,2.26487442 8.5958153,2.39810233 10.1940837,2.26487442 C12.3251082,1.8651907 13.9233766,1.46550698 13.9233766,1.46550698 Z" fill="#8E4E45"></path>
                                            <path d="M13.9233766,1.46550698 C13.9233766,1.46550698 13.9233766,1.46550698 13.9233766,1.46550698 C13.9233766,1.59873488 13.7901876,1.8651907 13.3906205,2.39810233 C6.86435786,4.13006512 2.06955267,1.8651907 1.8031746,1.73196279 C1.8031746,1.73196279 1.8031746,1.73196279 1.8031746,1.73196279 C1.4036075,1.46550698 1.0040404,1.06582326 0.737662338,0.799367442 C0.604473304,0.666139535 0.471284271,0.532911628 0.338095238,0.266455814 C0.604473304,0.532911628 1.0040404,0.666139535 1.4036075,0.932595349 C5.26608947,2.53133023 13.9233766,1.46550698 13.9233766,1.46550698 Z" fill="#F6F6F6"></path>
                                        </g>
                                    </g>
                                    <g>
                                        <g>
                                            <path d="M9.66132756,0.532911628 C9.12857143,0.532911628 8.86219336,0.932595349 8.72900433,1.33227907 C8.46262626,0.932595349 8.1962482,0.532911628 7.7966811,0.532911628 C7.13073593,0.532911628 1.0040404,0.799367442 0.338095238,0.266455814 C0.338095238,0.266455814 2.2027417,2.26487442 8.9953824,1.8651907 C9.92770563,1.8651907 12.4582973,1.59873488 13.7901876,1.46550698 C13.1242424,1.46550698 12.3251082,0.666139535 9.66132756,0.532911628 Z" fill="#D44931"></path>
                                            <path d="M13.9233766,1.46550698 C13.9233766,1.46550698 13.7901876,1.46550698 13.7901876,1.46550698 C13.7901876,1.46550698 13.9233766,1.46550698 13.9233766,1.46550698 Z" fill="#CE755F"></path>
                                        </g>
                                        <path d="M0.338095238,0.266455814 C0.604473304,0.799367442 1.13722944,1.06582326 1.66998557,1.46550698 C3.53463203,2.93101395 6.06522367,4.13006512 8.46262626,4.39652093 C9.26176046,4.52974884 10.1940837,4.39652093 10.9932179,4.13006512 C11.525974,3.99683721 11.9255411,3.7303814 12.3251082,3.33069767 C12.8578644,2.79778605 13.2574315,2.39810233 13.6569986,1.9984186 C12.9910534,3.33069767 11.6591631,6.39493953 9.12857143,6.26171163 C6.5979798,6.12848372 3.8010101,5.59557209 0.338095238,0.266455814 Z" fill="#D44931"></path>
                                    </g>
                                </g>
                                <path d="M23.0417027,20.262307 C23.0417027,20.262307 23.0417027,19.1964837 22.5089466,19.0632558 C21.9761905,18.9300279 19.0460317,18.1306605 17.4477633,18.6635721 C15.8494949,19.1964837 15.7163059,19.5961674 15.7163059,19.5961674 C15.7163059,19.5961674 17.8473304,19.0632558 19.8451659,19.5961674 C21.8430014,20.262307 23.1748918,20.7952186 23.0417027,20.262307 Z" fill="#352113"></path>
                                <path d="M32.231746,20.7952186 C32.231746,20.7952186 32.231746,19.7293953 32.6313131,19.5961674 C33.0308802,19.4629395 35.5614719,18.7968 36.8933622,19.1964837 C38.3584416,19.7293953 38.3584416,20.1290791 38.3584416,20.1290791 C38.3584416,20.1290791 36.4937951,19.5961674 34.8955267,20.1290791 C33.4304473,20.6619907 32.231746,21.3281302 32.231746,20.7952186 Z" fill="#352113"></path>
                                <path d="M4.3952381,23.7262326 C4.3952381,23.7262326 5.86031746,23.1933209 7.19220779,25.5914233 C8.52409812,27.9895256 9.32323232,30.2544 9.32323232,30.2544 C9.32323232,30.2544 8.52409812,12.2686326 13.9848485,11.7357209 C19.4455988,11.2028093 6.39307359,10.0037581 5.46075036,10.136986 C4.66161616,10.4034419 3.06334776,20.262307 4.3952381,23.7262326 Z" fill="#241405"></path>
                                <path d="M42.2209235,13.068 C42.0877345,15.865786 39.4239538,20.9284465 39.4239538,20.9284465 C39.4239538,20.9284465 39.2907648,19.5961674 39.1575758,17.5977488 C38.3584416,16.6651535 29.5679654,11.4692651 28.6356421,10.136986 C28.6356421,10.136986 28.6356421,10.136986 28.6356421,10.136986 C28.5024531,10.4034419 28.236075,10.6698977 27.969697,10.9363535 C24.240404,14.533507 9.98917749,18.3971163 9.98917749,18.3971163 L5.19437229,23.7262326 C3.86248196,23.4597767 3.46291486,24.2591442 3.46291486,24.2591442 C3.46291486,24.2591442 -3.995671,22.6604093 3.86248196,8.27179535 C9.58961039,-2.38643721 21.5766234,-0.121562791 28.6356421,1.07748837 C38.6248196,0.544576744 40.8890332,9.73730233 42.0877345,11.7357209 C42.2209235,12.1354047 42.3541126,12.5350884 42.2209235,13.068 Z" fill="#241405"></path>
                                <path d="M28.6356421,10.270214 C28.6356421,10.270214 28.6356421,10.136986 28.6356421,10.270214 C26.5046176,14.0005953 9.98917749,18.5303442 9.98917749,18.5303442 C7.45858586,18.5303442 27.4369408,13.6009116 28.6356421,5.3407814 C28.6356421,5.3407814 29.8343434,7.47242791 28.6356421,10.270214 Z" fill="#241405"></path>
                                <path d="M26.1050505,32.6525023 C26.1050505,32.6525023 30.2339105,33.3186419 31.0330447,31.8531349 C31.2994228,33.4518698 28.5024531,35.0506047 26.1050505,32.6525023 Z" fill="#9D644D" opacity="0.43"></path>
                            </g>
                            <g transform="translate(5.788600, 31.974698)">
                                <ellipse id="Oval" fill="#FFFFFF" cx="1.93636364" cy="1.87685581" rx="1.86464646" ry="1.8651907"></ellipse>
                                <path d="M2.73549784,3.20913488 C1.66998557,3.20913488 0.870851371,2.40976744 0.870851371,1.34394419 C0.870851371,0.811032558 1.0040404,0.411348837 1.4036075,0.144893023 C0.604473304,0.411348837 0.0717171717,1.07748837 0.0717171717,1.87685581 C0.0717171717,2.94267907 0.870851371,3.74204651 1.93636364,3.74204651 C2.46911977,3.74204651 3.0018759,3.4755907 3.26825397,3.20913488 C3.13506494,3.20913488 2.86868687,3.20913488 2.73549784,3.20913488 Z" id="Path" fill="#EAEAEA"></path>
                            </g>
                        </g>
                        <path d="M56.4106782,47.5740279 C56.4106782,47.5740279 53.6137085,46.2417488 52.4150072,47.8404837 C51.2163059,49.3059907 52.2818182,52.1037767 56.8102453,53.8357395 C61.2054834,55.5677023 56.4106782,47.5740279 56.4106782,47.5740279 Z" id="Path" fill="#F2B066"></path>
                        <g transform="translate(8.862193, 52.370233)" id="Path">
                            <path d="M13.0525253,19.7177302 C12.2533911,18.3854512 8.52409812,7.7272186 6.79264069,2.79778605 C6.25988456,1.19905116 4.79480519,0.266455814 3.1965368,0.399683721 C2.26421356,0.399683721 1.46507937,0.932595349 0.932323232,1.73196279 C0.3995671,2.53133023 0.266378066,3.46392558 0.665945166,4.26329302 C3.06334776,11.1911442 8.39090909,25.5797581 11.3210678,26.2458977 C15.0503608,27.3117209 27.1705628,19.1848186 27.1705628,19.1848186 L25.1727273,15.9873488 C25.1727273,15.9873488 13.9848485,21.449693 13.0525253,19.7177302 Z" fill="#F2B066"></path>
                            <g transform="translate(23.564214, 9.786419)">
                                <path d="M1.87489177,10.1977674 C1.87489177,10.1977674 8.26796537,8.06612093 8.53434343,7.13352558 C8.93391053,6.20093023 6.13694084,2.33732093 5.2046176,2.60377674 C4.40548341,2.87023256 0.143434343,6.86706977 0.143434343,6.86706977 L1.87489177,10.1977674 Z" fill="#F2B066"></path>
                                <path d="M8.13477633,0.338902326 L4.27229437,3.26991628 L4.93823954,4.20251163 L8.8007215,1.40472558 C9.06709957,1.13826977 9.2002886,0.738586047 8.93391053,0.472130233 C8.8007215,0.205674419 8.4011544,0.205674419 8.13477633,0.338902326 Z" fill="url(#linearGradient-1)"></path>
                                <path d="M2.67402597,3.26991628 C2.67402597,3.26991628 1.47532468,5.26833488 1.60851371,6.20093023 C1.74170274,7.00029767 1.60851371,7.5332093 1.60851371,7.5332093 L3.60634921,5.5347907 C3.60634921,5.5347907 4.53867244,2.33732093 4.40548341,2.07086512 C4.40548341,2.07086512 3.73953824,1.13826977 3.60634921,1.40472558 C3.47316017,1.6711814 2.67402597,3.26991628 2.67402597,3.26991628 Z" fill="#F2B066"></path>
                            </g>
                        </g>
                        <path d="M65.8670996,56.8999814 C66.2666667,55.7009302 70.7950938,34.9173767 70.7950938,34.9173767 L59.0744589,34.3844651 L53.7468975,57.1664372 L65.8670996,56.8999814 Z" id="Path" fill="#000000"></path>
                        <path d="M67.1989899,46.1085209 C67.1989899,46.1085209 61.0722944,43.3107349 61.4718615,42.5113674 C61.8714286,41.5787721 69.9959596,45.0426977 70.3955267,45.1759256 C70.7950938,45.4423814 69.7295815,47.9737116 69.7295815,48.906307 C69.7295815,49.8389023 69.9959596,51.9705488 68.9304473,53.4360558 C67.8649351,54.9015628 64.9347763,55.7009302 64.9347763,55.7009302 L66.1334776,51.8373209 C66.1334776,51.8373209 60.8059163,51.1711814 60.8059163,50.9047256 C60.8059163,50.6382698 61.8714286,50.238586 61.8714286,50.238586 C61.8714286,50.238586 59.0744589,50.1053581 58.8080808,49.4392186 C58.5417027,48.7730791 60.2731602,48.7730791 60.2731602,48.7730791 C60.2731602,48.7730791 58.5417027,48.3733953 58.5417027,47.9737116 C58.5417027,47.5740279 61.7382395,46.9078884 62.8037518,46.6414326 C63.8692641,46.3749767 67.1989899,46.1085209 67.1989899,46.1085209 Z" id="Path" fill="#F2B066"></path>
                    </g>
                </g>
                <text id="Jane,-an-employee,-d" font-family="Montserrat-Medium, Montserrat" font-size="12" font-weight="400" line-spacing="18" fill="#0F84A9">
                    <tspan x="28.996" y="117">Jane, an employee, downloads </tspan>
                    <tspan x="15.616" y="135">TESTD app and creates a biometric </tspan>
                    <tspan x="41.146" y="153">profile Face ID or Touch ID</tspan>
                </text>
            </g>
        </g>
    </g>
</svg>