<?xml version="1.0" encoding="UTF-8"?>
<svg width="113px" height="100px" viewBox="0 0 113 100" version="1.1" xmlns="http://www.w3.org/2000/svg" xmlns:xlink="http://www.w3.org/1999/xlink">
    <title>3B4FA9DC-DECE-4743-A49B-6CA098EDF874</title>
    <defs>
        <radialGradient cx="50.1952941%" cy="49.8984375%" fx="50.1952941%" fy="49.8984375%" r="53.4658824%" gradientTransform="translate(0.501953,0.498984),scale(1.000000,0.877956),translate(-0.501953,-0.498984)" id="radialGradient-1">
            <stop stop-color="#FFFFFF" offset="50.53%"></stop>
            <stop stop-color="#ECE6E1" offset="100%"></stop>
        </radialGradient>
    </defs>
    <g id="Page-1" stroke="none" stroke-width="1" fill="none" fill-rule="evenodd">
        <g id="how_testd_works" transform="translate(-324.000000, -401.000000)">
            <g id="2_profile3" transform="translate(325.000000, 401.000000)">
                <path d="M97.6313869,91 C97.4963504,91 97.3613139,91 97.0912409,91 L9.04744526,85.4657795 C4.86131387,85.1958175 1.62043796,82.4961977 1.48540146,79.256654 L0,26.8840304 C0,25.5342205 0.540145985,24.1844106 1.62043796,22.9695817 C3.10583942,21.4847909 5.40145985,20.539924 7.83211679,20.539924 L104.788321,20 C106.813869,20 108.569343,20.6749049 109.784672,21.8897338 C110.324818,22.5646388 111,23.5095057 111,24.8593156 L103.843066,86.4106464 C103.572993,88.9752852 100.737226,91 97.6313869,91 Z" id="XMLID_1_" stroke="#FDCA21" fill="#0F84A9" fill-rule="nonzero"></path>
                <polygon id="Path" fill="#D1955A" fill-rule="nonzero" points="73 45.3854167 70 42 70 55"></polygon>
                <path d="M42.2681159,66.4008097 C42.2681159,66.4008097 42.2681159,66.534413 42.4021739,66.534413 C42.4021739,66.534413 42.5362319,66.6680162 42.5362319,66.6680162 C42.5362319,66.8016194 42.6702899,66.8016194 42.6702899,66.9352227 C42.6702899,66.9352227 42.6702899,66.9352227 42.6702899,66.9352227 L42.6702899,66.9352227 C42.6702899,67.0688259 42.8043478,67.0688259 42.8043478,67.2024291 C42.8043478,67.2024291 42.9384058,67.3360324 42.9384058,67.3360324 C42.9384058,67.4696356 43.0724638,67.4696356 43.0724638,67.6032389 C43.0724638,67.6032389 43.0724638,67.6032389 43.0724638,67.6032389 C43.0724638,67.6032389 43.0724638,67.7368421 43.2065217,67.7368421 C43.3405797,67.8704453 43.3405797,68.0040486 43.4746377,68.1376518 C43.4746377,68.1376518 43.4746377,68.1376518 43.4746377,68.1376518 C43.4746377,68.1376518 43.6086957,68.2712551 43.6086957,68.2712551 C43.7427536,68.4048583 43.8768116,68.5384615 43.8768116,68.805668 C44.0108696,68.9392713 44.0108696,69.0728745 44.1449275,69.2064777 C44.2789855,69.340081 44.2789855,69.4736842 44.4130435,69.6072874 C44.4130435,69.7408907 44.5471014,69.7408907 44.5471014,69.8744939 C44.6811594,70.1417004 44.8152174,70.4089069 45.0833333,70.6761134 C45.0833333,70.6761134 45.0833333,70.6761134 45.0833333,70.6761134 C45.2173913,70.8097166 45.3514493,71.0769231 45.4855072,71.2105263 C45.4855072,71.3441296 45.6195652,71.3441296 45.6195652,71.4777328 C45.6195652,71.611336 45.7536232,71.611336 45.7536232,71.7449393 C45.7536232,71.8785425 45.8876812,71.8785425 45.8876812,72.0121457 C46.0217391,72.145749 46.0217391,72.2793522 46.1557971,72.4129555 C46.2898551,72.5465587 46.423913,72.6801619 46.423913,72.9473684 C46.423913,73.0809717 46.557971,73.0809717 46.557971,73.2145749 C47.6304348,74.6842105 48.7028986,76.4210526 49.9094203,78.0242915 C50.3115942,78.5587045 50.5797101,78.9595142 50.9818841,79.4939271 C51.115942,79.6275304 51.115942,79.7611336 51.25,79.8947368 C51.384058,80.1619433 51.5181159,80.2955466 51.6521739,80.562753 C51.7862319,80.6963563 51.7862319,80.8299595 51.9202899,80.9635628 C52.0543478,81.097166 52.1884058,81.2307692 52.3224638,81.4979757 C52.4565217,81.7651822 52.7246377,82.0323887 52.8586957,82.1659919 C52.8586957,82.1659919 52.8586957,82.1659919 52.8586957,82.1659919 C52.9927536,82.2995951 52.9927536,82.4331984 53.1268116,82.5668016 C53.1268116,82.5668016 53.2608696,82.7004049 53.2608696,82.7004049 C53.2608696,82.7004049 53.3949275,82.8340081 53.3949275,82.8340081 C53.3949275,82.8340081 53.5289855,82.9676113 53.5289855,82.9676113 C53.6630435,83.1012146 53.6630435,83.2348178 53.7971014,83.3684211 C53.7971014,83.3684211 53.9311594,83.5020243 53.9311594,83.5020243 C53.9311594,83.5020243 54.0652174,83.6356275 54.0652174,83.6356275 C55.807971,85.9068826 57.5507246,87.7773279 58.6231884,88.7125506 C58.6231884,88.7125506 58.6231884,88.7125506 58.7572464,88.8461538 C58.8913043,88.8461538 58.8913043,88.9797571 59.0253623,88.9797571 C59.2934783,89.2469636 59.6956522,89.51417 59.8297101,89.7813765 C60.365942,90.4493927 61.3043478,91.7854251 62.3768116,93.7894737 C62.3768116,93.9230769 62.5108696,94.0566802 62.5108696,94.1902834 C62.9130435,94.8582996 63.3152174,95.659919 63.7173913,96.5951417 C63.7173913,96.7287449 63.8514493,96.8623482 63.8514493,96.9959514 L63.8514493,96.9959514 C64.1195652,97.6639676 64.3876812,98.3319838 64.6557971,99 L79,99 L75.7826087,89.9149798 L75.7826087,89.9149798 L74.307971,86.1740891 L74.307971,86.0404858 L66.6666667,66.8016194 L66.6666667,66.6680162 L66.6666667,66.534413 L66.3985507,66 L42,66 C42,66 42.134058,66.1336032 42.2681159,66.4008097 C42.2681159,66.4008097 42.2681159,66.4008097 42.2681159,66.4008097 Z" id="Path" fill="#F2B066" fill-rule="nonzero"></path>
                <path d="M37.5790037,32 L38,26.08 C38,26.08 36.596679,25.76 35.8950186,26.4 C35.1933581,26.88 33.649705,28.8 37.5790037,32 Z" id="Path" fill="#F2F2F2" fill-rule="nonzero"></path>
                <path d="M39,34 L39,27.0609192 C39,27.0609192 37.4474036,26.7525156 36.8004885,27.5235246 C36.1535733,28.4487354 34.6009769,30.7617623 39,34 Z" id="Path" fill="#F2B066" fill-rule="nonzero"></path>
                <path d="M37.1886376,26.5333333 C37.5767866,26.1333333 38.0943188,26 38.6118509,26 C38.0943188,26 37.3180206,26 36.8004885,26.5333333 C36.1535733,27.2 34.6009769,29.2 39,32 L39,31.7333333 C34.989126,29.2 36.5417224,27.2 37.1886376,26.5333333 Z" id="Path" fill="#F2F2F2" fill-rule="nonzero" opacity="0.1"></path>
                <path d="M36.8392857,34.3457642 L37,41 C37,41 32.8214286,39.6691528 31.8571429,38.3383057 C31.8571429,38.3383057 29.9285714,36.2089502 31.8571429,34.7450184 C32.3392857,34.3457642 32.9821429,34.2126795 33.625,34.0795948 C34.2678571,33.9465101 35.3928571,33.9465101 36.8392857,34.3457642 Z" id="Path" fill="#F2F2F2" fill-rule="nonzero"></path>
                <path d="M39,33.4285714 L39,42 C39,42 34.05,40.1428571 33,38.5714286 C33,38.5714286 30.75,35.7142857 33,33.8571429 C33.6,33.4285714 34.35,33.1428571 35.1,33 C36,33 37.35,33 39,33.4285714 Z" id="Path" fill="#F2B066" fill-rule="nonzero"></path>
                <path d="M33.6,38.6551724 C33.6,38.6551724 31.35,35.8965517 33.6,34.1034483 C34.2,33.6896552 34.95,33.4137931 35.7,33.2758621 C36.45,33.2758621 37.5,33.2758621 39,33.5517241 L39,33.4137931 C37.35,33 36,33 35.1,33 C34.35,33 33.6,33.2758621 33,33.8275862 C30.75,35.6206897 33,38.3793103 33,38.3793103 C33.6,39.3448276 35.7,40.4482759 37.35,41 C35.7,40.3103448 34.05,39.4827586 33.6,38.6551724 Z" id="Path" fill="#F2F2F2" fill-rule="nonzero" opacity="0.1"></path>
                <path d="M36,42.6967048 C36,42.5596767 34.2702703,42.0115641 34.0540541,42.0115641 C32.8648649,41.8745359 32,42.9707611 32,44.4780709 C32,45.8483524 32.8648649,47.218634 33.9459459,47.9037748 C34.1621622,48.0408029 36,48.8629718 36,49 C36,49 36,42.6967048 36,42.6967048 Z" id="Path" fill="#F2F2F2" fill-rule="nonzero"></path>
                <path d="M38,42.9930016 C38,42.8525279 35.3530817,42.1501597 35.0744587,42.009686 C33.2634093,41.8692123 31.8702944,43.2739489 32.0096059,45.1001064 C32.1489174,46.926264 33.4027208,48.6119478 34.9351472,49.3143161 C35.2137702,49.4547898 38,50.8595263 38,51 C38,51 38,42.9930016 38,42.9930016 Z" id="Path" fill="#F2B066" fill-rule="nonzero"></path>
                <g id="Group" opacity="0.1" transform="translate(32.000000, 42.000000)" fill-rule="nonzero">
                    <g fill="#F2F2F2" id="Path">
                        <path d="M3.73333333,8.33333333 C2.23611111,7.5 1.01111111,5.83333333 0.875,4.16666667 C0.738888889,2.36111111 2.1,0.972222222 3.86944444,1.11111111 C4.00555556,1.11111111 5.09444444,1.38888889 5.91111111,1.66666667 L5.91111111,1.66666667 C5.91111111,1.52777778 3.325,0.833333333 3.05277778,0.694444444 C1.28333333,0.555555556 -0.0777777778,1.94444444 0.0583333333,3.75 C0.194444444,5.55555556 1.41944444,7.22222222 2.91666667,7.91666667 C3.05277778,7.91666667 3.325,8.05555556 3.73333333,8.33333333 C3.73333333,8.33333333 3.73333333,8.33333333 3.73333333,8.33333333 Z"></path>
                        <path d="M4.82222222,9.02777778 C5.36666667,9.30555556 5.91111111,9.58333333 5.91111111,9.58333333 C5.91111111,9.58333333 5.91111111,9.58333333 5.91111111,9.44444444 C5.63888889,9.30555556 5.23055556,9.16666667 4.82222222,9.02777778 Z"></path>
                    </g>
                    <g id="Path">
                        <path d="M3.73333333,8.33333333 C2.23611111,7.5 1.01111111,5.83333333 0.875,4.16666667 C0.738888889,2.36111111 2.1,0.972222222 3.86944444,1.11111111 C4.00555556,1.11111111 5.09444444,1.38888889 5.91111111,1.66666667 L5.91111111,1.66666667 C5.91111111,1.52777778 3.325,0.833333333 3.05277778,0.694444444 C1.28333333,0.555555556 -0.0777777778,1.94444444 0.0583333333,3.75 C0.194444444,5.55555556 1.41944444,7.22222222 2.91666667,7.91666667 C3.05277778,7.91666667 3.325,8.05555556 3.73333333,8.33333333 C3.73333333,8.33333333 3.73333333,8.33333333 3.73333333,8.33333333 Z" fill="#F2F2F2" opacity="0.1"></path>
                        <path d="M4.82222222,9.02777778 C5.36666667,9.30555556 5.91111111,9.58333333 5.91111111,9.58333333 C5.91111111,9.58333333 5.91111111,9.58333333 5.91111111,9.44444444 C5.63888889,9.30555556 5.23055556,9.16666667 4.82222222,9.02777778 Z" fill="#F2B066"></path>
                    </g>
                </g>
                <polygon id="Path" fill="#DD9E5F" fill-rule="nonzero" points="39 60.8888889 36 58.7777778 39 58 39 61"></polygon>
                <path d="M34.4803486,58.4110822 C35.2205229,58.8267889 37.7371154,59.93534 39.6615686,57.3025311 C39.6615686,57.3025311 41.5860217,52.8683266 36.2567669,52.0369133 C36.2567669,52.0369133 34.6283834,51.4826377 33.1480349,54.6697222 C33,54.94686 33,55.2239977 33,55.3625666 C33,55.9168422 33.2960697,57.1639622 33.8882091,57.9953755 C34.1842789,58.1339444 34.3323137,58.2725133 34.4803486,58.4110822 Z" id="Path" fill="#F2B066" fill-rule="nonzero"></path>
                <path d="M37.2222222,58.7214839 C36.7777778,57.8859355 36.5555556,56.771871 36.5555556,56.0755807 C36.5555556,55.7970645 36.6666667,55.5185484 36.6666667,55.3792904 C36.6666667,52.1763549 38.4444444,52.7333872 39,52.7333872 C39,52.7333872 39,52.7333872 39,52.7333872 C38.5555556,52.454871 38.1111111,52.1763549 37.4444444,52.0370968 C37.4444444,52.0370968 36.2222222,51.4800646 35.1111111,54.683 C35,54.9615162 35,55.2400323 35,55.3792904 C35,55.9363226 35.2222222,57.1896452 35.6666667,58.0251936 C35.7777778,58.1644516 35.8888889,58.3037097 36,58.4429677 C36.2222222,58.7214839 36.7777778,59 37.4444444,59 C37.3333333,59 37.2222222,58.8607419 37.2222222,58.7214839 Z" id="Path" fill="#F2F2F2" fill-rule="nonzero" opacity="0.1"></path>
                <path d="M37.6923077,53 C37.5384615,53 37.5384615,53 37.6923077,53 C37.3846154,53 37.0769231,53.1 36.9230769,53.1 C36.4615385,53.3 36.1538462,53.6 36,53.9 C36,54.1 36,54.3 36,54.4 C36,54.6 36,54.8 36.1538462,55 L36.3076923,55 C36.1538462,54.8 36.3076923,54.6 36.1538462,54.4 C36.1538462,54.2 36.1538462,54.1 36.1538462,53.9 C36.3076923,53.6 36.6153846,53.3 36.9230769,53.2 C37.0769231,53.1 37.3846154,53.1 37.5384615,53.1 C37.5384615,53.1 38,53 38,53.1 C37.8461538,53.1 37.8461538,53 37.6923077,53 Z" id="Path" fill="#E0E0E0" fill-rule="nonzero"></path>
                <path d="M37.6637759,54 C37.4476318,54 37.2314877,54 37.0153436,54 C36.6911274,54.1363636 36.1507672,54.4090909 36.0426951,55.2272727 C36.0426951,55.2272727 35.826551,56.0454545 36.3669113,56.8636364 L36.7991995,57 C36.6911274,56.7272727 36.6911274,56.4545455 36.6911274,56.1818182 C36.6911274,55.9090909 36.6911274,55.7727273 36.6911274,55.5 C36.7991995,55.0909091 37.0153436,54.6818182 37.2314877,54.5454545 C37.3395597,54.4090909 37.5557038,54.4090909 37.6637759,54.4090909 C37.6637759,54.4090909 37.987992,54.4090909 37.987992,54.4090909 C37.987992,54.2727273 38.096064,54.1363636 37.6637759,54 Z" id="Path" fill="#F2F2F2" fill-rule="nonzero"></path>
                <path d="M80.55,82.45 C80.55,82.45 80.45,82.55 80.45,82.55 C80.45,82.45 80.45,82.45 80.55,82.45 Z" id="Path" fill="#1A1A1A" fill-rule="nonzero"></path>
                <path d="M66,67.3333333 C66,67.3333333 65.8695652,67.4166667 65.8695652,67.4166667 C65.0869565,67.75 64.0434783,68 63,68 L43.4347826,68 C43.3043478,68 43.173913,68 43.0434783,68 L43.0434783,68 C43.0434783,68 43.0434783,68 43.0434783,68 C43.0434783,67.9166667 42.9130435,67.9166667 42.9130435,67.8333333 C42.9130435,67.8333333 42.7826087,67.75 42.7826087,67.75 C42.7826087,67.6666667 42.6521739,67.6666667 42.6521739,67.5833333 C42.6521739,67.5833333 42.6521739,67.5833333 42.6521739,67.5833333 C42.6521739,67.5 42.5217391,67.5 42.5217391,67.4166667 C42.5217391,67.3333333 42.3913043,67.3333333 42.3913043,67.3333333 C42.3913043,67.3333333 42.2608696,67.25 42.2608696,67.25 C42.2608696,67.25 42.2608696,67.25 42.2608696,67.25 C42.1304348,67.0833333 42,67 42,67 L65.7391304,67 L65.8695652,67.25 L65.8695652,67.3333333 L66,67.3333333 Z" id="Path" fill="#1A1A1A" fill-rule="nonzero" opacity="0.2"></path>
                <path d="M70,5.43610548 L70,61.5638945 C70,63.3306288 69.1877729,64.8255578 67.9694323,65.7768763 C67.69869,66.0486815 67.4279476,66.1845842 67.1572052,66.3204868 C67.1572052,66.3204868 67.1572052,66.3204868 67.0218341,66.3204868 C66.209607,66.7281947 65.3973799,67 64.4497817,67 L44.4148472,67 C44.0087336,67 43.4672489,67 43.0611354,66.8640974 L43.0611354,66.8640974 C40.7598253,66.3204868 39,64.1460446 39,61.5638945 L39,5.43610548 C39,2.44624746 41.4366812,0 44.4148472,0 L64.5851528,0 C67.5633188,0 70,2.44624746 70,5.43610548 Z" id="Path" fill="#011C26" fill-rule="nonzero"></path>
                <path d="M64.9534884,64 L44.0465116,64 C41.7534884,64 40,62.1171367 40,59.9652928 L40,6.03470716 C40,3.7483731 41.8883721,2 44.0465116,2 L64.9534884,2 C67.2465116,2 69,3.88286334 69,6.03470716 L69,59.9652928 C69,62.1171367 67.1116279,64 64.9534884,64 Z" id="Path" fill="#FFFFFF" fill-rule="nonzero"></path>
                <g id="Group" transform="translate(42.000000, 5.000000)">
                    <g id="XMLID_9_-link" fill="url(#radialGradient-1)" fill-rule="nonzero">
                        <path d="M21.3936508,26.595 L1.58201058,26.595 C0.778835979,26.595 0.10952381,25.92 0.10952381,25.11 L0.10952381,2.16 C0.10952381,1.35 0.778835979,0.675 1.58201058,0.675 L21.3936508,0.675 C22.1968254,0.675 22.8661376,1.35 22.8661376,2.16 L22.8661376,25.11 C22.8661376,25.92 22.1968254,26.595 21.3936508,26.595 Z" id="XMLID_9_"></path>
                    </g>
                    <path d="M4.25925926,26.46 L4.66084656,22.005 L3.85767196,21.06 C3.85767196,21.06 3.45608466,21.195 3.05449735,21.195 C2.65291005,21.33 2.11746032,21.33 1.98359788,22.545 C1.84973545,23.625 1.58201058,24.84 1.44814815,26.325" id="Path" fill="#F2B180" fill-rule="nonzero"></path>
                    <path d="M14.8343915,23.625 L14.5666667,20.25 C14.5666667,20.25 12.9603175,19.98 12.826455,19.305 C12.6925926,18.63 12.6925926,17.01 12.6925926,17.01 L10.8185185,16.47 L10.8185185,16.47 L10.8185185,16.47 L8.94444444,17.01 C8.94444444,17.01 8.94444444,18.63 8.81058201,19.305 C8.67671958,19.98 7.07037037,20.25 7.07037037,20.25 L6.8026455,23.625 L10.8185185,23.895 L10.8185185,23.895 L10.8185185,23.895 L14.8343915,23.625 Z" id="Path" fill="#F2B180" fill-rule="nonzero"></path>
                    <path d="M17.2439153,26.46 L16.842328,22.005 L17.6455026,21.06 C17.6455026,21.06 18.0470899,21.195 18.4486772,21.195 C18.8502646,21.33 19.3857143,21.33 19.5195767,22.545 C19.6534392,23.625 19.921164,24.84 20.0550265,26.325" id="Path" fill="#F2B180" fill-rule="nonzero"></path>
                    <path d="M17.7793651,26.46 C17.7793651,24.165 17.7793651,22.005 17.7793651,21.06 C16.5746032,20.79 15.905291,20.655 14.5666667,20.385 C14.4328042,22.41 12.2910053,23.49 10.8185185,23.49 C9.34603175,23.49 7.2042328,22.41 7.07037037,20.385 C5.73174603,20.655 5.06243386,20.79 3.85767196,21.06 C3.85767196,22.005 3.85767196,24.165 3.85767196,26.46" id="Path" fill="#9C1313" fill-rule="nonzero"></path>
                    <ellipse id="Oval" fill="#F0B487" fill-rule="nonzero" transform="translate(16.189468, 12.353742) rotate(-83.736370) translate(-16.189468, -12.353742) " cx="16.1894676" cy="12.353742" rx="1.48480588" ry="1"></ellipse>
                    <path d="M16.0391534,13.365 C16.1730159,13.365 16.4407407,13.095 16.5746032,12.42 C16.5746032,11.88 16.4407407,11.475 16.3068783,11.475 C16.3068783,11.475 16.3068783,11.475 16.3068783,11.475 C16.1730159,11.475 15.905291,11.745 15.7714286,12.42 C15.6375661,12.96 15.905291,13.23 16.0391534,13.365 L16.0391534,13.365 Z" id="Path" fill="#DBAB85" fill-rule="nonzero"></path>
                    <ellipse id="Oval" fill="#F0B487" fill-rule="nonzero" transform="translate(5.598847, 12.415140) rotate(-6.263630) translate(-5.598847, -12.415140) " cx="5.59884741" cy="12.41514" rx="1" ry="1.48480588"></ellipse>
                    <path d="M5.5978836,13.365 C5.46402116,13.365 5.1962963,13.095 5.06243386,12.42 C5.06243386,11.88 5.1962963,11.475 5.33015873,11.475 C5.33015873,11.475 5.33015873,11.475 5.33015873,11.475 C5.46402116,11.475 5.73174603,11.745 5.86560847,12.42 C5.9994709,12.96 5.73174603,13.23 5.5978836,13.365 L5.5978836,13.365 Z" id="Path" fill="#DBAB85" fill-rule="nonzero"></path>
                    <path d="M10.8185185,4.86 C7.87354497,4.86 5.46402116,7.56 5.46402116,11.205 C5.46402116,13.365 5.9994709,14.58 7.33809524,15.93 C8.14126984,16.875 9.61375661,18.09 10.8185185,18.09 C12.0232804,18.09 13.4957672,16.875 14.2989418,15.93 C15.6375661,14.58 16.1730159,13.365 16.1730159,11.205 C16.1730159,7.56 13.7634921,4.86 10.8185185,4.86 Z" id="Path" fill="#FABC8D" fill-rule="nonzero"></path>
                    <path d="M9.21216931,15.93 C9.34603175,16.335 9.88148148,16.875 10.8185185,16.875 C11.7555556,16.875 12.2910053,16.335 12.4248677,15.93 C11.889418,15.93 9.88148148,15.93 9.21216931,15.93 Z" id="Path" fill="#FFFDFF" fill-rule="nonzero"></path>
                    <path d="M10.8185185,16.335 C10.0153439,16.335 9.61375661,16.065 9.21216931,15.93 C9.34603175,16.335 9.88148148,16.875 10.8185185,16.875 C11.7555556,16.875 12.2910053,16.335 12.4248677,15.93 C12.1571429,16.2 11.6216931,16.335 10.8185185,16.335 Z" id="Path" fill="#D44931" fill-rule="nonzero"></path>
                    <path d="M14.8343915,11.475 C14.8343915,11.61 14.2989418,12.15 13.6296296,12.15 C12.9603175,12.285 12.2910053,12.015 12.2910053,11.88 C12.2910053,11.745 12.826455,11.205 13.4957672,11.205 C14.1650794,11.07 14.8343915,11.475 14.8343915,11.475 Z" id="Path" fill="#FFFDFF" fill-rule="nonzero"></path>
                    <g transform="translate(12.291005, 10.800000)" fill-rule="nonzero" id="Path">
                        <path d="M1.74021164,0.945 C1.74021164,0.675 1.47248677,0.405 1.2047619,0.405 C0.937037037,0.405 0.669312169,0.675 0.669312169,0.945 C0.669312169,1.215 0.937037037,1.485 1.2047619,1.485 C1.47248677,1.485 1.74021164,1.215 1.74021164,0.945 Z" fill="#876E55"></path>
                        <path d="M1.47248677,0.945 C1.47248677,0.81 1.33862434,0.675 1.2047619,0.675 C1.07089947,0.675 0.937037037,0.81 0.937037037,0.945 C0.937037037,1.08 1.07089947,1.215 1.2047619,1.215 C1.33862434,1.215 1.47248677,1.08 1.47248677,0.945 Z" fill="#261F18"></path>
                        <path d="M1.2047619,0.81 C1.2047619,0.675 1.07089947,0.675 1.07089947,0.675 C1.07089947,0.675 0.937037037,0.81 0.937037037,0.81 C0.937037037,0.945 1.07089947,0.945 1.07089947,0.945 C1.07089947,0.945 1.2047619,0.81 1.2047619,0.81 Z" fill="#FFFDFF" opacity="0.7"></path>
                    </g>
                    <path d="M12.2910053,11.88 C12.2910053,11.88 12.5587302,11.34 13.3619048,11.205 C14.1650794,11.07 14.8343915,11.475 14.8343915,11.475 C14.8343915,11.475 14.0312169,11.205 13.3619048,11.34 C12.826455,11.475 12.2910053,11.88 12.2910053,11.88 Z" id="Path" fill="#261F18" fill-rule="nonzero"></path>
                    <path d="M12.1571429,10.665 C12.1571429,10.665 12.6925926,10.395 13.2280423,10.26 C13.6296296,10.26 14.1650794,10.125 15.1021164,10.8 C14.7005291,10.26 14.1650794,10.125 13.4957672,9.99 C13.3619048,9.99 13.0941799,9.99 12.9603175,9.99 C12.4248677,10.26 12.0232804,10.665 12.1571429,10.665 Z" id="Path" fill="#241405" fill-rule="nonzero"></path>
                    <path d="M6.8026455,11.475 C6.8026455,11.61 7.33809524,12.15 8.00740741,12.15 C8.67671958,12.285 9.34603175,12.015 9.34603175,11.88 C9.34603175,11.745 8.81058201,11.205 8.14126984,11.205 C7.60582011,11.07 6.93650794,11.475 6.8026455,11.475 Z" id="Path" fill="#FFFDFF" fill-rule="nonzero"></path>
                    <g transform="translate(6.936508, 10.800000)" fill-rule="nonzero" id="Path">
                        <path d="M0.803174603,0.945 C0.803174603,0.675 1.07089947,0.405 1.33862434,0.405 C1.60634921,0.405 1.87407407,0.675 1.87407407,0.945 C1.87407407,1.215 1.60634921,1.485 1.33862434,1.485 C0.937037037,1.485 0.669312169,1.215 0.803174603,0.945 Z" fill="#876E55"></path>
                        <path d="M1.07089947,0.945 C1.07089947,0.81 1.2047619,0.675 1.33862434,0.675 C1.47248677,0.675 1.60634921,0.81 1.60634921,0.945 C1.60634921,1.08 1.47248677,1.215 1.33862434,1.215 C1.07089947,1.215 1.07089947,1.08 1.07089947,0.945 Z" fill="#261F18"></path>
                        <path d="M0.937037037,0.81 C0.937037037,0.675 1.07089947,0.675 1.07089947,0.675 C1.07089947,0.675 1.2047619,0.81 1.2047619,0.81 C1.2047619,0.945 1.07089947,0.945 1.07089947,0.945 C1.07089947,0.945 0.937037037,0.81 0.937037037,0.81 Z" fill="#FFFDFF" opacity="0.7"></path>
                    </g>
                    <path d="M9.47989418,11.88 C9.47989418,11.88 9.21216931,11.34 8.40899471,11.205 C7.60582011,11.07 6.93650794,11.475 6.93650794,11.475 C6.93650794,11.475 7.73968254,11.205 8.40899471,11.34 C8.81058201,11.475 9.47989418,11.88 9.47989418,11.88 Z" id="Path" fill="#261F18" fill-rule="nonzero"></path>
                    <path d="M9.47989418,10.665 C9.47989418,10.665 8.94444444,10.395 8.40899471,10.26 C8.00740741,10.26 7.47195767,10.125 6.53492063,10.8 C6.93650794,10.26 7.47195767,10.125 8.14126984,9.99 C8.27513228,9.99 8.54285714,9.99 8.67671958,9.99 C9.21216931,10.26 9.61375661,10.665 9.47989418,10.665 Z" id="Path" fill="#241405" fill-rule="nonzero"></path>
                    <path d="M11.889418,14.175 C11.7555556,14.31 11.3539683,14.445 10.8185185,14.445 C10.2830688,14.445 9.88148148,14.31 9.74761905,14.175 C9.61375661,14.175 9.61375661,14.31 9.61375661,14.31 C9.74761905,14.31 10.1492063,14.58 10.8185185,14.58 C11.4878307,14.58 11.889418,14.445 12.0232804,14.31 C12.0232804,14.31 12.0232804,14.175 11.889418,14.175 Z" id="Path" fill="#524032" fill-rule="nonzero"></path>
                    <ellipse id="Oval" fill="#241405" fill-rule="nonzero" transform="translate(14.398187, 3.934467) rotate(-63.665566) translate(-14.398187, -3.934467) " cx="14.3981874" cy="3.934467" rx="2.69548499" ry="3.21801231"></ellipse>
                    <path d="M7.73968254,6.885 C8.54285714,11.475 15.2359788,10.395 15.3698413,10.395 C15.5037037,10.395 15.5037037,10.53 15.5037037,10.665 C15.3698413,11.88 15.5037037,13.635 15.5037037,13.635 C15.5037037,13.635 15.7714286,11.205 16.4407407,10.935 C16.7084656,10.125 16.9761905,8.37 16.3068783,6.615 C15.6375661,4.86 13.4957672,2.97 11.2201058,2.97 C8.81058201,2.97 6.93650794,3.51 5.73174603,5.4 C4.52698413,7.29 4.79470899,9.855 5.06243386,10.935 C5.46402116,10.935 5.73174603,11.475 5.9994709,13.095 C6.13333333,12.015 5.5978836,10.125 5.9994709,8.775 C6.4010582,7.965 6.8026455,7.29 7.73968254,6.885 Z" id="Path" fill="#241405" fill-rule="nonzero"></path>
                    <g id="XMLID_9_-link" stroke="#CCCCCC" stroke-width="0.2664">
                        <path d="M21.3936508,26.595 L1.58201058,26.595 C0.778835979,26.595 0.10952381,25.92 0.10952381,25.11 L0.10952381,2.16 C0.10952381,1.35 0.778835979,0.675 1.58201058,0.675 L21.3936508,0.675 C22.1968254,0.675 22.8661376,1.35 22.8661376,2.16 L22.8661376,25.11 C22.8661376,25.92 22.1968254,26.595 21.3936508,26.595 Z" id="XMLID_9_"></path>
                    </g>
                </g>
                <g id="Group" transform="translate(42.000000, 37.000000)" fill-rule="nonzero">
                    <g fill="#BCBEC0" id="Rectangle">
                        <rect x="0" y="0.10952381" width="21.9176471" height="1.74021164"></rect>
                        <rect x="0" y="4.39312169" width="21.9176471" height="1.74021164"></rect>
                        <rect x="0" y="8.54285714" width="21.9176471" height="1.74021164"></rect>
                        <rect x="0" y="13.0941799" width="21.9176471" height="1.74021164"></rect>
                    </g>
                    <polygon id="Path" fill="#25DD83" points="13.3941176 19.7873016 9.2 19.7873016 9.2 21.9291005 13.3941176 21.9291005 13.3941176 23 16.3705882 20.8582011 13.3941176 18.7164021"></polygon>
                </g>
                <path d="M42.9333333,67.9467213 C43.0666667,68.0819672 43.0666667,68.2172131 43.2,68.352459 C43.3333333,68.4877049 43.3333333,68.6229508 43.4666667,68.7581967 C43.4666667,68.7581967 43.4666667,68.7581967 43.4666667,68.7581967 C43.4666667,68.7581967 43.6,68.8934426 43.6,68.8934426 C43.7333333,69.0286885 43.8666667,69.1639344 43.8666667,69.4344262 C44,69.5696721 44,69.704918 44.1333333,69.8401639 C44.2666667,69.9754098 44.2666667,70.1106557 44.4,70.2459016 C44.4,70.3811475 44.5333333,70.3811475 44.5333333,70.5163934 C44.6666667,70.7868852 44.8,71.057377 45.0666667,71.3278689 C45.0666667,71.3278689 45.0666667,71.3278689 45.0666667,71.3278689 C45.2,71.4631148 45.3333333,71.7336066 45.4666667,71.8688525 C45.4666667,72.0040984 45.6,72.0040984 45.6,72.1393443 C45.6,72.2745902 45.7333333,72.2745902 45.7333333,72.4098361 C45.7333333,72.545082 45.8666667,72.545082 45.8666667,72.6803279 C46,72.8155738 46,72.9508197 46.1333333,73.0860656 C46.2666667,73.2213115 46.4,73.3565574 46.4,73.6270492 C46.4,73.7622951 46.5333333,73.7622951 46.5333333,73.897541 C47.6,75.3852459 48.6666667,77.1434426 49.8666667,78.7663934 C50.2666667,79.307377 50.5333333,79.7131148 50.9333333,80.2540984 C51.0666667,80.3893443 51.0666667,80.5245902 51.2,80.6598361 C51.3333333,80.9303279 51.4666667,81.0655738 51.6,81.3360656 C51.7333333,81.4713115 51.7333333,81.6065574 51.8666667,81.7418033 C52,81.8770492 52.1333333,82.0122951 52.2666667,82.2827869 C52.4,82.5532787 52.6666667,82.8237705 52.8,82.9590164 C52.8,82.9590164 52.8,82.9590164 52.8,82.9590164 C52.9333333,83.0942623 52.9333333,83.2295082 53.0666667,83.3647541 C53.0666667,83.3647541 53.2,83.5 53.2,83.5 C53.2,83.5 53.3333333,83.6352459 53.3333333,83.6352459 C53.3333333,83.6352459 53.4666667,83.7704918 53.4666667,83.7704918 C53.6,83.9057377 53.6,84.0409836 53.7333333,84.1762295 C53.7333333,84.1762295 53.8666667,84.3114754 53.8666667,84.3114754 C53.8666667,84.3114754 54,84.4467213 54,84.4467213 C55.7333333,86.7459016 57.4666667,88.6393443 58.5333333,89.5860656 C58.5333333,89.5860656 58.5333333,89.5860656 58.6666667,89.7213115 C58.8,89.7213115 58.8,89.8565574 58.9333333,89.8565574 C59.2,90.1270492 59.6,90.397541 59.7333333,90.6680328 C60.2666667,91.3442623 61.2,92.6967213 62.2666667,94.7254098 C62.2666667,94.8606557 62.4,94.9959016 62.4,95.1311475 C62.8,95.807377 63.2,96.6188525 63.6,97.5655738 C63.6,97.7008197 63.7333333,97.8360656 63.7333333,97.9713115 L63.7333333,97.9713115 C64,98.647541 64.2666667,99.3237705 64.5333333,100 L66,100 C65.7333333,99.1885246 65.3333333,98.3770492 65.0666667,97.5655738 C65.0666667,97.4303279 64.9333333,97.295082 64.9333333,97.295082 C64.5333333,96.3483607 64,95.4016393 63.6,94.5901639 C63.6,94.454918 63.4666667,94.3196721 63.4666667,94.3196721 C62.5333333,92.5614754 61.6,91.3442623 61.2,90.8032787 C60.9333333,90.5327869 60.6666667,90.2622951 60.4,89.9918033 C57.8666667,88.2336066 52.4,80.3893443 48.2666667,74.3032787 C48.2666667,74.3032787 48.2666667,74.3032787 48.2666667,74.1680328 C45.6,70.1106557 43.4666667,67 43.4666667,67 L42,67 C42,67 42.2666667,67.4057377 42.8,68.2172131 C42.8,67.8114754 42.9333333,67.9467213 42.9333333,67.9467213 Z" id="Path" fill="#F2F2F2" fill-rule="nonzero" opacity="0.25"></path>
                <path d="M91,98.728391 C88.8494624,92.7529937 86.1612903,85.283747 84.6827957,81.6170259 C84.6827957,81.6170259 83.6075269,68.1723819 84.5483871,61.5179622 C84.5483871,61.5179622 84.2795699,56.6290007 82.9354839,51.7400393 C81.5913978,46.8510778 80.1129032,41.6905074 79.7096774,37.0731549 C79.7096774,37.0731549 79.7096774,35.71511 78.3655914,34.3570652 C77.155914,33.1348248 76.2150538,31.6409755 75.9462366,30.8261486 C75.9462366,30.6903441 75.811828,30.5545396 75.6774194,30.4187351 C75.5430108,30.2829307 75.4086022,30.1471262 75.2741935,30.0113217 C75.1397849,29.7397127 73.9301075,23.4927064 73.9301075,23.4927064 C73.9301075,23.4927064 71.2419355,21.4556391 69.3602151,25.6655782 C69.2258065,25.8013827 69.2258065,25.9371871 69.2258065,26.2087961 L69.2258065,33.1348248 C69.2258065,33.1348248 70.0322581,36.6657414 70.7043011,37.3447639 C70.7043011,37.3447639 70.9731183,37.7521773 70.7043011,38.2953953 C70.4354839,38.7028087 70.5698925,40.3324625 70.8387097,41.6905074 C70.8387097,41.6905074 71.9139785,46.3078599 69.0913978,53.2338886 C69.0913978,53.2338886 66,64.5056608 66,67.629164 L78.7688172,99 L91,99 L91,98.728391 Z" id="Path" fill="#F2B066" fill-rule="nonzero"></path>
                <path d="M75,29.6843372 C75,29.8166047 75,29.9488723 74.8928571,29.9488723 C74.3571429,30.0811399 72.6428571,30.3456751 72.1071429,25.054972 L72,23.7322962 C72,23.6000286 72,23.3354935 72.1071429,23.2032259 C72.3214286,22.8064232 72.8571429,21.8805501 73.7142857,22.0128177 C73.8214286,22.0128177 73.8214286,22.1450853 73.9285714,22.1450853 C74.3571429,23.9968314 74.7857143,26.5099153 75,29.6843372 Z" id="Path" fill="#F2F2F2" fill-rule="nonzero"></path>
                <path d="M72.3375796,30.027501 C72.4713376,30.1638103 72.6050955,30.3001196 72.7388535,30.4364289 C72.8726115,30.5727381 72.8726115,30.7090474 73.0063694,30.8453567 C73.2738854,31.7995217 74.343949,33.2989239 75.4140127,34.3893982 C76.6178344,35.6161817 76.7515924,37.1155839 76.7515924,37.1155839 C77.0191083,41.7500996 78.6242038,46.9298525 79.9617834,51.8369868 C81.2993631,56.7441212 81.566879,61.6512555 81.566879,61.6512555 C80.6305732,68.3304105 81.7006369,81.8250299 81.7006369,81.8250299 C82.6369427,84.1422878 85.1783439,91.0940614 87.9872611,99 L92,99 C89.0573248,92.1845357 85.8471338,84.9601435 84.6433121,81.8250299 C84.6433121,81.8250299 83.5732484,68.3304105 84.5095541,61.6512555 C84.5095541,61.6512555 84.2420382,56.7441212 82.9044586,51.8369868 C81.566879,46.9298525 80.0955414,41.7500996 79.6942675,37.1155839 C79.6942675,37.1155839 79.6942675,35.752491 78.3566879,34.3893982 C77.1528662,33.1626146 76.2165605,31.6632124 75.9490446,30.8453567 C75.9490446,30.7090474 75.8152866,30.5727381 75.6815287,30.4364289 C75.5477707,30.3001196 75.4140127,30.1638103 75.2802548,30.027501 C75.1464968,29.7548824 73.9426752,23.4846552 73.9426752,23.4846552 C73.9426752,23.4846552 72.6050955,22.3941809 71,23.4846552 C71,23.4846552 71,23.4846552 71,23.4846552 C71,23.4846552 72.2038217,29.7548824 72.3375796,30.027501 Z" id="Path" fill="#F2F2F2" fill-rule="nonzero" opacity="0.25"></path>
            </g>
        </g>
    </g>
</svg>