<?xml version="1.0" encoding="utf-8"?>
<!-- Generator: Adobe Illustrator 24.1.2, SVG Export Plug-In . SVG Version: 6.00 Build 0)  -->
<!DOCTYPE svg PUBLIC "-//W3C//DTD SVG 1.1//EN" "http://www.w3.org/Graphics/SVG/1.1/DTD/svg11.dtd" [
	<!ENTITY ns_extend "http://ns.adobe.com/Extensibility/1.0/">
	<!ENTITY ns_ai "http://ns.adobe.com/AdobeIllustrator/10.0/">
	<!ENTITY ns_graphs "http://ns.adobe.com/Graphs/1.0/">
	<!ENTITY ns_vars "http://ns.adobe.com/Variables/1.0/">
	<!ENTITY ns_imrep "http://ns.adobe.com/ImageReplacement/1.0/">
	<!ENTITY ns_sfw "http://ns.adobe.com/SaveForWeb/1.0/">
	<!ENTITY ns_custom "http://ns.adobe.com/GenericCustomNamespace/1.0/">
	<!ENTITY ns_adobe_xpath "http://ns.adobe.com/XPath/1.0/">
]>
<svg version="1.1" id="Layer_1" xmlns:x="&ns_extend;" xmlns:i="&ns_ai;" xmlns:graph="&ns_graphs;"
	 xmlns="http://www.w3.org/2000/svg" xmlns:xlink="http://www.w3.org/1999/xlink" x="0px" y="0px" viewBox="0 0 100 100"
	 style="enable-background:new 0 0 100 100;" xml:space="preserve">
<style type="text/css">
	.st0{fill-rule:evenodd;clip-rule:evenodd;fill:#E6E6E6;}
	.st1{fill-rule:evenodd;clip-rule:evenodd;}
</style>
<metadata>
	<sfw  xmlns="&ns_sfw;">
		<slices></slices>
		<sliceSourceBounds  bottomLeftOrigin="true" height="87.7" width="71.8" x="12" y="-93.8"></sliceSourceBounds>
	</sfw>
</metadata>
<g>
	<path class="st0" d="M72.3,14c0-0.2,0-0.3-0.1-0.5c-1.5-3.6-5-6.6-9-7c-2.5-0.3-5.1-0.3-7.7-0.2c-2.4,0.1-4.9,0.3-7.3,0.6
		c-2.9,0.4-5.8,1-8.6,1.7c-2.9,0.7-5.8,1.6-8.6,2.7c-2.7,1-5.4,2.1-7.9,3.5c-2.2,1.2-3.8,2.7-5.4,4.6c-1.6,1.9-3,4.2-4,6.5
		c-1,2.2-1.5,4.5-1.7,6.9c-0.2,2.2-0.1,4.3,0.3,6.5c0.1,0.3,0.2,0.5,0.5,0.7l-0.1,1.1c0,0.1,0,0.2,0,0.3c0.6,2.5,1.5,5,2.6,7.3
		c0.5,1.2,1.2,2.3,1.8,3.4c0.5,0.9,1.1,1.8,1.6,2.7c0.2,0.3,0.4,0.7,0.5,1c0.1,0.3,0.4,0.4,0.6,0.5l0.2,1.2c0,0.1,0,0.1,0.1,0.2
		c0.2,0.5,0.4,1,0.6,1.5c0.5,1.3,0.8,2.6,1.2,3.9c0.2,0.8,0.5,2.1,0.9,2.7c0.2,0.4,0.6,0.7,1.1,0.7c0.5,0,0.8-0.2,1.1-0.5
		c1.4,0.6,3.2,1,4.5,1.3c2.8,0.7,7.2,1.6,9,4.1c0.3,1.7,0.9,3.3,1.6,4.9c0.1,0.1,0.1,0.2,0.2,0.3c0.2,0.4,0.6,0.6,1,0.6
		c0,0,0.1,0,0.1,0l0.1,1.6c0,0.2,0.1,0.3,0.1,0.5c0.7,1.2,1.6,2.2,2.6,3.1c2.1,1.9,5.1,3.3,7.7,4.4c3.1,1.4,6.2,2.6,9.3,3.7
		c0.9,0.3,1.7,0.6,2.6,0.9c0.4,0.1,0.7,0,1-0.2l0.4,0.5c0.1,0.2,0.3,0.3,0.5,0.3c1,0.3,2.1,0.6,3.1,0.9c2.2,0.5,4.5,0.9,6.7,1
		c1.7,0,3.5-0.2,5.1-0.6c1.2-0.3,2.4-0.9,2.9-2c0.6-1.2,0.3-2.7-0.1-3.9c-0.3-0.8-0.7-1.7-1.1-2.5c0-0.1-0.1-0.1-0.1-0.2l-1.4-1.9
		c0.2-0.3,0.2-0.6,0.1-0.9c-0.6-1.3-1-2.6-1.4-3.9c-0.5-1.9-0.9-3.8-1.2-5.7c-0.2-1.3-0.4-2.5-0.7-3.8c0.2-0.2,0.3-0.5,0.2-0.8
		c-0.2-2.1-0.4-4.3-0.1-6.4c0.1-1,0.3-2.1,0.1-3.1c-0.1-0.9-0.4-1.9-0.9-2.6c-0.1-0.7-0.2-1.3-0.4-2c-0.2-0.9-0.4-1.9-0.5-2.8
		c0.6,0.2,1.3,0.2,2,0.1c0.3,0,0.7-0.1,1-0.3c2-1.1,2.3-4.2,2.7-6.3c0.1-0.8,0.3-1.7,0.4-2.5c0,0,0,0,0-0.1c0-0.6,0.1-1.2,0.1-1.8
		c0-0.3-0.1-0.5-0.3-0.7c-1.7-1.6-4-2-6.2-1.7c-0.2-0.3-0.3-0.7-0.5-1c-0.2-0.4-0.5-0.7-0.7-1.1l-0.1-0.1c-0.4-0.6-0.8-1.3-1.1-2
		c-0.2-0.6-0.3-1.2-0.4-1.9l0-0.2c-0.1-0.4-0.1-0.8-0.2-1.2c-0.1-0.4-0.2-0.8-0.3-1.2c-0.1-0.4-0.3-0.8-0.5-1.2
		c-0.2-0.4-0.4-0.8-0.6-1.1c-0.1-0.2-0.3-0.5-0.4-0.7c-0.3-0.5-0.6-1-0.8-1.5c0,0,0,0,0,0c0.9-0.9,1.6-1.7,2.1-2.9
		c0.5-1.2,0.8-2.5,0.9-3.8c0-0.1,0-0.1,0-0.2c0-0.1,0-0.1,0-0.2c0-0.4,0-0.8-0.1-1.2c-0.1-0.5-0.2-1-0.4-1.5
		C72.5,14.3,72.4,14.1,72.3,14C72.3,14,72.3,14,72.3,14z"/>
	<g>
		<path class="st1" d="M33.6,43.8l-0.2-0.1C33.5,43.7,33.6,43.8,33.6,43.8L33.6,43.8z M76.4,67.6c-0.5-1.4-1.7-2.3-2.2-3.6l0-0.1
			l0-0.1c0-0.2,0-0.3,0-0.5c-0.7,0.1-1.4,0.1-2.4,0.1c-1.4-0.1-3.2-0.4-5.2-0.6c-0.3,0-0.5,0-0.8-0.1c-0.5,0.7-0.9,1.4-1.2,2
			c-0.8,1.6-1.3,3.3-1.8,4.9c-0.1,0.3-0.2,0.7-0.2,1.1c0,0.2-0.2,0.3-0.4,0.3c-0.2,0-0.3-0.2-0.3-0.4c0.1-0.4,0.1-0.9,0-1.4
			c0-0.5-0.1-1.1-0.1-1.6c-0.1-1-0.2-2.2-0.1-3.2c0,0,0,0,0,0c0.1-0.6,0.2-1.3,0.2-2c-0.4-0.1-0.9-0.1-1.3-0.2
			c-0.8-0.1-1.6-0.4-2.4-0.6l1.7,3l-2.5-3.3c-0.8-0.3-1.5-0.6-2.1-0.8c-0.1-0.1-0.3-0.1-0.4-0.2l2.4,4.3l-3.7-4.9
			c-0.7-0.4-1.4-0.7-2.2-1.2l2.1,3.9L50.1,58c-1-0.7-2.1-1.7-3-3.2c-1.3-2.1-2.3-5.4-2.8-7.1c-0.2-0.6-0.3-0.9-0.4-1.2l-4,0.5
			c0.4,0.8,0.3,1.5,0.4,2.8c0,1.5-0.1,3.7-0.4,6.9c-0.3,3.2-0.9,7.6-0.7,11c0.1,3.4,1,5.9,1.9,8.1c0,0.1,0.1,0.2,0.1,0.3l0.8-6.4
			l0.5,8.9c0.7,1.1,1.4,2,2.4,2.9c1.8,1.6,4.4,3,7.4,4.3c3,1.3,6.4,2.7,9.3,3.7c0.9,0.3,1.7,0.6,2.6,0.9l-2.8-5.4l4.6,6
			c1.1,0.3,2.1,0.6,3.1,0.9c2.3,0.6,4.5,0.9,6.5,1c2,0,3.6-0.3,4.8-0.6c1.2-0.4,2-0.8,2.3-1.5c0.4-0.7,0.3-1.8-0.1-3.2
			c-0.2-0.7-0.6-1.5-1-2.3l-4.1-5.5l2.7,2.5c-0.6-1.3-1.1-2.6-1.5-4.1c-0.5-1.8-0.9-3.8-1.2-5.8C77,70.7,76.7,69,76.4,67.6
			L76.4,67.6z M57.4,36.8L57.4,36.8l-25.7,5.3c0.8,0.3,1.5,0.7,2.2,1.1c0.1,0.1,0.2,0.1,0.2,0.2l23.2-1.8L57.4,36.8L57.4,36.8z
			 M81.1,41.6c-0.1,0.9-0.2,1.6-0.4,2.5c-0.3,1.6-0.6,5.5-2.8,5.7c-3.5,0.4-5.1-3-5.9-6c-0.4-2-1.6-2.4-2.1,0.1
			c-0.6,2.6-1.4,4.5-3.5,5c-2.2,0.5-5.8-0.1-7.1-2.2c-0.7-1.3-1.1-2.9-1.2-4.9l-0.5,0l0.1-4.9l0.5,0c0.1,0,0.1,0,0.2,0
			c4-0.5,7.2-0.4,10.5,1.5c0.9,0.5,2.8,1.2,3.9,0.7c2.9-1.2,6.3-1.2,8.3,0.7C81.1,40.3,81.1,40.9,81.1,41.6L81.1,41.6z M59.4,39.6
			c0.3-0.6,0.3-1.2,0-1.9C59.1,38.4,59.2,39,59.4,39.6L59.4,39.6z M80.6,41.6c0.2-0.4,0.2-0.8,0.1-1.3
			C80.5,40.8,80.5,41.2,80.6,41.6L80.6,41.6z M33.5,46.7c-1.5-2.4-4.3-4.2-6.4-1.7c-2.3,2.7,0.3,6.7,3.3,8c2.4,1.1,4.7,0.5,6.6,2
			c-1.7-1.8-4-1.5-6.2-2.9c-1.6-1-4.1-4.6-2.9-6.5C29.5,43.2,32.2,45,33.5,46.7L33.5,46.7z M33.6,43.8c-0.1,0-0.1-0.1-0.2-0.1
			c-4.8-2.8-8.3-2.4-9,3.9c-0.4,3.7,1.7,5.7,4.4,8c1.2,1,5.7,3.6,7.5,3.2c0.8-0.2,1.3-0.4,2-0.8c-3.3,1.1-3.5,0.4-6.6-1.5
			c-2.6-1.6-6-5.5-6-8.8C25.8,41.8,29.1,41.7,33.6,43.8L33.6,43.8z M25.9,53.7c-0.9,0.5-2.5-2.2-2.1-3.2c0-0.1,0.1-0.2,0.1-0.4
			C24.2,51.5,24.9,52.6,25.9,53.7L25.9,53.7z M74.6,61.1c0.1-0.5,0.1-0.9,0-1.3c-0.1-0.3-0.3-0.6-0.6-0.8c0.2-0.2,0.4-0.4,0.5-0.7
			c0.5-1.1,0.5-2.5-0.3-3.4c0.1-0.1,0.2-0.1,0.4-0.1c1.5,0,2.1,2.1,2.3,3.4c0.1,0.8,0,2-0.1,2.8c-0.3,2.1-0.1,4.5,0.1,6.7
			c-0.5-1.6-1.8-2.5-2.3-3.9c-0.1-0.6,0.2-1.2-0.2-1.8c-0.4,0-1.1,0.1-1.4,0c-3.1-0.9-3.4-0.7-6.7,0.3c1-0.4,2-0.8,3-1.1
			c2-0.5,2.2,0,3.9,0.1C73.6,61.4,74.1,61.1,74.6,61.1L74.6,61.1z M40.7,18.9c-1.4-3.5-0.6-5.6,2.2-8C40.9,13.2,40,16,40.7,18.9
			L40.7,18.9z M25.1,22.1c-1.3-2.7-0.9-4.1,0.9-6.4C25.1,17.6,24.6,19.9,25.1,22.1L25.1,22.1z M32.9,20c-1.5-3.3-0.6-5.1,1.8-7.4
			C33.1,14.8,32.2,17.2,32.9,20L32.9,20z M47.6,18.7c-1.9-3.3,0-6.6,2.6-8.8C48.3,12.1,46.4,15.8,47.6,18.7L47.6,18.7z M48.7,18.8
			c-1.1-2.9,0.7-6.6,2.6-8.8C48.7,12.3,46.8,15.5,48.7,18.8L48.7,18.8z M33,28.8c0,4.3-3.6,5.1-6.1,7.8l-1,1.4l0.8-1.5
			C29.1,32.8,32.4,32.6,33,28.8L33,28.8z M38.5,27.7c-0.6,3.6-3.7,4.1-6.3,6.9l-0.9,1.1C34.3,32.8,38.5,32.3,38.5,27.7L38.5,27.7z
			 M43,26.8c0,4.6-4.1,5.2-7.2,7.9l0.9-1.1C39.3,30.8,42.4,30.4,43,26.8L43,26.8z M39.8,46.9c-0.1-0.2-0.2-0.4-0.3-0.6
			c-0.2-0.3-0.4-0.5-0.8-0.8c-0.7-0.6-1.6-1.3-2.9-1.9l8.8-0.7c-0.3,0.8-0.5,1.6-0.7,2.2c-0.1,0.5-0.2,0.7-0.1,1L39.8,46.9
			L39.8,46.9z M31.5,42c0-0.1,0.1-0.1,0.2-0.2L47,38.7c0.6-0.6,1.4-1.1,2.2-1.6c1.1-0.8,2.3-1.6,2.8-2.4c0.5-0.8,0.4-1.6-0.1-2.5
			c-0.4-0.9-1.2-2-1.7-3.1c-0.6-1.1-1-2.1-0.8-3c0.1-0.9,0.8-1.8,1.5-2.4c0.6-0.7,1.2-1.2,1.5-1.4c0.3-0.2,0.3-0.2,0.3-0.2
			C45.7,19.8,35,21.1,23,23.7c12.4-4.4,24.8-5.4,37.1-2.3c-0.9-4.2-1.7-11.9,4.5-11.5c3.5,0.2,5.4,2.4,6.8,4c-1.4-3.3-4.6-6-8.2-6.4
			c-4.4-0.5-10.3-0.2-14.7,0.4c-2.6,0.3-5.6,0.9-8.5,1.7c-2.9,0.7-5.7,1.6-8.5,2.6c-2.8,1-5.6,2.2-7.7,3.5c-2.2,1.2-3.7,2.6-5.1,4.4
			c-1.5,1.8-2.9,4-3.8,6.2c-1,2.2-1.4,4.4-1.6,6.6c-0.2,2-0.1,3.9,0.3,6.2l0.7-3.6l-0.3,5.6c0.6,2.4,1.5,4.9,2.5,7.1
			c1.2,2.5,2.4,4.4,3.4,6.1c0.2,0.3,0.4,0.7,0.6,1L20.1,51l1,6.1c0.2,0.5,0.4,1.1,0.6,1.6c0.5,1.4,0.9,2.9,1.2,4
			c0.3,1.2,0.5,2,0.8,2.5c0.3,0.4,0.6,0.4,0.9-0.4c0.3-0.8,0.6-2.2,0.8-3.6c0.1-1.4,0.1-2.7,0.2-4.3c0-0.8,0.1-1.6,0.2-2.5l0,0
			c-0.5,0.1-1-0.2-1.3-0.5c-0.4-0.3-0.7-0.8-0.9-1.2c-0.3-0.6-0.7-1.6-0.4-2.3c0-0.1,0.1-0.3,0.2-0.4c0.1-0.2,0.2-0.3,0.4-0.3
			c-0.1-0.6-0.1-1.3,0-2.1c0.2-2.1,0.9-4.7,3-5.7C28.3,41.2,29.9,41.4,31.5,42L31.5,42z M71.6,14.7c0.1,0.4,0.2,0.9,0.3,1.4
			c0.1,0.4,0.1,0.7,0.1,1.1c-2-1.8-3.5-4.8-6.8-3.6c-2.9,1.1-2.4,5.5-2.9,8.4c-0.7-0.2-1.4-0.4-2.2-0.6c-0.5-3.8-0.8-10.7,4.2-10.7
			C68,10.7,70.1,13.2,71.6,14.7L71.6,14.7z M72,17.4c0,1.2-0.3,2.4-0.8,3.4c-0.6,1.4-1.6,2.3-2.6,3.3c-2-0.8-4-1.5-6.1-2.1
			c0.6-2.4,0.4-5.9,2.4-7.3C67.8,12.8,69.7,15.7,72,17.4L72,17.4z M66.5,61.5c-1.7,1.3-3.5,5.3-4.3,9.3c0.3-1.7-0.4-4.5-0.2-6.2
			c0.4-2,0.1-4.6,1.6-6c1.2-1.1,2.8-1.3,4.3-2c1.7-0.8,3.9-2.6,5.5-1.8c1.2,0.6,1.4,2.1,0.8,3.4C73.2,60.4,68.3,60.1,66.5,61.5z"/>
	</g>
</g>
</svg>
