<?xml version="1.0" encoding="utf-8"?>
<!-- Generator: Adobe Illustrator 24.1.2, SVG Export Plug-In . SVG Version: 6.00 Build 0)  -->
<!DOCTYPE svg PUBLIC "-//W3C//DTD SVG 1.1//EN" "http://www.w3.org/Graphics/SVG/1.1/DTD/svg11.dtd" [
	<!ENTITY ns_extend "http://ns.adobe.com/Extensibility/1.0/">
	<!ENTITY ns_ai "http://ns.adobe.com/AdobeIllustrator/10.0/">
	<!ENTITY ns_graphs "http://ns.adobe.com/Graphs/1.0/">
	<!ENTITY ns_vars "http://ns.adobe.com/Variables/1.0/">
	<!ENTITY ns_imrep "http://ns.adobe.com/ImageReplacement/1.0/">
	<!ENTITY ns_sfw "http://ns.adobe.com/SaveForWeb/1.0/">
	<!ENTITY ns_custom "http://ns.adobe.com/GenericCustomNamespace/1.0/">
	<!ENTITY ns_adobe_xpath "http://ns.adobe.com/XPath/1.0/">
]>
<svg version="1.1" id="Layer_1" xmlns:x="&ns_extend;" xmlns:i="&ns_ai;" xmlns:graph="&ns_graphs;"
	 xmlns="http://www.w3.org/2000/svg" xmlns:xlink="http://www.w3.org/1999/xlink" x="0px" y="0px" viewBox="0 0 100 100"
	 style="enable-background:new 0 0 100 100;" xml:space="preserve">
<style type="text/css">
	.st0{fill:#C1B49A;}
	.st1{fill:#FAAF40;}
	.st2{fill:#A87C4F;}
	.st3{fill:#603813;}
</style>
<metadata>
	<sfw  xmlns="&ns_sfw;">
		<slices></slices>
		<sliceSourceBounds  bottomLeftOrigin="true" height="82.9" width="63.4" x="14" y="-91.7"></sliceSourceBounds>
	</sfw>
</metadata>
<g>
	<path class="st0" d="M54.5,52.4c-0.1-0.2-0.3-0.4-0.5-0.6c-0.2-0.2-0.4-0.5-0.7-0.8c-0.5-0.6-1-1.3-1.6-2.2
		C51.2,48,50.6,47,50.2,46c-0.2-0.5-0.5-1.1-0.6-1.7c0-0.1-0.1-0.3-0.1-0.4c0-0.1-0.1-0.3-0.1-0.4c-0.1-0.3-0.1-0.6-0.2-0.9
		C49,42.2,49,41.9,49,41.5c0-0.3-0.1-0.6-0.1-1c0-0.7,0-1.3,0-2c0.1-1.4,0.5-2.8,1-4.2c0.5-1.4,1.2-2.8,2.1-4.3
		c0.2-0.4,0.4-0.7,0.7-1l0.4-0.5l0.4-0.5l0.4-0.5l0.4-0.6c0.3-0.4,0.5-0.7,0.7-1.1c0.9-1.5,1.6-3,2.1-4.4c0.2-0.7,0.4-1.5,0.4-2.2
		c0.1-0.7,0.1-1.4,0-2.1c-0.2-1.4-0.6-2.6-1.5-3.7c-0.8-1.1-2-2.1-3.3-2.7C51.4,10,50,9.6,48.8,9.3c-0.6-0.1-1.2-0.2-1.7-0.3
		c-0.5-0.1-0.9-0.1-1.3-0.1c-0.3,0-0.6,0-0.8,0c-0.2,0-0.3,0-0.3,0s0.1,0,0.3,0c0.2,0,0.4,0.1,0.7,0.1c0.6,0.1,1.6,0.3,2.6,0.7
		c1,0.3,2.1,0.9,3.1,1.6c1,0.7,1.7,1.6,2.2,2.6c0.5,1,0.7,2.2,0.6,3.4c-0.1,1.2-0.4,2.5-0.9,3.9c-0.6,1.3-1.3,2.7-2.3,4.1
		c-0.2,0.3-0.5,0.7-0.7,1l-0.4,0.5l-0.4,0.5l-0.4,0.5l-0.4,0.6c-0.3,0.4-0.5,0.7-0.8,1.1c-0.5,0.7-0.9,1.5-1.2,2.3
		c-0.4,0.8-0.7,1.5-0.9,2.3c-0.5,1.5-0.7,3-0.7,4.5c0,1.5,0.3,2.9,0.8,4.2c0.1,0.3,0.2,0.6,0.4,1c0.1,0.2,0.1,0.3,0.2,0.5
		c0.1,0.2,0.2,0.3,0.2,0.5c0.3,0.6,0.7,1.2,1,1.7c1.5,2.2,3.4,3.8,4.8,4.9c0.3,0.3,0.7,0.5,1,0.7c0.3,0.2,0.5,0.4,0.8,0.5
		c0.4,0.3,0.6,0.4,0.6,0.4S54.8,52.8,54.5,52.4z"/>
	<g>
		<path class="st1" d="M59.8,11.6c0.4,0.8,0.7,1.7,0.9,2.6c0.5,1.9,0.5,3.9,0.1,6c-0.4,2.1-1.2,4.3-2.3,6.5
			c-0.6,1.1-1.2,2.2-1.8,3.3c-0.7,1.1-1.4,2.2-2.2,3.3L54,34.1c-0.2,0.2-0.3,0.5-0.5,0.7c-0.3,0.5-0.6,1-0.8,1.5c-0.5,1-0.8,2-1,3
			c-0.4,2-0.2,3.8,0.5,5.6c0.2,0.4,0.3,0.9,0.5,1.3c-0.2-1.3-0.2-2.6,0.1-3.9c0.2-1,0.6-2,1.1-2.9c0.2-0.5,0.5-1,0.9-1.5
			c0.2-0.2,0.3-0.5,0.5-0.7l0.6-0.8c0.8-1,1.6-2.2,2.3-3.2c0.7-1.1,1.4-2.2,1.9-3.3c1.2-2.2,2.1-4.4,2.5-6.5c0.5-2.1,0.5-4.2,0.1-6
			c-0.2-0.9-0.5-1.8-0.9-2.7c-0.2-0.4-0.4-0.8-0.6-1.2c-0.2-0.4-0.4-0.8-0.7-1.1c-0.4-0.5-0.7-1-1.1-1.5
			C59.5,11.1,59.6,11.3,59.8,11.6z"/>
	</g>
	<path class="st2" d="M36.5,80.3c-3.4,1-5.4,2.2-5.4,3.7c0,3,9.5,5.5,21.2,5.5c11.7,0,21.2-2.5,21.2-5.5c0-1.4-2-2.7-5.4-3.7
		c5.6,1.2,9.2,3,9.2,5c0,3.6-11.2,6.5-25,6.5c-13.8,0-25-2.9-25-6.5C27.3,83.2,30.9,81.4,36.5,80.3z"/>
	<path class="st3" d="M75.1,60.4c0-1.9-0.2-3.7-0.5-5.5c-1.2,1-3.2,1.9-6,2.6c-4.3,1.1-10.1,1.7-16.2,1.7s-11.9-0.6-16.2-1.7
		c-4.4-1.1-6.8-2.6-7.3-4.5c-0.4,0-0.9-0.1-1.3-0.1C20.1,52.9,14,59,14,66.4C14,73.9,20.1,80,27.5,80c2.9,0,5.6-0.9,7.9-2.5
		c1,1.3,2.1,2.4,3.3,3.4c-0.3,0.3-0.5,0.7-0.5,1c0,2,6.4,3.7,14.2,3.7s14.2-1.6,14.2-3.7c0-0.3-0.2-0.7-0.5-1
		C71.6,76.2,75.1,68.8,75.1,60.4z M28.7,77.6c-5.6,0-10.2-4.6-10.2-10.2c0-5.6,4.6-10.2,10.2-10.2c0.3,0,0.7,0,1,0.1
		c-0.1,1-0.2,2.1-0.2,3.2c0,5.9,1.7,11.2,4.7,15.6C32.7,77,30.8,77.6,28.7,77.6z"/>
	<path class="st2" d="M38.1,47.8c-3,0.9-4.9,2-4.9,3.3c0,2.7,8.6,4.9,19.1,4.9c10.6,0,19.1-2.2,19.1-4.9c0-1.3-1.8-2.4-4.9-3.3
		c5,1.1,8.3,2.7,8.3,4.5c0,3.2-10.1,5.8-22.6,5.8s-22.6-2.6-22.6-5.8C29.8,50.5,33,48.8,38.1,47.8z"/>
</g>
</svg>
