<?xml version="1.0" encoding="utf-8"?>
<!-- Generator: Adobe Illustrator 24.1.2, SVG Export Plug-In . SVG Version: 6.00 Build 0)  -->
<svg version="1.1" id="Layer_1" xmlns="http://www.w3.org/2000/svg" xmlns:xlink="http://www.w3.org/1999/xlink" x="0px" y="0px"
	 viewBox="0 0 100 100" style="enable-background:new 0 0 100 100;" xml:space="preserve">
<style type="text/css">
	.st0{fill:#0F84A9;}
	.st1{fill:#3ECCCD;}
	.st2{fill:#FDCA21;}
</style>
<g>
	<path class="st0" d="M81.5,14.7l-42.3,0c-6.9,0-12.5,5.6-12.5,12.5l-0.1,30.6c0,6.9,5.6,12.5,12.5,12.5h14.1l14.1,17.2l6.7-17.2
		h7.3c6.9,0,12.5-5.5,12.5-12.4l0-30.6C94,20.3,88.4,14.7,81.5,14.7z M90.5,57.8c0,4.9-4,8.9-9,8.9h-9.7l-5.4,13.9L55,66.7H39.2
		c-5,0-9-4-9-9l0.1-30.6c0-5,4-9,9-9l42.2,0c5,0,9,4,9,9L90.5,57.8z"/>
	<g>
		<path class="st1" d="M1.5,33.4l0,27.6c0,6.2,5.1,11.2,11.3,11.2h6.6l6.1,15.5l14.9-17.9c-8.1-0.5-13.7-4.6-13.7-12.9
			c0,0,0.3-33.4,0.7-34.8l-14.6,0C6.6,22.2,1.5,27.2,1.5,33.4z"/>
		<g>
			<g>
				<path class="st2" d="M76.1,38.7c1.1,0,2,0.4,2.7,1.2c0.1,0.1,0.2,0.1,0.3,0c0.7-0.8,1.6-1.2,2.7-1.2c1.7,0,3.2,1.1,3.7,2.7
					c0.3,1.1,0.4,3.9-4.3,7.4c-0.5,0.4-1.1,0.8-1.5,1c-0.5,0.2-1,0.3-1.5,0c-0.5-0.2-1.6-1-2-1.4c-4.2-3.3-4.1-5.9-3.8-7
					C72.9,39.9,74.4,38.7,76.1,38.7z"/>
			</g>
			<g>
				<path class="st2" d="M57.6,38.7c1.1,0,2,0.4,2.7,1.2c0.1,0.1,0.2,0.1,0.3,0c0.7-0.8,1.6-1.2,2.7-1.2c1.7,0,3.2,1.1,3.7,2.7
					c0.3,1.1,0.4,3.9-4.3,7.4c-0.5,0.4-1.1,0.8-1.5,1c-0.5,0.2-1,0.3-1.5,0c-0.5-0.2-1.6-1-2-1.4c-4.2-3.3-4.1-5.9-3.8-7
					C54.3,39.9,55.8,38.7,57.6,38.7z"/>
			</g>
			<g>
				<path class="st2" d="M39,38.7c1.1,0,2,0.4,2.7,1.2c0.1,0.1,0.2,0.1,0.3,0c0.7-0.8,1.6-1.2,2.7-1.2c1.7,0,3.2,1.1,3.7,2.7
					c0.3,1.1,0.4,3.9-4.3,7.4c-0.5,0.4-1.1,0.8-1.5,1c-0.5,0.2-1,0.3-1.5,0c-0.5-0.2-1.6-1-2-1.4c-4.2-3.3-4.1-5.9-3.8-7
					C35.8,39.9,37.3,38.7,39,38.7z"/>
			</g>
		</g>
	</g>
</g>
</svg>
