<?xml version="1.0" encoding="UTF-8"?>
<svg width="27px" height="15px" viewBox="0 0 27 15" version="1.1" xmlns="http://www.w3.org/2000/svg" xmlns:xlink="http://www.w3.org/1999/xlink">
    <title>03E18147-E83D-415D-BB9A-FA6C715904C7</title>
    <g id="Page-1" stroke="none" stroke-width="1" fill="none" fill-rule="evenodd">
        <g id="375px_FAQs" transform="translate(-9.000000, -17.000000)" fill="#3ECCCD">
            <g id="header" transform="translate(0.000000, 1.000000)">
                <g id="hamburger_icon" transform="translate(9.000000, 16.000000)">
                    <g id="Path">
                        <path d="M1.40740741,0 L25.5925926,0 C26.3703704,0 27,0.68 27,1.52 L27,1.52 C27,2.32 26.3703704,3 25.5925926,3 L1.40740741,3 C0.62962963,3 0,2.32 0,1.52 L0,1.52 C0.037037037,0.68 0.666666667,0 1.40740741,0 L1.40740741,0 Z"></path>
                        <path d="M1.40740741,6 L25.5925926,6 C26.3703704,6 27,6.68 27,7.52 L27,7.52 C27,8.32 26.3703704,9 25.5925926,9 L1.40740741,9 C0.62962963,9 0,8.32 0,7.52 L0,7.52 C0.037037037,6.68 0.666666667,6 1.40740741,6 L1.40740741,6 Z"></path>
                        <path d="M1.40740741,12 L25.5925926,12 C26.3703704,12 27,12.68 27,13.48 L27,13.48 C27,14.32 26.3703704,15 25.5925926,15 L1.40740741,15 C0.62962963,15 0,14.32 0,13.48 L0,13.48 C0.037037037,12.68 0.666666667,12 1.40740741,12 L1.40740741,12 Z"></path>
                    </g>
                </g>
            </g>
        </g>
    </g>
</svg>