<?xml version="1.0" encoding="utf-8"?>
<!-- Generator: Adobe Illustrator 24.1.2, SVG Export Plug-In . SVG Version: 6.00 Build 0)  -->
<svg version="1.1" id="Layer_1" xmlns="http://www.w3.org/2000/svg" xmlns:xlink="http://www.w3.org/1999/xlink" x="0px" y="0px"
	 viewBox="0 0 36.55 34.79" style="enable-background:new 0 0 36.55 34.79;" xml:space="preserve">
<style type="text/css">
	.st0{fill:#FFFFFF;}
</style>
<g>
	<g>
		<path class="st0" d="M9.41,33.57V12.28H2.34v21.29H9.41L9.41,33.57z M5.87,9.38c2.47,0,4-1.63,4-3.67
			C9.82,3.62,8.33,2.03,5.92,2.03c-2.42,0-4,1.59-4,3.67c0,2.04,1.53,3.67,3.91,3.67H5.87L5.87,9.38z"/>
		<path class="st0" d="M13.32,33.57h7.07V21.68c0-0.63,0.05-1.27,0.23-1.72c0.51-1.27,1.67-2.59,3.63-2.59
			c2.56,0,3.59,1.95,3.59,4.81v11.39h7.08V21.36c0-6.54-3.49-9.58-8.14-9.58c-3.82,0-5.49,2.13-6.42,3.59h0.05v-3.09h-7.07
			C13.42,14.28,13.32,33.57,13.32,33.57L13.32,33.57z"/>
	</g>
</g>
</svg>
