<?xml version="1.0" encoding="UTF-8"?>
<svg width="97px" height="89px" viewBox="0 0 97 89" version="1.1" xmlns="http://www.w3.org/2000/svg" xmlns:xlink="http://www.w3.org/1999/xlink">
    <title>62237B69-1A13-4ED4-BEC1-24ECEFF0DCA7</title>
    <g id="Page-1" stroke="none" stroke-width="1" fill="none" fill-rule="evenodd">
        <g id="use_cases-copy" transform="translate(-1337.000000, -860.000000)" fill-rule="nonzero">
            <g id="Top-right-corner" transform="translate(1337.000000, 860.000000)">
                <polygon id="Path" fill="#1ABDC5" points="97 19 94.9848866 19 94.9848866 2 77 2 77 0 97 0"></polygon>
                <circle id="Oval" fill="#CECECE" cx="81" cy="19" r="2"></circle>
                <circle id="Oval" fill="#CECECE" cx="70" cy="19" r="2"></circle>
                <circle id="Oval" fill="#CECECE" cx="59" cy="19" r="2"></circle>
                <circle id="Oval" fill="#CECECE" cx="48" cy="19" r="2"></circle>
                <circle id="Oval" fill="#CECECE" cx="36" cy="19" r="2"></circle>
                <circle id="Oval" fill="#CECECE" cx="25" cy="19" r="2"></circle>
                <circle id="Oval" fill="#CECECE" cx="81" cy="30" r="2"></circle>
                <circle id="Oval" fill="#CECECE" cx="70" cy="30" r="2"></circle>
                <circle id="Oval" fill="#CECECE" cx="59" cy="30" r="2"></circle>
                <circle id="Oval" fill="#CECECE" cx="81" cy="42" r="2"></circle>
                <circle id="Oval" fill="#CECECE" cx="70" cy="42" r="2"></circle>
                <circle id="Oval" fill="#CECECE" cx="81" cy="53" r="2"></circle>
                <circle id="Oval" fill="#CECECE" cx="70" cy="53" r="2"></circle>
                <circle id="Oval" fill="#CECECE" cx="81" cy="64" r="2"></circle>
                <circle id="Oval" fill="#CECECE" cx="70" cy="64" r="2"></circle>
                <circle id="Oval" fill="#CECECE" cx="81" cy="75" r="2"></circle>
                <circle id="Oval" fill="#CECECE" cx="70" cy="75" r="2"></circle>
                <circle id="Oval" fill="#CECECE" cx="81" cy="87" r="2"></circle>
                <circle id="Oval" fill="#CECECE" cx="59" cy="42" r="2"></circle>
                <circle id="Oval" fill="#CECECE" cx="48" cy="30" r="2"></circle>
                <circle id="Oval" fill="#CECECE" cx="36" cy="30" r="2"></circle>
                <circle id="Oval" fill="#CECECE" cx="25" cy="30" r="2"></circle>
                <circle id="Oval" fill="#CECECE" cx="13" cy="19" r="2"></circle>
                <circle id="Oval" fill="#CECECE" cx="2" cy="19" r="2"></circle>
            </g>
        </g>
    </g>
</svg>