<?xml version="1.0" encoding="utf-8"?>
<!-- Generator: Adobe Illustrator 24.1.2, SVG Export Plug-In . SVG Version: 6.00 Build 0)  -->
<svg version="1.1" id="Layer_1" xmlns="http://www.w3.org/2000/svg" xmlns:xlink="http://www.w3.org/1999/xlink" x="0px" y="0px"
	 viewBox="0 0 40.79 33.94" style="enable-background:new 0 0 40.79 33.94;" xml:space="preserve">
<style type="text/css">
	.st0{fill:#FFFFFF;}
</style>
<g>
	<path class="st0" d="M13.42,32.4c14.21,0,21.99-11.78,21.99-21.99c0-0.33-0.01-0.67-0.02-1c1.51-1.09,2.82-2.45,3.85-4.01
		c-1.38,0.61-2.87,1.03-4.44,1.22c1.59-0.96,2.82-2.47,3.39-4.27c-1.5,0.88-3.14,1.53-4.91,1.87c-1.41-1.51-3.42-2.44-5.64-2.44
		c-4.26,0-7.73,3.46-7.73,7.73c0,0.6,0.06,1.2,0.2,1.77C13.7,10.95,7.99,7.89,4.18,3.2C3.51,4.34,3.14,5.67,3.14,7.09
		c0,2.68,1.37,5.05,3.43,6.43c-1.26-0.04-2.47-0.39-3.5-0.97c0,0.03,0,0.06,0,0.1c0,3.75,2.66,6.87,6.2,7.58
		c-0.65,0.17-1.34,0.27-2.03,0.27c-0.5,0-0.98-0.05-1.45-0.14c0.98,3.07,3.83,5.31,7.22,5.36c-2.65,2.07-5.99,3.32-9.6,3.32
		c-0.62,0-1.24-0.03-1.85-0.11C4.99,31.12,9.06,32.4,13.42,32.4"/>
</g>
</svg>
