<?xml version="1.0" encoding="UTF-8"?>
<svg width="15px" height="17px" viewBox="0 0 15 17" version="1.1" xmlns="http://www.w3.org/2000/svg" xmlns:xlink="http://www.w3.org/1999/xlink">
    <title>UploadPhoto</title>
    <g id="Page-1" stroke="none" stroke-width="1" fill="none" fill-rule="evenodd">
        <g id="375px_connect_with_us" transform="translate(-261.000000, -456.000000)" fill="#CECECE">
            <g id="Coffee_shop" transform="translate(82.000000, 235.000000)">
                <g id="UploadPhoto" transform="translate(179.900000, 221.900000)">
                    <g>
                        <polygon id="Path" fill-rule="nonzero" points="9.71923077 2.22619048 2.76772797 2.22619048 2.76772797 12.8333333 0 2.55357143 9.0755731 0"></polygon>
                        <path d="M13.3,15.4 L3.06923077,15.4 L3.06923077,3.08 L13.3,3.08 L13.3,15.4 Z M3.6006993,14.9338378 L12.834965,14.9338378 L12.834965,3.61275676 L3.6006993,3.61275676 L3.6006993,14.9338378 Z" id="Shape" fill-rule="nonzero"></path>
                        <path d="M8.69615385,7.95666667 C8.69615385,7.25083333 8.12067308,6.67333333 7.41730769,6.67333333 C6.71394231,6.67333333 6.13846154,7.25083333 6.13846154,7.95666667 C6.13846154,8.6625 6.71394231,9.24 7.41730769,9.24 C8.12067308,9.24 8.69615385,8.6625 8.69615385,7.95666667 Z" id="Path" fill-rule="nonzero"></path>
                        <polygon id="Path" fill-rule="nonzero" points="12.2769231 14.3733333 12.2769231 11.3948718 10.4581197 8.21333333 7.85982906 12.7487179 6.3008547 10.785641 4.09230769 14.3733333"></polygon>
                    </g>
                </g>
            </g>
        </g>
    </g>
</svg>