<?xml version="1.0" encoding="utf-8"?>
<!-- Generator: Adobe Illustrator 24.1.3, SVG Export Plug-In . SVG Version: 6.00 Build 0)  -->
<!DOCTYPE svg PUBLIC "-//W3C//DTD SVG 1.1//EN" "http://www.w3.org/Graphics/SVG/1.1/DTD/svg11.dtd" [
	<!ENTITY ns_extend "http://ns.adobe.com/Extensibility/1.0/">
	<!ENTITY ns_ai "http://ns.adobe.com/AdobeIllustrator/10.0/">
	<!ENTITY ns_graphs "http://ns.adobe.com/Graphs/1.0/">
	<!ENTITY ns_vars "http://ns.adobe.com/Variables/1.0/">
	<!ENTITY ns_imrep "http://ns.adobe.com/ImageReplacement/1.0/">
	<!ENTITY ns_sfw "http://ns.adobe.com/SaveForWeb/1.0/">
	<!ENTITY ns_custom "http://ns.adobe.com/GenericCustomNamespace/1.0/">
	<!ENTITY ns_adobe_xpath "http://ns.adobe.com/XPath/1.0/">
]>
<svg version="1.1" id="Layer_1" xmlns:x="&ns_extend;" xmlns:i="&ns_ai;" xmlns:graph="&ns_graphs;"
	 xmlns="http://www.w3.org/2000/svg" xmlns:xlink="http://www.w3.org/1999/xlink" x="0px" y="0px" viewBox="0 0 364 287"
	 style="enable-background:new 0 0 364 287;" xml:space="preserve">
<style type="text/css">
	.st0{fill:#0F84A9;stroke:#FDCA21;stroke-width:2.7623;}
	.st1{fill:#F2B066;}
	.st2{fill:#241405;}
	.st3{opacity:0.43;fill:#9D644D;enable-background:new    ;}
	.st4{fill:#9C1313;}
	.st5{opacity:0.33;fill:#0E0F2D;enable-background:new    ;}
	.st6{fill:#F6F6F6;}
	.st7{fill:#352113;}
	.st8{opacity:0.3;fill:#352113;enable-background:new    ;}
	.st9{fill:#FFFFFF;}
	.st10{fill:#3F210D;}
	.st11{fill:#8E4E45;}
	.st12{fill:#D44931;}
	.st13{fill:#CE755F;}
	.st14{fill:#EAEAEA;}
	.st15{fill:url(#SVGID_1_);}
	.st16{fill-rule:evenodd;clip-rule:evenodd;fill:#FDCA21;}
	.st17{font-family:'Montserrat-Medium';}
	.st18{font-size:41.3307px;}
</style>
<metadata>
	<sfw  xmlns="&ns_sfw;">
		<slices></slices>
		<sliceSourceBounds  bottomLeftOrigin="true" height="240" width="301.4" x="30.7" y="24.6"></sliceSourceBounds>
	</sfw>
</metadata>
<g id="Page-1">
	<g id="_x33_75px_x5F_how_x5F_testd_x5F_works" transform="translate(-59.000000, -330.000000)">
		<g id="_x31__x5F_jane3" transform="translate(59.000000, 330.000000)">
			<path id="XMLID_1_" class="st0" d="M297.9,235.8c-0.3,0-0.7,0-1.4,0L80.6,223.1c-10.3-0.7-18.2-6.8-18.5-14.3L58.4,88.7
				c0-3.1,1.4-6.3,4-9c3.7-3.4,9.3-5.6,15.3-5.6c9.3,0,16.4-0.1,21.1-0.1c48.2-0.3,120.4-0.7,216.7-1.1c5.1,0,9.3,1.5,12.3,4.4
				c1.4,1.5,3,3.7,3,6.8l-17.5,141.3C312.4,231.3,305.9,235.8,297.9,235.8z"/>
			<g id="Group" transform="translate(96.000000, 0.000000)">
				<g id="Path" transform="translate(66.569905, 48.268532)">
					<path class="st1" d="M111.9,96.6c-0.7-0.3-1.4,0-2,0.3c-0.7,0.3-1,1-1.4,1.5l0,0c-0.3,1.4,0.3,2.9,2,3.3l10.5,2.9l1.4-5.1
						L111.9,96.6z"/>
					<path class="st1" d="M111.5,102.8c-0.7-0.3-1.4,0-2,0.3c-0.7,0.3-1,1-1.4,1.5l0,0c-0.3,1.4,0.3,2.9,2,3.3l5.6,1.5
						c1.7,0.3,3.6-0.7,4.2-2.2l0.7-1.9L111.5,102.8z"/>
					<path class="st1" d="M114.5,90.8c-0.7-0.3-1.4,0-2,0.3s-1,1-1.4,1.5l0,0c-0.3,1.4,0.3,2.9,2,3.3l9.2,2.6l1.4-5.1L114.5,90.8z"
						/>
					<path class="st1" d="M118,85.5c-0.7-0.3-1.4,0-2,0.3c-0.7,0.3-0.9,1-1.2,1.7l0,0c-0.3,1.4,0.3,2.9,2,3.3l7.1,1.9l0.7-1.9
						c0.3-1,0-1.5-0.3-2.6c-0.3-0.7-1.4-1.4-2-1.5L118,85.5z"/>
				</g>
				<g>
					<path id="Path_1_" class="st2" d="M110.5,155.5c-34.7,24.6-77.1,21.3-87,12.9c-1.4-1-2.6-2.6-3.3-3.9
						c23.2-8.1,17.7-29.7,17.3-30.7l0,0c-1-7.5-4.9-15.2-8.1-21.3c-20.7-37.2,4.9-74.6,4.9-74.6l91.5,13.8
						C125.8,51.8,156.3,123.2,110.5,155.5z"/>
					<path id="Path_2_" class="st1" d="M137.9,176.8c-3.3-1.5-24.2-19.5-34.4-27.8c-2.9-2.6-7.5-2.9-10.8-0.7
						c-2,1.4-2.9,3.3-3.3,5.5c0,2.2,0.7,4.2,2.6,5.8c13.7,11.3,42.9,35,49.6,32.9c9.2-2.2,37.3-45.9,37.3-45.9l-13.7-2.2
						C165.7,144.5,142.2,179.3,137.9,176.8z"/>
					<path id="Path_3_" class="st2" d="M53,229.5c0,0-15.1,20.3,0,32.9h61.8c0,0,12.7-23.9-3.9-36.2L53,229.5z"/>
					<g transform="translate(21.245714, 43.127236)">
						<rect id="Rectangle" x="48.4" y="79.7" class="st1" width="19.3" height="40.1"/>
						<path id="Path_4_" class="st3" d="M67.7,79.2v17.4c-20,2.9-19.3-17.4-19.3-17.4H67.7z"/>
					</g>
					<path id="Path_5_" class="st4" d="M101.2,194.3c0.3-2.2,1-4.5,1.7-6.5c0.3-0.3,0.3-1,0.7-1.4c0.3-1,1-1.5,1.7-2.2
						c0.3-0.3,0.7-0.7,1-0.7l0,0c0.3-0.3,1-0.7,1.4-1.4l0,0l0,0c8.5-8.7-2.6-20.3-2.6-20.3L97,146h-0.3c-0.7-0.3-1.4-0.3-2.3-0.3
						s-2.3,0-3.3-0.3h-0.3h-1.4l0,0c-1,3.3-3.9,6.5-7.1,6.5c-7.5,0.3-12.3-6.2-12.7-6.8l0,0c0,0,0,0-0.3,0c-0.7,0-1.4,0-2,0
						c-1.7,0-2.9,0.3-4.2,0.3c-2.6,0.3-5.9,0.7-8.1,1.4c-2.6,0.7-5.2,1.5-7.5,3.3c-0.3,0.3-0.3,0.3-0.3,0.3
						c1.4,5.1,10.1,26.5,12.3,42.3c1,6.8,1.7,12.3,1,13.8c-0.7,1.5-1.7,3.9-2.3,6.8l0,0c-2.3,7.1-4.9,16.2-4.9,16.2
						s39.3,8.7,55.2-1.5l0,0c1-0.7,1.7-1.4,2.3-1.9C108.2,219.8,100.7,203.9,101.2,194.3z"/>
					<path id="Path_6_" class="st5" d="M106.5,182.6L106.5,182.6c-0.3,0.3-1,1-1.4,1.4l0,0c-0.3,0.3-0.3,0.7-0.7,1
						c-0.7,0.7-0.7,1.4-1.4,2.2c-0.3,0.3-0.3,1-0.7,1.5c-4.5,0.7-12.1,0-13.7-0.3c-2-0.3-7.1,2.2-12.3,2.2s-9.5-2.6-11.8-6.5
						c6.3,6.2,23.6,0.3,23.6,0.3C99.7,188.4,106.1,182.9,106.5,182.6z"/>
					<path id="Path_7_" class="st6" d="M58.8,205.5c0,0,34.7,5.5,44.5-1c1.7,1.4,1.4,3.3,1.4,3.3s-11.5,6.8-45.7,0.7v-2.9H58.8z"/>
					<g transform="translate(0.926095, 0.000000)">
						<g id="Path_8_">
							<path class="st1" d="M122,105.4L122,105.4c-4.2,10-13.7,24.3-24.5,27.8c-2.9,1-6.9,1.4-10.8,0.7c-1.4,0-2.6-0.3-3.9-0.7
								c-14.1-2.9-31-13.3-39.6-30l0,0l0,0c0,0-14.1,5.8-15.1-13.6c0,0-0.7-11.6,6.6-9h8.5v-30c0,0,0.3-0.3,1.4-0.7
								c6.9-3.6,39.9-18.4,71,0c0.3,0.3,0.7,0.3,1.4,0.7c0,0,1.4,34.6,5.6,45.9C123.2,98.9,123.2,102.5,122,105.4z"/>
							<path class="st3" d="M87,133.8C86.6,133.8,86.6,133.8,87,133.8c-1.7-0.3-2.6-0.3-3.9-0.7c-14.1-2.9-31-13.3-39.6-30l0,0l0,0
								c0,0-14.1,5.8-15.1-13.6c0,0-0.7-11.6,6.6-9h0.7c2.6,1.9,3.6-25.2,5.9-15.9l5.2-1.2c0,0,7.1-2.9,4.9,5.8
								C43.5,98,53.3,123.5,87,133.8z"/>
							<path class="st3" d="M46.2,70.9c0,0,37.9-12.9,45.4-20.7c6.6,4.2,26.1,14.8,26.1,14.8l-0.7-7.7L94.4,35.1L43.2,57.7
								L46.2,70.9z"/>
							<path class="st7" d="M37,98.9c-0.7,0-1.4-0.3-2-0.7c-0.3,0-0.3-0.3,0-0.3c0-0.3,0.3-0.3,0.3,0c0.7,0.3,1.7,0.7,2.3,0.3
								c0.7-0.7,0.3-3.6-1-5.1c-0.3-0.7-0.3-1-0.3-1.4C36.7,91.3,37,91,38,91c0.3,0,0.7,0,1-0.3c0.3-0.3,0-0.7,0-1
								c-1.4-1.5-3.6-4.2-5.6-3.6c-1,0.3-1.4,0.7-1.7,1.4c-0.3,1,0.7,2.2,0.7,2.2s0,0.3,0,0.7c0,0-0.3,0-0.7,0c0,0-1.4-1.4-1-2.9
								c0.3-1,1-1.4,2-1.9c2.3-1,4.5,1.5,6.3,3.9c0.3,0.7,0.3,1.4,0,1.5c-0.3,0.7-1,0.7-1.7,0.7c-1,0-1,0.3-1,0.3s0,0.3,0,0.7
								C37.3,94.1,38.3,97.7,37,98.9C37.9,98.9,37.6,98.9,37,98.9z"/>
							<g transform="translate(15.580190, 23.430823)">
								<path class="st8" d="M60.3,62.3c0,0,0.7-7.5-5.6-8.7c-6.3-1.4-8.1,4.8-8.1,4.8S52.4,55.5,60.3,62.3z"/>
								<path class="st9" d="M46.5,58.1c0,0-0.7,5.5,5.6,7.5c6.3,1.5,10.5-1.9,7.1-4.5C56.3,58.7,50.9,56.8,46.5,58.1z"/>
								<g transform="translate(0.000000, 1.406887)">
									<path class="st10" d="M58.7,60.9c0,1.9-1.4,3.6-2.9,3.9c-1.7,0-3.3-1.5-3.3-3.6c0-1.9,1.4-3.6,2.9-3.9
										C57,57,58.7,58.6,58.7,60.9z"/>
									<g>
										<path class="st10" d="M60.3,60.9c0-0.3,0-0.3-0.3-0.7c0-0.3-0.3-0.7-0.3-0.7c-0.3-0.3-0.3-0.7-0.7-1c-0.3-0.3-0.7-0.7-1-1
											s-1-0.7-1.4-1c-0.7-0.3-1-0.3-1.7-0.7c-0.7,0-1.4-0.3-1.7-0.3s-0.3,0-0.7,0c-0.3,0-0.7,0-1,0c-0.7,0-4.5,0.3-5.9,0
											c-0.7,0-1.7-0.3-2.3-0.3c0,0-1-0.3-1.4-0.3c0,0.3,1,1,1,1c0.7,0.3,1.4,0.7,2,1c0.7,0.3,1,1,1.4,1.5c0,0,0.3-1.9,2.3-1.9
											h0.3c0.3,0,0.7,0,1.4,0c0.3,0,1,0,1.4,0s1,0,1.4,0.3c0.3,0,1,0.3,1.4,0.3c0.3,0,1,0.3,1.4,0.3c0.3,0,0.3,0.3,0.7,0.3
											s0.3,0.3,0.7,0.3c0.3,0.3,0.7,0.3,1,0.7c0.3,0.3,0.7,0.3,1,0.7c0.7,0.3,1,1,1.4,1c0.3,0.3,0.3,0.3,0.3,0.3
											S60.3,61.1,60.3,60.9z"/>
										<path class="st10" d="M45.3,57c0,0-2.6-0.7-2.9-1c0.7,0.7,4.2,2.6,4.2,2.6C46.3,58.6,46.3,57.7,45.3,57z"/>
									</g>
								</g>
							</g>
							<g transform="translate(33.993143, 23.917074)">
								<path class="st8" d="M66.7,61.2c0,0,0-6.8,5.9-7.5c5.9-0.7,7.1,5.1,7.1,5.1S74.7,56,66.7,61.2z"/>
								<path class="st9" d="M79.7,58.9c0,0,0,5.1-5.9,6.2c-5.9,1-9.5-2.9-6.3-4.8C70.6,58.6,76.2,57.2,79.7,58.9z"/>
								<g transform="translate(0.000000, 1.841271)">
									<path class="st10" d="M71.9,59.6c0,1.9,1.4,3.3,2.9,3.3c1.5,0,2.9-1.5,2.9-3.3c0-1.9-1.4-3.3-2.9-3.3
										C72.9,56.4,71.9,58,71.9,59.6z"/>
									<g>
										<path class="st10" d="M66.7,59.3c0,0,0-0.3,0.3-0.7c0-0.3,0.3-0.3,0.3-0.7c0.3-0.3,0.3-0.7,0.7-0.7c0.3-0.3,0.7-0.7,1-0.7
											c0.3-0.3,1-0.3,1.4-0.7c0.3-0.3,1-0.3,1.7-0.3c0.7,0,1,0,1.7,0c0.3,0,0.3,0,0.7,0s0.7,0,1,0c0.3,0,4.2,0.7,5.2,0.7
											c0.7,0,1.4,0,2-0.3c0,0,1-0.3,1,0c0,0.3-1,0.7-1,0.7c-0.7,0.3-1.4,0.3-2,1c-0.7,0.3-1,1-1.4,1.4c0,0,0-1.5-2-1.9h-0.3
											c-0.3,0-0.7,0-1,0c-0.3,0-0.7,0-1.4,0c-0.3,0-1,0-1.4,0s-1,0-1.4,0s-0.7,0-1.4,0.3c-0.3,0-0.3,0-0.7,0.3
											c-0.3,0-0.3,0-0.7,0.3c-0.3,0-0.7,0.3-1,0.3c-0.3,0.3-0.6,0.3-0.9,0.6c-0.7,0.3-1,0.7-1.4,1c-0.3,0.3-0.3,0.3-0.3,0.3
											S66.7,59.6,66.7,59.3z"/>
										<path class="st10" d="M81.1,57.7c0,0,2.6-0.3,2.9-0.3c-0.7,0.7-4.2,1.9-4.2,1.9C79.7,58.7,79.7,58,81.1,57.7z"/>
									</g>
								</g>
							</g>
							<g transform="translate(21.736000, 37.013439)">
								<g>
									<path class="st3" d="M65.3,87.8c0,0,0.7,0,1.7,0.3c0.3,0,1,0,1.7,0.3c0.7,0,1.4,0.3,1.7,0.3s0.7,0,1,0c0.3,0,0.7,0,1,0
										s0.7,0,0.7,0c0.3,0,0.3,0,0.7,0c0.3,0,0.3,0,0.7-0.3c0.3,0,0.3,0,0.3-0.3c0.3,0,0.3-0.3,0.3-0.3s0,0-0.3,0.3l-0.6,0.3
										c0,0-0.3,0.3-0.7,0.3h-0.3h-0.3c-0.3,0-0.7,0-1,0c-0.7,0-1.4,0-2,0c-0.7,0-1.4-0.3-1.7-0.3c-0.7,0-1-0.3-1.7-0.3
										C65.6,88.2,65.3,87.8,65.3,87.8z"/>
									<g>
										<path class="st11" d="M83.9,73.9L83.9,73.9c0,0.3-0.3,1-1.4,2.2c-0.3,0.3-1.7,1.5-1.7,1.9c-2,1.9-5.2,3.9-9.2,3.6
											c-5.1-0.3-10.1-2.2-14-4.6c-1-0.7-2-1.4-2.9-1.9l0,0c-0.3,0-0.3-0.3-0.7-0.3l0,0c-1-0.7-2-1.5-2.6-2.2
											c-0.3-0.3-0.7-0.7-1-1.4c0.7,0.7,1.7,1,2.6,1.5c2.3,1,5.6,2.2,8.5,2.6c4.2,0.3,9.2,0.7,13,0.3
											C80,74.9,83.9,73.9,83.9,73.9z"/>
										<path class="st6" d="M83.9,73.9L83.9,73.9c0,0.3-0.3,1-1.4,2.2c-16,4.2-27.8-1.4-28.5-1.5l0,0c-1-0.7-2-1.5-2.6-2.2
											c-0.3-0.3-0.7-0.7-1-1.4c0.7,0.7,1.7,1,2.6,1.5C62.6,76.5,83.9,73.9,83.9,73.9z"/>
									</g>
								</g>
								<g>
									<g>
										<path class="st12" d="M73.4,71.6c-1.4,0-2,1-2.3,1.9c-0.7-1-1.4-1.9-2.3-1.9c-1.7,0-16.6,0.7-18.3-0.7
											c0,0,4.5,4.8,21.3,3.9c2.3,0,8.5-0.7,11.8-1C81.9,73.9,80,72,73.4,71.6z"/>
										<path class="st13" d="M83.9,73.9h-0.3H83.9z"/>
									</g>
									<path class="st12" d="M50.6,70.9c0.7,1.4,2,1.9,3.3,2.9c4.5,3.6,10.8,6.5,16.6,7.1c2,0.3,4.2,0,6.3-0.7
										c1.4-0.3,2.3-1,3.3-1.9c1.4-1.4,2.3-2.2,3.3-3.3c-1.7,3.3-4.9,10.6-11.1,10.4C65.9,85.3,59,83.9,50.6,70.9z"/>
								</g>
							</g>
							<path class="st7" d="M77.8,71.5c0,0,0-2.6-1.4-2.9c-1.4-0.3-8.5-2.2-12.3-1c-3.9,1.4-4.2,2.2-4.2,2.2s5.2-1.4,10.1,0
								C75,71.5,78.1,72.8,77.8,71.5z"/>
							<path class="st7" d="M100.3,72.8c0,0,0-2.6,1-2.9c1-0.3,7.1-1.9,10.5-1c3.6,1.4,3.6,2.2,3.6,2.2s-4.5-1.4-8.5,0
								C103.3,72.5,100.3,74.1,100.3,72.8z"/>
							<path class="st2" d="M32.1,79.9c0,0,3.6-1.4,6.9,4.5c3.3,5.9,5.1,11.3,5.1,11.3s-2-43.6,11.5-45c13.4-1.2-18.6-4.1-21-3.8
								C32.8,47.5,28.8,71.5,32.1,79.9z"/>
							<path class="st2" d="M124.9,54c-0.3,6.8-6.9,19.1-6.9,19.1s-0.3-3.3-0.7-8.1c-2-2.2-23.6-14.8-25.9-18.1l0,0
								c-0.3,0.7-1,1.4-1.7,1.9C80.7,57.6,45.8,67,45.8,67L34,79.9c-3.3-0.7-4.2,1.4-4.2,1.4s-18.3-3.9,1-38.7
								c14-25.9,43.5-20.5,60.8-17.6c24.5-1.4,30.1,21,33,25.9C124.9,51.8,125.2,52.8,124.9,54z"/>
							<path class="st2" d="M91.6,47.2C91.6,47.2,91.6,47,91.6,47.2c-5.2,9-45.7,20-45.7,20c-6.3,0,42.9-11.9,45.7-31.9
								C91.6,35.3,94.4,40.5,91.6,47.2z"/>
							<path class="st3" d="M85.3,101.6c0,0,10.1,1.5,12.1-1.9C98.1,103.5,91.3,107.3,85.3,101.6z"/>
						</g>
						<g transform="translate(6.155810, 33.765281)">
							<ellipse id="Oval" class="st9" cx="34.1" cy="70.6" rx="4.5" ry="4.5"/>
							<path id="Path_9_" class="st14" d="M36,73.9c-2.6,0-4.5-1.9-4.5-4.5c0-1.4,0.3-2.2,1.4-2.9c-2,0.7-3.3,2.2-3.3,4.2
								c0,2.6,2,4.5,4.5,4.5c1.4,0,2.6-0.7,3.3-1.4C37.1,73.9,36.4,73.9,36,73.9z"/>
						</g>
					</g>
					<path id="Path_10_" class="st1" d="M158.5,137.8c0,0-6.9-3.3-9.8,0.7c-2.9,3.6-0.3,10.4,10.8,14.5
						C170.3,157.1,158.5,137.8,158.5,137.8z"/>
					<g id="Path_11_" transform="translate(9.424381, 55.302966)">
						<path class="st1" d="M64.4,141.9c-2-3.3-11.1-29.1-15.4-41.1c-1.4-3.9-4.9-6.2-8.8-5.8c-2.3,0-4.2,1.4-5.6,3.3
							c-1.4,1.9-1.7,4.2-0.7,6.2c5.9,16.7,18.9,51.7,26.1,53.2c9.2,2.6,38.9-17.1,38.9-17.1l-4.9-7.7
							C94.2,132.8,66.8,146.1,64.4,141.9z"/>
						<g transform="translate(25.059048, 10.334458)">
							<path class="st1" d="M69.7,132.2c0,0,15.7-5.1,16.4-7.5c1-2.2-5.9-11.6-8.1-11c-2,0.7-12.3,10.4-12.3,10.4L69.7,132.2z"/>
							
								<linearGradient id="SVGID_1_" gradientUnits="userSpaceOnUse" x1="-243.2037" y1="100.3525" x2="-240.8852" y2="100.3525" gradientTransform="matrix(5.1117 0 0 -4.1724 1318.8687 531.4991)">
								<stop  offset="0" style="stop-color:#F2B066"/>
								<stop  offset="0.1331" style="stop-color:#F2B36D"/>
								<stop  offset="0.3217" style="stop-color:#F2BC7F"/>
								<stop  offset="0.5433" style="stop-color:#F2CA9E"/>
								<stop  offset="0.788" style="stop-color:#F2DEC8"/>
								<stop  offset="1" style="stop-color:#F2F2F2"/>
							</linearGradient>
							<path class="st15" d="M85.2,108.2l-9.5,7.1l1.7,2.2l9.5-6.8c0.7-0.7,1-1.5,0.3-2.2C86.7,108,85.9,108,85.2,108.2z"/>
							<path class="st1" d="M71.8,115.4c0,0-2.9,4.8-2.6,7.1c0.3,1.9,0,3.3,0,3.3l4.9-4.8c0,0,2.3-7.7,2-8.4c0,0-1.7-2.2-2-1.5
								C73.7,111.4,71.8,115.4,71.8,115.4z"/>
						</g>
					</g>
					<path id="Path_12_" d="M181.6,160.3c1-2.9,12.1-53.2,12.1-53.2l-28.8-1.4l-13,55.3L181.6,160.3z"/>
					<path id="Path_13_" class="st1" d="M185,134.2c0,0-15.1-6.8-14.1-8.7c1-2.2,21,6.2,21.9,6.5c1,0.7-1.7,6.8-1.7,9s0.7,7.5-2,11
						c-2.6,3.6-9.8,5.5-9.8,5.5l2.9-9.3c0,0-13-1.5-13-2.2c0-0.7,2.6-1.5,2.6-1.5s-6.9-0.3-7.5-1.9c-0.7-1.5,3.6-1.5,3.6-1.5
						s-4.2-1-4.2-1.9c0-1,7.8-2.6,10.5-3.3C176.8,134.9,185,134.2,185,134.2z"/>
				</g>
			</g>
			<ellipse id="Oval_1_" class="st16" cx="58.4" cy="82.1" rx="27.7" ry="27.6"/>
			<text transform="matrix(1.005 0 0 1 50.4717 98.1362)" class="st9 st17 st18">1</text>
		</g>
	</g>
</g>
</svg>
