<?xml version="1.0" encoding="UTF-8"?>
<svg width="253px" height="163px" viewBox="0 0 253 163" version="1.1" xmlns="http://www.w3.org/2000/svg" xmlns:xlink="http://www.w3.org/1999/xlink">
    <title>1_jane3</title>
    <defs>
        <linearGradient x1="0.202271145%" y1="51.4108952%" x2="100.592488%" y2="51.4108952%" id="linearGradient-1">
            <stop stop-color="#F2B066" offset="0%"></stop>
            <stop stop-color="#F2B36D" offset="13.31%"></stop>
            <stop stop-color="#F2BC7F" offset="32.17%"></stop>
            <stop stop-color="#F2CA9E" offset="54.33%"></stop>
            <stop stop-color="#F2DEC8" offset="78.8%"></stop>
            <stop stop-color="#F2F2F2" offset="100%"></stop>
        </linearGradient>
    </defs>
    <g id="Page-1" stroke="none" stroke-width="1" fill="none" fill-rule="evenodd">
        <g id="375px_how_testd_works" transform="translate(-59.000000, -330.000000)">
            <g id="1_jane3" transform="translate(59.000000, 330.000000)">
                <path d="M174.788321,93 C174.644769,93 174.501217,93 174.214112,93 L80.6180049,87.4657795 C76.1678832,87.1958175 72.7226277,84.4961977 72.5790754,81.256654 L71,28.8840304 C71,27.5342205 71.5742092,26.1844106 72.7226277,24.9695817 C74.3017032,23.4847909 76.7420925,22.539924 79.3260341,22.539924 C83.393425,22.5186174 86.4439683,22.5026374 88.4776638,22.4919841 C109.348537,22.3826543 140.654847,22.2186596 182.396594,22 C184.549878,22 186.416058,22.6749049 187.708029,23.8897338 C188.282238,24.5646388 189,25.5095057 189,26.8593156 L181.391727,88.4106464 C181.104623,90.9752852 178.233577,93 174.788321,93 Z" id="XMLID_1_" stroke="#FDCA21" stroke-width="1.2" fill="#0F84A9" fill-rule="nonzero"></path>
                <g id="Group" transform="translate(96.000000, 0.000000)" fill-rule="nonzero">
                    <g transform="translate(66.569905, 48.268532)" fill="#F2B066" id="Path">
                        <path d="M2.0592,5.06479211 C1.77592381,4.92410344 1.49264762,5.06479211 1.20937143,5.20548078 C0.926095238,5.34616945 0.784457143,5.62754679 0.642819048,5.90892413 L0.642819048,5.90892413 C0.501180952,6.47167881 0.784457143,7.17512216 1.49264762,7.31581083 L6.02506667,8.58200886 L6.59161905,6.33099014 L2.0592,5.06479211 Z"></path>
                        <path d="M1.9175619,7.73787684 C1.63428571,7.59718817 1.35100952,7.73787684 1.06773333,7.87856551 C0.784457143,8.01925418 0.642819048,8.30063152 0.501180952,8.58200886 L0.501180952,8.58200886 C0.359542857,9.14476353 0.642819048,9.84820688 1.35100952,9.98889555 L3.75885714,10.6923389 C4.46704762,10.8330276 5.31687619,10.4109616 5.60015238,9.70751821 L5.88342857,8.8633862 L1.9175619,7.73787684 Z"></path>
                        <path d="M3.19230476,2.53239606 C2.90902857,2.39170739 2.62575238,2.53239606 2.34247619,2.67308473 C2.0592,2.8137734 1.9175619,3.09515073 1.77592381,3.37652807 L1.77592381,3.37652807 C1.63428571,3.93928275 1.9175619,4.6427261 2.62575238,4.78341477 L6.59161905,5.90892413 L7.15817143,3.65790541 L3.19230476,2.53239606 Z"></path>
                        <path d="M4.75032381,0.28137734 C4.46704762,0.14068867 4.18377143,0.28137734 3.90049524,0.422066009 C3.61721905,0.562754679 3.47558095,0.844132019 3.33394286,1.12550936 L3.33394286,1.12550936 C3.19230476,1.68826404 3.47558095,2.39170739 4.18377143,2.53239606 L7.29980952,3.37652807 L7.58308571,2.53239606 C7.72472381,2.11033005 7.58308571,1.82895271 7.44144762,1.4068867 C7.29980952,1.12550936 6.87489524,0.844132019 6.59161905,0.703443349 L4.75032381,0.28137734 Z"></path>
                    </g>
                    <g>
                        <path d="M39.168381,57.9760503 C24.1547429,68.6683892 5.74179048,67.2615025 1.49264762,63.6035971 C0.926095238,63.1815311 0.359542857,62.4780877 0.0762666667,61.9153331 C10.1325714,58.3981163 7.72472381,48.9719754 7.58308571,48.5499094 C7.58308571,48.5499094 7.58308571,48.5499094 7.58308571,48.5499094 C7.15817143,45.31407 5.45851429,41.937542 4.04213333,39.2644572 C-4.88106667,23.0852602 6.16670476,6.76537451 6.16670476,6.76537451 L45.8253714,12.8149873 C45.8253714,12.8149873 58.9977143,43.9071833 39.168381,57.9760503 Z" id="Path" fill="#241405"></path>
                        <path d="M51.065981,67.2615025 C49.6496,66.5580592 40.5847619,58.8201823 36.193981,55.1622769 C34.9192381,54.0367676 32.9363048,53.8960789 31.5199238,54.8808996 C30.6700952,55.4436543 30.245181,56.2877863 30.1035429,57.272607 C30.1035429,58.2574276 30.386819,59.1015597 31.2366476,59.805003 C37.1854476,64.7291065 49.7912381,74.9993793 52.7656381,74.1552473 C56.7315048,73.1704266 68.912381,54.1774562 68.912381,54.1774562 L62.963581,53.1926355 C63.105219,53.1926355 52.9072762,68.3870119 51.065981,67.2615025 Z" id="Path" fill="#F2B066"></path>
                        <path d="M14.2400762,90.1937557 C14.2400762,90.1937557 7.72472381,99.0571419 14.2400762,104.544 L41.0096762,104.544 C41.0096762,104.544 46.5335619,94.1330384 39.310019,88.786869 L14.2400762,90.1937557 Z" id="Path" fill="#241405"></path>
                        <g transform="translate(21.245714, 43.127236)">
                            <rect id="Rectangle" fill="#F2B066" x="0.217904762" y="0.639258195" width="8.35664762" height="17.4453951"></rect>
                            <path d="M8.57455238,0.357880856 L8.57455238,7.95506902 C-0.0653714286,9.22126705 0.217904762,0.357880856 0.217904762,0.357880856 L8.57455238,0.357880856 Z" id="Path" fill="#9D644D" opacity="0.43"></path>
                        </g>
                        <path d="M35.2025143,74.8586907 C35.3441524,73.87387 35.6274286,72.8890493 35.9107048,72.0449173 C36.0523429,71.9042286 36.0523429,71.6228513 36.193981,71.4821626 C36.335619,71.0600966 36.6188952,70.7787193 36.9021714,70.4973419 C37.0438095,70.3566532 37.1854476,70.2159646 37.3270857,70.2159646 C37.3270857,70.2159646 37.3270857,70.2159646 37.3270857,70.2159646 C37.4687238,70.0752759 37.752,69.9345872 37.8936381,69.6532099 C37.8936381,69.6532099 37.8936381,69.6532099 37.8936381,69.6532099 C37.8936381,69.6532099 37.8936381,69.6532099 37.8936381,69.6532099 C41.5762286,65.8546158 36.7605333,60.7898237 36.7605333,60.7898237 L33.219581,53.8960789 C33.219581,53.8960789 33.0779429,53.8960789 33.0779429,53.8960789 C32.7946667,53.7553902 32.5113905,53.7553902 32.0864762,53.7553902 C31.6615619,53.7553902 31.0950095,53.7553902 30.6700952,53.6147015 C30.6700952,53.6147015 30.5284571,53.6147015 30.5284571,53.6147015 L29.9619048,53.6147015 L29.9619048,53.6147015 C29.5369905,55.0215882 28.2622476,56.4284749 26.8458667,56.4284749 C23.5881905,56.5691636 21.463619,53.7553902 21.321981,53.4740129 C21.321981,53.4740129 21.321981,53.4740129 21.321981,53.4740129 C21.321981,53.4740129 21.321981,53.4740129 21.1803429,53.4740129 C20.8970667,53.4740129 20.6137905,53.4740129 20.3305143,53.4740129 C19.6223238,53.4740129 19.0557714,53.6147015 18.489219,53.6147015 C17.3561143,53.7553902 15.9397333,53.8960789 14.9482667,54.1774562 C13.8151619,54.4588336 12.6820571,54.8808996 11.6905905,55.5843429 C11.5489524,55.7250316 11.5489524,55.7250316 11.5489524,55.7250316 C12.1155048,57.9760503 15.9397333,67.2615025 16.9312,74.1552473 C17.3561143,77.1097094 17.6393905,79.5014168 17.3561143,80.2048601 C17.0728381,80.9083035 16.6479238,81.8931242 16.3646476,83.1593222 C16.3646476,83.1593222 16.3646476,83.1593222 16.3646476,83.1593222 C15.373181,86.2544729 14.2400762,90.1937557 14.2400762,90.1937557 C14.2400762,90.1937557 31.2366476,93.9923498 38.1769143,89.4903123 C38.1769143,89.4903123 38.1769143,89.4903123 38.1769143,89.4903123 C38.6018286,89.208935 38.8851048,88.9275577 39.168381,88.6461803 C38.1769143,85.9730956 34.9192381,79.0793508 35.2025143,74.8586907 Z" id="Path" fill="#9C1313"></path>
                        <path d="M37.4687238,69.7938986 C37.4687238,69.7938986 37.4687238,69.7938986 37.4687238,69.7938986 C37.3270857,69.9345872 37.0438095,70.2159646 36.9021714,70.3566532 C36.9021714,70.3566532 36.9021714,70.3566532 36.9021714,70.3566532 C36.7605333,70.4973419 36.7605333,70.6380306 36.6188952,70.7787193 C36.335619,71.0600966 36.335619,71.3414739 36.0523429,71.7635399 C35.9107048,71.9042286 35.9107048,72.185606 35.7690667,72.4669833 C33.7861333,72.7483606 30.5284571,72.4669833 29.8202667,72.3262946 C28.9704381,72.185606 26.7042286,73.3111153 24.438019,73.3111153 C22.1718095,73.3111153 20.3305143,72.185606 19.3390476,70.4973419 C22.0301714,73.1704266 29.5369905,70.6380306 29.5369905,70.6380306 C34.4943238,72.3262946 37.3270857,69.9345872 37.4687238,69.7938986 Z" id="Path" fill="#0E0F2D" opacity="0.33"></path>
                        <path d="M16.7895619,79.7827941 C16.7895619,79.7827941 31.8032,82.1745015 36.0523429,79.3607281 C36.7605333,79.9234828 36.6188952,80.7676148 36.6188952,80.7676148 C36.6188952,80.7676148 31.6615619,83.7220769 16.7895619,81.0489921 L16.7895619,79.7827941 Z" id="Path" fill="#F6F6F6"></path>
                        <g transform="translate(0.926095, 0.000000)">
                            <g id="Path">
                                <path d="M43.6245333,36.1693065 C43.6245333,36.1693065 43.6245333,36.1693065 43.6245333,36.1693065 C41.7832381,40.5306553 37.6757333,46.7209567 33.0016762,48.2685321 C31.7269333,48.6905981 30.0272762,48.8312868 28.327619,48.5499094 C27.7610667,48.5499094 27.1945143,48.4092208 26.6279619,48.2685321 C20.5375238,47.0023341 13.1723429,42.5002966 9.48975238,35.1844858 C9.48975238,35.1844858 9.48975238,35.1844858 9.48975238,35.1844858 C9.48975238,35.1844858 9.48975238,35.1844858 9.48975238,35.1844858 C9.48975238,35.1844858 3.39931429,37.7168819 2.9744,29.2755617 C2.9744,29.2755617 2.69112381,24.2107696 5.8071619,25.3362789 L9.48975238,25.3362789 L9.48975238,12.2522326 C9.48975238,12.2522326 9.63139048,12.111544 10.0563048,11.9708553 C13.0307048,10.4232799 27.3361524,3.95160112 40.7917714,11.9708553 C40.9334095,12.111544 41.0750476,12.111544 41.3583238,12.2522326 C41.3583238,12.2522326 41.9248762,27.3059203 43.7661714,32.2300237 C44.1910857,33.3555331 44.1910857,34.9031085 43.6245333,36.1693065 Z" fill="#F2B066"></path>
                                <path d="M28.4692571,48.5499094 C28.327619,48.5499094 28.327619,48.5499094 28.4692571,48.5499094 C27.7610667,48.4092208 27.3361524,48.4092208 26.7696,48.2685321 C20.6791619,47.0023341 13.313981,42.5002966 9.63139048,35.1844858 C9.63139048,35.1844858 9.63139048,35.1844858 9.63139048,35.1844858 C9.63139048,35.1844858 9.63139048,35.1844858 9.63139048,35.1844858 C9.63139048,35.1844858 3.54095238,37.7168819 3.1160381,29.2755617 C3.1160381,29.2755617 2.8327619,24.2107696 5.9488,25.3362789 L6.23207619,25.3362789 C7.36518095,26.1804109 7.79009524,14.3625627 8.7815619,18.4425341 L11.0477714,17.8797794 C11.0477714,17.8797794 14.1638095,16.6135814 13.1723429,20.4121755 C9.63139048,32.9334671 13.8805333,44.047872 28.4692571,48.5499094 Z" fill="#9D644D" opacity="0.43"></path>
                                <path d="M10.7644952,21.1156188 C10.7644952,21.1156188 27.1945143,15.488072 30.4521905,12.111544 C33.2849524,13.9404967 41.7832381,18.5832228 41.7832381,18.5832228 L41.4999619,15.2066947 L31.7269333,5.49917648 L9.48975238,15.3473834 L10.7644952,21.1156188 Z" fill="#9D644D" opacity="0.43"></path>
                                <path d="M6.79862857,33.3555331 C6.51535238,33.3555331 6.23207619,33.2148444 5.9488,33.0741558 C5.8071619,33.0741558 5.8071619,32.9334671 5.9488,32.9334671 C5.9488,32.7927784 6.0904381,32.7927784 6.0904381,32.9334671 C6.37371429,33.0741558 6.79862857,33.2148444 7.08190476,33.0741558 C7.36518095,32.7927784 7.22354286,31.5265804 6.65699048,30.823137 C6.51535238,30.5417597 6.51535238,30.401071 6.51535238,30.2603824 C6.65699048,30.1196937 6.79862857,29.979005 7.22354286,29.979005 C7.36518095,29.979005 7.50681905,29.979005 7.64845714,29.8383164 C7.79009524,29.6976277 7.64845714,29.556939 7.64845714,29.4162503 C7.08190476,28.712807 6.0904381,27.5872976 5.24060952,27.868675 C4.81569524,28.0093636 4.67405714,28.1500523 4.53241905,28.4314297 C4.39078095,28.8534957 4.81569524,29.4162503 4.81569524,29.4162503 C4.81569524,29.4162503 4.81569524,29.556939 4.81569524,29.6976277 C4.81569524,29.6976277 4.67405714,29.6976277 4.53241905,29.6976277 C4.53241905,29.6976277 3.96586667,29.134873 4.10750476,28.4314297 C4.24914286,28.0093636 4.53241905,27.868675 4.95733333,27.5872976 C5.9488,27.1652316 6.94026667,28.290741 7.64845714,29.2755617 C7.79009524,29.556939 7.79009524,29.8383164 7.64845714,29.979005 C7.50681905,30.2603824 7.22354286,30.2603824 6.94026667,30.2603824 C6.51535238,30.2603824 6.51535238,30.401071 6.51535238,30.401071 C6.51535238,30.401071 6.51535238,30.5417597 6.51535238,30.6824484 C6.94026667,31.2452031 7.36518095,32.7927784 6.79862857,33.3555331 C7.22354286,33.3555331 7.08190476,33.3555331 6.79862857,33.3555331 Z" fill="#352113"></path>
                                <g transform="translate(15.580190, 23.430823)">
                                    <path d="M8.07337143,4.15647494 C8.07337143,4.15647494 8.35664762,0.920635535 5.66552381,0.357880856 C2.9744,-0.204873823 2.12457143,2.4682109 2.12457143,2.4682109 C2.12457143,2.4682109 4.67405714,1.20201287 8.07337143,4.15647494 Z" fill="#352113" opacity="0.3"></path>
                                    <path d="M2.12457143,2.32752223 C2.12457143,2.32752223 1.84129524,4.71922962 4.53241905,5.56336164 C7.22354286,6.26680499 9.0648381,4.71922962 7.64845714,3.59372026 C6.37371429,2.60889957 3.96586667,1.76476755 2.12457143,2.32752223 Z" fill="#FFFFFF"></path>
                                    <g transform="translate(0.000000, 1.406887)" fill="#3F210D">
                                        <path d="M7.36518095,2.74958824 C7.36518095,3.59372026 6.79862857,4.29716361 6.0904381,4.43785228 C5.38224762,4.43785228 4.67405714,3.73440893 4.67405714,2.89027691 C4.67405714,2.04614489 5.24060952,1.34270154 5.9488,1.20201287 C6.65699048,1.0613242 7.36518095,1.76476755 7.36518095,2.74958824 Z"></path>
                                        <g>
                                            <path d="M8.07337143,2.74958824 C8.07337143,2.60889957 8.07337143,2.60889957 7.93173333,2.4682109 C7.93173333,2.32752223 7.79009524,2.18683356 7.79009524,2.18683356 C7.64845714,2.04614489 7.64845714,1.90545622 7.50681905,1.76476755 C7.36518095,1.62407888 7.22354286,1.48339021 7.08190476,1.34270154 C6.94026667,1.20201287 6.65699048,1.0613242 6.51535238,0.920635535 C6.23207619,0.779946865 6.0904381,0.779946865 5.8071619,0.639258195 C5.52388571,0.639258195 5.24060952,0.498569526 5.09897143,0.498569526 C4.95733333,0.498569526 4.95733333,0.498569526 4.81569524,0.498569526 C4.67405714,0.498569526 4.53241905,0.498569526 4.39078095,0.498569526 C4.10750476,0.498569526 2.40784762,0.639258195 1.84129524,0.498569526 C1.55801905,0.498569526 1.13310476,0.357880856 0.849828571,0.357880856 C0.849828571,0.357880856 0.424914286,0.217192186 0.28327619,0.217192186 C0.28327619,0.357880856 0.708190476,0.639258195 0.708190476,0.639258195 C0.991466667,0.779946865 1.27474286,0.920635535 1.55801905,1.0613242 C1.84129524,1.20201287 1.98293333,1.48339021 2.12457143,1.76476755 C2.12457143,1.76476755 2.26620952,0.920635535 3.1160381,0.920635535 C3.1160381,0.920635535 3.25767619,0.920635535 3.25767619,0.920635535 C3.39931429,0.920635535 3.54095238,0.920635535 3.82422857,0.920635535 C3.96586667,0.920635535 4.24914286,0.920635535 4.39078095,0.920635535 C4.53241905,0.920635535 4.81569524,0.920635535 4.95733333,1.0613242 C5.09897143,1.0613242 5.38224762,1.20201287 5.52388571,1.20201287 C5.66552381,1.20201287 5.9488,1.34270154 6.0904381,1.34270154 C6.23207619,1.34270154 6.23207619,1.48339021 6.37371429,1.48339021 C6.51535238,1.48339021 6.51535238,1.62407888 6.65699048,1.62407888 C6.79862857,1.76476755 6.94026667,1.76476755 7.08190476,1.90545622 C7.22354286,2.04614489 7.36518095,2.04614489 7.50681905,2.18683356 C7.79009524,2.32752223 7.93173333,2.60889957 8.07337143,2.60889957 C8.21500952,2.74958824 8.21500952,2.74958824 8.21500952,2.74958824 C8.21500952,2.74958824 8.07337143,2.89027691 8.07337143,2.74958824 Z"></path>
                                            <path d="M1.55801905,1.0613242 C1.55801905,1.0613242 0.424914286,0.779946865 0.28327619,0.639258195 C0.566552381,0.920635535 2.12457143,1.76476755 2.12457143,1.76476755 C1.98293333,1.76476755 1.98293333,1.34270154 1.55801905,1.0613242 Z"></path>
                                        </g>
                                    </g>
                                </g>
                                <g transform="translate(33.993143, 23.917074)">
                                    <path d="M0.424914286,3.38884644 C0.424914286,3.38884644 0.424914286,0.434384372 2.9744,0.153007033 C5.52388571,-0.128370307 6.0904381,2.40402575 6.0904381,2.40402575 C6.0904381,2.40402575 3.82422857,1.13782772 0.424914286,3.38884644 Z" fill="#352113" opacity="0.3"></path>
                                    <path d="M6.0904381,2.40402575 C6.0904381,2.40402575 6.0904381,4.65504447 3.54095238,5.07711047 C0.991466667,5.49917648 -0.566552381,3.81091245 0.849828571,2.96678043 C2.12457143,2.26333708 4.53241905,1.7005824 6.0904381,2.40402575 Z" fill="#FFFFFF"></path>
                                    <g transform="translate(0.000000, 1.841271)" fill="#3F210D">
                                        <path d="M2.69112381,1.68826404 C2.69112381,2.53239606 3.25767619,3.09515073 3.96586667,3.09515073 C4.67405714,3.09515073 5.24060952,2.39170739 5.24060952,1.68826404 C5.24060952,0.844132019 4.67405714,0.28137734 3.96586667,0.28137734 C3.1160381,0.28137734 2.69112381,0.984820688 2.69112381,1.68826404 Z"></path>
                                        <g>
                                            <path d="M0.424914286,1.54757537 C0.424914286,1.54757537 0.424914286,1.4068867 0.566552381,1.26619803 C0.566552381,1.12550936 0.708190476,1.12550936 0.708190476,0.984820688 C0.849828571,0.844132019 0.849828571,0.703443349 0.991466667,0.703443349 C1.13310476,0.562754679 1.27474286,0.422066009 1.41638095,0.422066009 C1.55801905,0.28137734 1.84129524,0.28137734 1.98293333,0.14068867 C2.12457143,4.99826562e-15 2.40784762,4.99826562e-15 2.69112381,4.99826562e-15 C2.9744,4.99826562e-15 3.1160381,4.99826562e-15 3.39931429,4.99826562e-15 C3.54095238,4.99826562e-15 3.54095238,4.99826562e-15 3.68259048,4.99826562e-15 C3.82422857,4.99826562e-15 3.96586667,4.99826562e-15 4.10750476,4.99826562e-15 C4.24914286,4.99826562e-15 5.9488,0.28137734 6.37371429,0.28137734 C6.65699048,0.28137734 6.94026667,0.28137734 7.22354286,0.14068867 C7.22354286,0.14068867 7.64845714,4.99826562e-15 7.64845714,0.14068867 C7.64845714,0.28137734 7.22354286,0.422066009 7.22354286,0.422066009 C6.94026667,0.562754679 6.65699048,0.562754679 6.37371429,0.844132019 C6.0904381,0.984820688 5.9488,1.26619803 5.8071619,1.4068867 C5.8071619,1.4068867 5.8071619,0.703443349 4.95733333,0.562754679 C4.95733333,0.562754679 4.81569524,0.562754679 4.81569524,0.562754679 C4.67405714,0.562754679 4.53241905,0.562754679 4.39078095,0.562754679 C4.24914286,0.562754679 4.10750476,0.562754679 3.82422857,0.562754679 C3.68259048,0.562754679 3.39931429,0.562754679 3.25767619,0.562754679 C3.1160381,0.562754679 2.8327619,0.562754679 2.69112381,0.562754679 C2.54948571,0.562754679 2.40784762,0.562754679 2.12457143,0.703443349 C1.98293333,0.703443349 1.98293333,0.703443349 1.84129524,0.844132019 C1.69965714,0.844132019 1.69965714,0.844132019 1.55801905,0.984820688 C1.41638095,0.984820688 1.27474286,1.12550936 1.13310476,1.12550936 C0.991466667,1.26619803 0.849828571,1.26619803 0.708190476,1.4068867 C0.424914286,1.54757537 0.28327619,1.68826404 0.141638095,1.82895271 C1.0063992e-14,1.96964138 1.0063992e-14,1.96964138 1.0063992e-14,1.96964138 C1.0063992e-14,1.96964138 0.424914286,1.68826404 0.424914286,1.54757537 Z"></path>
                                            <path d="M6.65699048,0.844132019 C6.65699048,0.844132019 7.79009524,0.703443349 7.93173333,0.703443349 C7.64845714,0.984820688 6.0904381,1.54757537 6.0904381,1.54757537 C6.0904381,1.26619803 6.0904381,0.984820688 6.65699048,0.844132019 Z"></path>
                                        </g>
                                    </g>
                                </g>
                                <g transform="translate(21.736000, 37.013439)">
                                    <g>
                                        <path d="M6.73325714,7.59718817 C6.73325714,7.59718817 7.01653333,7.59718817 7.44144762,7.73787684 C7.58308571,7.73787684 7.8663619,7.73787684 8.1496381,7.87856551 C8.43291429,7.87856551 8.71619048,8.01925418 8.85782857,8.01925418 C8.99946667,8.01925418 9.14110476,8.01925418 9.28274286,8.01925418 C9.42438095,8.01925418 9.56601905,8.01925418 9.70765714,8.01925418 C9.84929524,8.01925418 9.99093333,8.01925418 9.99093333,8.01925418 C10.1325714,8.01925418 10.1325714,8.01925418 10.2742095,8.01925418 C10.4158476,8.01925418 10.4158476,8.01925418 10.5574857,7.87856551 C10.6991238,7.87856551 10.6991238,7.87856551 10.6991238,7.73787684 C10.8407619,7.73787684 10.8407619,7.59718817 10.8407619,7.59718817 C10.8407619,7.59718817 10.8407619,7.59718817 10.6991238,7.73787684 C10.6991238,7.73787684 10.5574857,7.87856551 10.5574857,7.87856551 C10.5574857,7.87856551 10.4158476,8.01925418 10.2742095,8.01925418 C10.2742095,8.01925418 10.1325714,8.01925418 10.1325714,8.01925418 C10.1325714,8.01925418 9.99093333,8.01925418 9.99093333,8.01925418 C9.84929524,8.01925418 9.70765714,8.01925418 9.56601905,8.01925418 C9.28274286,8.01925418 8.99946667,8.01925418 8.71619048,8.01925418 C8.43291429,8.01925418 8.1496381,7.87856551 8.008,7.87856551 C7.72472381,7.87856551 7.58308571,7.73787684 7.29980952,7.73787684 C6.87489524,7.73787684 6.73325714,7.59718817 6.73325714,7.59718817 Z" fill="#9D644D" opacity="0.43"></path>
                                        <g>
                                            <path d="M14.8066286,1.54757537 C14.8066286,1.54757537 14.8066286,1.54757537 14.8066286,1.54757537 C14.8066286,1.68826404 14.6649905,1.96964138 14.2400762,2.53239606 C14.0984381,2.67308473 13.5318857,3.2358394 13.5318857,3.37652807 C12.6820571,4.22066009 11.2656762,5.06479211 9.56601905,4.92410344 C7.29980952,4.78341477 5.1752381,3.93928275 3.47558095,2.95446207 C3.05066667,2.67308473 2.62575238,2.39170739 2.2008381,2.11033005 C2.2008381,2.11033005 2.2008381,2.11033005 2.2008381,2.11033005 C2.0592,2.11033005 2.0592,1.96964138 1.9175619,1.96964138 C1.9175619,1.96964138 1.9175619,1.96964138 1.9175619,1.96964138 C1.49264762,1.68826404 1.06773333,1.26619803 0.784457143,0.984820688 C0.642819048,0.844132019 0.501180952,0.703443349 0.359542857,0.422066009 C0.642819048,0.703443349 1.06773333,0.844132019 1.49264762,1.12550936 C2.48411429,1.54757537 3.90049524,2.11033005 5.1752381,2.25101872 C7.01653333,2.39170739 9.14110476,2.53239606 10.8407619,2.39170739 C13.1069714,1.96964138 14.8066286,1.54757537 14.8066286,1.54757537 Z" fill="#8E4E45"></path>
                                            <path d="M14.8066286,1.54757537 C14.8066286,1.54757537 14.8066286,1.54757537 14.8066286,1.54757537 C14.8066286,1.68826404 14.6649905,1.96964138 14.2400762,2.53239606 C7.29980952,4.36134876 2.2008381,1.96964138 1.9175619,1.82895271 C1.9175619,1.82895271 1.9175619,1.82895271 1.9175619,1.82895271 C1.49264762,1.54757537 1.06773333,1.12550936 0.784457143,0.844132019 C0.642819048,0.703443349 0.501180952,0.562754679 0.359542857,0.28137734 C0.642819048,0.562754679 1.06773333,0.703443349 1.49264762,0.984820688 C5.60015238,2.67308473 14.8066286,1.54757537 14.8066286,1.54757537 Z" fill="#F6F6F6"></path>
                                        </g>
                                    </g>
                                    <g>
                                        <g>
                                            <path d="M10.2742095,0.562754679 C9.70765714,0.562754679 9.42438095,0.984820688 9.28274286,1.4068867 C8.99946667,0.984820688 8.71619048,0.562754679 8.29127619,0.562754679 C7.58308571,0.562754679 1.06773333,0.844132019 0.359542857,0.28137734 C0.359542857,0.28137734 2.34247619,2.39170739 9.56601905,1.96964138 C10.5574857,1.96964138 13.2486095,1.68826404 14.6649905,1.54757537 C13.9568,1.54757537 13.1069714,0.703443349 10.2742095,0.562754679 Z" fill="#D44931"></path>
                                            <path d="M14.8066286,1.54757537 C14.8066286,1.54757537 14.6649905,1.54757537 14.6649905,1.54757537 C14.6649905,1.54757537 14.8066286,1.54757537 14.8066286,1.54757537 Z" fill="#CE755F"></path>
                                        </g>
                                        <path d="M0.359542857,0.28137734 C0.642819048,0.844132019 1.20937143,1.12550936 1.77592381,1.54757537 C3.75885714,3.09515073 6.44998095,4.36134876 8.99946667,4.6427261 C9.84929524,4.78341477 10.8407619,4.6427261 11.6905905,4.36134876 C12.2571429,4.22066009 12.6820571,3.93928275 13.1069714,3.51721674 C13.6735238,2.95446207 14.0984381,2.53239606 14.5233524,2.11033005 C13.8151619,3.51721674 12.398781,6.75305615 9.70765714,6.61236748 C7.01653333,6.47167881 4.04213333,5.90892413 0.359542857,0.28137734 Z" fill="#D44931"></path>
                                    </g>
                                </g>
                                <path d="M24.5033905,21.3969962 C24.5033905,21.3969962 24.5033905,20.2714868 23.9368381,20.1307981 C23.3702857,19.9901095 20.2542476,19.1459775 18.5545905,19.7087321 C16.8549333,20.2714868 16.7132952,20.6935528 16.7132952,20.6935528 C16.7132952,20.6935528 18.9795048,20.1307981 21.1040762,20.6935528 C23.2286476,21.3969962 24.6450286,21.9597508 24.5033905,21.3969962 Z" fill="#352113"></path>
                                <path d="M34.276419,21.9597508 C34.276419,21.9597508 34.276419,20.8342415 34.7013333,20.6935528 C35.1262476,20.5528641 37.8173714,19.8494208 39.2337524,20.2714868 C40.7917714,20.8342415 40.7917714,21.2563075 40.7917714,21.2563075 C40.7917714,21.2563075 38.8088381,20.6935528 37.109181,21.2563075 C35.5511619,21.8190622 34.276419,22.5225055 34.276419,21.9597508 Z" fill="#352113"></path>
                                <path d="M4.67405714,25.0549016 C4.67405714,25.0549016 6.23207619,24.4921469 7.64845714,27.024543 C9.0648381,29.556939 9.91466667,31.9486464 9.91466667,31.9486464 C9.91466667,31.9486464 9.0648381,12.955676 14.872,12.3929213 C20.6791619,11.8301666 6.79862857,10.5639686 5.8071619,10.7046573 C4.95733333,10.9860346 3.25767619,21.3969962 4.67405714,25.0549016 Z" fill="#241405"></path>
                                <path d="M44.8992762,13.799808 C44.7576381,16.7542701 41.9248762,22.1004395 41.9248762,22.1004395 C41.9248762,22.1004395 41.7832381,20.6935528 41.6416,18.5832228 C40.7917714,17.5984021 31.4436571,12.111544 30.4521905,10.7046573 C30.4521905,10.7046573 30.4521905,10.7046573 30.4521905,10.7046573 C30.3105524,10.9860346 30.0272762,11.2674119 29.744,11.5487893 C25.7781333,15.3473834 10.6228571,19.4273548 10.6228571,19.4273548 L5.52388571,25.0549016 C4.10750476,24.7735242 3.68259048,25.6176563 3.68259048,25.6176563 C3.68259048,25.6176563 -4.24914286,23.9293922 4.10750476,8.73501589 C10.1979429,-2.52007769 22.9453714,-0.128370307 30.4521905,1.13782772 C41.0750476,0.575073042 43.4828952,10.2825913 44.7576381,12.3929213 C44.8992762,12.8149873 45.0409143,13.2370533 44.8992762,13.799808 Z" fill="#241405"></path>
                                <path d="M30.4521905,10.8453459 C30.4521905,10.8453459 30.4521905,10.7046573 30.4521905,10.8453459 C28.185981,14.7846287 10.6228571,19.5680435 10.6228571,19.5680435 C7.93173333,19.5680435 29.1774476,14.3625627 30.4521905,5.63986515 C30.4521905,5.63986515 31.7269333,7.89088387 30.4521905,10.8453459 Z" fill="#241405"></path>
                                <path d="M27.7610667,34.4810425 C27.7610667,34.4810425 32.1518476,35.1844858 33.0016762,33.6369104 C33.2849524,35.3251745 30.3105524,37.0134385 27.7610667,34.4810425 Z" fill="#9D644D" opacity="0.43"></path>
                            </g>
                            <g transform="translate(6.155810, 33.765281)">
                                <ellipse id="Oval" fill="#FFFFFF" cx="2.0592" cy="1.98195974" rx="1.98293333" ry="1.96964138"></ellipse>
                                <path d="M2.90902857,3.38884644 C1.77592381,3.38884644 0.926095238,2.54471442 0.926095238,1.41920506 C0.926095238,0.856450381 1.06773333,0.434384372 1.49264762,0.153007033 C0.642819048,0.434384372 0.0762666667,1.13782772 0.0762666667,1.98195974 C0.0762666667,3.1074691 0.926095238,3.95160112 2.0592,3.95160112 C2.62575238,3.95160112 3.19230476,3.67022378 3.47558095,3.38884644 C3.33394286,3.38884644 3.05066667,3.38884644 2.90902857,3.38884644 Z" id="Path" fill="#EAEAEA"></path>
                            </g>
                        </g>
                        <path d="M59.989181,50.2381735 C59.989181,50.2381735 57.014781,48.8312868 55.7400381,50.5195508 C54.4652952,52.0671262 55.5984,55.0215882 60.4140952,56.8505409 C65.0881524,58.6794937 59.989181,50.2381735 59.989181,50.2381735 Z" id="Path" fill="#F2B066"></path>
                        <g transform="translate(9.424381, 55.302966)" id="Path">
                            <path d="M13.8805333,20.8219231 C13.0307048,19.4150364 9.0648381,8.15994285 7.22354286,2.95446207 C6.65699048,1.26619803 5.09897143,0.28137734 3.39931429,0.422066009 C2.40784762,0.422066009 1.55801905,0.984820688 0.991466667,1.82895271 C0.424914286,2.67308473 0.28327619,3.65790541 0.708190476,4.50203743 C3.25767619,11.8178483 8.9232,27.0122246 12.0392381,27.7156679 C16.0051048,28.8411773 28.8941714,20.2591684 28.8941714,20.2591684 L26.7696,16.8826404 C26.7696,16.8826404 14.872,22.6508758 13.8805333,20.8219231 Z" fill="#F2B066"></path>
                            <g transform="translate(25.059048, 10.334458)">
                                <path d="M1.99382857,10.7688424 C1.99382857,10.7688424 8.79245714,8.5178237 9.07573333,7.53300301 C9.50064762,6.54818233 6.52624762,2.4682109 5.53478095,2.74958824 C4.68495238,3.03096558 0.152533333,7.25162567 0.152533333,7.25162567 L1.99382857,10.7688424 Z" fill="#F2B066"></path>
                                <path d="M8.65081905,0.357880856 L4.54331429,3.45303159 L5.25150476,4.43785228 L9.35900952,1.48339021 C9.64228571,1.20201287 9.78392381,0.779946865 9.50064762,0.498569526 C9.35900952,0.217192186 8.93409524,0.217192186 8.65081905,0.357880856 Z" fill="url(#linearGradient-1)"></path>
                                <path d="M2.84365714,3.45303159 C2.84365714,3.45303159 1.56891429,5.56336164 1.71055238,6.54818233 C1.85219048,7.39231434 1.71055238,7.95506902 1.71055238,7.95506902 L3.83512381,5.84473898 C3.83512381,5.84473898 4.82659048,2.4682109 4.68495238,2.18683356 C4.68495238,2.18683356 3.9767619,1.20201287 3.83512381,1.48339021 C3.69348571,1.76476755 2.84365714,3.45303159 2.84365714,3.45303159 Z" fill="#F2B066"></path>
                            </g>
                        </g>
                        <path d="M70.0454857,60.0863804 C70.4704,58.8201823 75.2860952,36.8727498 75.2860952,36.8727498 L62.8219429,36.3099952 L57.156419,60.3677577 L70.0454857,60.0863804 Z" id="Path" fill="#000000"></path>
                        <path d="M71.4618667,48.6905981 C71.4618667,48.6905981 64.9465143,45.736136 65.3714286,44.892004 C65.7963429,43.9071833 74.4362667,47.5650887 74.861181,47.7057774 C75.2860952,47.9871548 74.1529905,50.6602395 74.1529905,51.6450602 C74.1529905,52.6298809 74.4362667,54.8808996 73.3031619,56.4284749 C72.1700571,57.9760503 69.054019,58.8201823 69.054019,58.8201823 L70.3287619,54.7402109 C70.3287619,54.7402109 64.6632381,54.0367676 64.6632381,53.7553902 C64.6632381,53.4740129 65.7963429,53.0519469 65.7963429,53.0519469 C65.7963429,53.0519469 62.8219429,52.9112582 62.5386667,52.2078148 C62.2553905,51.5043715 64.0966857,51.5043715 64.0966857,51.5043715 C64.0966857,51.5043715 62.2553905,51.0823055 62.2553905,50.6602395 C62.2553905,50.2381735 65.6547048,49.5347301 66.7878095,49.2533528 C67.9209143,48.9719754 71.4618667,48.6905981 71.4618667,48.6905981 Z" id="Path" fill="#F2B066"></path>
                    </g>
                </g>
                <circle id="Oval" fill="#FDCA21" cx="71" cy="26" r="12"></circle>
                <text id="1" font-family="Montserrat-SemiBold, Montserrat" font-size="18" font-weight="500" fill="#FFFFFF">
                    <tspan x="67.571" y="33">1</tspan>
                </text>
            </g>
        </g>
    </g>
</svg>