<?xml version="1.0" encoding="utf-8"?>
<!-- Generator: Adobe Illustrator 24.1.3, SVG Export Plug-In . SVG Version: 6.00 Build 0)  -->
<!DOCTYPE svg PUBLIC "-//W3C//DTD SVG 1.1//EN" "http://www.w3.org/Graphics/SVG/1.1/DTD/svg11.dtd" [
	<!ENTITY ns_extend "http://ns.adobe.com/Extensibility/1.0/">
	<!ENTITY ns_ai "http://ns.adobe.com/AdobeIllustrator/10.0/">
	<!ENTITY ns_graphs "http://ns.adobe.com/Graphs/1.0/">
	<!ENTITY ns_vars "http://ns.adobe.com/Variables/1.0/">
	<!ENTITY ns_imrep "http://ns.adobe.com/ImageReplacement/1.0/">
	<!ENTITY ns_sfw "http://ns.adobe.com/SaveForWeb/1.0/">
	<!ENTITY ns_custom "http://ns.adobe.com/GenericCustomNamespace/1.0/">
	<!ENTITY ns_adobe_xpath "http://ns.adobe.com/XPath/1.0/">
]>
<svg version="1.1" id="Layer_1" xmlns:x="&ns_extend;" xmlns:i="&ns_ai;" xmlns:graph="&ns_graphs;"
	 xmlns="http://www.w3.org/2000/svg" xmlns:xlink="http://www.w3.org/1999/xlink" x="0px" y="0px" viewBox="0 0 364 287"
	 style="enable-background:new 0 0 364 287;" xml:space="preserve">
<style type="text/css">
	.st0{fill:#FDCA21;}
	.st1{fill:#0F84A9;}
	.st2{fill:#D1955A;}
	.st3{fill:#F2B066;}
	.st4{fill:#F2F2F2;}
	.st5{opacity:0.1;fill:#F2F2F2;enable-background:new    ;}
	.st6{opacity:0.1;}
	.st7{fill:#DD9E5F;}
	.st8{fill:#E0E0E0;}
	.st9{fill:#1A1A1A;}
	.st10{opacity:0.2;fill:#1A1A1A;enable-background:new    ;}
	.st11{fill:#011C26;}
	.st12{fill:#FFFFFF;}
	.st13{fill:url(#XMLID_4_);}
	.st14{fill:#F2B180;}
	.st15{fill:#9C1313;}
	.st16{fill:#F0B487;}
	.st17{fill:#DBAB85;}
	.st18{fill:#FABC8D;}
	.st19{fill:#FFFDFF;}
	.st20{fill:#D44931;}
	.st21{fill:#876E55;}
	.st22{fill:#261F18;}
	.st23{opacity:0.7;fill:#FFFDFF;enable-background:new    ;}
	.st24{fill:#241405;}
	.st25{fill:#524032;}
	.st26{fill:none;stroke:#CCCCCC;stroke-width:1.1288;}
	.st27{fill:#BCBEC0;}
	.st28{fill:#25DD83;}
	.st29{opacity:0.25;fill:#F2F2F2;enable-background:new    ;}
	.st30{fill-rule:evenodd;clip-rule:evenodd;fill:#FDCA21;}
	.st31{font-family:'Montserrat-Medium';}
	.st32{font-size:44.6793px;}
</style>
<metadata>
	<sfw  xmlns="&ns_sfw;">
		<slices></slices>
		<sliceSourceBounds  bottomLeftOrigin="true" height="240.2" width="300" x="34.1" y="22"></sliceSourceBounds>
	</sfw>
</metadata>
<g id="How-It-Works" transform="translate(-821.000000, -792.000000)">
	<g id="_x32__x5F_profile" transform="translate(821.000000, 792.000000)">
		<path id="Path" class="st0" d="M73.8,69.6l241.8-1.3c10.8,0,19.2,6.9,18.5,15.4l-17.8,149.2c-0.3,8.2-9.5,14.7-19.9,14.1
			L76.9,233.7c-12.2-0.7-21.5-8.5-21.9-18.3L51.2,88.2C50.6,78.1,61.1,69.6,73.8,69.6z"/>
		<path id="XMLID_1_" class="st1" d="M297.5,243.7c-0.3,0-0.7,0-1.4,0l-219-13.4c-10.4-0.7-18.5-7.2-18.9-15.2L54.6,87.4
			c0-3.3,1.4-6.5,4-9.5c3.7-3.6,9.3-5.9,15.5-5.9l241.2-1.5c5.1,0,9.3,1.6,12.3,4.6c1.4,1.6,3,3.9,3,7.2l-17.8,150
			C312.3,238.8,305.2,243.7,297.5,243.7z"/>
		<polygon id="Path_1_" class="st2" points="238.3,135.6 228,127.6 228,158.8 		"/>
		<path id="Path_2_" class="st3" d="M160.3,184.4c0,0,0,0.3,0.3,0.3l0.3,0.3c0,0.3,0.3,0.3,0.3,0.7l0,0l0,0c0,0.3,0.3,0.3,0.3,0.7
			l0.3,0.3c0,0.3,0.3,0.3,0.3,0.7l0,0c0,0,0,0.3,0.3,0.3c0.3,0.3,0.3,0.7,0.7,0.9l0,0l0.3,0.3c0.3,0.3,0.7,0.7,0.7,1.3
			c0.3,0.3,0.3,0.7,0.7,0.9c0.3,0.3,0.3,0.7,0.7,0.9c0,0.3,0.3,0.3,0.3,0.7c0.3,0.7,0.7,1.3,1.4,2l0,0c0.3,0.3,0.7,0.9,1,1.3
			c0,0.3,0.3,0.3,0.3,0.7c0,0.3,0.3,0.3,0.3,0.7c0,0.3,0.3,0.3,0.3,0.7c0.3,0.3,0.3,0.7,0.7,0.9c0.3,0.3,0.7,0.7,0.7,1.3
			c0,0.3,0.3,0.3,0.3,0.7c2.7,3.6,5.5,8,8.5,11.9c1,1.3,1.7,2.3,2.7,3.6c0.3,0.3,0.3,0.7,0.7,0.9c0.3,0.7,0.7,0.9,1,1.6
			c0.3,0.3,0.3,0.7,0.7,0.9c0.3,0.3,0.7,0.7,1,1.3c0.3,0.7,1,1.3,1.4,1.6l0,0c0.3,0.3,0.3,0.7,0.7,0.9l0.3,0.3l0.3,0.3l0.3,0.3
			c0.3,0.3,0.3,0.7,0.7,0.9l0.3,0.3l0.3,0.3c4.5,5.6,8.8,10.3,11.5,12.5c0,0,0,0,0.3,0.3c0.3,0,0.3,0.3,0.7,0.3c0.7,0.7,1.7,1.3,2,2
			c1.4,1.6,3.7,4.9,6.4,9.9c0,0.3,0.3,0.7,0.3,0.9c1,1.6,2,3.6,3,5.9c0,0.3,0.3,0.7,0.3,0.9l0,0c0.7,1.6,1.4,3.3,2,4.9h36.3
			l-8.1-22.5l0,0l-3.7-9.3v-0.3L222.1,185v-0.3l0,0l-0.7-1.3h-61.6C159.6,183.4,160,183.7,160.3,184.4L160.3,184.4z"/>
		<path id="Path_3_" class="st4" d="M148.4,100.8l1-12.1c0,0-3.3-0.7-4.8,0.7C142.9,90.2,139.3,94.1,148.4,100.8z"/>
		<path id="Path_4_" class="st3" d="M151.6,103V87.5c0,0-4.1-0.7-5.8,0.9C144.1,90.5,139.9,95.7,151.6,103z"/>
		<path id="Path_5_" class="st5" d="M146.8,88.6c1-0.9,2.5-1.3,3.8-1.3c-1.4,0-3.4,0-4.8,1.3c-1.7,1.6-5.8,6.4,5.8,13.2v-0.7
			C140.9,95,145,90.2,146.8,88.6z"/>
		<path id="Path_6_" class="st4" d="M145.6,107.2l0.3,15.9c0,0-8.7-3.2-10.7-6.3c0,0-4-5.1,0-8.7c1-0.9,2.3-1.3,3.7-1.6
			C140.3,106.2,142.6,106.2,145.6,107.2z"/>
		<path id="Path_7_" class="st3" d="M151.6,107.3v20.2c0,0-11.2-4.4-13.7-8.1c0,0-5.1-6.8,0-11.1c1.4-0.9,3.1-1.6,4.8-2.1
			C144.8,106.3,147.8,106.3,151.6,107.3z"/>
		<path id="Path_8_" class="st5" d="M139.3,119.7c0,0-5.1-6.5,0-10.8c1.4-0.9,3.1-1.6,4.8-2c1.7,0,4.1,0,7.5,0.7v-0.3
			c-3.8-0.9-6.8-0.9-8.9-0.9c-1.7,0-3.4,0.7-4.8,2c-5.1,4.3,0,10.8,0,10.8c1.4,2.3,6.2,4.9,9.9,6.3
			C144.1,123.6,140.4,121.7,139.3,119.7z"/>
		<path id="Path_9_" class="st4" d="M147.1,129.2c0-0.3-5.5-1.6-6.2-1.6c-3.7-0.3-6.4,2.3-6.4,5.9c0,3.3,2.7,6.5,6.2,8.2
			c0.7,0.3,6.4,2.3,6.4,2.7V129.2z"/>
		<path id="Path_10_" class="st3" d="M151.6,129.9c0-0.3-6.6-2-7.3-2.3c-4.5-0.3-7.9,2.9-7.5,7.3c0.3,4.3,3.4,8.3,7.3,9.9
			c0.7,0.3,7.5,3.6,7.5,3.9V129.9z"/>
		<g id="Group" transform="translate(90.000000, 91.000000)" class="st6">
			<g id="Path_11_">
				<path class="st4" d="M56.4,54.2c-3.9-2.1-7-6-7.4-9.9c-0.3-4.3,3.1-7.5,7.7-7.2c0.3,0,3.1,0.7,5.2,1.3l0,0c0-0.3-6.7-2-7.4-2.3
					c-4.5-0.4-8.1,2.9-7.7,7.2c0.3,4.3,3.4,8.3,7.4,9.9C54.6,53.3,55.3,53.6,56.4,54.2L56.4,54.2z"/>
				<path class="st4" d="M59.2,56c1.5,0.7,2.8,1.3,2.8,1.3s0,0,0-0.3C61.3,56.6,60.1,56.2,59.2,56z"/>
			</g>
			<g id="Path_12_">
				<path class="st5" d="M56.4,54.2c-3.9-2.1-7-6-7.4-9.9c-0.3-4.3,3.1-7.5,7.7-7.2c0.3,0,3.1,0.7,5.2,1.3l0,0c0-0.3-6.7-2-7.4-2.3
					c-4.5-0.4-8.1,2.9-7.7,7.2c0.3,4.3,3.4,8.3,7.4,9.9C54.6,53.3,55.3,53.6,56.4,54.2L56.4,54.2z"/>
				<path class="st3" d="M59.2,56c1.5,0.7,2.8,1.3,2.8,1.3s0,0,0-0.3C61.3,56.6,60.1,56.2,59.2,56z"/>
			</g>
		</g>
		<polygon id="Path_13_" class="st7" points="151.6,171.9 142.5,165.6 151.6,163.3 151.6,172.2 		"/>
		<path id="Path_14_" class="st3" d="M142.5,166.3c1.7,0.9,7.5,3.6,11.8-2.7c0,0,4.4-10.6-7.8-12.5c0,0-3.7-1.3-7.1,6.3
			c-0.3,0.7-0.3,1.3-0.3,1.6c0,1.3,0.7,4.3,2,6.3C141.8,165.7,142.2,166.1,142.5,166.3z"/>
		<path id="Path_15_" class="st5" d="M146.5,167.1c-1.2-2-1.9-4.7-1.9-6.3c0-0.7,0.3-1.3,0.3-1.6c0-7.6,5.1-6.3,6.7-6.3l0,0
			c-1.2-0.7-2.6-1.3-4.5-1.6c0,0-3.4-1.3-6.7,6.3c-0.3,0.7-0.3,1.3-0.3,1.6c0,1.3,0.7,4.4,1.9,6.3c0.3,0.3,0.7,0.7,1,0.9
			c0.7,0.7,2.2,1.3,4.1,1.3C146.8,167.8,146.5,167.4,146.5,167.1z"/>
		<path id="Path_16_" class="st8" d="M147.6,154.3C147.4,154.3,147.4,154.3,147.6,154.3c-0.6,0-1,0.3-1.4,0.3
			c-0.8,0.7-1.4,1.6-1.5,2.7c0,0.7,0,1.3,0,1.6c0,0.7,0,1.3,0.3,2h0.3c-0.3-0.7,0-1.3-0.3-2c0-0.7,0-0.9,0-1.6
			c0.3-0.9,0.8-2,1.4-2.3c0.3-0.3,0.8-0.3,1-0.3c0,0,0.8-0.3,0.8,0C147.9,154.7,147.9,154.3,147.6,154.3z"/>
		<path id="Path_17_" class="st4" d="M147.3,153.2c-0.7,0-1.2,0-1.9,0c-0.9,0.3-2.5,1.1-2.8,3.2c0,0-0.7,2.1,0.9,4.3l1.2,0.3
			c-0.3-0.8-0.3-1.5-0.3-2.1c0-0.8,0-1.1,0-1.7c0.3-1.1,0.9-2.1,1.5-2.5c0.3-0.3,0.9-0.3,1.2-0.3h0.9
			C148.2,153.9,148.5,153.6,147.3,153.2z"/>
		<path id="Path_18_" class="st9" d="M257.4,225.1l-0.3,0.3C256.9,225.1,256.9,225.1,257.4,225.1z"/>
		<path id="Path_19_" class="st10" d="M221.2,185.6l-0.3,0.3c-2,1.1-4.7,2-7.4,2h-50.2c-0.3,0-0.7,0-1,0l0,0l0,0
			c0-0.3-0.3-0.3-0.3-0.5l-0.3-0.3c0-0.3-0.3-0.3-0.3-0.5l0,0c0-0.3-0.3-0.3-0.3-0.5s-0.3-0.3-0.3-0.3l-0.3-0.3l0,0
			c-0.3-0.5-0.7-0.9-0.7-0.9h60.9l0.3,0.9v0.3L221.2,185.6L221.2,185.6z"/>
		<path id="Path_20_" class="st11" d="M228,37.9v135.6c0,4.3-2,7.9-5.1,10.1c-0.7,0.7-1.4,0.9-2,1.3c0,0,0,0-0.3,0
			c-2,0.9-4,1.6-6.4,1.6H164c-1,0-2.3,0-3.3-0.3l0,0c-5.8-1.3-10.1-6.5-10.1-12.8V37.9c0-7.2,6.2-13.1,13.5-13.1h50.5
			C222,24.8,228,30.7,228,37.9z"/>
		<path id="Path_21_" class="st12" d="M215.6,180H163c-5.8,0-10.1-4.6-10.1-9.9V39c0-5.6,4.8-9.9,10.1-9.9h52.6
			c5.8,0,10.1,4.6,10.1,9.9v131.2C225.8,175.4,221,180,215.6,180z"/>
		<g id="Group_1_" transform="translate(110.000000, 11.000000)">
			<g id="XMLID_9_-link" transform="translate(0.000000, 0.852941)">
				
					<radialGradient id="XMLID_4_" cx="-295.9032" cy="52.3619" r="0.468" gradientTransform="matrix(65.8488 0 0 64.4787 19563.5508 -3317.8267)" gradientUnits="userSpaceOnUse">
					<stop  offset="0.5053" style="stop-color:#FFFFFF"/>
					<stop  offset="1" style="stop-color:#ECE6E1"/>
				</radialGradient>
				<path id="XMLID_9_" class="st13" d="M103.8,89.9H53.4c-2,0-3.7-1.6-3.7-3.6V30.5c0-2,1.7-3.6,3.7-3.6h50.3c2,0,3.7,1.6,3.7,3.6
					v55.9C107.4,88.3,105.7,89.9,103.8,89.9z"/>
			</g>
			<path id="Path_22_" class="st14" d="M60.3,90.5l1-10.8l-2.1-2.3c0,0-1,0.3-2,0.3c-1,0.3-2.3,0.3-2.7,3.3c-0.3,2.7-1,5.6-1.4,9.2"
				/>
			<path id="Path_23_" class="st14" d="M87,83.6l-0.7-8.2c0,0-4.1-0.7-4.5-2.3c-0.3-1.6-0.3-5.6-0.3-5.6l-4.8-1.2l0,0l0,0L72,67.5
				c0,0,0,3.9-0.3,5.6c-0.3,1.6-4.5,2.3-4.5,2.3l-0.7,8.2l10.2,0.6l0,0l0,0L87,83.6z"/>
			<path id="Path_24_" class="st14" d="M93.1,90.5l-1-10.8l2-2.3c0,0,1,0.3,2,0.3c1,0.3,2.3,0.3,2.7,3.3c0.3,2.7,1,5.6,1.4,9.2"/>
			<path id="Path_25_" class="st15" d="M94.5,90.5c0-5.6,0-10.8,0-13.1c-3-0.7-4.8-0.9-8.1-1.6c-0.3,4.9-5.8,7.5-9.5,7.5
				s-9.2-2.7-9.5-7.5c-3.3,0.7-5.1,0.9-8.1,1.6c0,2.3,0,7.5,0,13.1"/>
			
				<ellipse id="Oval" transform="matrix(0.1147 -0.9934 0.9934 0.1147 24.2504 139.5188)" class="st16" cx="90.4" cy="56.2" rx="3.6" ry="2.3"/>
			<path id="Path_26_" class="st17" d="M90.1,58.6c0.3,0,1-0.7,1.4-2.3c0-1.3-0.3-2.3-0.7-2.3l0,0c-0.3,0-1,0.7-1.4,2.3
				C89.1,57.6,89.8,58.3,90.1,58.6L90.1,58.6z"/>
			
				<ellipse id="Oval_1_" transform="matrix(0.9934 -0.1147 0.1147 0.9934 -6.0384 7.6664)" class="st16" cx="63.6" cy="56.3" rx="2.3" ry="3.6"/>
			<path id="Path_27_" class="st17" d="M63.6,58.6c-0.3,0-1-0.7-1.4-2.3c0-1.3,0.3-2.3,0.7-2.3l0,0c0.3,0,1,0.7,1.4,2.3
				C64.6,57.6,63.9,58.3,63.6,58.6L63.6,58.6z"/>
			<path id="Path_28_" class="st18" d="M76.8,37.9c-7.5,0-13.6,6.5-13.6,15.4c0,5.2,1.4,8.2,4.8,11.5c2,2.3,5.8,5.2,8.8,5.2
				s6.8-2.9,8.8-5.2c3.3-3.3,4.8-6.3,4.8-11.5C90.5,44.5,84.4,37.9,76.8,37.9z"/>
			<path id="Path_29_" class="st19" d="M72.7,64.8c0.3,0.9,1.7,2.3,4.1,2.3s3.7-1.3,4.1-2.3C79.6,64.8,74.5,64.8,72.7,64.8z"/>
			<path id="Path_30_" class="st20" d="M76.8,65.8c-2,0-3-0.7-4.1-0.9c0.3,0.9,1.7,2.3,4.1,2.3c2.5,0,3.7-1.3,4.1-2.3
				C80.2,65.5,78.9,65.8,76.8,65.8z"/>
			<path id="Path_31_" class="st19" d="M87,54c0,0.3-1.4,1.6-3,1.6c-1.7,0.3-3.3-0.3-3.3-0.7c0-0.3,1.4-1.6,3-1.6
				C85.3,53.1,87,54,87,54z"/>
			<g id="Path_32_" transform="translate(28.045198, 23.541176)">
				<path class="st21" d="M57,31.1c0-0.7-0.7-1.3-1.4-1.3s-1.5,0.7-1.5,1.3c0,0.7,0.7,1.3,1.4,1.3S57,31.9,57,31.1z"/>
				<path class="st22" d="M56.4,31.1c0-0.3-0.3-0.7-0.7-0.7c-0.3,0-0.7,0.3-0.7,0.7c0,0.3,0.3,0.7,0.7,0.7
					C55.9,31.9,56.4,31.4,56.4,31.1z"/>
				<path class="st23" d="M55.6,30.8c0-0.3-0.3-0.3-0.3-0.3L55,30.8c0,0.3,0.3,0.3,0.3,0.3L55.6,30.8z"/>
			</g>
			<path id="Path_33_" class="st22" d="M80.5,55c0,0,0.7-1.3,2.7-1.6s3.7,0.7,3.7,0.7s-2-0.7-3.7-0.3C82,54,80.5,55,80.5,55z"/>
			<path id="Path_34_" class="st24" d="M80.2,52c0,0,1.4-0.7,2.7-0.9c1,0,2.3-0.3,4.8,1.3c-1-1.3-2.3-1.6-4.1-2c-0.3,0-1,0-1.4,0
				C81,51.1,79.8,52,80.2,52z"/>
			<path id="Path_35_" class="st19" d="M66.7,54c0,0.3,1.4,1.6,3,1.6c1.7,0.3,3.3-0.3,3.3-0.7c0-0.3-1.4-1.6-3-1.6
				C68.7,53.1,67.1,54,66.7,54z"/>
			<g id="Path_36_" transform="translate(16.135593, 23.541176)">
				<path class="st21" d="M52.9,31.1c0-0.7,0.7-1.3,1.4-1.3s1.4,0.7,1.4,1.3c0,0.7-0.7,1.5-1.4,1.5C53.3,32.5,52.6,31.9,52.9,31.1z"
					/>
				<path class="st22" d="M53.6,31.1c0-0.3,0.3-0.7,0.7-0.7c0.3,0,0.7,0.3,0.7,0.7c0,0.3-0.3,0.7-0.7,0.7
					C53.6,31.9,53.6,31.4,53.6,31.1z"/>
				<path class="st23" d="M53.3,30.8c0-0.3,0.3-0.3,0.3-0.3l0.3,0.3c0,0.3-0.3,0.3-0.3,0.3L53.3,30.8z"/>
			</g>
			<path id="Path_37_" class="st22" d="M73.5,55c0,0-0.7-1.3-2.7-1.6S67.1,54,67.1,54s2-0.7,3.7-0.3C71.8,54,73.5,55,73.5,55z"/>
			<path id="Path_38_" class="st24" d="M73.5,52c0,0-1.4-0.7-2.7-0.9c-1,0-2.3-0.3-4.8,1.3c1-1.3,2.3-1.6,4.1-2c0.3,0,1,0,1.4,0
				C72.7,51.1,73.8,52,73.5,52z"/>
			<path id="Path_39_" class="st25" d="M79.6,60.6c-0.3,0.3-1.4,0.7-2.7,0.7c-1.4,0-2.3-0.3-2.7-0.7c-0.3,0-0.3,0.3-0.3,0.3
				c0.3,0,1.4,0.7,3,0.7s2.7-0.3,3-0.7C79.8,60.9,79.8,60.6,79.6,60.6z"/>
			
				<ellipse id="Oval_2_" transform="matrix(0.407 -0.9134 0.9134 0.407 18.3173 99.634)" class="st24" cx="85.9" cy="35.7" rx="6.6" ry="8.1"/>
			<path id="Path_40_" class="st24" d="M69,42.9c2,11.1,19,8.4,19.4,8.4s0.3,0.3,0.3,0.7c-0.3,2.9,0,7.2,0,7.2s0.7-5.8,2.4-6.5
				c0.7-2,1.4-6.3-0.3-10.5s-7.1-8.9-12.9-8.9c-6.2,0-10.8,1.3-14,5.9c-3.2,4.6-2.3,10.8-1.7,13.5c1,0,1.7,1.3,2.3,5.2
				c0.3-2.7-1-7.2,0-10.5C65.6,45.5,66.7,43.9,69,42.9z"/>
			<g id="XMLID_9_-link_1_" transform="translate(0.000000, 0.852941)">
				<path id="XMLID_2_" class="st26" d="M103.8,89.9H53.4c-2,0-3.7-1.6-3.7-3.6V30.5c0-2,1.7-3.6,3.7-3.6h50.3c2,0,3.7,1.6,3.7,3.6
					v55.9C107.4,88.3,105.7,89.9,103.8,89.9z"/>
			</g>
		</g>
		<g id="Group_2_" transform="translate(111.000000, 78.000000)">
			<g id="Rectangle">
				<rect x="49.8" y="34" class="st27" width="54.1" height="4.4"/>
				<rect x="49.8" y="44.7" class="st27" width="54.1" height="4.4"/>
				<rect x="49.8" y="55" class="st27" width="54.1" height="4.4"/>
				<rect x="49.8" y="66.3" class="st27" width="54.1" height="4.4"/>
			</g>
			<polygon id="Path_41_" class="st28" points="82.8,82.9 72.4,82.9 72.4,88.2 82.8,88.2 82.8,90.9 90.2,85.5 82.8,80.3 			"/>
		</g>
		<path id="Path_42_" class="st29" d="M162,186.8c0.3,0.3,0.3,0.7,0.7,0.9c0.3,0.3,0.3,0.7,0.7,0.9l0,0l0.3,0.3
			c0.3,0.3,0.7,0.7,0.7,1.3c0.3,0.3,0.3,0.7,0.7,0.9c0.3,0.3,0.3,0.7,0.7,0.9c0,0.3,0.3,0.3,0.3,0.7c0.3,0.7,0.7,1.3,1.4,2l0,0
			c0.3,0.3,0.7,0.9,1,1.3c0,0.3,0.3,0.3,0.3,0.7s0.3,0.3,0.3,0.7c0,0.3,0.3,0.3,0.3,0.7c0.3,0.3,0.3,0.7,0.7,0.9
			c0.3,0.3,0.7,0.7,0.7,1.3c0,0.3,0.3,0.3,0.3,0.7c2.7,3.6,5.3,7.9,8.4,11.9c1,1.3,1.7,2.3,2.7,3.6c0.3,0.3,0.3,0.7,0.7,0.9
			c0.3,0.7,0.7,0.9,1,1.6c0.3,0.3,0.3,0.7,0.7,0.9c0.3,0.3,0.7,0.7,1,1.3c0.3,0.7,1,1.3,1.4,1.6l0,0c0.3,0.3,0.3,0.7,0.7,0.9
			l0.3,0.3l0.3,0.3l0.3,0.3c0.3,0.3,0.3,0.7,0.7,0.9l0.3,0.3l0.3,0.3c4.4,5.6,8.7,10.3,11.4,12.5c0,0,0,0,0.3,0.3
			c0.3,0,0.3,0.3,0.7,0.3c0.7,0.7,1.7,1.3,2,2c1.4,1.6,3.7,4.9,6.3,9.9c0,0.3,0.3,0.7,0.3,0.9c1,1.6,2,3.6,3,5.9
			c0,0.3,0.3,0.7,0.3,0.9l0,0c0.7,1.6,1.4,3.3,2,4.9h3.7c-0.7-2-1.7-3.9-2.3-5.9c0-0.3-0.3-0.7-0.3-0.7c-1-2.3-2.3-4.6-3.3-6.5
			c0-0.3-0.3-0.7-0.3-0.7c-2.3-4.3-4.7-7.2-5.7-8.5c-0.7-0.7-1.4-1.3-2-2c-6.3-4.3-20.1-23.4-30.5-38.2c0,0,0,0,0-0.3
			c-6.7-9.9-12.1-17.5-12.1-17.5H160c0,0,0.7,0.9,2,2.9C161.6,186.5,162,186.8,162,186.8z"/>
		<path id="Path_43_" class="st3" d="M282.8,264.3c-5.3-14.4-12.2-32.4-15.9-41.3c0,0-2.7-32.4-0.3-48.5c0,0-0.7-11.8-4-23.6
			s-7.1-24.3-8.1-35.4c0,0,0-3.3-3.3-6.5c-3-2.9-5.3-6.5-6-8.5c0-0.3-0.3-0.7-0.7-0.9c-0.3-0.3-0.7-0.7-1-0.9
			c-0.3-0.7-3.3-15.7-3.3-15.7s-6.7-4.9-11.5,5.2c-0.3,0.3-0.3,0.7-0.3,1.3v16.7c0,0,2,8.5,3.7,10.1c0,0,0.7,0.9,0,2.3
			c-0.7,0.9-0.3,4.9,0.3,8.2c0,0,2.7,11.1-4.4,27.9c0,0-7.8,27.2-7.8,34.7l32,75.6h30.7L282.8,264.3L282.8,264.3z"/>
		<path id="Path_44_" class="st4" d="M242.8,97.7c0,0.3,0,0.7-0.3,0.7c-1.8,0.3-7.7,0.9-9.5-12.3l-0.3-3.3c0-0.3,0-0.9,0.3-1.3
			c0.8-0.9,2.6-3.3,5.5-2.9c0.3,0,0.3,0.3,0.8,0.3C240.6,83.3,242.2,89.7,242.8,97.7z"/>
		<path id="Path_45_" class="st29" d="M237.1,97.6c0.3,0.3,0.7,0.7,1,0.9c0.3,0.3,0.3,0.7,0.7,0.9c0.7,2.3,3.3,5.9,6,8.5
			c3,2.9,3.3,6.5,3.3,6.5c0.7,11.1,4.7,23.7,8.1,35.5c3.3,11.8,4,23.7,4,23.7c-2.3,16,0.3,48.6,0.3,48.6c2.3,5.6,8.7,22.4,15.7,41.4
			h10c-7.4-16.4-15.4-33.9-18.4-41.4c0,0-2.7-32.6-0.3-48.6c0,0-0.7-11.8-4-23.7s-7-24.3-8.1-35.5c0,0,0-3.3-3.3-6.5
			c-3-2.9-5.3-6.5-6-8.5c0-0.3-0.3-0.7-0.7-0.9c-0.3-0.3-0.7-0.7-1-0.9c-0.3-0.7-3.3-15.7-3.3-15.7s-3.3-2.7-7.4,0l0,0
			C233.7,81.8,236.7,96.9,237.1,97.6z"/>
		<ellipse id="Oval_3_" class="st30" cx="68.3" cy="94.1" rx="34.2" ry="33.5"/>
		<text transform="matrix(1.0212 0 0 1 53.5112 109.668)" class="st12 st31 st32">2</text>
	</g>
</g>
</svg>
