<?xml version="1.0" encoding="UTF-8"?>
<svg width="180px" height="159px" viewBox="0 0 180 159" version="1.1" xmlns="http://www.w3.org/2000/svg" xmlns:xlink="http://www.w3.org/1999/xlink">
    <title>2_profile3</title>
    <defs>
        <radialGradient cx="50.1952941%" cy="49.8984375%" fx="50.1952941%" fy="49.8984375%" r="53.4658824%" gradientTransform="translate(0.501953,0.498984),scale(1.000000,0.885417),translate(-0.501953,-0.498984)" id="radialGradient-1">
            <stop stop-color="#FFFFFF" offset="50.53%"></stop>
            <stop stop-color="#ECE6E1" offset="100%"></stop>
        </radialGradient>
    </defs>
    <g id="Page-1" stroke="none" stroke-width="1" fill="none" fill-rule="evenodd">
        <g id="375px_how_testd_works" transform="translate(-96.000000, -335.000000)">
            <g id="2_profile3" transform="translate(96.000000, 335.000000)">
                <path d="M137.2,100.5 C137.05,100.5 136.9,100.5 136.6,100.5 L38.8,94.35 C34.15,94.05 30.55,91.05 30.4,87.45 L28.75,29.25 C28.75,27.75 29.35,26.25 30.55,24.9 C32.2,23.25 34.75,22.2 37.45,22.2 L145.15,21.6 C147.4,21.6 149.35,22.35 150.7,23.7 C151.3,24.45 152.05,25.5 152.05,27 L144.1,95.4 C143.8,98.25 140.65,100.5 137.2,100.5 Z" id="XMLID_1_" stroke="#FDCA21" stroke-width="1.5" fill="#0F84A9" fill-rule="nonzero"></path>
                <polygon id="Path" fill="#D1955A" fill-rule="nonzero" points="110.5 50.85 106.3 47.1 106.3 61.5"></polygon>
                <path d="M76,73.5 C76,73.5 76,73.65 76.15,73.65 C76.15,73.65 76.3,73.8 76.3,73.8 C76.3,73.95 76.45,73.95 76.45,74.1 C76.45,74.1 76.45,74.1 76.45,74.1 L76.45,74.1 C76.45,74.25 76.6,74.25 76.6,74.4 C76.6,74.4 76.75,74.55 76.75,74.55 C76.75,74.7 76.9,74.7 76.9,74.85 C76.9,74.85 76.9,74.85 76.9,74.85 C76.9,74.85 76.9,75 77.05,75 C77.2,75.15 77.2,75.3 77.35,75.45 C77.35,75.45 77.35,75.45 77.35,75.45 C77.35,75.45 77.5,75.6 77.5,75.6 C77.65,75.75 77.8,75.9 77.8,76.2 C77.95,76.35 77.95,76.5 78.1,76.65 C78.25,76.8 78.25,76.95 78.4,77.1 C78.4,77.25 78.55,77.25 78.55,77.4 C78.7,77.7 78.85,78 79.15,78.3 C79.15,78.3 79.15,78.3 79.15,78.3 C79.3,78.45 79.45,78.75 79.6,78.9 C79.6,79.05 79.75,79.05 79.75,79.2 C79.75,79.35 79.9,79.35 79.9,79.5 C79.9,79.65 80.05,79.65 80.05,79.8 C80.2,79.95 80.2,80.1 80.35,80.25 C80.5,80.4 80.65,80.55 80.65,80.85 C80.65,81 80.8,81 80.8,81.15 C82,82.8 83.2,84.75 84.55,86.55 C85,87.15 85.3,87.6 85.75,88.2 C85.9,88.35 85.9,88.5 86.05,88.65 C86.2,88.95 86.35,89.1 86.5,89.4 C86.65,89.55 86.65,89.7 86.8,89.85 C86.95,90 87.1,90.15 87.25,90.45 C87.4,90.75 87.7,91.05 87.85,91.2 C87.85,91.2 87.85,91.2 87.85,91.2 C88,91.35 88,91.5 88.15,91.65 C88.15,91.65 88.3,91.8 88.3,91.8 C88.3,91.8 88.45,91.95 88.45,91.95 C88.45,91.95 88.6,92.1 88.6,92.1 C88.75,92.25 88.75,92.4 88.9,92.55 C88.9,92.55 89.05,92.7 89.05,92.7 C89.05,92.7 89.2,92.85 89.2,92.85 C91.15,95.4 93.1,97.5 94.3,98.55 C94.3,98.55 94.3,98.55 94.45,98.7 C94.6,98.7 94.6,98.85 94.75,98.85 C95.05,99.15 95.5,99.45 95.65,99.75 C96.25,100.5 97.3,102 98.5,104.25 C98.5,104.4 98.65,104.55 98.65,104.7 C99.1,105.45 99.55,106.35 100,107.4 C100,107.55 100.15,107.7 100.15,107.85 L100.15,107.85 C100.45,108.6 100.75,109.35 101.05,110.1 L117.1,110.1 L113.5,99.9 L113.5,99.9 L111.85,95.7 L111.85,95.55 L103.3,73.95 L103.3,73.8 L103.3,73.65 L103,73.05 L75.7,73.05 C75.7,73.05 75.85,73.2 76,73.5 C76,73.5 76,73.5 76,73.5 Z" id="Path" fill="#F2B066" fill-rule="nonzero"></path>
                <path d="M70.75,35.1 L71.2,29.55 C71.2,29.55 69.7,29.25 68.95,29.85 C68.2,30.3 66.55,32.1 70.75,35.1 Z" id="Path" fill="#F2F2F2" fill-rule="nonzero"></path>
                <path d="M71.8,36.15 L71.8,29.4 C71.8,29.4 70,29.1 69.25,29.85 C68.5,30.75 66.7,33 71.8,36.15 Z" id="Path" fill="#F2B066" fill-rule="nonzero"></path>
                <path d="M69.7,29.85 C70.15,29.4 70.75,29.25 71.35,29.25 C70.75,29.25 69.85,29.25 69.25,29.85 C68.5,30.6 66.7,32.85 71.8,36 L71.8,35.7 C67.15,32.85 68.95,30.6 69.7,29.85 Z" id="Path" fill="#F2F2F2" fill-rule="nonzero" opacity="0.1"></path>
                <path d="M69.7,37.95 L69.85,45.45 C69.85,45.45 65.95,43.95 65.05,42.45 C65.05,42.45 63.25,40.05 65.05,38.4 C65.5,37.95 66.1,37.8 66.7,37.65 C67.3,37.5 68.35,37.5 69.7,37.95 Z" id="Path" fill="#F2F2F2" fill-rule="nonzero"></path>
                <path d="M71.8,37.95 L71.8,46.95 C71.8,46.95 66.85,45 65.8,43.35 C65.8,43.35 63.55,40.35 65.8,38.4 C66.4,37.95 67.15,37.65 67.9,37.5 C68.8,37.5 70.15,37.5 71.8,37.95 Z" id="Path" fill="#F2B066" fill-rule="nonzero"></path>
                <path d="M66.55,43.65 C66.55,43.65 64.3,40.65 66.55,38.7 C67.15,38.25 67.9,37.95 68.65,37.8 C69.4,37.8 70.45,37.8 71.95,38.1 L71.95,37.95 C70.3,37.5 68.95,37.5 68.05,37.5 C67.3,37.5 66.55,37.8 65.95,38.4 C63.7,40.35 65.95,43.35 65.95,43.35 C66.55,44.4 68.65,45.6 70.3,46.2 C68.65,45.45 67,44.55 66.55,43.65 Z" id="Path" fill="#F2F2F2" fill-rule="nonzero" opacity="0.1"></path>
                <path d="M70.15,48 C70.15,47.85 67.75,47.25 67.45,47.25 C65.8,47.1 64.6,48.3 64.6,49.95 C64.6,51.45 65.8,52.95 67.3,53.7 C67.6,53.85 70.15,54.75 70.15,54.9 C70.15,54.9 70.15,48 70.15,48 Z" id="Path" fill="#F2F2F2" fill-rule="nonzero"></path>
                <path d="M71.8,48.3 C71.8,48.15 68.95,47.4 68.65,47.25 C66.7,47.1 65.2,48.6 65.35,50.55 C65.5,52.5 66.85,54.3 68.5,55.05 C68.8,55.2 71.8,56.7 71.8,56.85 C71.8,56.85 71.8,48.3 71.8,48.3 Z" id="Path" fill="#F2B066" fill-rule="nonzero"></path>
                <g id="Group" opacity="0.1" transform="translate(65.000000, 46.500000)" fill-rule="nonzero">
                    <g fill="#F2F2F2" id="Path">
                        <path d="M4.4,9 C2.75,8.1 1.4,6.3 1.25,4.5 C1.1,2.55 2.6,1.05 4.55,1.2 C4.7,1.2 5.9,1.5 6.8,1.8 L6.8,1.8 C6.8,1.65 3.95,0.9 3.65,0.75 C1.7,0.6 0.2,2.1 0.35,4.05 C0.5,6 1.85,7.8 3.5,8.55 C3.65,8.55 3.95,8.7 4.4,9 C4.4,9 4.4,9 4.4,9 Z"></path>
                        <path d="M5.6,9.75 C6.2,10.05 6.8,10.35 6.8,10.35 C6.8,10.35 6.8,10.35 6.8,10.2 C6.5,10.05 6.05,9.9 5.6,9.75 Z"></path>
                    </g>
                    <g id="Path">
                        <path d="M4.4,9 C2.75,8.1 1.4,6.3 1.25,4.5 C1.1,2.55 2.6,1.05 4.55,1.2 C4.7,1.2 5.9,1.5 6.8,1.8 L6.8,1.8 C6.8,1.65 3.95,0.9 3.65,0.75 C1.7,0.6 0.2,2.1 0.35,4.05 C0.5,6 1.85,7.8 3.5,8.55 C3.65,8.55 3.95,8.7 4.4,9 C4.4,9 4.4,9 4.4,9 Z" fill="#F2F2F2" opacity="0.1"></path>
                        <path d="M5.6,9.75 C6.2,10.05 6.8,10.35 6.8,10.35 C6.8,10.35 6.8,10.35 6.8,10.2 C6.5,10.05 6.05,9.9 5.6,9.75 Z" fill="#F2B066"></path>
                    </g>
                </g>
                <polygon id="Path" fill="#DD9E5F" fill-rule="nonzero" points="71.8 67.5 68.05 64.65 71.8 63.6 71.8 67.65"></polygon>
                <path d="M68.2,65.1 C68.95,65.55 71.5,66.75 73.45,63.9 C73.45,63.9 75.4,59.1 70,58.2 C70,58.2 68.35,57.6 66.85,61.05 C66.7,61.35 66.7,61.65 66.7,61.8 C66.7,62.4 67,63.75 67.6,64.65 C67.9,64.8 68.05,64.95 68.2,65.1 Z" id="Path" fill="#F2B066" fill-rule="nonzero"></path>
                <path d="M69.85,65.4 C69.25,64.5 68.95,63.3 68.95,62.55 C68.95,62.25 69.1,61.95 69.1,61.8 C69.1,58.35 71.5,58.95 72.25,58.95 C72.25,58.95 72.25,58.95 72.25,58.95 C71.65,58.65 71.05,58.35 70.15,58.2 C70.15,58.2 68.5,57.6 67,61.05 C66.85,61.35 66.85,61.65 66.85,61.8 C66.85,62.4 67.15,63.75 67.75,64.65 C67.9,64.8 68.05,64.95 68.2,65.1 C68.5,65.4 69.25,65.7 70.15,65.7 C70,65.7 69.85,65.55 69.85,65.4 Z" id="Path" fill="#F2F2F2" fill-rule="nonzero" opacity="0.1"></path>
                <path d="M70.6,59.25 C70.45,59.25 70.45,59.25 70.6,59.25 C70.3,59.25 70,59.4 69.85,59.4 C69.4,59.7 69.1,60.15 68.95,60.6 C68.95,60.9 68.95,61.2 68.95,61.35 C68.95,61.65 68.95,61.95 69.1,62.25 L69.25,62.25 C69.1,61.95 69.25,61.65 69.1,61.35 C69.1,61.05 69.1,60.9 69.1,60.6 C69.25,60.15 69.55,59.7 69.85,59.55 C70,59.4 70.3,59.4 70.45,59.4 C70.45,59.4 70.9,59.25 70.9,59.4 C70.75,59.4 70.75,59.25 70.6,59.25 Z" id="Path" fill="#E0E0E0" fill-rule="nonzero"></path>
                <path d="M70.3,59.1 C70,59.1 69.7,59.1 69.4,59.1 C68.95,59.25 68.2,59.55 68.05,60.45 C68.05,60.45 67.75,61.35 68.5,62.25 L69.1,62.4 C68.95,62.1 68.95,61.8 68.95,61.5 C68.95,61.2 68.95,61.05 68.95,60.75 C69.1,60.3 69.4,59.85 69.7,59.7 C69.85,59.55 70.15,59.55 70.3,59.55 C70.3,59.55 70.75,59.55 70.75,59.55 C70.75,59.4 70.9,59.25 70.3,59.1 Z" id="Path" fill="#F2F2F2" fill-rule="nonzero"></path>
                <path d="M119.35,92.1 C119.35,92.1 119.2,92.25 119.2,92.25 C119.2,92.1 119.2,92.1 119.35,92.1 Z" id="Path" fill="#1A1A1A" fill-rule="nonzero"></path>
                <path d="M103.3,73.8 C103.3,73.8 103.15,73.95 103.15,73.95 C102.25,74.55 101.05,75 99.85,75 L77.35,75 C77.2,75 77.05,75 76.9,75 L76.9,75 C76.9,75 76.9,75 76.9,75 C76.9,74.85 76.75,74.85 76.75,74.7 C76.75,74.7 76.6,74.55 76.6,74.55 C76.6,74.4 76.45,74.4 76.45,74.25 C76.45,74.25 76.45,74.25 76.45,74.25 C76.45,74.1 76.3,74.1 76.3,73.95 C76.3,73.8 76.15,73.8 76.15,73.8 C76.15,73.8 76,73.65 76,73.65 C76,73.65 76,73.65 76,73.65 C75.85,73.35 75.7,73.2 75.7,73.2 L103,73.2 L103.15,73.65 L103.15,73.8 L103.3,73.8 Z" id="Path" fill="#1A1A1A" fill-rule="nonzero" opacity="0.2"></path>
                <path d="M106.3,6.3 L106.3,68.25 C106.3,70.2 105.4,71.85 104.05,72.9 C103.75,73.2 103.45,73.35 103.15,73.5 C103.15,73.5 103.15,73.5 103,73.5 C102.1,73.95 101.2,74.25 100.15,74.25 L77.95,74.25 C77.5,74.25 76.9,74.25 76.45,74.1 L76.45,74.1 C73.9,73.5 71.95,71.1 71.95,68.25 L71.95,6.3 C71.95,3 74.65,0.3 77.95,0.3 L100.3,0.3 C103.6,0.3 106.3,3 106.3,6.3 Z" id="Path" fill="#011C26" fill-rule="nonzero"></path>
                <path d="M100.75,71.7 L77.5,71.7 C74.95,71.7 73,69.6 73,67.2 L73,7.05 C73,4.5 75.1,2.55 77.5,2.55 L100.75,2.55 C103.3,2.55 105.25,4.65 105.25,7.05 L105.25,67.2 C105.25,69.6 103.15,71.7 100.75,71.7 Z" id="Path" fill="#FFFFFF" fill-rule="nonzero"></path>
                <g id="Group" transform="translate(75.500000, 6.000000)">
                    <g id="XMLID_9_-link" fill="url(#radialGradient-1)" fill-rule="nonzero">
                        <path d="M24.2,29.55 L2,29.55 C1.1,29.55 0.35,28.8 0.35,27.9 L0.35,2.4 C0.35,1.5 1.1,0.75 2,0.75 L24.2,0.75 C25.1,0.75 25.85,1.5 25.85,2.4 L25.85,27.9 C25.85,28.8 25.1,29.55 24.2,29.55 Z" id="XMLID_9_"></path>
                    </g>
                    <path d="M5,29.4 L5.45,24.45 L4.55,23.4 C4.55,23.4 4.1,23.55 3.65,23.55 C3.2,23.7 2.6,23.7 2.45,25.05 C2.3,26.25 2,27.6 1.85,29.25" id="Path" fill="#F2B180" fill-rule="nonzero"></path>
                    <path d="M16.85,26.25 L16.55,22.5 C16.55,22.5 14.75,22.2 14.6,21.45 C14.45,20.7 14.45,18.9 14.45,18.9 L12.35,18.3 L12.35,18.3 L12.35,18.3 L10.25,18.9 C10.25,18.9 10.25,20.7 10.1,21.45 C9.95,22.2 8.15,22.5 8.15,22.5 L7.85,26.25 L12.35,26.55 L12.35,26.55 L12.35,26.55 L16.85,26.25 Z" id="Path" fill="#F2B180" fill-rule="nonzero"></path>
                    <path d="M19.55,29.4 L19.1,24.45 L20,23.4 C20,23.4 20.45,23.55 20.9,23.55 C21.35,23.7 21.95,23.7 22.1,25.05 C22.25,26.25 22.55,27.6 22.7,29.25" id="Path" fill="#F2B180" fill-rule="nonzero"></path>
                    <path d="M20.15,29.4 C20.15,26.85 20.15,24.45 20.15,23.4 C18.8,23.1 18.05,22.95 16.55,22.65 C16.4,24.9 14,26.1 12.35,26.1 C10.7,26.1 8.3,24.9 8.15,22.65 C6.65,22.95 5.9,23.1 4.55,23.4 C4.55,24.45 4.55,26.85 4.55,29.4" id="Path" fill="#9C1313" fill-rule="nonzero"></path>
                    <ellipse id="Oval" fill="#F0B487" fill-rule="nonzero" transform="translate(18.368435, 13.726380) rotate(-83.736370) translate(-18.368435, -13.726380) " cx="18.368435" cy="13.72638" rx="1.64994952" ry="1.04996787"></ellipse>
                    <path d="M18.2,14.85 C18.35,14.85 18.65,14.55 18.8,13.8 C18.8,13.2 18.65,12.75 18.5,12.75 C18.5,12.75 18.5,12.75 18.5,12.75 C18.35,12.75 18.05,13.05 17.9,13.8 C17.75,14.4 18.05,14.7 18.2,14.85 L18.2,14.85 Z" id="Path" fill="#DBAB85" fill-rule="nonzero"></path>
                    <ellipse id="Oval" fill="#F0B487" fill-rule="nonzero" transform="translate(6.501080, 13.794600) rotate(-6.263630) translate(-6.501080, -13.794600) " cx="6.50108" cy="13.7946" rx="1.04996787" ry="1.64994952"></ellipse>
                    <path d="M6.5,14.85 C6.35,14.85 6.05,14.55 5.9,13.8 C5.9,13.2 6.05,12.75 6.2,12.75 C6.2,12.75 6.2,12.75 6.2,12.75 C6.35,12.75 6.65,13.05 6.8,13.8 C6.95,14.4 6.65,14.7 6.5,14.85 L6.5,14.85 Z" id="Path" fill="#DBAB85" fill-rule="nonzero"></path>
                    <path d="M12.35,5.4 C9.05,5.4 6.35,8.4 6.35,12.45 C6.35,14.85 6.95,16.2 8.45,17.7 C9.35,18.75 11,20.1 12.35,20.1 C13.7,20.1 15.35,18.75 16.25,17.7 C17.75,16.2 18.35,14.85 18.35,12.45 C18.35,8.4 15.65,5.4 12.35,5.4 Z" id="Path" fill="#FABC8D" fill-rule="nonzero"></path>
                    <path d="M10.55,17.7 C10.7,18.15 11.3,18.75 12.35,18.75 C13.4,18.75 14,18.15 14.15,17.7 C13.55,17.7 11.3,17.7 10.55,17.7 Z" id="Path" fill="#FFFDFF" fill-rule="nonzero"></path>
                    <path d="M12.35,18.15 C11.45,18.15 11,17.85 10.55,17.7 C10.7,18.15 11.3,18.75 12.35,18.75 C13.4,18.75 14,18.15 14.15,17.7 C13.85,18 13.25,18.15 12.35,18.15 Z" id="Path" fill="#D44931" fill-rule="nonzero"></path>
                    <path d="M16.85,12.75 C16.85,12.9 16.25,13.5 15.5,13.5 C14.75,13.65 14,13.35 14,13.2 C14,13.05 14.6,12.45 15.35,12.45 C16.1,12.3 16.85,12.75 16.85,12.75 Z" id="Path" fill="#FFFDFF" fill-rule="nonzero"></path>
                    <g transform="translate(14.000000, 12.000000)" fill-rule="nonzero" id="Path">
                        <path d="M1.95,1.05 C1.95,0.75 1.65,0.45 1.35,0.45 C1.05,0.45 0.75,0.75 0.75,1.05 C0.75,1.35 1.05,1.65 1.35,1.65 C1.65,1.65 1.95,1.35 1.95,1.05 Z" fill="#876E55"></path>
                        <path d="M1.65,1.05 C1.65,0.9 1.5,0.75 1.35,0.75 C1.2,0.75 1.05,0.9 1.05,1.05 C1.05,1.2 1.2,1.35 1.35,1.35 C1.5,1.35 1.65,1.2 1.65,1.05 Z" fill="#261F18"></path>
                        <path d="M1.35,0.9 C1.35,0.75 1.2,0.75 1.2,0.75 C1.2,0.75 1.05,0.9 1.05,0.9 C1.05,1.05 1.2,1.05 1.2,1.05 C1.2,1.05 1.35,0.9 1.35,0.9 Z" fill="#FFFDFF" opacity="0.7"></path>
                    </g>
                    <path d="M14,13.2 C14,13.2 14.3,12.6 15.2,12.45 C16.1,12.3 16.85,12.75 16.85,12.75 C16.85,12.75 15.95,12.45 15.2,12.6 C14.6,12.75 14,13.2 14,13.2 Z" id="Path" fill="#261F18" fill-rule="nonzero"></path>
                    <path d="M13.85,11.85 C13.85,11.85 14.45,11.55 15.05,11.4 C15.5,11.4 16.1,11.25 17.15,12 C16.7,11.4 16.1,11.25 15.35,11.1 C15.2,11.1 14.9,11.1 14.75,11.1 C14.15,11.4 13.7,11.85 13.85,11.85 Z" id="Path" fill="#241405" fill-rule="nonzero"></path>
                    <path d="M7.85,12.75 C7.85,12.9 8.45,13.5 9.2,13.5 C9.95,13.65 10.7,13.35 10.7,13.2 C10.7,13.05 10.1,12.45 9.35,12.45 C8.75,12.3 8,12.75 7.85,12.75 Z" id="Path" fill="#FFFDFF" fill-rule="nonzero"></path>
                    <g transform="translate(8.000000, 12.000000)" fill-rule="nonzero" id="Path">
                        <path d="M0.9,1.05 C0.9,0.75 1.2,0.45 1.5,0.45 C1.8,0.45 2.1,0.75 2.1,1.05 C2.1,1.35 1.8,1.65 1.5,1.65 C1.05,1.65 0.75,1.35 0.9,1.05 Z" fill="#876E55"></path>
                        <path d="M1.2,1.05 C1.2,0.9 1.35,0.75 1.5,0.75 C1.65,0.75 1.8,0.9 1.8,1.05 C1.8,1.2 1.65,1.35 1.5,1.35 C1.2,1.35 1.2,1.2 1.2,1.05 Z" fill="#261F18"></path>
                        <path d="M1.05,0.9 C1.05,0.75 1.2,0.75 1.2,0.75 C1.2,0.75 1.35,0.9 1.35,0.9 C1.35,1.05 1.2,1.05 1.2,1.05 C1.2,1.05 1.05,0.9 1.05,0.9 Z" fill="#FFFDFF" opacity="0.7"></path>
                    </g>
                    <path d="M10.85,13.2 C10.85,13.2 10.55,12.6 9.65,12.45 C8.75,12.3 8,12.75 8,12.75 C8,12.75 8.9,12.45 9.65,12.6 C10.1,12.75 10.85,13.2 10.85,13.2 Z" id="Path" fill="#261F18" fill-rule="nonzero"></path>
                    <path d="M10.85,11.85 C10.85,11.85 10.25,11.55 9.65,11.4 C9.2,11.4 8.6,11.25 7.55,12 C8,11.4 8.6,11.25 9.35,11.1 C9.5,11.1 9.8,11.1 9.95,11.1 C10.55,11.4 11,11.85 10.85,11.85 Z" id="Path" fill="#241405" fill-rule="nonzero"></path>
                    <path d="M13.55,15.75 C13.4,15.9 12.95,16.05 12.35,16.05 C11.75,16.05 11.3,15.9 11.15,15.75 C11,15.75 11,15.9 11,15.9 C11.15,15.9 11.6,16.2 12.35,16.2 C13.1,16.2 13.55,16.05 13.7,15.9 C13.7,15.9 13.7,15.75 13.55,15.75 Z" id="Path" fill="#524032" fill-rule="nonzero"></path>
                    <ellipse id="Oval" fill="#241405" fill-rule="nonzero" transform="translate(16.361210, 4.371630) rotate(-63.665566) translate(-16.361210, -4.371630) " cx="16.36121" cy="4.37163" rx="2.9999331" ry="3.59991972"></ellipse>
                    <path d="M8.9,7.65 C9.8,12.75 17.3,11.55 17.45,11.55 C17.6,11.55 17.6,11.7 17.6,11.85 C17.45,13.2 17.6,15.15 17.6,15.15 C17.6,15.15 17.9,12.45 18.65,12.15 C18.95,11.25 19.25,9.3 18.5,7.35 C17.75,5.4 15.35,3.3 12.8,3.3 C10.1,3.3 8,3.9 6.65,6 C5.3,8.1 5.6,10.95 5.9,12.15 C6.35,12.15 6.65,12.75 6.95,14.55 C7.1,13.35 6.5,11.25 6.95,9.75 C7.4,8.85 7.85,8.1 8.9,7.65 Z" id="Path" fill="#241405" fill-rule="nonzero"></path>
                    <g id="XMLID_9_-link" stroke="#CCCCCC" stroke-width="0.5">
                        <path d="M24.2,29.55 L2,29.55 C1.1,29.55 0.35,28.8 0.35,27.9 L0.35,2.4 C0.35,1.5 1.1,0.75 2,0.75 L24.2,0.75 C25.1,0.75 25.85,1.5 25.85,2.4 L25.85,27.9 C25.85,28.8 25.1,29.55 24.2,29.55 Z" id="XMLID_9_"></path>
                    </g>
                </g>
                <g id="Group" transform="translate(76.000000, 40.000000)" fill-rule="nonzero">
                    <g fill="#BCBEC0" id="Rectangle">
                        <rect x="0" y="0.35" width="24.3" height="1.95"></rect>
                        <rect x="0" y="5.15" width="24.3" height="1.95"></rect>
                        <rect x="0" y="9.8" width="24.3" height="1.95"></rect>
                        <rect x="0" y="14.9" width="24.3" height="1.95"></rect>
                    </g>
                    <polygon id="Path" fill="#25DD83" points="14.85 22.4 10.2 22.4 10.2 24.8 14.85 24.8 14.85 26 18.15 23.6 14.85 21.2"></polygon>
                </g>
                <path d="M76.75,74.7 C76.9,74.85 76.9,75 77.05,75.15 C77.2,75.3 77.2,75.45 77.35,75.6 C77.35,75.6 77.35,75.6 77.35,75.6 C77.35,75.6 77.5,75.75 77.5,75.75 C77.65,75.9 77.8,76.05 77.8,76.35 C77.95,76.5 77.95,76.65 78.1,76.8 C78.25,76.95 78.25,77.1 78.4,77.25 C78.4,77.4 78.55,77.4 78.55,77.55 C78.7,77.85 78.85,78.15 79.15,78.45 C79.15,78.45 79.15,78.45 79.15,78.45 C79.3,78.6 79.45,78.9 79.6,79.05 C79.6,79.2 79.75,79.2 79.75,79.35 C79.75,79.5 79.9,79.5 79.9,79.65 C79.9,79.8 80.05,79.8 80.05,79.95 C80.2,80.1 80.2,80.25 80.35,80.4 C80.5,80.55 80.65,80.7 80.65,81 C80.65,81.15 80.8,81.15 80.8,81.3 C82,82.95 83.2,84.9 84.55,86.7 C85,87.3 85.3,87.75 85.75,88.35 C85.9,88.5 85.9,88.65 86.05,88.8 C86.2,89.1 86.35,89.25 86.5,89.55 C86.65,89.7 86.65,89.85 86.8,90 C86.95,90.15 87.1,90.3 87.25,90.6 C87.4,90.9 87.7,91.2 87.85,91.35 C87.85,91.35 87.85,91.35 87.85,91.35 C88,91.5 88,91.65 88.15,91.8 C88.15,91.8 88.3,91.95 88.3,91.95 C88.3,91.95 88.45,92.1 88.45,92.1 C88.45,92.1 88.6,92.25 88.6,92.25 C88.75,92.4 88.75,92.55 88.9,92.7 C88.9,92.7 89.05,92.85 89.05,92.85 C89.05,92.85 89.2,93 89.2,93 C91.15,95.55 93.1,97.65 94.3,98.7 C94.3,98.7 94.3,98.7 94.45,98.85 C94.6,98.85 94.6,99 94.75,99 C95.05,99.3 95.5,99.6 95.65,99.9 C96.25,100.65 97.3,102.15 98.5,104.4 C98.5,104.55 98.65,104.7 98.65,104.85 C99.1,105.6 99.55,106.5 100,107.55 C100,107.7 100.15,107.85 100.15,108 L100.15,108 C100.45,108.75 100.75,109.5 101.05,110.25 L102.7,110.25 C102.4,109.35 101.95,108.45 101.65,107.55 C101.65,107.4 101.5,107.25 101.5,107.25 C101.05,106.2 100.45,105.15 100,104.25 C100,104.1 99.85,103.95 99.85,103.95 C98.8,102 97.75,100.65 97.3,100.05 C97,99.75 96.7,99.45 96.4,99.15 C93.55,97.2 87.4,88.5 82.75,81.75 C82.75,81.75 82.75,81.75 82.75,81.6 C79.75,77.1 77.35,73.65 77.35,73.65 L75.7,73.65 C75.7,73.65 76,74.1 76.6,75 C76.6,74.55 76.75,74.7 76.75,74.7 Z" id="Path" fill="#F2F2F2" fill-rule="nonzero" opacity="0.25"></path>
                <path d="M130.6,109.95 C128.2,103.35 125.2,95.1 123.55,91.05 C123.55,91.05 122.35,76.2 123.4,68.85 C123.4,68.85 123.1,63.45 121.6,58.05 C120.1,52.65 118.45,46.95 118,41.85 C118,41.85 118,40.35 116.5,38.85 C115.15,37.5 114.1,35.85 113.8,34.95 C113.8,34.8 113.65,34.65 113.5,34.5 C113.35,34.35 113.2,34.2 113.05,34.05 C112.9,33.75 111.55,26.85 111.55,26.85 C111.55,26.85 108.55,24.6 106.45,29.25 C106.3,29.4 106.3,29.55 106.3,29.85 L106.3,37.5 C106.3,37.5 107.2,41.4 107.95,42.15 C107.95,42.15 108.25,42.6 107.95,43.2 C107.65,43.65 107.8,45.45 108.1,46.95 C108.1,46.95 109.3,52.05 106.15,59.7 C106.15,59.7 102.7,72.15 102.7,75.6 L116.95,110.25 L130.6,110.25 L130.6,109.95 Z" id="Path" fill="#F2B066" fill-rule="nonzero"></path>
                <path d="M113.05,33.75 C113.05,33.9 113.05,34.05 112.9,34.05 C112.15,34.2 109.75,34.5 109,28.5 L108.85,27 C108.85,26.85 108.85,26.55 109,26.4 C109.3,25.95 110.05,24.9 111.25,25.05 C111.4,25.05 111.4,25.2 111.55,25.2 C112.15,27.3 112.75,30.15 113.05,33.75 Z" id="Path" fill="#F2F2F2" fill-rule="nonzero"></path>
                <path d="M109.9,33.9 C110.05,34.05 110.2,34.2 110.35,34.35 C110.5,34.5 110.5,34.65 110.65,34.8 C110.95,35.85 112.15,37.5 113.35,38.7 C114.7,40.05 114.85,41.7 114.85,41.7 C115.15,46.8 116.95,52.5 118.45,57.9 C119.95,63.3 120.25,68.7 120.25,68.7 C119.2,76.05 120.4,90.9 120.4,90.9 C121.45,93.45 124.3,101.1 127.45,109.8 L131.95,109.8 C128.65,102.3 125.05,94.35 123.7,90.9 C123.7,90.9 122.5,76.05 123.55,68.7 C123.55,68.7 123.25,63.3 121.75,57.9 C120.25,52.5 118.6,46.8 118.15,41.7 C118.15,41.7 118.15,40.2 116.65,38.7 C115.3,37.35 114.25,35.7 113.95,34.8 C113.95,34.65 113.8,34.5 113.65,34.35 C113.5,34.2 113.35,34.05 113.2,33.9 C113.05,33.6 111.7,26.7 111.7,26.7 C111.7,26.7 110.2,25.5 108.4,26.7 C108.4,26.7 108.4,26.7 108.4,26.7 C108.4,26.7 109.75,33.6 109.9,33.9 Z" id="Path" fill="#F2F2F2" fill-rule="nonzero" opacity="0.25"></path>
                <circle id="Oval" fill="#FDCA21" cx="34" cy="21" r="12"></circle>
                <text id="1" font-family="Montserrat-SemiBold, Montserrat" font-size="18" font-weight="500" fill="#FFFFFF">
                    <tspan x="28.762" y="28">2</tspan>
                </text>
            </g>
        </g>
    </g>
</svg>