<?xml version="1.0" encoding="utf-8"?>
<!-- Generator: Adobe Illustrator 24.1.3, SVG Export Plug-In . SVG Version: 6.00 Build 0)  -->
<!DOCTYPE svg PUBLIC "-//W3C//DTD SVG 1.1//EN" "http://www.w3.org/Graphics/SVG/1.1/DTD/svg11.dtd" [
	<!ENTITY ns_extend "http://ns.adobe.com/Extensibility/1.0/">
	<!ENTITY ns_ai "http://ns.adobe.com/AdobeIllustrator/10.0/">
	<!ENTITY ns_graphs "http://ns.adobe.com/Graphs/1.0/">
	<!ENTITY ns_vars "http://ns.adobe.com/Variables/1.0/">
	<!ENTITY ns_imrep "http://ns.adobe.com/ImageReplacement/1.0/">
	<!ENTITY ns_sfw "http://ns.adobe.com/SaveForWeb/1.0/">
	<!ENTITY ns_custom "http://ns.adobe.com/GenericCustomNamespace/1.0/">
	<!ENTITY ns_adobe_xpath "http://ns.adobe.com/XPath/1.0/">
]>
<svg version="1.1" id="Layer_1" xmlns:x="&ns_extend;" xmlns:i="&ns_ai;" xmlns:graph="&ns_graphs;"
	 xmlns="http://www.w3.org/2000/svg" xmlns:xlink="http://www.w3.org/1999/xlink" x="0px" y="0px" viewBox="0 0 343 244"
	 style="enable-background:new 0 0 343 244;" xml:space="preserve">
<style type="text/css">
	.st0{fill:#FDCA21;}
	.st1{fill:#0F84A9;}
	.st2{fill:#00AEEA;}
	.st3{fill:#D9D9D9;}
	.st4{fill:#FFFFFF;}
	.st5{fill:#6F6F6E;}
	.st6{fill:#C6C6C5;}
	.st7{fill:#69C2C6;}
	.st8{fill:#F9B61B;}
	.st9{fill:#ED7466;}
	.st10{fill:#10465B;}
	.st11{fill:#50E2EA;}
	.st12{fill:url(#Path_1_);}
	.st13{opacity:0.5;fill:#8AD6E6;enable-background:new    ;}
	.st14{fill:#0D3D4C;}
	.st15{fill:#F96767;}
	.st16{fill:#FCD866;}
	.st17{fill:#75F967;}
	.st18{fill:url(#Rectangle_116_);}
	.st19{opacity:0.75;fill:#8AD6E6;enable-background:new    ;}
	.st20{fill:#ED1C24;}
	.st21{fill:#EBEBEB;}
	.st22{fill:#929497;}
	.st23{fill:#E6DCD1;}
	.st24{fill:#1283A8;}
	.st25{fill:#0E0F2D;}
	.st26{fill:#333333;}
	.st27{fill:url(#Rectangle_117_);}
	.st28{fill:#F7931E;}
	.st29{fill:#8CC63F;}
	.st30{fill:#29ABE2;}
	.st31{fill:#1FDBDB;}
	.st32{fill:#FDCA21;stroke:#FFFFFF;stroke-width:0.5265;}
	.st33{font-family:'Montserrat-Medium';}
	.st34{font-size:19.6273px;}
	.st35{font-family:'Montserrat-Bold';}
	.st36{font-size:17.1442px;}
	.st37{font-size:11.1437px;}
	.st38{font-size:10.4846px;}
	.st39{fill-rule:evenodd;clip-rule:evenodd;fill:#FDCA21;}
	.st40{font-size:41.9387px;}
</style>
<metadata>
	<sfw  xmlns="&ns_sfw;">
		<slices></slices>
		<sliceSourceBounds  bottomLeftOrigin="true" height="240" width="300" x="28.6" y="-21"></sliceSourceBounds>
	</sfw>
</metadata>
<g id="Page-1">
	<g id="How-It-Works_1_" transform="translate(-1241.000000, -801.000000)">
		<g id="_x33__x5F_hosting" transform="translate(1241.000000, 801.000000)">
			<path id="Path_333_" class="st0" d="M83.6,47.2l214.9-1.3c9.4,0,17,6.3,16.5,14l-15.9,135.7c-0.4,7.5-8.5,13.4-17.7,12.9
				L86.2,196.2c-10.8-0.7-19.2-7.8-19.5-16.6L63.5,64.2C63.2,54.9,72.3,47.3,83.6,47.2z"/>
			<path id="Path_332_" class="st1" d="M283.5,205.3h-1.1L86.6,193.2c-9.3-0.5-16.5-6.4-16.6-13.7L66.6,64.3
				c-0.1-3.2,1.2-6.3,3.5-8.5c3.7-3.5,8.6-5.5,13.7-5.4l215.5-1.3c4.1-0.1,8.1,1.5,11,4.3c1.7,1.7,2.7,4.1,2.6,6.6L297,195.2
				C296.8,200.9,290.7,205.3,283.5,205.3z"/>
			<path id="Path_331_" class="st2" d="M161.8,202.2c0,0.9-0.5,1.7-1.4,2.1l-31,8.3c-0.8,0.2-1.4-0.6-1.4-1.9v-89.6
				c0-1.2,0.6-2,1.4-1.7l31,11.3c0.9,0.4,1.4,1.3,1.4,2.2V202.2z"/>
			<path id="Path_330_" class="st3" d="M161.5,131l-0.5-0.2l-0.3,2.1c-0.3,3.4-0.7,6.9-1,10.3c-0.5,7-1.8,14-3.9,20.7
				c-2.1,7-4.5,14-7.4,20.7c-1.2,3-2.4,5.9-3.9,8.6c-1.5,3.3-3.3,6.3-5.3,9.3c-2.4,3.6-5.1,6.9-8.1,10.1l30.3-8
				c0.9-0.3,1.5-1.2,1.5-2.1v-69.3C162.9,132.4,162.4,131.5,161.5,131z"/>
			<g id="Group_4_" transform="translate(96.000000, 91.000000)">
				<polygon id="Path_329_" class="st4" points="40.5,31.6 34.9,29.6 41.7,120.4 47.3,119 				"/>
				<polygon id="Path_328_" class="st4" points="41.7,32.1 48.5,118.6 49.8,118.3 43,32.5 				"/>
			</g>
			<polygon id="Path_327_" class="st5" points="152.6,187.9 148.8,188.4 144.9,188.8 141.1,189.2 137.1,189.7 133.3,190.2 
				133.3,191.9 133.3,192 133.3,193.7 133.3,193.8 133.3,195.4 133.3,195.5 133.3,197.2 133.3,197.3 133.3,199 137.1,198.3 
				141.1,197.7 144.9,197 148.8,196.3 152.6,195.7 156.6,195 156.6,193.5 156.6,193.4 156.6,192.1 156.6,192 156.6,190.6 
				156.6,190.4 156.6,189.1 156.6,189 156.6,187.5 			"/>
			<polygon id="Path_326_" class="st5" points="136.4,190.7 136.2,190.7 135.9,190.8 135.7,190.8 135.4,190.8 135.1,190.9 
				135.1,192.5 135.1,192.6 135.1,194.1 135.1,194.2 135.1,195.7 135.1,195.8 135.1,197.4 135.1,197.5 135.1,199 135.4,199 
				135.7,198.9 135.9,198.9 136.2,198.9 136.4,198.8 136.7,198.8 136.7,197.2 136.7,197.1 136.7,195.6 136.7,195.5 136.7,193.9 
				136.7,193.9 136.7,192.3 136.7,192.2 136.7,190.7 			"/>
			<polygon id="Path_325_" class="st5" points="139.6,189.7 139.3,189.7 139.1,189.7 138.8,189.7 138.6,189.7 138.3,189.8 
				138.3,191.4 138.3,191.5 138.3,193 138.3,193.2 138.3,194.6 138.3,194.7 138.3,196.3 138.3,196.3 138.3,198 138.6,198 
				138.8,197.9 139.1,197.9 139.3,197.8 139.6,197.8 139.9,197.7 139.9,196.1 139.9,196 139.9,194.5 139.9,194.5 139.9,192.9 
				139.9,192.8 139.9,191.3 139.9,191.2 139.9,189.6 			"/>
			<polygon id="Path_324_" class="st5" points="142.8,189.7 142.5,189.7 142.3,189.7 142,189.7 141.7,189.7 141.5,189.7 
				141.5,191.2 141.5,191.3 141.5,192.6 141.5,192.7 141.5,194 141.5,194.1 141.5,195.5 141.5,195.5 141.5,196.9 141.7,196.9 
				142,196.9 142.3,196.9 142.5,196.8 142.8,196.8 143,196.7 143,195.3 143,195.2 143,193.9 143,193.9 143,192.5 143,192.4 
				143,191.1 143,191 143,189.6 			"/>
			<polygon id="Path_323_" class="st5" points="147,189.7 146.7,189.7 146.5,189.7 146.3,189.7 145.9,189.7 145.7,189.7 
				145.7,191.2 145.7,191.3 145.7,192.7 145.7,192.7 145.7,194 145.7,194.1 145.7,195.5 145.7,195.5 145.7,196.9 145.9,196.9 
				146.3,196.9 146.5,196.9 146.7,196.8 147,196.8 147.2,196.7 147.2,195.3 147.2,195.2 147.2,193.9 147.2,193.8 147.2,192.5 
				147.2,192.4 147.2,191.1 147.2,191 147.2,189.6 			"/>
			<polygon id="Path_322_" class="st5" points="150.1,188.5 149.9,188.6 149.7,188.6 149.4,188.7 149.1,188.7 148.9,188.7 
				148.9,190.2 148.9,190.3 148.9,191.5 148.9,191.6 148.9,193 148.9,193 148.9,194.4 148.9,194.5 148.9,195.9 149.1,195.8 
				149.4,195.8 149.7,195.7 149.9,195.7 150.1,195.7 150.4,195.7 150.4,194.2 150.4,194.2 150.4,192.8 150.4,192.7 150.4,191.5 
				150.4,191.4 150.4,190 150.4,189.9 150.4,188.5 			"/>
			<polygon id="Path_321_" class="st5" points="153.3,188.5 153.1,188.6 152.9,188.6 152.5,188.7 152.3,188.7 152,188.7 152,190.2 
				152,190.3 152,191.5 152,191.6 152,193 152,193.1 152,194.5 152,194.5 152,195.9 152.3,195.8 152.5,195.8 152.9,195.7 
				153.1,195.7 153.3,195.7 153.6,195.7 153.6,194.2 153.6,194.1 153.6,192.8 153.6,192.7 153.6,191.5 153.6,191.4 153.6,190 
				153.6,190 153.6,188.5 			"/>
			<polygon id="Path_320_" class="st5" points="152.6,197.7 148.8,198.4 144.9,199.2 141.1,199.9 137.1,200.6 133.3,201.3 
				133.3,203.2 133.3,203.3 133.3,205 133.3,205.1 133.3,206.8 133.3,206.9 133.3,208.6 133.3,208.8 133.3,210.6 137.1,209.6 
				141.1,208.6 144.9,207.7 148.8,206.6 152.6,205.7 156.6,204.7 156.6,203.2 156.6,203 156.6,201.7 156.6,201.6 156.6,200.1 
				156.6,200 156.6,198.6 156.6,198.5 156.6,196.9 			"/>
			<polygon id="Path_319_" class="st5" points="152.6,197.7 148.8,198.5 144.9,199.2 141.1,199.9 137.1,200.6 133.3,201.4 
				133.3,201.7 133.3,201.7 133.3,202.2 133.3,202.2 133.3,202.5 133.3,202.5 133.3,202.9 133.3,202.9 133.3,203.2 137.1,202.4 
				141.1,201.7 144.9,200.8 148.8,200 152.6,199.3 156.6,198.5 156.6,198.1 156.6,198.1 156.6,197.9 156.6,197.9 156.6,197.5 
				156.6,197.5 156.6,197.3 156.6,197.3 156.6,196.9 			"/>
			<polygon id="Path_318_" class="st5" points="152.6,200.9 148.8,201.6 144.9,202.4 141.1,203.2 137.1,203.9 133.3,204.7 
				133.3,205 133.3,205.1 133.3,205.3 133.3,205.4 133.3,205.7 133.3,205.7 133.3,206 133.3,206 133.3,206.4 137.1,205.6 
				141.1,204.7 144.9,204 148.8,203.1 152.6,202.3 156.6,201.5 156.6,201.2 156.6,201.2 156.6,201 156.6,201 156.6,200.7 
				156.6,200.6 156.6,200.4 156.6,200.4 156.6,200.1 			"/>
			<polygon id="Path_317_" class="st5" points="152.6,203.1 148.8,204 144.9,204.9 141.1,205.9 137.1,206.8 133.3,207.7 
				133.3,208.1 133.3,208.1 133.3,208.3 133.3,208.4 133.3,208.8 133.3,208.8 133.3,209.1 133.3,209.1 133.3,209.5 137.1,208.5 
				141.1,207.6 144.9,206.6 148.8,205.7 152.6,204.7 156.6,203.7 156.6,203.4 156.6,203.4 156.6,203.1 156.6,203.1 156.6,202.8 
				156.6,202.8 156.6,202.5 156.6,202.5 156.6,202.2 			"/>
			<path id="Path_316_" class="st6" d="M135.4,159.9L135.4,159.9c0-1.5-0.7-2.7-1.5-2.8c-0.9-0.1-1.6,0.9-1.6,2.4s0.7,2.7,1.6,2.8
				C134.7,162.4,135.3,161.3,135.4,159.9z"/>
			<path id="Path_315_" class="st7" d="M133.8,161.3c-0.9,0-1.5-1-1.5-2.2s0.7-2.1,1.5-2c0.9,0.1,1.5,1.1,1.5,2.2
				C135.2,160.5,134.6,161.3,133.8,161.3z"/>
			<path id="Path_314_" class="st6" d="M133.8,160.9c-0.9,0-1.5-1.1-1.5-2.4c0.3,3.2,2.7,2,2.9,0.3
				C135.2,160.1,134.6,160.9,133.8,160.9z"/>
			<path id="Path_313_" class="st4" d="M134.2,157.3c0.9,0,1.5,1.2,1.5,2.4S133.4,157.3,134.2,157.3z"/>
			<path id="Path_312_" class="st4" d="M132.3,159.5c0-1.3,0.7-2.2,1.5-2.1c0.8,0.1,1.5,1.2,1.5,2.4
				C135.2,161,133.9,155.7,132.3,159.5z"/>
			<path id="Path_311_" class="st6" d="M135.4,165.1L135.4,165.1c0-1.5-0.7-2.7-1.5-2.7c-0.9-0.1-1.6,1-1.6,2.5s0.7,2.7,1.6,2.7
				C134.7,167.6,135.3,166.4,135.4,165.1z"/>
			<path id="Path_310_" class="st8" d="M133.8,166.5c-0.9,0-1.5-1-1.5-2.1s0.7-2.1,1.5-2s1.5,1,1.5,2.1S134.6,166.6,133.8,166.5z"/>
			<path id="Path_309_" class="st6" d="M133.8,167.2c-0.9,0-1.5-1-1.5-2.3c0.3,3.2,2.7,1.9,2.9,0.2
				C135.2,166.3,134.6,167.2,133.8,167.2z"/>
			<path id="Path_308_" class="st4" d="M134.2,162.7c0.9,0,1.5,1.1,1.5,2.3S133.4,162.6,134.2,162.7z"/>
			<path id="Path_307_" class="st4" d="M132.3,164.8c0-1.2,0.7-2.2,1.5-2.1c0.8,0.1,1.5,1.1,1.5,2.3S133.9,161.1,132.3,164.8z"/>
			<path id="Path_306_" class="st6" d="M135.4,170.2L135.4,170.2c0-1.5-0.7-2.7-1.5-2.7s-1.6,1.1-1.6,2.6s0.7,2.7,1.6,2.7
				C134.7,172.9,135.3,171.7,135.4,170.2z"/>
			<path id="Path_305_" class="st9" d="M133.8,172.9c-0.9,0-1.5-0.9-1.5-2.1s0.7-2.1,1.5-2.1c0.9,0,1.5,0.9,1.5,2.1
				C135.2,171.9,134.6,172.9,133.8,172.9z"/>
			<path id="Path_304_" class="st6" d="M133.8,172.4c-0.9,0-1.5-1-1.5-2.2c0.3,3.2,2.7,1.8,2.9,0
				C135.2,171.4,134.6,172.4,133.8,172.4z"/>
			<path id="Path_303_" class="st4" d="M134.2,167.9c0.9,0,1.5,1,1.5,2.2C135.7,171.4,133.4,167.9,134.2,167.9z"/>
			<path id="Path_302_" class="st4" d="M132.3,170.1c0-1.3,0.7-2.2,1.5-2.2c0.9,0,1.5,1,1.5,2.2
				C135.2,171.4,133.9,166.2,132.3,170.1z"/>
			<path id="Path_301_" class="st6" d="M135.4,176.5L135.4,176.5c0-1.5-0.7-2.6-1.5-2.6s-1.6,1.2-1.6,2.7s0.7,2.6,1.6,2.6
				C134.7,179.1,135.3,177.8,135.4,176.5z"/>
			<path id="Path_300_" class="st7" d="M133.8,178.1c-0.9,0-1.5-0.9-1.5-2.1c0-1.1,0.7-2.1,1.5-2.1s1.5,0.9,1.5,2.1
				S134.6,178,133.8,178.1z"/>
			<path id="Path_299_" class="st6" d="M133.8,178.7c-0.9,0-1.5-0.9-1.5-2.2c0.3,3.2,2.7,1.6,2.9,0
				C135.2,177.6,134.6,178.6,133.8,178.7z"/>
			<path id="Path_298_" class="st4" d="M134.2,174.2c0.9,0,1.5,0.9,1.5,2.2S133.4,174.2,134.2,174.2z"/>
			<path id="Path_297_" class="st4" d="M132.3,176.5c0-1.3,0.7-2.2,1.5-2.2s1.5,0.9,1.5,2.2C135.2,177.7,133.9,172.7,132.3,176.5z"
				/>
			<path id="Path_296_" class="st6" d="M135.4,181.7L135.4,181.7c0-1.5-0.7-2.6-1.5-2.6s-1.6,1.3-1.6,2.7s0.7,2.6,1.6,2.5
				C134.7,184.3,135.3,183.1,135.4,181.7z"/>
			<path id="Path_295_" class="st8" d="M133.8,184.3c-0.9,0-1.5-0.9-1.5-2.1s0.7-2.1,1.5-2.1s1.5,0.9,1.5,2
				C135.2,183.2,134.6,184.3,133.8,184.3z"/>
			<path id="Path_294_" class="st6" d="M133.8,183.9c-0.9,0-1.5-0.9-1.5-2.1c0.3,3.2,2.7,1.5,2.9,0
				C135.2,182.8,134.6,183.8,133.8,183.9z"/>
			<path id="Path_293_" class="st4" d="M134.2,179.5c0.9,0,1.5,0.9,1.5,2.1S133.4,179.5,134.2,179.5z"/>
			<path id="Path_292_" class="st4" d="M132.3,181.9c0-1.2,0.7-2.2,1.5-2.3c0.9,0,1.5,0.9,1.5,2.1
				C135.2,182.9,133.9,177.7,132.3,181.9z"/>
			<polygon id="Path_291_" class="st5" points="154.1,160 150.6,159.7 147.1,159.2 143.5,158.9 139.9,158.5 136.4,158.1 
				136.4,158.8 136.4,158.9 136.4,159.6 136.4,159.6 136.4,160.3 136.4,160.3 136.4,160.9 136.4,161 136.4,161.7 139.9,162 
				143.5,162.2 147.1,162.6 150.6,162.8 154.1,163.1 157.6,163.4 157.6,162.8 157.6,162.7 157.6,162.2 157.6,162.1 157.6,161.6 
				157.6,161.5 157.6,161 157.6,160.9 157.6,160.3 			"/>
			<polygon id="Path_290_" class="st5" points="154.1,160.2 150.6,159.8 147.1,159.4 143.5,159 139.9,158.5 136.4,158.1 
				136.4,158.3 136.4,158.3 136.4,158.5 136.4,158.5 136.4,158.6 136.4,158.6 136.4,158.8 136.4,158.8 136.4,159 139.9,159.3 
				143.5,159.7 147.1,160.1 150.6,160.5 154.1,160.9 157.6,161.3 157.6,161.2 157.6,161.2 157.6,161 157.6,161 157.6,160.9 
				157.6,160.9 157.6,160.8 157.6,160.8 157.6,160.6 			"/>
			<polygon id="Path_289_" class="st5" points="154.1,161.2 150.6,160.8 147.1,160.4 143.5,160.1 139.9,159.7 136.4,159.3 
				136.4,159.5 136.4,159.5 136.4,159.6 136.4,159.6 136.4,159.7 136.4,159.7 136.4,159.9 136.4,159.9 136.4,160.1 139.9,160.4 
				143.5,160.8 147.1,161.2 150.6,161.5 154.1,161.9 157.6,162.2 157.6,162.1 157.6,162.1 157.6,162 157.6,162 157.6,161.8 
				157.6,161.8 157.6,161.7 157.6,161.7 157.6,161.5 			"/>
			<polygon id="Path_288_" class="st5" points="154.1,162.1 150.6,161.8 147.1,161.5 143.5,161.1 139.9,160.8 136.4,160.4 
				136.4,160.6 136.4,160.6 136.4,160.8 136.4,160.8 136.4,160.9 136.4,160.9 136.4,161 136.4,161.1 136.4,161.2 139.9,161.5 
				143.5,161.9 147.1,162.2 150.6,162.6 154.1,162.9 157.6,163.3 157.6,163.1 157.6,163.1 157.6,162.9 157.6,162.9 157.6,162.8 
				157.6,162.7 157.6,162.7 157.6,162.7 157.6,162.5 			"/>
			<polygon id="Path_46_" class="st5" points="154.1,164.8 150.6,164.5 147.1,164.2 143.5,163.9 139.9,163.7 136.4,163.4 
				136.4,164.2 136.4,164.3 136.4,165.1 136.4,165.1 136.4,165.9 136.4,165.9 136.4,166.7 136.4,166.8 136.4,167.5 139.9,167.7 
				143.5,167.9 147.1,168.1 150.6,168.3 154.1,168.4 157.6,168.7 157.6,167.9 157.6,167.9 157.6,167.2 157.6,167.2 157.6,166.5 
				157.6,166.4 157.6,165.8 157.6,165.8 157.6,165.1 			"/>
			<polygon id="Path_47_" class="st5" points="154.1,165.1 150.6,164.9 147.1,164.6 143.5,164.4 139.9,164.1 136.4,163.9 136.4,164 
				136.4,164 136.4,164.1 136.4,164.1 136.4,164.3 136.4,164.4 136.4,164.5 136.4,164.5 136.4,164.6 139.9,164.9 143.5,165.1 
				147.1,165.4 150.6,165.7 154.1,165.9 157.6,166.1 157.6,166 157.6,166 157.6,165.8 157.6,165.8 157.6,165.7 157.6,165.7 
				157.6,165.6 157.6,165.6 157.6,165.4 			"/>
			<polygon id="Path_48_" class="st5" points="154.1,166.2 150.6,165.9 147.1,165.7 143.5,165.4 139.9,165.2 136.4,165 136.4,165.1 
				136.4,165.1 136.4,165.3 136.4,165.3 136.4,165.5 136.4,165.5 136.4,165.6 136.4,165.6 136.4,165.7 139.9,166 143.5,166.2 
				147.1,166.4 150.6,166.6 154.1,166.9 157.6,167 157.6,166.9 157.6,166.9 157.6,166.8 157.6,166.8 157.6,166.6 157.6,166.6 
				157.6,166.5 157.6,166.5 157.6,166.3 			"/>
			<polygon id="Path_49_" class="st5" points="154.1,167.1 150.6,166.9 147.1,166.7 143.5,166.5 139.9,166.3 136.4,166.1 
				136.4,166.3 136.4,166.3 136.4,166.4 136.4,166.4 136.4,166.6 136.4,166.6 136.4,166.8 136.4,166.8 136.4,166.9 139.9,167.1 
				143.5,167.3 147.1,167.5 150.6,167.6 154.1,167.8 157.6,168 157.6,167.9 157.6,167.9 157.6,167.7 157.6,167.7 157.6,167.6 
				157.6,167.6 157.6,167.5 157.6,167.5 157.6,167.3 			"/>
			<polygon id="Path_50_" class="st5" points="154.1,169.3 150.6,169.2 147.1,169 143.5,168.9 139.9,168.7 136.4,168.7 136.4,169.4 
				136.4,169.5 136.4,170.2 136.4,170.3 136.4,171.1 136.4,171.1 136.4,171.8 136.4,171.9 136.4,172.7 139.9,172.8 143.5,172.8 
				147.1,172.8 150.6,172.8 154.1,172.8 157.6,172.9 157.6,172.2 157.6,172.1 157.6,171.5 157.6,171.4 157.6,170.8 157.6,170.7 
				157.6,170.1 157.6,170 157.6,169.3 			"/>
			<polygon id="Path_51_" class="st5" points="154.1,170.1 150.6,170 147.1,169.9 143.5,169.8 139.9,169.6 136.4,169.5 136.4,169.7 
				136.4,169.7 136.4,169.9 136.4,169.9 136.4,170 136.4,170 136.4,170.1 136.4,170.2 136.4,170.4 139.9,170.5 143.5,170.5 
				147.1,170.6 150.6,170.7 154.1,170.8 157.6,170.9 157.6,170.8 157.6,170.7 157.6,170.6 157.6,170.6 157.6,170.5 157.6,170.5 
				157.6,170.4 157.6,170.4 157.6,170.2 			"/>
			<polygon id="Path_52_" class="st5" points="154.1,171.1 150.6,171 147.1,170.9 143.5,170.8 139.9,170.7 136.4,170.7 136.4,170.8 
				136.4,170.8 136.4,171 136.4,171 136.4,171.1 136.4,171.1 136.4,171.3 136.4,171.3 136.4,171.5 139.9,171.5 143.5,171.6 
				147.1,171.7 150.6,171.7 154.1,171.7 157.6,171.8 157.6,171.7 157.6,171.7 157.6,171.6 157.6,171.6 157.6,171.4 157.6,171.4 
				157.6,171.3 157.6,171.3 157.6,171.1 			"/>
			<polygon id="Path_53_" class="st5" points="154.1,172.1 150.6,172 147.1,172 143.5,171.9 139.9,171.9 136.4,171.8 136.4,172 
				136.4,172 136.4,172.2 136.4,172.2 136.4,172.3 136.4,172.3 136.4,172.5 136.4,172.5 136.4,172.6 139.9,172.7 143.5,172.7 
				147.1,172.7 150.6,172.8 154.1,172.8 157.6,172.8 157.6,172.7 157.6,172.7 157.6,172.5 157.6,172.5 157.6,172.3 157.6,172.3 
				157.6,172.3 157.6,172.3 157.6,172.2 			"/>
			<polygon id="Path_54_" class="st5" points="154.1,174.9 150.6,175 147.1,175 143.5,175.1 139.9,175.1 136.4,175.1 136.4,175.9 
				136.4,175.9 136.4,176.7 136.4,176.7 136.4,177.5 136.4,177.5 136.4,178.3 136.4,178.3 136.4,179.1 139.9,179 143.5,178.9 
				147.1,178.8 150.6,178.6 154.1,178.5 157.6,178.3 157.6,177.7 157.6,177.7 157.6,177 157.6,177 157.6,176.3 157.6,176.3 
				157.6,175.7 157.6,175.6 157.6,174.9 			"/>
			<polygon id="Path_55_" class="st5" points="154.1,175 150.6,175 147.1,175 143.5,175.1 139.9,175.1 136.4,175.2 136.4,175.3 
				136.4,175.3 136.4,175.4 136.4,175.5 136.4,175.6 136.4,175.6 136.4,175.8 136.4,175.8 136.4,175.9 139.9,175.9 143.5,175.9 
				147.1,175.8 150.6,175.8 154.1,175.7 157.6,175.6 157.6,175.5 157.6,175.5 157.6,175.3 157.6,175.3 157.6,175.2 157.6,175.2 
				157.6,175.1 157.6,175.1 157.6,174.9 			"/>
			<polygon id="Path_56_" class="st5" points="154.1,175.9 150.6,176 147.1,176.1 143.5,176.1 139.9,176.2 136.4,176.3 136.4,176.5 
				136.4,176.5 136.4,176.6 136.4,176.6 136.4,176.8 136.4,176.8 136.4,176.9 136.4,176.9 136.4,177.1 139.9,177.1 143.5,176.9 
				147.1,176.8 150.6,176.7 154.1,176.6 157.6,176.5 157.6,176.5 157.6,176.5 157.6,176.3 157.6,176.3 157.6,176.2 157.6,176.1 
				157.6,176 157.6,176 157.6,175.9 			"/>
			<polygon id="Path_57_" class="st5" points="154.1,177 150.6,177.1 147.1,177.1 143.5,177.2 139.9,177.3 136.4,177.5 136.4,177.7 
				136.4,177.7 136.4,177.7 136.4,177.7 136.4,177.9 136.4,177.9 136.4,178.1 136.4,178.1 136.4,178.3 139.9,178.1 143.5,178 
				147.1,177.9 150.6,177.7 154.1,177.7 157.6,177.6 157.6,177.4 157.6,177.4 157.6,177.2 157.6,177.2 157.6,177.1 157.6,177.1 
				157.6,177 157.6,177 157.6,176.8 			"/>
			<polygon id="Path_58_" class="st5" points="154.1,179.3 150.6,179.5 147.1,179.6 143.5,179.9 139.9,180.1 136.4,180.2 
				136.4,181.1 136.4,181.1 136.4,181.9 136.4,181.9 136.4,182.7 136.4,182.7 136.4,183.5 136.4,183.6 136.4,184.3 139.9,184.1 
				143.5,183.8 147.1,183.5 150.6,183.2 154.1,183 157.6,182.6 157.6,181.9 157.6,181.9 157.6,181.3 157.6,181.2 157.6,180.6 
				157.6,180.6 157.6,179.9 157.6,179.8 157.6,179.1 			"/>
			<polygon id="Path_59_" class="st5" points="154.1,179.9 150.6,180.1 147.1,180.3 143.5,180.5 139.9,180.7 136.4,180.8 136.4,181 
				136.4,181 136.4,181.2 136.4,181.2 136.4,181.3 136.4,181.3 136.4,181.5 136.4,181.5 136.4,181.7 139.9,181.4 143.5,181.3 
				147.1,181 150.6,180.8 154.1,180.6 157.6,180.4 157.6,180.3 157.6,180.2 157.6,180.1 157.6,180.1 157.6,180.1 157.6,180.1 
				157.6,179.9 157.6,179.9 157.6,179.7 			"/>
			<polygon id="Path_60_" class="st5" points="154.1,180.9 150.6,181.1 147.1,181.3 143.5,181.5 139.9,181.8 136.4,182 136.4,182.1 
				136.4,182.1 136.4,182.3 136.4,182.4 136.4,182.5 136.4,182.5 136.4,182.6 136.4,182.6 136.4,182.8 139.9,182.5 143.5,182.4 
				147.1,182.1 150.6,181.9 154.1,181.6 157.6,181.3 157.6,181.3 157.6,181.3 157.6,181.1 157.6,181.1 157.6,180.9 157.6,180.9 
				157.6,180.8 157.6,180.8 157.6,180.7 			"/>
			<polygon id="Path_61_" class="st5" points="154.1,181.9 150.6,182.2 147.1,182.4 143.5,182.6 139.9,182.9 136.4,183.1 
				136.4,183.3 136.4,183.3 136.4,183.5 136.4,183.5 136.4,183.7 136.4,183.7 136.4,183.8 136.4,183.8 136.4,183.9 139.9,183.7 
				143.5,183.4 147.1,183.1 150.6,182.9 154.1,182.6 157.6,182.3 157.6,182.2 157.6,182.2 157.6,182 157.6,182 157.6,181.9 
				157.6,181.9 157.6,181.8 157.6,181.8 157.6,181.6 			"/>
			<path id="Path_62_" class="st6" d="M154.4,135.7L154.4,135.7c0-1.1,0.7-1.8,1.5-1.5c0.9,0.4,1.6,1.5,1.5,2.6
				c0,1.1-0.7,1.8-1.5,1.5C155,137.7,154.3,136.8,154.4,135.7L154.4,135.7z"/>
			<path id="Path_63_" class="st7" d="M156,138.1c0.9,0.3,1.5-0.4,1.5-1.5s-0.5-2.1-1.5-2.6c-0.9-0.3-1.5,0.4-1.5,1.5
				C154.5,136.8,155.1,137.7,156,138.1L156,138.1z"/>
			<path id="Path_64_" class="st6" d="M156,138.8c0.9,0.3,1.5-0.4,1.5-1.5c-0.3,2.6-2.7,0.7-2.9-0.9
				C154.5,137.5,155.1,138.5,156,138.8L156,138.8z"/>
			<path id="Path_65_" class="st4" d="M156.7,134.8c-0.9-0.3-1.5,0.4-1.5,1.5C155.2,137.3,157.4,135.1,156.7,134.8z"/>
			<path id="Path_66_" class="st4" d="M157.4,136.9c0-1-0.5-1.9-1.5-2.4c-0.9-0.3-1.5,0.4-1.5,1.5S155.7,132.9,157.4,136.9z"/>
			<path id="Path_67_" class="st6" d="M154.4,141L154.4,141c0-1.1,0.7-1.9,1.5-1.6c0.9,0.4,1.6,1.4,1.5,2.5c0,1.1-0.7,1.9-1.5,1.6
				C155,143,154.3,142,154.4,141L154.4,141z"/>
			<path id="Path_68_" class="st8" d="M156,142.4c0.9,0.2,1.5-0.3,1.5-1.2c0-0.8-0.5-1.5-1.5-1.9c-0.9-0.2-1.5,0.3-1.5,1.2
				C154.5,141.3,155,142.1,156,142.4L156,142.4z"/>
			<path id="Path_69_" class="st6" d="M156,143c0.9,0.3,1.5-0.5,1.5-1.5c-0.3,2.6-2.7,0.8-2.9-0.8C154.5,141.7,155,142.7,156,143
				L156,143z"/>
			<path id="Path_70_" class="st4" d="M156.7,139.9c-0.9-0.3-1.5,0.4-1.5,1.5S157.4,140.2,156.7,139.9z"/>
			<path id="Path_71_" class="st4" d="M157.4,142c0-1-0.5-1.9-1.5-2.3c-0.9-0.3-1.5,0.4-1.5,1.5S155.7,138.2,157.4,142z"/>
			<path id="Path_72_" class="st6" d="M154.4,146.4L154.4,146.4c0-1.2,0.8-2,1.7-1.8c0.9,0.4,1.5,1.4,1.5,2.3c0,1.2-0.8,2-1.7,1.8
				C155,148.3,154.4,147.3,154.4,146.4L154.4,146.4z"/>
			<path id="Path_73_" class="st9" d="M156,147.7c0.9,0.2,1.5-0.4,1.5-1.3c0.1-0.8-0.5-1.5-1.5-1.8c-0.9-0.2-1.5,0.4-1.5,1.3
				C154.5,146.6,155.1,147.4,156,147.7L156,147.7z"/>
			<path id="Path_74_" class="st6" d="M156,148.3c0.9,0.2,1.5-0.5,1.5-1.5c-0.3,2.6-2.7,0.9-2.9-0.7
				C154.5,147,155.1,147.9,156,148.3z"/>
			<path id="Path_75_" class="st4" d="M156.7,144.1c-0.9-0.2-1.5,0.5-1.5,1.5C155.2,146.7,157.4,144.3,156.7,144.1z"/>
			<path id="Path_76_" class="st4" d="M157.4,146.2c0.1-0.9-0.5-1.9-1.5-2.2c-0.9-0.2-1.5,0.5-1.5,1.5
				C154.5,146.5,155.7,142.5,157.4,146.2z"/>
			<path id="Path_77_" class="st6" d="M154.4,150.5L154.4,150.5c0-1.2,0.7-2,1.5-1.8c1,0.3,1.6,1.3,1.5,2.4c0,1.1-0.7,1.9-1.5,1.8
				C155,152.5,154.3,151.6,154.4,150.5L154.4,150.5z"/>
			<path id="Path_78_" class="st7" d="M156,152.9c0.9,0,1.5-0.5,1.5-1.4c0.1-0.8-0.5-1.5-1.5-1.8c-0.9-0.2-1.5,0.4-1.5,1.3
				C154.4,151.9,155,152.6,156,152.9z"/>
			<path id="Path_79_" class="st6" d="M156,152.5c0.9,0,1.5-0.6,1.5-1.6c-0.3,2.7-2.7,1-2.9-0.5C154.4,151.3,155,152.1,156,152.5z"
				/>
			<path id="Path_80_" class="st4" d="M156.7,149.4c-0.9-0.2-1.5,0.5-1.5,1.6C155.2,152,157.4,149.6,156.7,149.4z"/>
			<path id="Path_81_" class="st4" d="M157.4,151.3c0.1-0.9-0.5-1.8-1.5-2.1c-0.9-0.2-1.5,0.5-1.5,1.6
				C154.5,151.9,155.7,147.7,157.4,151.3z"/>
			<path id="Path_82_" class="st6" d="M154.4,155.8L154.4,155.8c0-1.1,0.7-2,1.5-1.9c0.9,0.3,1.6,1.3,1.5,2.3c0,1.1-0.7,2-1.5,1.9
				C155,157.9,154.3,156.9,154.4,155.8z"/>
			<path id="Path_83_" class="st8" d="M156,157.1c0.9,0,1.5-0.5,1.5-1.4c0.1-0.8-0.5-1.5-1.5-1.7c-0.9,0-1.5,0.5-1.5,1.4
				C154.4,156.1,155.1,156.9,156,157.1L156,157.1z"/>
			<path id="Path_84_" class="st6" d="M156,157.6c0.9,0,1.5-0.7,1.5-1.7c-0.3,2.7-2.7,1.1-2.9-0.4
				C154.5,156.5,155.1,157.3,156,157.6L156,157.6z"/>
			<path id="Path_85_" class="st4" d="M156.7,153.5c-0.9,0-1.5,0.6-1.5,1.7C155.2,156.3,157.4,153.7,156.7,153.5z"/>
			<path id="Path_86_" class="st4" d="M157.4,155.5c0.1-0.9-0.5-1.8-1.5-2.1c-0.9,0-1.5,0.6-1.5,1.7
				C154.5,156.2,155.7,151.9,157.4,155.5z"/>
			<polygon id="Path_87_" class="st5" points="136.8,128.9 140.3,130.1 143.8,131.2 147.4,132.4 150.9,133.6 154.4,134.7 
				154.4,135.5 154.4,135.5 154.4,136.2 154.4,136.2 154.4,136.8 154.4,136.9 154.4,137.5 154.4,137.5 154.4,138.2 150.9,137.1 
				147.4,136.1 143.8,135.1 140.3,133.9 136.8,132.9 133.3,131.8 133.3,131 133.3,130.9 133.3,130.2 133.3,130.2 133.3,129.4 
				133.3,129.3 133.3,128.5 133.3,128.5 133.3,127.8 			"/>
			<polygon id="Path_88_" class="st5" points="136.8,128.9 140.3,130 143.8,131.1 147.4,132.2 150.9,133.3 154.4,134.5 154.4,134.5 
				154.4,134.5 154.4,134.7 154.4,134.7 154.4,134.8 154.4,134.9 154.4,135 154.4,135 154.4,135.1 150.9,134 147.4,132.9 
				143.8,131.8 140.3,130.7 136.8,129.6 133.3,128.5 133.3,128.4 133.3,128.4 133.3,128.2 133.3,128.2 133.3,128.1 133.3,128 
				133.3,127.9 133.3,127.9 133.3,127.8 			"/>
			<polygon id="Path_89_" class="st5" points="136.8,129.9 140.3,131 143.8,132.1 147.4,133.3 150.9,134.4 154.4,135.4 154.4,135.6 
				154.4,135.6 154.4,135.7 154.4,135.7 154.4,135.8 154.4,135.8 154.4,136 154.4,136 154.4,136.2 150.9,135.1 147.4,133.9 
				143.8,132.8 140.3,131.8 136.8,130.7 133.3,129.6 133.3,129.4 133.3,129.4 133.3,129.2 133.3,129.2 133.3,129.1 133.3,129.1 
				133.3,129 133.3,129 133.3,128.8 			"/>
			<polygon id="Path_90_" class="st5" points="136.8,130.9 140.3,132.1 143.8,133.2 147.4,134.3 150.9,135.4 154.4,136.5 
				154.4,136.6 154.4,136.6 154.4,136.8 154.4,136.8 154.4,136.9 154.4,136.9 154.4,137 154.4,137 154.4,137.2 150.9,136.1 
				147.4,135 143.8,133.9 140.3,132.8 136.8,131.8 133.3,130.7 133.3,130.5 133.3,130.5 133.3,130.3 133.3,130.3 133.3,130.2 
				133.3,130.2 133.3,130 133.3,130 133.3,129.8 			"/>
			<polygon id="Path_91_" class="st5" points="136.8,134 140.3,135 143.8,136 147.4,136.9 150.9,138 154.4,139 154.4,139.7 
				154.4,139.7 154.4,140.4 154.4,140.4 154.4,141.1 154.4,141.1 154.4,141.7 154.4,141.7 154.4,142.4 150.9,141.5 147.4,140.6 
				143.8,139.7 140.3,138.8 136.8,137.9 133.3,136.9 133.3,136.2 133.3,136.2 133.3,135.4 133.3,135.3 133.3,134.6 133.3,134.5 
				133.3,133.8 133.3,133.8 133.3,133 			"/>
			<polygon id="Path_92_" class="st5" points="136.8,135 140.3,135.9 143.8,136.9 147.4,137.8 150.9,138.7 154.4,139.7 154.4,139.8 
				154.4,139.8 154.4,139.9 154.4,139.9 154.4,140 154.4,140 154.4,140.2 154.4,140.2 154.4,140.3 150.9,139.4 147.4,138.5 
				143.8,137.5 140.3,136.6 136.8,135.7 133.3,134.8 133.3,134.6 133.3,134.6 133.3,134.5 133.3,134.5 133.3,134.4 133.3,134.3 
				133.3,134.2 133.3,134.2 133.3,134 			"/>
			<polygon id="Path_93_" class="st5" points="136.8,136 140.3,136.9 143.8,137.9 147.4,138.8 150.9,139.8 154.4,140.7 154.4,140.9 
				154.4,140.9 154.4,141 154.4,141 154.4,141.1 154.4,141.1 154.4,141.2 154.4,141.2 154.4,141.4 150.9,140.5 147.4,139.5 
				143.8,138.7 140.3,137.7 136.8,136.8 133.3,135.8 133.3,135.7 133.3,135.7 133.3,135.6 133.3,135.6 133.3,135.4 133.3,135.4 
				133.3,135.2 133.3,135.2 133.3,135.1 			"/>
			<polygon id="Path_94_" class="st5" points="136.8,137 140.3,138 143.8,138.9 147.4,139.9 150.9,140.8 154.4,141.7 154.4,141.9 
				154.4,141.9 154.4,142 154.4,142 154.4,142.1 154.4,142.2 154.4,142.3 154.4,142.3 154.4,142.4 150.9,141.5 147.4,140.5 
				143.8,139.7 140.3,138.7 136.8,137.8 133.3,136.9 133.3,136.8 133.3,136.8 133.3,136.6 133.3,136.6 133.3,136.4 133.3,136.4 
				133.3,136.3 133.3,136.3 133.3,136.2 			"/>
			<polygon id="Path_95_" class="st5" points="136.8,140.1 140.3,141 143.8,141.8 147.4,142.6 150.9,143.5 154.4,144.3 154.4,145 
				154.4,145 154.4,145.7 154.4,145.7 154.4,146.3 154.4,146.4 154.4,147 154.4,147 154.4,147.7 150.9,146.9 147.4,146.2 
				143.8,145.4 140.3,144.7 136.8,144 133.3,143.2 133.3,142.4 133.3,142.4 133.3,141.7 133.3,141.6 133.3,140.9 133.3,140.8 
				133.3,140.1 133.3,140 133.3,139.3 			"/>
			<polygon id="Path_96_" class="st5" points="136.8,140 140.3,140.8 143.8,141.6 147.4,142.3 150.9,143.1 154.4,143.9 154.4,144.1 
				154.4,144.1 154.4,144.1 154.4,144.1 154.4,144.3 154.4,144.3 154.4,144.4 154.4,144.4 154.4,144.5 150.9,143.8 147.4,143 
				143.8,142.3 140.3,141.5 136.8,140.8 133.3,140 133.3,139.9 133.3,139.9 133.3,139.7 133.3,139.7 133.3,139.6 133.3,139.5 
				133.3,139.4 133.3,139.4 133.3,139.3 			"/>
			<polygon id="Path_97_" class="st5" points="136.8,142.2 140.3,142.9 143.8,143.6 147.4,144.4 150.9,145.2 154.4,145.9 
				154.4,146.1 154.4,146.1 154.4,146.2 154.4,146.2 154.4,146.4 154.4,146.4 154.4,146.5 154.4,146.5 154.4,146.6 150.9,145.9 
				147.4,145.1 143.8,144.3 140.3,143.6 136.8,142.9 133.3,142.1 133.3,142 133.3,142 133.3,141.8 133.3,141.8 133.3,141.7 
				133.3,141.7 133.3,141.5 133.3,141.5 133.3,141.4 			"/>
			<polygon id="Path_98_" class="st5" points="136.8,143.2 140.3,144 143.8,144.7 147.4,145.4 150.9,146.3 154.4,147.1 154.4,147.1 
				154.4,147.1 154.4,147.2 154.4,147.3 154.4,147.4 154.4,147.4 154.4,147.5 154.4,147.6 154.4,147.7 150.9,147 147.4,146.2 
				143.8,145.4 140.3,144.7 136.8,143.9 133.3,143.2 133.3,143 133.3,143 133.3,142.9 133.3,142.9 133.3,142.7 133.3,142.7 
				133.3,142.6 133.3,142.6 133.3,142.4 			"/>
			<polygon id="Path_99_" class="st5" points="136.8,146.2 140.3,146.9 143.8,147.7 147.4,148.3 150.9,148.9 154.4,149.6 
				154.4,150.3 154.4,150.3 154.4,150.9 154.4,151 154.4,151.6 154.4,151.6 154.4,152.3 154.4,152.3 154.4,152.9 150.9,152.4 
				147.4,151.8 143.8,151.2 140.3,150.6 136.8,150 133.3,149.4 133.3,148.6 133.3,148.6 133.3,147.9 133.3,147.8 133.3,147.1 
				133.3,147.1 133.3,146.4 133.3,146.3 133.3,145.6 			"/>
			<polygon id="Path_100_" class="st5" points="136.8,146.4 140.3,147.1 143.8,147.8 147.4,148.6 150.9,149.4 154.4,150.1 
				154.4,150.2 154.4,150.2 154.4,150.4 154.4,150.4 154.4,150.5 154.4,150.5 154.4,150.7 154.4,150.7 154.4,150.8 150.9,150.1 
				147.4,149.4 143.8,148.6 140.3,147.9 136.8,147.1 133.3,146.4 133.3,146.3 133.3,146.3 133.3,146.1 133.3,146.1 133.3,145.9 
				133.3,145.9 133.3,145.8 133.3,145.8 133.3,145.6 			"/>
			<polygon id="Path_101_" class="st5" points="136.8,147.2 140.3,147.8 143.8,148.4 147.4,149 150.9,149.6 154.4,150.2 
				154.4,150.3 154.4,150.3 154.4,150.4 154.4,150.5 154.4,150.6 154.4,150.6 154.4,150.7 154.4,150.7 154.4,150.8 150.9,150.2 
				147.4,149.6 143.8,149 140.3,148.5 136.8,147.9 133.3,147.3 133.3,147.1 133.3,147.1 133.3,147.1 133.3,147.1 133.3,146.9 
				133.3,146.9 133.3,146.7 133.3,146.7 133.3,146.6 			"/>
			<polygon id="Path_102_" class="st5" points="136.8,148.3 140.3,148.9 143.8,149.5 147.4,150.1 150.9,150.7 154.4,151.3 
				154.4,151.3 154.4,151.3 154.4,151.5 154.4,151.5 154.4,151.6 154.4,151.6 154.4,151.8 154.4,151.8 154.4,151.9 150.9,151.3 
				147.4,150.7 143.8,150.1 140.3,149.5 136.8,148.9 133.3,148.4 133.3,148.3 133.3,148.3 133.3,148.1 133.3,148.1 133.3,147.9 
				133.3,147.9 133.3,147.8 133.3,147.8 133.3,147.7 			"/>
			<polygon id="Path_103_" class="st5" points="136.8,151.3 140.3,151.9 143.8,152.4 147.4,152.9 150.9,153.4 154.4,153.9 
				154.4,154.6 154.4,154.6 154.4,155.2 154.4,155.2 154.4,155.8 154.4,155.9 154.4,156.4 154.4,156.5 154.4,157.1 150.9,156.7 
				147.4,156.2 143.8,155.8 140.3,155.4 136.8,154.9 133.3,154.5 133.3,153.7 133.3,153.7 133.3,153.1 133.3,153 133.3,152.3 
				133.3,152.3 133.3,151.6 133.3,151.5 133.3,150.8 			"/>
			<polygon id="Path_104_" class="st5" points="136.8,151.4 140.3,151.9 143.8,152.5 147.4,153.1 150.9,153.7 154.4,154.3 
				154.4,154.4 154.4,154.4 154.4,154.6 154.4,154.6 154.4,154.7 154.4,154.7 154.4,154.9 154.4,154.9 154.4,155 150.9,154.4 
				147.4,153.9 143.8,153.3 140.3,152.7 136.8,152.2 133.3,151.6 133.3,151.4 133.3,151.4 133.3,151.3 133.3,151.3 133.3,151.2 
				133.3,151.2 133.3,151 133.3,151 133.3,150.8 			"/>
			<polygon id="Path_105_" class="st5" points="136.8,152.5 140.3,153.1 143.8,153.6 147.4,154.2 150.9,154.8 154.4,155.3 
				154.4,155.5 154.4,155.5 154.4,155.6 154.4,155.6 154.4,155.7 154.4,155.7 154.4,155.9 154.4,155.9 154.4,156.1 150.9,155.5 
				147.4,154.9 143.8,154.4 140.3,153.8 136.8,153.3 133.3,152.7 133.3,152.5 133.3,152.5 133.3,152.4 133.3,152.4 133.3,152.2 
				133.3,152.2 133.3,152 133.3,152 133.3,151.9 			"/>
			<polygon id="Path_106_" class="st5" points="136.8,154.3 140.3,154.9 143.8,155.2 147.4,155.6 150.9,156.1 154.4,156.5 
				154.4,156.7 154.4,156.7 154.4,156.7 154.4,156.7 154.4,156.8 154.4,156.8 154.4,157 154.4,157 154.4,157.1 150.9,156.7 
				147.4,156.2 143.8,155.9 140.3,155.5 136.8,155 133.3,154.6 133.3,154.5 133.3,154.5 133.3,154.3 133.3,154.3 133.3,154.3 
				133.3,154.3 133.3,154.1 133.3,154.1 133.3,153.9 			"/>
			<rect id="Rectangle_115_" x="117.4" y="119.4" class="st10" width="12.7" height="93.4"/>
			<path id="Path_107_" class="st2" d="M126.9,211.6c0,0.9-0.5,1.7-1.4,2.1l-31,8.3c-0.8,0.2-1.4-0.6-1.4-1.9v-89.6
				c0-1.2,0.6-2,1.4-1.7l31,11.3c0.9,0.4,1.4,1.3,1.4,2.2C126.9,142.4,126.9,211.6,126.9,211.6z"/>
			<path id="Path_108_" class="st3" d="M126.7,140.5l-0.5-0.2l-0.3,2.1c-0.3,3.4-0.7,6.9-1,10.3c-0.5,7-1.8,14-3.9,20.7
				c-2.1,7-4.5,14-7.4,20.7c-1.2,3-2.4,5.9-3.9,8.6c-1.5,3.3-3.3,6.4-5.4,9.4c-2.4,3.5-5.1,6.9-8.1,10l30.3-8
				c0.9-0.3,1.5-1.2,1.5-2.1v-69.3C128,141.8,127.5,141,126.7,140.5L126.7,140.5z"/>
			<g id="Group_3_" transform="translate(63.000000, 99.000000)">
				<polygon id="Path_109_" class="st4" points="38.5,31.9 32.9,29.8 39.6,120.7 45.3,119.2 				"/>
				<polygon id="Path_110_" class="st4" points="39.6,32.2 46.4,118.9 47.8,118.5 41,32.7 				"/>
			</g>
			<polygon id="Path_111_" class="st5" points="117.7,197.4 113.9,197.8 110,198.2 106.2,198.7 102.2,199.2 98.4,199.5 98.4,201.3 
				98.4,201.4 98.4,203.1 98.4,203.2 98.4,204.8 98.4,204.9 98.4,206.6 98.4,206.7 98.4,208.5 102.2,207.8 106.2,207.1 110,206.5 
				113.9,205.8 117.7,205.1 121.6,204.4 121.6,202.9 121.6,202.9 121.6,201.5 121.6,201.4 121.6,200 121.6,199.9 121.6,198.5 
				121.6,198.4 121.6,196.9 			"/>
			<polygon id="Path_112_" class="st5" points="101.5,199.1 101.3,199.1 101,199.2 100.8,199.2 100.5,199.2 100.2,199.3 
				100.2,200.9 100.2,200.9 100.2,202.4 100.2,202.5 100.2,204.1 100.2,204.2 100.2,205.7 100.2,205.8 100.2,207.4 100.5,207.4 
				100.8,207.3 101,207.3 101.3,207.2 101.5,207.2 101.8,207.1 101.8,205.5 101.8,205.5 101.8,204 101.8,203.9 101.8,202.3 
				101.8,202.3 101.8,200.7 101.8,200.6 101.8,199 			"/>
			<polygon id="Path_113_" class="st5" points="104.7,199.1 104.4,199.1 104.2,199.2 103.9,199.2 103.7,199.2 103.4,199.3 
				103.4,200.8 103.4,201 103.4,202.5 103.4,202.6 103.4,204.1 103.4,204.1 103.4,205.7 103.4,205.8 103.4,207.4 103.7,207.4 
				103.9,207.3 104.2,207.3 104.4,207.2 104.7,207.2 105,207.1 105,205.5 105,205.4 105,203.9 105,203.9 105,202.3 105,202.3 
				105,200.7 105,200.6 105,199 			"/>
			<polygon id="Path_114_" class="st5" points="107.9,199.1 107.6,199.1 107.4,199.1 107.1,199.2 106.8,199.2 106.6,199.2 
				106.6,200.6 106.6,200.7 106.6,202 106.6,202.1 106.6,203.5 106.6,203.5 106.6,204.9 106.6,204.9 106.6,206.4 106.8,206.3 
				107.1,206.3 107.4,206.2 107.6,206.2 107.9,206.1 108.1,206.1 108.1,204.7 108.1,204.7 108.1,203.3 108.1,203.2 108.1,201.9 
				108.1,201.8 108.1,200.5 108.1,200.5 108.1,199 			"/>
			<polygon id="Path_115_" class="st5" points="111,198.1 110.8,198.1 110.5,198.1 110.3,198.1 110,198.1 109.8,198.1 109.8,199.6 
				109.8,199.6 109.8,201 109.8,201.1 109.8,202.4 109.8,202.5 109.8,203.9 109.8,203.9 109.8,205.3 110,205.3 110.3,205.3 
				110.5,205.2 110.8,205.2 111,205.1 111.3,205.1 111.3,203.7 111.3,203.6 111.3,202.3 111.3,202.2 111.3,200.9 111.3,200.8 
				111.3,199.4 111.3,199.3 111.3,198 			"/>
			<polygon id="Path_116_" class="st5" points="115.3,198.1 115,198.1 114.7,198.1 114.5,198.1 114.2,198.1 114,198.1 114,199.6 
				114,199.7 114,201 114,201.1 114,202.4 114,202.5 114,203.8 114,203.9 114,205.3 114.2,205.3 114.5,205.3 114.7,205.2 115,205.2 
				115.3,205.1 115.5,205.1 115.5,203.6 115.5,203.6 115.5,202.3 115.5,202.2 115.5,200.9 115.5,200.8 115.5,199.5 115.5,199.3 
				115.5,198 			"/>
			<polygon id="Path_117_" class="st5" points="118.4,196.9 118.2,197 117.9,197 117.7,197 117.4,197.1 117.1,197.1 117.1,198.6 
				117.1,198.7 117.1,199.9 117.1,200 117.1,201.4 117.1,201.5 117.1,202.8 117.1,202.9 117.1,204.3 117.4,204.2 117.7,204.2 
				117.9,204.1 118.2,204.1 118.4,204.1 118.7,204.1 118.7,202.6 118.7,202.5 118.7,201.2 118.7,201.1 118.7,199.9 118.7,199.8 
				118.7,198.4 118.7,198.3 118.7,196.9 			"/>
			<polygon id="Path_118_" class="st5" points="117.7,206.1 113.9,206.8 110,207.6 106.2,208.3 102.2,209 98.4,209.8 98.4,211.6 
				98.4,211.7 98.4,213.4 98.4,213.5 98.4,215.2 98.4,215.3 98.4,217.1 98.4,217.2 98.4,219 102.2,218 106.2,217 110,216.1 
				113.9,215 117.7,214.1 121.6,213.1 121.6,211.6 121.6,211.5 121.6,210.1 121.6,210 121.6,208.5 121.6,208.4 121.6,207 
				121.6,206.9 121.6,205.3 			"/>
			<polygon id="Path_119_" class="st5" points="117.7,206.1 113.9,206.8 110,207.6 106.2,208.3 102.2,209 98.4,209.8 98.4,210.1 
				98.4,210.1 98.4,210.6 98.4,210.6 98.4,210.8 98.4,210.9 98.4,211.3 98.4,211.3 98.4,211.6 102.2,210.8 106.2,210.1 110,209.2 
				113.9,208.4 117.7,207.7 121.6,206.9 121.6,206.5 121.6,206.5 121.6,206.3 121.6,206.2 121.6,205.9 121.6,205.9 121.6,205.7 
				121.6,205.6 121.6,205.3 			"/>
			<polygon id="Path_120_" class="st5" points="117.7,209.2 113.9,210.1 110,210.8 106.2,211.5 102.2,212.3 98.4,213.1 98.4,213.4 
				98.4,213.4 98.4,213.7 98.4,213.7 98.4,214.1 98.4,214.1 98.4,214.4 98.4,214.4 98.4,214.8 102.2,213.9 106.2,213.1 110,212.4 
				113.9,211.5 117.7,210.7 121.6,209.9 121.6,209.6 121.6,209.6 121.6,209.3 121.6,209.3 121.6,209 121.6,209 121.6,208.8 
				121.6,208.8 121.6,208.5 			"/>
			<polygon id="Path_121_" class="st5" points="117.7,211.5 113.9,212.5 110,213.3 106.2,214.3 102.2,215.2 98.4,216.1 98.4,216.4 
				98.4,216.5 98.4,216.8 98.4,216.8 98.4,217.2 98.4,217.2 98.4,217.5 98.4,217.6 98.4,217.9 102.2,216.9 106.2,216 110,215 
				113.9,214.1 117.7,213.1 121.6,212.1 121.6,211.8 121.6,211.8 121.6,211.5 121.6,211.5 121.6,211.2 121.6,211.2 121.6,210.9 
				121.6,210.9 121.6,210.6 			"/>
			<path id="Path_122_" class="st6" d="M100.5,168.3L100.5,168.3c0-1.5-0.7-2.7-1.6-2.8s-1.6,0.9-1.6,2.4s0.7,2.7,1.6,2.8
				C99.7,170.8,100.5,169.7,100.5,168.3z"/>
			<path id="Path_123_" class="st7" d="M98.9,169.7c-0.9,0-1.5-1-1.5-2.2c0-1.1,0.6-2.1,1.5-2s1.5,1.1,1.5,2.2
				C100.3,168.9,99.7,169.7,98.9,169.7z"/>
			<path id="Path_124_" class="st6" d="M98.9,170.4c-0.9,0-1.5-1.1-1.5-2.4c0.3,3.2,2.7,2,2.9,0.3
				C100.3,169.3,99.7,170.4,98.9,170.4z"/>
			<path id="Path_125_" class="st4" d="M99.3,165.7c0.9,0,1.5,1.2,1.5,2.4C100.8,169.3,98.4,165.7,99.3,165.7z"/>
			<path id="Path_126_" class="st4" d="M97.4,167.9c0-1.3,0.6-2.2,1.5-2.1c0.9,0.1,1.5,1.2,1.5,2.4S99,164.1,97.4,167.9z"/>
			<path id="Path_127_" class="st6" d="M100.5,173.5L100.5,173.5c0-1.5-0.7-2.7-1.6-2.7c-0.9-0.1-1.6,1-1.6,2.5s0.7,2.7,1.6,2.7
				C99.7,176,100.5,174.8,100.5,173.5z"/>
			<path id="Path_128_" class="st8" d="M98.9,175.9c-0.9,0-1.5-1-1.5-2.1c0-1.2,0.6-2.1,1.5-2s1.5,1,1.5,2.1
				C100.3,175.1,99.7,176,98.9,175.9z"/>
			<path id="Path_129_" class="st6" d="M98.9,175.6c-0.9,0-1.5-1-1.5-2.3c0.3,3.2,2.7,1.9,2.9,0.2
				C100.3,174.7,99.7,175.6,98.9,175.6z"/>
			<path id="Path_130_" class="st4" d="M99.3,171c0.9,0,1.5,1.1,1.5,2.3S98.4,171,99.3,171z"/>
			<path id="Path_131_" class="st4" d="M97.4,173.2c0-1.2,0.6-2.2,1.5-2.1c0.9,0.1,1.5,1.1,1.5,2.3S99,169.3,97.4,173.2z"/>
			<path id="Path_132_" class="st6" d="M100.5,179.7L100.5,179.7c0-1.5-0.7-2.6-1.6-2.7c-0.9-0.1-1.6,1.1-1.6,2.6s0.7,2.7,1.6,2.7
				C99.7,182.3,100.5,181.1,100.5,179.7z"/>
			<path id="Path_133_" class="st9" d="M98.9,181.3c-0.9,0-1.5-0.9-1.5-2.1s0.6-2.1,1.5-2.1s1.5,0.9,1.5,2.1
				C100.3,180.3,99.7,181.3,98.9,181.3z"/>
			<path id="Path_134_" class="st6" d="M98.9,181.9c-0.9,0-1.5-1-1.5-2.2c0.3,3.2,2.7,1.8,2.9,0C100.3,180.8,99.7,181.9,98.9,181.9z
				"/>
			<path id="Path_135_" class="st4" d="M99.3,177.3c0.9,0,1.5,1,1.5,2.2S98.4,177.3,99.3,177.3z"/>
			<path id="Path_136_" class="st4" d="M97.4,179.5c0-1.3,0.6-2.2,1.5-2.2s1.5,1,1.5,2.2C100.3,180.8,99,175.6,97.4,179.5z"/>
			<path id="Path_137_" class="st6" d="M100.5,184.9L100.5,184.9c0-1.5-0.7-2.6-1.6-2.6s-1.6,1.2-1.6,2.7s0.7,2.6,1.6,2.6
				C99.7,187.5,100.5,186.2,100.5,184.9z"/>
			<path id="Path_138_" class="st7" d="M98.9,187.5c-0.9,0-1.5-0.9-1.5-2.1c0-1.1,0.6-2.1,1.5-2.1s1.5,0.9,1.5,2.1
				C100.3,186.6,99.7,187.5,98.9,187.5z"/>
			<path id="Path_139_" class="st6" d="M98.9,187c-0.9,0-1.5-0.9-1.5-2.2c0.3,3.2,2.7,1.6,2.9,0C100.3,186,99.7,187,98.9,187z"/>
			<path id="Path_140_" class="st4" d="M99.3,182.6c0.9,0,1.5,0.9,1.5,2.2S98.4,182.6,99.3,182.6z"/>
			<path id="Path_141_" class="st4" d="M97.4,184.9c0-1.3,0.6-2.2,1.5-2.2s1.5,0.9,1.5,2.2C100.3,186.2,99,180.8,97.4,184.9z"/>
			<path id="Path_142_" class="st6" d="M100.5,191.1L100.5,191.1c0-1.5-0.7-2.6-1.6-2.6s-1.6,1.3-1.6,2.7s0.7,2.6,1.6,2.5
				C99.7,193.7,100.5,192.5,100.5,191.1z"/>
			<path id="Path_143_" class="st8" d="M98.9,192.7c-0.9,0-1.5-0.9-1.5-2.1s0.6-2.1,1.5-2.1s1.5,0.9,1.5,2S99.7,192.7,98.9,192.7z"
				/>
			<path id="Path_144_" class="st6" d="M98.9,192.3c-0.9,0-1.5-0.9-1.5-2.1c0.3,3.2,2.7,1.5,2.9-0.2
				C100.3,191.2,99.7,192.3,98.9,192.3z"/>
			<path id="Path_145_" class="st4" d="M99.3,188.9c0.9,0,1.5,0.9,1.5,2.1C100.8,192.3,98.4,189,99.3,188.9z"/>
			<path id="Path_146_" class="st4" d="M97.4,191.3c0-1.2,0.6-2.2,1.5-2.3c0.9,0,1.5,0.9,1.5,2.1C100.3,192.3,99,187.2,97.4,191.3z"
				/>
			<polygon id="Path_147_" class="st5" points="119.2,168.4 115.6,168.1 112.2,167.6 108.6,167.3 105,166.9 101.5,166.5 
				101.5,167.2 101.5,167.3 101.5,168 101.5,168 101.5,168.7 101.5,168.7 101.5,169.3 101.5,169.3 101.5,170.1 105,170.4 
				108.6,170.6 112.2,170.9 115.6,171.2 119.2,171.5 122.7,171.7 122.7,171.2 122.7,171.1 122.7,170.6 122.7,170.5 122.7,170 
				122.7,169.9 122.7,169.3 122.7,169.3 122.7,168.7 			"/>
			<polygon id="Path_148_" class="st5" points="119.2,168.6 115.6,168.2 112.2,167.8 108.6,167.4 105,166.9 101.5,166.5 
				101.5,166.7 101.5,166.7 101.5,166.9 101.5,166.9 101.5,167 101.5,167 101.5,167.2 101.5,167.2 101.5,167.3 105,167.7 
				108.6,168.1 112.2,168.5 115.6,168.9 119.2,169.3 122.7,169.7 122.7,169.6 122.7,169.5 122.7,169.4 122.7,169.4 122.7,169.3 
				122.7,169.3 122.7,169.2 122.7,169.2 122.7,169 			"/>
			<polygon id="Path_149_" class="st5" points="119.2,169.6 115.6,169.2 112.2,168.8 108.6,168.5 105,168.1 101.5,167.6 
				101.5,167.9 101.5,167.9 101.5,168 101.5,168 101.5,168.1 101.5,168.1 101.5,168.3 101.5,168.3 101.5,168.5 105,168.8 
				108.6,169.2 112.2,169.6 115.6,169.9 119.2,170.3 122.7,170.6 122.7,170.5 122.7,170.5 122.7,170.4 122.7,170.4 122.7,170.3 
				122.7,170.3 122.7,170.1 122.7,170.1 122.7,170 			"/>
			<polygon id="Path_150_" class="st5" points="119.2,170.5 115.6,170.2 112.2,169.9 108.6,169.5 105,169.2 101.5,168.8 101.5,169 
				101.5,169 101.5,169.2 101.5,169.2 101.5,169.3 101.5,169.3 101.5,169.5 101.5,169.5 101.5,169.6 105,169.9 108.6,170.3 
				112.2,170.6 115.6,171 119.2,171.3 122.7,171.6 122.7,171.5 122.7,171.5 122.7,171.3 122.7,171.3 122.7,171.1 122.7,171.1 
				122.7,171.1 122.7,171.1 122.7,171 			"/>
			<polygon id="Path_151_" class="st5" points="119.2,173.2 115.6,172.9 112.2,172.6 108.6,172.3 105,172.1 101.5,171.7 
				101.5,172.6 101.5,172.7 101.5,173.5 101.5,173.5 101.5,174.2 101.5,174.3 101.5,175.1 101.5,175.2 101.5,175.9 105,176.1 
				108.6,176.3 112.2,176.5 115.6,176.6 119.2,176.8 122.7,177.1 122.7,176.3 122.7,176.3 122.7,175.6 122.7,175.6 122.7,174.9 
				122.7,174.8 122.7,174.2 122.7,174.1 122.7,173.5 			"/>
			<polygon id="Path_152_" class="st5" points="119.2,173.5 115.6,173.3 112.2,173 108.6,172.8 105,172.4 101.5,172.3 101.5,172.3 
				101.5,172.3 101.5,172.5 101.5,172.5 101.5,172.7 101.5,172.7 101.5,172.9 101.5,172.9 101.5,173 105,173.3 108.6,173.5 
				112.2,173.8 115.6,174 119.2,174.2 122.7,174.5 122.7,174.4 122.7,174.4 122.7,174.2 122.7,174.2 122.7,174.1 122.7,174.1 
				122.7,174 122.7,174 122.7,173.8 			"/>
			<polygon id="Path_153_" class="st5" points="119.2,174.5 115.6,174.3 112.2,174.1 108.6,173.8 105,173.5 101.5,173.4 
				101.5,173.5 101.5,173.5 101.5,173.7 101.5,173.7 101.5,173.8 101.5,173.8 101.5,174 101.5,174 101.5,174.1 105,174.4 
				108.6,174.6 112.2,174.7 115.6,175 119.2,175.3 122.7,175.4 122.7,175.3 122.7,175.3 122.7,175.2 122.7,175.2 122.7,175 
				122.7,175 122.7,174.9 122.7,174.9 122.7,174.7 			"/>
			<polygon id="Path_154_" class="st5" points="119.2,175.5 115.6,175.3 112.2,175.1 108.6,174.9 105,174.7 101.5,174.5 
				101.5,174.7 101.5,174.7 101.5,174.8 101.5,174.8 101.5,175 101.5,175 101.5,175.2 101.5,175.2 101.5,175.3 105,175.5 
				108.6,175.7 112.2,175.9 115.6,176 119.2,176.2 122.7,176.4 122.7,176.3 122.7,176.2 122.7,176.1 122.7,176.1 122.7,175.9 
				122.7,175.9 122.7,175.9 122.7,175.9 122.7,175.7 			"/>
			<polygon id="Path_155_" class="st5" points="119.2,178.7 115.6,178.6 112.2,178.4 108.6,178.3 105,178.2 101.5,178.1 
				101.5,178.9 101.5,178.9 101.5,179.7 101.5,179.7 101.5,180.5 101.5,180.6 101.5,181.3 101.5,181.3 101.5,182.1 105,182.2 
				108.6,182.2 112.2,182.2 115.6,182.2 119.2,182.2 122.7,182.3 122.7,181.6 122.7,181.5 122.7,180.9 122.7,180.9 122.7,180.2 
				122.7,180.1 122.7,179.5 122.7,179.5 122.7,178.8 			"/>
			<polygon id="Path_156_" class="st5" points="119.2,178.4 115.6,178.3 112.2,178.3 108.6,178.1 105,178 101.5,177.9 101.5,178.1 
				101.5,178.1 101.5,178.3 101.5,178.3 101.5,178.3 101.5,178.4 101.5,178.5 101.5,178.6 101.5,178.7 105,178.8 108.6,178.9 
				112.2,179 115.6,179.1 119.2,179.2 122.7,179.3 122.7,179.2 122.7,179.1 122.7,179 122.7,179 122.7,178.9 122.7,178.9 
				122.7,178.8 122.7,178.7 122.7,178.6 			"/>
			<polygon id="Path_157_" class="st5" points="119.2,179.5 115.6,179.4 112.2,179.3 108.6,179.2 105,179.1 101.5,179 101.5,179.2 
				101.5,179.2 101.5,179.4 101.5,179.4 101.5,179.5 101.5,179.5 101.5,179.7 101.5,179.7 101.5,179.9 105,179.9 108.6,180 
				112.2,180.1 115.6,180.1 119.2,180.1 122.7,180.2 122.7,180.1 122.7,180.1 122.7,180 122.7,180 122.7,179.8 122.7,179.8 
				122.7,179.7 122.7,179.7 122.7,179.5 			"/>
			<polygon id="Path_158_" class="st5" points="119.2,180.5 115.6,180.4 112.2,180.4 108.6,180.3 105,180.2 101.5,180.2 
				101.5,180.4 101.5,180.4 101.5,180.6 101.5,180.6 101.5,180.7 101.5,180.7 101.5,180.8 101.5,180.8 101.5,181 105,181.1 
				108.6,181.1 112.2,181.1 115.6,181.2 119.2,181.2 122.7,181.2 122.7,181.1 122.7,181.1 122.7,180.9 122.7,180.9 122.7,180.7 
				122.7,180.7 122.7,180.7 122.7,180.7 122.7,180.5 			"/>
			<polygon id="Path_159_" class="st5" points="119.2,183.3 115.6,183.4 112.2,183.4 108.6,183.4 105,183.4 101.5,183.5 
				101.5,184.3 101.5,184.3 101.5,185 101.5,185.1 101.5,185.9 101.5,185.9 101.5,186.7 101.5,186.7 101.5,187.5 105,187.3 
				108.6,187.3 112.2,187.2 115.6,187 119.2,186.9 122.7,186.7 122.7,186.1 122.7,186.1 122.7,185.4 122.7,185.4 122.7,184.7 
				122.7,184.7 122.7,184 122.7,184 122.7,183.3 			"/>
			<polygon id="Path_160_" class="st5" points="119.2,183.4 115.6,183.4 112.2,183.4 108.6,183.5 105,183.5 101.5,183.6 
				101.5,183.7 101.5,183.7 101.5,183.8 101.5,183.9 101.5,184 101.5,184 101.5,184.2 101.5,184.2 101.5,184.3 105,184.3 
				108.6,184.3 112.2,184.2 115.6,184.2 119.2,184.1 122.7,184 122.7,183.9 122.7,183.9 122.7,183.7 122.7,183.7 122.7,183.6 
				122.7,183.6 122.7,183.5 122.7,183.5 122.7,183.3 			"/>
			<polygon id="Path_161_" class="st5" points="119.2,184.3 115.6,184.4 112.2,184.5 108.6,184.6 105,184.6 101.5,184.7 
				101.5,184.9 101.5,184.9 101.5,185 101.5,185 101.5,185.2 101.5,185.2 101.5,185.3 101.5,185.3 101.5,185.5 105,185.5 
				108.6,185.3 112.2,185.2 115.6,185.1 119.2,185 122.7,184.9 122.7,184.9 122.7,184.9 122.7,184.7 122.7,184.7 122.7,184.6 
				122.7,184.5 122.7,184.4 122.7,184.4 122.7,184.3 			"/>
			<polygon id="Path_162_" class="st5" points="119.2,185.3 115.6,185.4 112.2,185.5 108.6,185.6 105,185.7 101.5,185.9 101.5,186 
				101.5,186 101.5,186.1 101.5,186.1 101.5,186.3 101.5,186.3 101.5,186.5 101.5,186.5 101.5,186.7 105,186.5 108.6,186.4 
				112.2,186.3 115.6,186.1 119.2,186.1 122.7,185.9 122.7,185.8 122.7,185.8 122.7,185.6 122.7,185.6 122.7,185.5 122.7,185.5 
				122.7,185.4 122.7,185.4 122.7,185.2 			"/>
			<polygon id="Path_163_" class="st5" points="119.2,187.7 115.6,187.9 112.2,188 108.6,188.3 105,188.5 101.5,188.6 101.5,189.4 
				101.5,189.5 101.5,190.3 101.5,190.3 101.5,191.1 101.5,191.1 101.5,191.9 101.5,192 101.5,192.7 105,192.5 108.6,192.2 
				112.2,191.9 115.6,191.6 119.2,191.4 122.7,191 122.7,190.3 122.7,190.3 122.7,189.7 122.7,189.6 122.7,189 122.7,188.9 
				122.7,188.3 122.7,188.2 122.7,187.5 			"/>
			<polygon id="Path_164_" class="st5" points="119.2,188.3 115.6,188.5 112.2,188.7 108.6,188.9 105,189.1 101.5,189.2 
				101.5,189.4 101.5,189.4 101.5,189.6 101.5,189.6 101.5,189.7 101.5,189.7 101.5,189.9 101.5,189.9 101.5,190 105,189.8 
				108.6,189.7 112.2,189.4 115.6,189.2 119.2,189 122.7,188.8 122.7,188.6 122.7,188.6 122.7,188.5 122.7,188.5 122.7,188.4 
				122.7,188.4 122.7,188.3 122.7,188.3 122.7,188.1 			"/>
			<polygon id="Path_165_" class="st5" points="119.2,189.3 115.6,189.5 112.2,189.7 108.6,189.9 105,190.2 101.5,190.3 
				101.5,190.5 101.5,190.5 101.5,190.7 101.5,190.7 101.5,190.9 101.5,190.9 101.5,191 101.5,191 101.5,191.2 105,190.9 
				108.6,190.7 112.2,190.5 115.6,190.3 119.2,190 122.7,189.7 122.7,189.7 122.7,189.6 122.7,189.5 122.7,189.5 122.7,189.3 
				122.7,189.3 122.7,189.2 122.7,189.2 122.7,189.1 			"/>
			<polygon id="Path_166_" class="st5" points="119.2,190.3 115.6,190.5 112.2,190.8 108.6,191 105,191.3 101.5,191.5 101.5,191.7 
				101.5,191.7 101.5,191.9 101.5,191.9 101.5,192.1 101.5,192.1 101.5,192.1 101.5,192.1 101.5,192.3 105,192.1 108.6,191.8 
				112.2,191.5 115.6,191.2 119.2,190.9 122.7,190.7 122.7,190.6 122.7,190.6 122.7,190.4 122.7,190.4 122.7,190.3 122.7,190.3 
				122.7,190.2 122.7,190.2 122.7,190 			"/>
			<path id="Path_167_" class="st6" d="M119.5,145.1L119.5,145.1c0-1.1,0.7-1.8,1.5-1.5c1,0.4,1.6,1.5,1.6,2.6s-0.7,1.8-1.6,1.5
				C120.1,147.1,119.5,146.2,119.5,145.1L119.5,145.1z"/>
			<path id="Path_168_" class="st7" d="M121.1,147.7c0.9,0.3,1.5-0.4,1.5-1.5s-0.6-2.1-1.5-2.6c-0.8-0.3-1.5,0.4-1.5,1.5
				S120.1,147.1,121.1,147.7L121.1,147.7z"/>
			<path id="Path_169_" class="st6" d="M121.1,147.2c0.9,0.3,1.5-0.4,1.5-1.5c-0.3,2.6-2.7,0.7-2.9-0.9
				C119.6,145.9,120.1,146.8,121.1,147.2L121.1,147.2z"/>
			<path id="Path_170_" class="st4" d="M121.8,143.2c-0.8-0.3-1.5,0.4-1.5,1.5C120.3,145.7,122.5,143.5,121.8,143.2z"/>
			<path id="Path_171_" class="st4" d="M122.5,146.3c0-1-0.6-2-1.5-2.4c-0.8-0.3-1.5,0.4-1.5,1.5S121,142.3,122.5,146.3z"/>
			<path id="Path_172_" class="st6" d="M119.5,149.4L119.5,149.4c0-1.1,0.7-1.9,1.5-1.6c1,0.4,1.6,1.4,1.6,2.5s-0.7,1.9-1.6,1.6
				C120.1,151.4,119.5,150.4,119.5,149.4z"/>
			<path id="Path_173_" class="st8" d="M121.1,151.9c0.9,0.2,1.5-0.3,1.5-1.2s-0.6-1.5-1.5-1.9c-0.8-0.2-1.5,0.3-1.5,1.2
				C119.5,150.7,120.1,151.5,121.1,151.9z"/>
			<path id="Path_174_" class="st6" d="M121.1,151.4c0.9,0.3,1.5-0.5,1.5-1.5c-0.3,2.6-2.7,0.8-2.9-0.8
				C119.5,150.1,120.1,151,121.1,151.4z"/>
			<path id="Path_175_" class="st4" d="M121.8,148.3c-0.8-0.3-1.5,0.4-1.5,1.5C120.3,150.9,122.5,148.6,121.8,148.3z"/>
			<path id="Path_176_" class="st4" d="M122.5,150.4c0-1-0.6-1.9-1.5-2.3c-0.8-0.3-1.5,0.4-1.5,1.5
				C119.6,150.7,121,146.6,122.5,150.4z"/>
			<path id="Path_177_" class="st6" d="M119.5,154.7L119.5,154.7c0-1.1,0.7-1.9,1.5-1.7c1,0.4,1.6,1.4,1.6,2.4
				c0,1.1-0.7,1.9-1.6,1.7C120.1,156.7,119.5,155.7,119.5,154.7z"/>
			<path id="Path_178_" class="st9" d="M121.1,156.1c0.9,0.2,1.5-0.4,1.5-1.3c0-0.8-0.6-1.5-1.5-1.8c-0.8-0.2-1.5,0.4-1.5,1.3
				C119.5,155,120.1,155.7,121.1,156.1z"/>
			<path id="Path_179_" class="st6" d="M121.1,156.7c0.9,0.2,1.5-0.5,1.5-1.5c-0.3,2.6-2.7,0.9-2.9-0.7
				C119.5,155.4,120.1,156.3,121.1,156.7z"/>
			<path id="Path_180_" class="st4" d="M121.8,152.5c-0.8-0.2-1.5,0.5-1.5,1.5C120.3,155.1,122.5,152.7,121.8,152.5z"/>
			<path id="Path_181_" class="st4" d="M122.5,155.6c0-0.9-0.6-1.9-1.5-2.2c-0.8-0.2-1.5,0.5-1.5,1.5S121,151.8,122.5,155.6z"/>
			<path id="Path_182_" class="st6" d="M119.5,160L119.5,160c0-1.1,0.7-2,1.5-1.8c1,0.3,1.6,1.3,1.6,2.4c0,1.1-0.7,1.9-1.6,1.8
				C120.1,162,119.5,161,119.5,160L119.5,160z"/>
			<path id="Path_183_" class="st7" d="M121.1,161.3c0.9,0,1.5-0.5,1.5-1.4c0-0.8-0.6-1.5-1.5-1.8c-0.8-0.2-1.5,0.4-1.5,1.3
				C119.5,160.3,120.1,161,121.1,161.3L121.1,161.3z"/>
			<path id="Path_184_" class="st6" d="M121.1,161.9c0.9,0,1.5-0.6,1.5-1.6c-0.3,2.7-2.7,1-2.9-0.5
				C119.5,160.7,120.1,161.5,121.1,161.9L121.1,161.9z"/>
			<path id="Path_185_" class="st4" d="M121.8,157.8c-0.8-0.2-1.5,0.5-1.5,1.6C120.3,160.4,122.5,157.9,121.8,157.8z"/>
			<path id="Path_186_" class="st4" d="M122.5,159.7c0-0.9-0.6-1.8-1.5-2.1c-0.8-0.2-1.5,0.5-1.5,1.6S121,156.1,122.5,159.7z"/>
			<path id="Path_187_" class="st6" d="M119.5,164.2L119.5,164.2c0-1.1,0.7-2,1.5-1.9c1,0.3,1.6,1.3,1.6,2.3c0,1.1-0.7,2-1.6,1.9
				C120.1,166.3,119.5,165.2,119.5,164.2z"/>
			<path id="Path_188_" class="st8" d="M121.1,166.5c0.9,0,1.5-0.5,1.5-1.4c0.1-0.8-0.6-1.5-1.5-1.7c-0.8,0-1.5,0.5-1.5,1.4
				C119.5,165.6,120.1,166.3,121.1,166.5L121.1,166.5z"/>
			<path id="Path_189_" class="st6" d="M121.1,166c0.9,0,1.5-0.7,1.5-1.7c-0.3,2.7-2.7,1.1-2.9-0.4
				C119.5,164.9,120.1,165.7,121.1,166L121.1,166z"/>
			<path id="Path_190_" class="st4" d="M121.8,162.9c-0.8,0-1.5,0.6-1.5,1.7C120.3,165.7,122.5,163.1,121.8,162.9z"/>
			<path id="Path_191_" class="st4" d="M122.5,165c0.1-0.9-0.6-1.8-1.5-2.1c-0.8,0-1.5,0.6-1.5,1.7S121,161.4,122.5,165z"/>
			<polygon id="Path_192_" class="st5" points="100.8,137.4 104.4,138.5 107.9,139.6 111.4,140.8 114.9,142 118.4,143.1 
				118.4,143.8 118.4,143.9 118.4,144.5 118.4,144.6 118.4,145.2 118.4,145.3 118.4,145.9 118.4,145.9 118.4,146.6 114.9,145.5 
				111.4,144.5 107.9,143.5 104.4,142.3 100.8,141.3 97.3,140.2 97.3,139.4 97.3,139.3 97.3,138.7 97.3,138.6 97.3,137.8 
				97.3,137.8 97.3,137 97.3,136.9 97.3,136.2 			"/>
			<polygon id="Path_193_" class="st5" points="100.8,138.3 104.4,139.4 107.9,140.5 111.4,141.7 114.9,142.8 118.4,143.9 
				118.4,144 118.4,144.1 118.4,144.1 118.4,144.1 118.4,144.2 118.4,144.3 118.4,144.4 118.4,144.4 118.4,144.5 114.9,143.5 
				111.4,142.3 107.9,141.2 104.4,140.1 100.8,139.1 97.3,138 97.3,137.8 97.3,137.8 97.3,137.6 97.3,137.6 97.3,137.5 97.3,137.5 
				97.3,137.4 97.3,137.4 97.3,137.2 			"/>
			<polygon id="Path_194_" class="st5" points="100.8,139.3 104.4,140.5 107.9,141.6 111.4,142.7 114.9,143.8 118.4,144.9 
				118.4,145 118.4,145 118.4,145.2 118.4,145.2 118.4,145.3 118.4,145.3 118.4,145.4 118.4,145.4 118.4,145.6 114.9,144.5 
				111.4,143.4 107.9,142.3 104.4,141.2 100.8,140.1 97.3,139 97.3,138.8 97.3,138.8 97.3,138.7 97.3,138.7 97.3,138.6 97.3,138.6 
				97.3,138.4 97.3,138.4 97.3,138.2 			"/>
			<polygon id="Path_195_" class="st5" points="100.8,140.4 104.4,141.5 107.9,142.6 111.4,143.7 114.9,144.8 118.4,145.9 
				118.4,146 118.4,146 118.4,146.2 118.4,146.2 118.4,146.4 118.4,146.4 118.4,146.5 118.4,146.5 118.4,146.6 114.9,145.5 
				111.4,144.4 107.9,143.4 104.4,142.3 100.8,141.2 97.3,140.1 97.3,139.9 97.3,139.9 97.3,139.8 97.3,139.8 97.3,139.6 
				97.3,139.6 97.3,139.4 97.3,139.4 97.3,139.3 			"/>
			<polygon id="Path_196_" class="st5" points="100.8,143.5 104.4,144.4 107.9,145.4 111.4,146.5 114.9,147.4 118.4,148.4 
				118.4,149.1 118.4,149.2 118.4,149.8 118.4,149.8 118.4,150.5 118.4,150.5 118.4,151.2 118.4,151.2 118.4,151.9 114.9,151 
				111.4,150.1 107.9,149.2 104.4,148.3 100.8,147.3 97.3,146.5 97.3,145.6 97.3,145.6 97.3,144.8 97.3,144.8 97.3,144.1 97.3,144 
				97.3,143.3 97.3,143.2 97.3,142.4 			"/>
			<polygon id="Path_197_" class="st5" points="100.8,143.4 104.4,144.3 107.9,145.3 111.4,146.2 114.9,147.1 118.4,148.1 
				118.4,148.2 118.4,148.2 118.4,148.3 118.4,148.3 118.4,148.4 118.4,148.4 118.4,148.6 118.4,148.6 118.4,148.7 114.9,147.8 
				111.4,146.9 107.9,145.9 104.4,145 100.8,144.1 97.3,143.2 97.3,143 97.3,143 97.3,142.9 97.3,142.9 97.3,142.8 97.3,142.7 
				97.3,142.6 97.3,142.6 97.3,142.4 			"/>
			<polygon id="Path_198_" class="st5" points="100.8,144.4 104.4,145.3 107.9,146.3 111.4,147.2 114.9,148.2 118.4,149.1 
				118.4,149.2 118.4,149.2 118.4,149.4 118.4,149.4 118.4,149.5 118.4,149.5 118.4,149.6 118.4,149.6 118.4,149.8 114.9,148.9 
				111.4,147.9 107.9,147.1 104.4,146.1 100.8,145.2 97.3,144.2 97.3,144.1 97.3,144.1 97.3,144 97.3,143.9 97.3,143.8 97.3,143.8 
				97.3,143.6 97.3,143.6 97.3,143.5 			"/>
			<polygon id="Path_199_" class="st5" points="100.8,145.4 104.4,146.4 107.9,147.3 111.4,148.3 114.9,149.2 118.4,150.1 
				118.4,150.2 118.4,150.2 118.4,150.4 118.4,150.4 118.4,150.5 118.4,150.6 118.4,150.7 118.4,150.7 118.4,150.8 114.9,149.9 
				111.4,148.9 107.9,148.1 104.4,147.1 100.8,146.2 97.3,145.3 97.3,145.2 97.3,145.2 97.3,145 97.3,145 97.3,144.8 97.3,144.8 
				97.3,144.7 97.3,144.7 97.3,144.5 			"/>
			<polygon id="Path_200_" class="st5" points="100.8,148.5 104.4,149.3 107.9,150.1 111.4,151 114.9,151.9 118.4,152.7 
				118.4,153.3 118.4,153.4 118.4,154 118.4,154.1 118.4,154.7 118.4,154.7 118.4,155.4 118.4,155.4 118.4,156.1 114.9,155.3 
				111.4,154.6 107.9,153.8 104.4,153.1 100.8,152.3 97.3,151.6 97.3,150.8 97.3,150.7 97.3,150.1 97.3,150 97.3,149.3 97.3,149.2 
				97.3,148.4 97.3,148.4 97.3,147.7 			"/>
			<polygon id="Path_201_" class="st5" points="100.8,149.5 104.4,150.2 107.9,151 111.4,151.9 114.9,152.5 118.4,153.3 
				118.4,153.5 118.4,153.5 118.4,153.6 118.4,153.6 118.4,153.7 118.4,153.7 118.4,153.8 118.4,153.8 118.4,153.9 114.9,153.2 
				111.4,152.5 107.9,151.7 104.4,150.9 100.8,150.2 97.3,149.5 97.3,149.3 97.3,149.3 97.3,149.1 97.3,149.1 97.3,149 97.3,149 
				97.3,148.9 97.3,148.9 97.3,148.7 			"/>
			<polygon id="Path_202_" class="st5" points="100.8,150.5 104.4,151.3 107.9,152 111.4,152.8 114.9,153.6 118.4,154.3 
				118.4,154.4 118.4,154.5 118.4,154.6 118.4,154.6 118.4,154.7 118.4,154.8 118.4,154.9 118.4,154.9 118.4,155 114.9,154.3 
				111.4,153.5 107.9,152.7 104.4,152 100.8,151.3 97.3,150.5 97.3,150.4 97.3,150.4 97.3,150.2 97.3,150.2 97.3,150.1 97.3,150.1 
				97.3,149.9 97.3,149.9 97.3,149.8 			"/>
			<polygon id="Path_203_" class="st5" points="100.8,151.6 104.4,152.3 107.9,153.1 111.4,153.9 114.9,154.6 118.4,155.4 
				118.4,155.5 118.4,155.5 118.4,155.6 118.4,155.6 118.4,155.8 118.4,155.8 118.4,155.9 118.4,155.9 118.4,156.1 114.9,155.3 
				111.4,154.5 107.9,153.8 104.4,153.1 100.8,152.3 97.3,151.6 97.3,151.4 97.3,151.4 97.3,151.3 97.3,151.3 97.3,151.1 
				97.3,151.1 97.3,151 97.3,151 97.3,150.8 			"/>
			<polygon id="Path_204_" class="st5" points="100.8,154.6 104.4,155.3 107.9,156 111.4,156.7 114.9,157.3 118.4,158 118.4,158.7 
				118.4,158.7 118.4,159.3 118.4,159.4 118.4,160 118.4,160 118.4,160.6 118.4,160.7 118.4,161.3 114.9,160.7 111.4,160.2 
				107.9,159.6 104.4,159 100.8,158.4 97.3,157.8 97.3,157 97.3,157 97.3,156.2 97.3,156.2 97.3,155.5 97.3,155.5 97.3,154.8 
				97.3,154.7 97.3,153.9 			"/>
			<polygon id="Path_205_" class="st5" points="100.8,154.7 104.4,155.5 107.9,156.2 111.4,156.9 114.9,157.7 118.4,158.5 
				118.4,158.6 118.4,158.6 118.4,158.7 118.4,158.7 118.4,158.9 118.4,158.9 118.4,159.1 118.4,159.1 118.4,159.2 114.9,158.5 
				111.4,157.7 107.9,157 104.4,156.3 100.8,155.5 97.3,154.8 97.3,154.6 97.3,154.6 97.3,154.4 97.3,154.4 97.3,154.3 97.3,154.3 
				97.3,154.1 97.3,154.1 97.3,153.9 			"/>
			<polygon id="Path_206_" class="st5" points="100.8,156.7 104.4,157.3 107.9,157.9 111.4,158.5 114.9,159.1 118.4,159.7 
				118.4,159.7 118.4,159.7 118.4,159.8 118.4,159.9 118.4,160 118.4,160 118.4,160.1 118.4,160.1 118.4,160.3 114.9,159.7 
				111.4,159.1 107.9,158.5 104.4,157.9 100.8,157.3 97.3,156.7 97.3,156.7 97.3,156.7 97.3,156.5 97.3,156.5 97.3,156.3 
				97.3,156.3 97.3,156.2 97.3,156.2 97.3,156.1 			"/>
			<polygon id="Path_207_" class="st5" points="100.8,157.7 104.4,158.3 107.9,158.9 111.4,159.5 114.9,160.1 118.4,160.7 
				118.4,160.8 118.4,160.8 118.4,160.9 118.4,160.9 118.4,161 118.4,161 118.4,161.2 118.4,161.2 118.4,161.3 114.9,160.8 
				111.4,160.2 107.9,159.6 104.4,159 100.8,158.4 97.3,157.9 97.3,157.7 97.3,157.7 97.3,157.5 97.3,157.5 97.3,157.3 97.3,157.3 
				97.3,157.3 97.3,157.3 97.3,157.1 			"/>
			<polygon id="Path_208_" class="st5" points="100.8,160.8 104.4,161.3 107.9,161.8 111.4,162.3 114.9,162.8 118.4,163.4 
				118.4,164 118.4,164 118.4,164.6 118.4,164.6 118.4,165.2 118.4,165.3 118.4,165.8 118.4,165.9 118.4,166.5 114.9,166.1 
				111.4,165.7 107.9,165.2 104.4,164.8 100.8,164.4 97.3,163.9 97.3,163.2 97.3,163.2 97.3,162.5 97.3,162.5 97.3,161.7 
				97.3,161.7 97.3,161 97.3,160.9 97.3,160.3 			"/>
			<polygon id="Path_209_" class="st5" points="100.8,160.9 104.4,161.4 107.9,162 111.4,162.6 114.9,163.2 118.4,163.8 
				118.4,163.9 118.4,163.9 118.4,164 118.4,164 118.4,164.2 118.4,164.2 118.4,164.3 118.4,164.3 118.4,164.5 114.9,163.9 
				111.4,163.3 107.9,162.7 104.4,162.2 100.8,161.6 97.3,161.1 97.3,160.9 97.3,160.9 97.3,160.8 97.3,160.8 97.3,160.6 
				97.3,160.6 97.3,160.4 97.3,160.4 97.3,160.3 			"/>
			<polygon id="Path_210_" class="st5" points="100.8,161.9 104.4,162.5 107.9,163 111.4,163.6 114.9,164.2 118.4,164.8 
				118.4,164.9 118.4,164.9 118.4,165.1 118.4,165.1 118.4,165.2 118.4,165.2 118.4,165.3 118.4,165.3 118.4,165.5 114.9,165 
				111.4,164.4 107.9,163.9 104.4,163.3 100.8,162.7 97.3,162.1 97.3,162 97.3,162 97.3,161.8 97.3,161.8 97.3,161.6 97.3,161.6 
				97.3,161.5 97.3,161.5 97.3,161.3 			"/>
			<polygon id="Path_211_" class="st5" points="100.8,162.7 104.4,163.2 107.9,163.6 111.4,164 114.9,164.5 118.4,164.9 
				118.4,165.1 118.4,165.1 118.4,165.1 118.4,165.1 118.4,165.2 118.4,165.2 118.4,165.4 118.4,165.4 118.4,165.5 114.9,165.1 
				111.4,164.6 107.9,164.2 104.4,163.9 100.8,163.4 97.3,163 97.3,162.9 97.3,162.9 97.3,162.7 97.3,162.7 97.3,162.6 97.3,162.6 
				97.3,162.5 97.3,162.5 97.3,162.3 			"/>
			<rect id="Rectangle_1_" x="82.5" y="128.8" class="st10" width="12.7" height="93.4"/>
			<rect id="Rectangle_2_" x="231.6" y="43.8" class="st11" width="5.3" height="48.3"/>
			<path id="Path_212_" class="st4" d="M198.8,110c0-1.8-1.1-3.4-2.7-4.1c-0.6-2.8-3.1-4.8-6-4.8c-0.3,0-0.7,0-1,0
				c-0.5-2.7-2.9-4.8-5.7-4.8c-1.8,0-3.5,0.9-4.6,2.3c-0.4-0.1-0.8-0.2-1.2-0.2c-2.2,0.1-4.1,1.6-4.5,3.9c-1.6-1.5-3.8-2-5.8-1.4
				c-2.1,0.5-3.7,2.1-4.5,4.1c-0.4-0.2-0.9-0.3-1.3-0.2c-2.1,0-3.9,1.8-3.9,3.9c0,0.3,0,0.4,0,0.7c0.2,0.9,0.9,1.5,1.8,1.5h38.7
				c0.3,0,0.4-0.1,0.6-0.3C198.8,110.5,198.8,110.3,198.8,110L198.8,110z"/>
			<path id="Path_213_" class="st4" d="M189.3,107.7c2.7-0.3,4.8-2.3,5.3-5c-1.1-1.6-3-2.7-4.9-2.6c-0.3,0-0.7,0-1,0
				c-0.5-2.8-2.8-4.8-5.6-4.9c-1.8,0-3.4,0.9-4.5,2.3c-0.4-0.1-0.8-0.2-1.2-0.2c-2.1,0.1-4,1.6-4.5,3.9c-1.5-1.5-3.8-2-5.8-1.5
				c-2.1,0.5-3.7,2.1-4.4,4.2c-0.4-0.2-0.9-0.3-1.3-0.2c-2.1,0-3.9,1.8-3.9,4L189.3,107.7L189.3,107.7L189.3,107.7z"/>
			<rect id="Rectangle_3_" x="209.4" y="42.8" class="st10" width="12.7" height="45.1"/>
			<path id="Path_214_" class="st4" d="M223.7,91.9H223c-0.4-1-1.4-1.8-2.5-2.1c-1.2-2.7-3.9-4.5-7-4.5c-0.5,0-1.1,0.1-1.6,0.2
				c-1.2-2.8-3.9-4.7-7-5s-6.1,1.2-7.8,3.8c-1.3-0.9-2.9-1.5-4.5-1.5c-4.2,0-7.6,3.3-7.7,7.4c-0.1,0.4-0.1,0.9,0,1.4
				c-1.1,0.7-1.8,1.9-1.8,3.2c0,0.9,0.4,1.9,1.1,2.6s1.6,1,2.7,1h37c1.3,0.1,2.5-0.5,3.2-1.5s0.7-2.4,0-3.5
				C226.2,92.3,225,91.7,223.7,91.9L223.7,91.9z"/>
			<g id="Left" transform="translate(169.000000, 15.000000)">
				
					<linearGradient id="Path_1_" gradientUnits="userSpaceOnUse" x1="-405.6592" y1="228.6697" x2="-404.6007" y2="228.6697" gradientTransform="matrix(24.7 0 0 -57.8573 10059.083 13287.2598)">
					<stop  offset="0" style="stop-color:#50E2EA"/>
					<stop  offset="0.36" style="stop-color:#4FDEE8"/>
					<stop  offset="0.76" style="stop-color:#2F7AC2"/>
					<stop  offset="1" style="stop-color:#2F7AC2"/>
				</linearGradient>
				<polygon id="Path_215_" class="st12" points="41.4,81.7 41.4,74.3 65.5,74.3 65.5,72.7 41.4,72.7 41.4,65.4 65.5,65.4 
					65.5,63.7 41.4,63.7 41.4,56.4 65.5,56.4 65.5,54.8 41.4,54.8 41.4,47.4 65.5,47.4 65.5,45.8 41.4,45.8 41.4,38.4 65.5,38.4 
					65.5,36.8 41.4,36.8 41.4,29.4 65.5,29.4 65.5,26.7 39.3,26.7 39.3,87.4 65.5,87.4 65.5,81.7 				"/>
				<path id="Shape" class="st10" d="M41.4,36.8h24v-7.5h-24C41.4,29.4,41.4,36.8,41.4,36.8z M56.3,35.7h-0.5v-0.3h0.5V35.7z
					 M55.8,34.2c0-0.1,0.1-0.3,0.3-0.3c0.1,0,0.3,0.1,0.2,0.3c0,0.1-0.1,0.2-0.2,0.2C56,34.4,55.8,34.3,55.8,34.2z M56.1,30
					c0.1,0,0.3,0.1,0.2,0.3c0,0.1-0.1,0.2-0.2,0.2c-0.1,0-0.3-0.1-0.3-0.2C55.8,30.2,56,30.1,56.1,30L56.1,30z M56.1,30.9
					c0.1,0,0.3,0.1,0.2,0.3c0,0.1-0.1,0.2-0.2,0.2c-0.1,0-0.3-0.1-0.3-0.2c0.1-0.1,0.2-0.1,0.3-0.1V30.9z M56.1,31.8
					c0.1,0,0.2,0.1,0.2,0.2c0,0.1-0.1,0.2-0.2,0.2c-0.1,0-0.2-0.1-0.2-0.2C55.9,31.8,56,31.8,56.1,31.8z M55.7,32.6h0.8v0.8h-0.8
					V32.6z M51,30h0.9v6.1H51V30z M49.3,30h0.9v6.1h-0.9V30z M47.6,30h0.9v6.1h-0.9V30z M45.9,30h0.9v6.1h-0.9V30z M44.1,30h1v6.1
					h-0.9L44.1,30L44.1,30z M42.3,30h1v6.1h-0.9L42.3,30L42.3,30z"/>
				<rect id="Rectangle_4_" x="42.3" y="30" class="st13" width="1" height="6.1"/>
				<rect id="Rectangle_5_" x="44.1" y="30" class="st13" width="1" height="6.1"/>
				<rect id="Rectangle_6_" x="45.8" y="30" class="st13" width="1" height="6.1"/>
				<rect id="Rectangle_7_" x="47.5" y="30" class="st13" width="1" height="6.1"/>
				<rect id="Rectangle_8_" x="49.3" y="30" class="st13" width="1" height="6.1"/>
				<rect id="Rectangle_9_" x="51" y="30" class="st13" width="1" height="6.1"/>
				<rect id="Rectangle_10_" x="55.6" y="32.7" class="st14" width="1" height="1"/>
				<path id="Path_216_" class="st15" d="M56.1,31.5c0.1,0,0.2-0.1,0.2-0.2S56.2,31,56.1,31c-0.2,0-0.3,0.1-0.3,0.3
					C55.8,31.4,56,31.5,56.1,31.5L56.1,31.5z"/>
				<path id="Path_217_" class="st16" d="M56.1,30.6c0.1,0,0.2-0.1,0.2-0.2s-0.1-0.3-0.2-0.3c-0.2,0-0.3,0.1-0.3,0.3
					C55.8,30.6,56,30.6,56.1,30.6L56.1,30.6z"/>
				<path id="Path_218_" class="st15" d="M56.1,32.3c0.1,0,0.2-0.1,0.2-0.2s-0.1-0.2-0.2-0.2c-0.1,0-0.2,0.1-0.2,0.2
					C55.9,32.2,56,32.3,56.1,32.3z"/>
				<path id="Path_219_" class="st17" d="M56.3,34.2c0-0.1-0.1-0.3-0.2-0.3c-0.2,0-0.3,0.1-0.3,0.3c0,0.1,0.1,0.2,0.3,0.2
					C56.2,34.4,56.3,34.3,56.3,34.2L56.3,34.2z"/>
				<rect id="Rectangle_11_" x="55.8" y="35.4" class="st17" width="1" height="1"/>
				<path id="Shape_1_" class="st10" d="M41.4,45.8h24v-7.5h-24C41.4,38.4,41.4,45.8,41.4,45.8z M56.3,44.7h-0.5v-0.3h0.5V44.7z
					 M55.8,43.3c0-0.1,0.1-0.3,0.3-0.3c0.1,0,0.3,0.1,0.2,0.3c0,0.1-0.1,0.2-0.2,0.2C56,43.4,55.8,43.3,55.8,43.3L55.8,43.3z
					 M56.1,39.2c0.1,0,0.3,0.1,0.2,0.3c0,0.1-0.1,0.2-0.2,0.2c-0.1,0-0.3-0.1-0.3-0.2C55.8,39.3,56,39.2,56.1,39.2L56.1,39.2z
					 M56.1,40c0.1,0,0.3,0.1,0.2,0.3c0,0.1-0.1,0.2-0.2,0.2c-0.1,0-0.3-0.1-0.3-0.2C55.8,40.2,56,40,56.1,40L56.1,40z M56.1,40.9
					c0.1,0,0.2,0.1,0.2,0.2c0,0.1-0.1,0.2-0.2,0.2c-0.1,0-0.2-0.1-0.2-0.2C55.9,40.9,56,40.9,56.1,40.9z M55.7,41.7h0.8v0.8h-0.8
					V41.7z M51,39.1h0.9v6H51V39.1z M49.3,39.1h0.9v6h-0.9V39.1z M47.6,39.1h0.9v6h-0.9V39.1z M45.8,39.1h1v6h-0.9L45.8,39.1z
					 M44.1,39.1H45v6h-0.9V39.1z M42.3,39.1h0.9v6h-0.9V39.1z"/>
				<rect id="Rectangle_12_" x="42.3" y="39.1" class="st13" width="1" height="6.1"/>
				<rect id="Rectangle_13_" x="44.1" y="39.1" class="st13" width="1" height="6.1"/>
				<rect id="Rectangle_14_" x="45.8" y="39.1" class="st13" width="1" height="6.1"/>
				<rect id="Rectangle_15_" x="47.5" y="39.1" class="st13" width="1" height="6.1"/>
				<rect id="Rectangle_16_" x="49.3" y="39.1" class="st13" width="1" height="6.1"/>
				<rect id="Rectangle_17_" x="51" y="39.1" class="st13" width="1" height="6.1"/>
				<rect id="Rectangle_18_" x="55.6" y="41.7" class="st14" width="1" height="1"/>
				<path id="Path_220_" class="st15" d="M56.1,40.4c0.1,0,0.2-0.1,0.2-0.2c0-0.1-0.1-0.3-0.2-0.3c-0.2,0-0.3,0.1-0.3,0.3
					C55.8,40.3,56,40.4,56.1,40.4L56.1,40.4z"/>
				<path id="Path_221_" class="st16" d="M56.1,39.7c0.1,0,0.2-0.1,0.2-0.2s-0.1-0.3-0.2-0.3c-0.2,0-0.3,0.1-0.3,0.3
					C55.8,39.6,56,39.7,56.1,39.7L56.1,39.7z"/>
				<path id="Path_222_" class="st15" d="M56.1,41.3c0.1,0,0.2-0.1,0.2-0.2s0-0.3-0.2-0.3s-0.2,0.1-0.2,0.2
					C55.9,41.1,56,41.3,56.1,41.3z"/>
				<path id="Path_223_" class="st17" d="M56.3,43.3c0-0.1-0.1-0.3-0.2-0.3c-0.2,0-0.3,0.1-0.3,0.3c0,0.1,0.1,0.2,0.3,0.2
					C56.2,43.4,56.3,43.3,56.3,43.3L56.3,43.3z"/>
				<rect id="Rectangle_19_" x="55.8" y="44.4" class="st17" width="1" height="1"/>
				<path id="Shape_2_" class="st10" d="M41.4,54.8h24v-7.5h-24C41.4,47.4,41.4,54.8,41.4,54.8z M56.3,53.7h-0.5v-0.3h0.5V53.7z
					 M55.8,52.3c0-0.1,0.1-0.3,0.3-0.3c0.1,0,0.3,0.1,0.2,0.3c0,0.1-0.1,0.2-0.2,0.2C56,52.4,55.9,52.4,55.8,52.3
					C55.9,52.3,55.8,52.3,55.8,52.3L55.8,52.3z M56.1,48.2c0.1,0,0.3,0.1,0.2,0.3c0,0.1-0.1,0.2-0.2,0.2c-0.1,0-0.3-0.1-0.3-0.2
					s0-0.2,0.1-0.2C56,48.2,56,48.1,56.1,48.2L56.1,48.2z M56.1,49.1c0.1,0,0.2,0.1,0.2,0.2s-0.1,0.2-0.2,0.2
					c-0.1,0-0.2-0.1-0.2-0.2C55.9,49.2,56,49.1,56.1,49.1z M56.1,49.9c0.1,0,0.2,0.1,0.2,0.2c0,0.1-0.1,0.2-0.2,0.2
					c-0.1,0-0.2-0.1-0.2-0.2C55.9,50,56,49.9,56.1,49.9z M55.7,50.8h0.8v0.8h-0.8V50.8z M51,48.1h0.9V54H51V48.1z M49.3,48.1h0.9V54
					h-0.9V48.1z M47.6,48.1h0.9V54h-0.9V48.1z M45.8,48.1h1V54h-0.9L45.8,48.1z M44.1,48.1H45V54h-0.9V48.1z M42.3,48.1h0.9V54h-0.9
					V48.1z"/>
				<rect id="Rectangle_20_" x="42.3" y="48.1" class="st13" width="1" height="6.1"/>
				<rect id="Rectangle_21_" x="44.1" y="48.1" class="st13" width="1" height="6.1"/>
				<rect id="Rectangle_22_" x="45.8" y="48.1" class="st13" width="1" height="6.1"/>
				<rect id="Rectangle_23_" x="47.5" y="48.1" class="st13" width="1" height="6.1"/>
				<rect id="Rectangle_24_" x="49.3" y="48.1" class="st13" width="1" height="6.1"/>
				<rect id="Rectangle_25_" x="51" y="48.1" class="st13" width="1" height="6.1"/>
				<rect id="Rectangle_26_" x="55.6" y="50.7" class="st14" width="1" height="1"/>
				<path id="Path_224_" class="st15" d="M56.1,49.4c0.1,0,0.2-0.1,0.2-0.2c0-0.1-0.1-0.2-0.2-0.2c-0.1,0-0.2,0.1-0.2,0.2
					C55.9,49.3,56,49.4,56.1,49.4z"/>
				<path id="Path_225_" class="st16" d="M56.1,48.7c0.1,0,0.2-0.1,0.2-0.2s-0.1-0.3-0.2-0.3c-0.2,0-0.3,0.1-0.3,0.3
					C55.8,48.5,56,48.7,56.1,48.7L56.1,48.7z"/>
				<path id="Path_226_" class="st15" d="M56.1,50.3c0.1,0,0.2-0.1,0.2-0.2s-0.1-0.2-0.2-0.2c-0.1,0-0.2,0.1-0.2,0.2
					S56,50.3,56.1,50.3z"/>
				<path id="Path_227_" class="st17" d="M56.3,52.3c0-0.1-0.1-0.3-0.2-0.3c-0.2,0-0.3,0.1-0.3,0.3c0,0.1,0.1,0.2,0.3,0.2
					C56.2,52.4,56.3,52.3,56.3,52.3L56.3,52.3z"/>
				<rect id="Rectangle_27_" x="55.8" y="53.4" class="st17" width="1" height="1"/>
				<path id="Shape_3_" class="st10" d="M41.4,63.8h24v-7.5h-24C41.4,56.4,41.4,63.8,41.4,63.8z M56.3,62.6h-0.5v-0.3h0.5V62.6z
					 M55.8,61.2c0-0.1,0.1-0.3,0.3-0.3c0.1,0,0.3,0.1,0.2,0.3c0,0.1-0.1,0.2-0.2,0.2C56,61.3,55.9,61.3,55.8,61.2L55.8,61.2z
					 M56.1,57.1c0.1,0,0.3,0.1,0.2,0.3c0,0.1-0.1,0.2-0.2,0.2c-0.1,0-0.3-0.1-0.3-0.2C55.9,57.2,56,57.1,56.1,57.1L56.1,57.1z
					 M56.1,57.9c0.1,0,0.2,0.1,0.2,0.2c0,0.1-0.1,0.2-0.2,0.2c-0.1,0-0.2-0.1-0.2-0.2C55.9,58,56,57.9,56.1,57.9z M56.1,58.8
					c0.1,0,0.2,0.1,0.2,0.2s-0.1,0.2-0.2,0.2c-0.1,0-0.2-0.1-0.2-0.2S56,58.8,56.1,58.8z M55.7,59.6h0.8v0.8h-0.8V59.6z M51,57h0.9
					v5.9H51V57z M49.3,57h0.9v5.9h-0.9V57z M47.6,57h0.9v5.9h-0.9V57z M45.8,57h1v5.9h-0.9L45.8,57z M44.1,57H45v5.9h-0.9V57z
					 M42.3,57h0.9v5.9h-0.9V57z"/>
				<rect id="Rectangle_28_" x="42.3" y="57.1" class="st13" width="1" height="6.1"/>
				<rect id="Rectangle_29_" x="44.1" y="57.1" class="st13" width="1" height="6.1"/>
				<rect id="Rectangle_30_" x="45.8" y="57.1" class="st13" width="1" height="6.1"/>
				<rect id="Rectangle_31_" x="47.5" y="57.1" class="st13" width="1" height="6.1"/>
				<rect id="Rectangle_32_" x="49.3" y="57.1" class="st13" width="1" height="6.1"/>
				<rect id="Rectangle_33_" x="51" y="57.1" class="st13" width="1" height="6.1"/>
				<rect id="Rectangle_34_" x="55.6" y="59.7" class="st14" width="1" height="1"/>
				<path id="Path_228_" class="st15" d="M56.1,58.4c0.1,0,0.2-0.1,0.2-0.2c0-0.1,0-0.3-0.2-0.3s-0.2,0.1-0.2,0.2
					C55.9,58.3,56,58.4,56.1,58.4z"/>
				<path id="Path_229_" class="st16" d="M56.1,57.6c0.1,0,0.2-0.1,0.2-0.2s-0.1-0.3-0.2-0.3c-0.2,0-0.3,0.1-0.3,0.3
					C55.8,57.5,56,57.6,56.1,57.6L56.1,57.6z"/>
				<path id="Path_230_" class="st15" d="M56.1,59.3c0.1,0,0.2-0.1,0.2-0.2s0-0.3-0.2-0.3s-0.2,0.1-0.2,0.2S56,59.3,56.1,59.3z"/>
				<path id="Path_231_" class="st17" d="M56.3,61.2c0-0.1-0.1-0.3-0.2-0.3c-0.2,0-0.3,0.1-0.3,0.3c0,0.1,0.1,0.2,0.3,0.2
					C56.2,61.4,56.3,61.3,56.3,61.2L56.3,61.2z"/>
				<rect id="Rectangle_35_" x="55.8" y="62.3" class="st17" width="1" height="1"/>
				<path id="Shape_4_" class="st10" d="M41.4,72.7h24v-7.5h-24C41.4,65.3,41.4,72.7,41.4,72.7z M56.3,71.6h-0.5v-0.2h0.5V71.6z
					 M55.8,70.2c0-0.1,0.1-0.2,0.3-0.2c0.1,0,0.2,0.1,0.2,0.2s-0.1,0.2-0.2,0.2C56,70.4,55.8,70.3,55.8,70.2z M56.1,66.1
					c0.1,0,0.3,0.1,0.2,0.3c0,0.1-0.1,0.2-0.2,0.2c-0.1,0-0.3-0.1-0.3-0.2C55.8,66.2,56,66.1,56.1,66.1L56.1,66.1z M56.1,67
					c0.1,0,0.2,0.1,0.2,0.2s-0.1,0.2-0.2,0.2c-0.1,0-0.2-0.1-0.2-0.2S56,67,56.1,67L56.1,67z M56.1,67.9c0.1,0,0.2,0.1,0.2,0.2
					s-0.1,0.2-0.2,0.2c-0.1,0-0.2-0.1-0.2-0.2S56,67.9,56.1,67.9L56.1,67.9z M55.7,68.7h0.8v0.8h-0.8V68.7z M51,66.1h0.9V72H51V66.1
					z M49.3,66.1h0.9V72h-0.9V66.1z M47.6,66.1h0.9V72h-0.9V66.1z M45.8,66.1h1V72h-0.9L45.8,66.1z M44.1,66.1H45V72h-0.9V66.1z
					 M42.3,66.1h0.9V72h-0.9V66.1z"/>
				<rect id="Rectangle_36_" x="42.3" y="66.1" class="st13" width="1" height="6.1"/>
				<rect id="Rectangle_37_" x="44.1" y="66.1" class="st13" width="1" height="6.1"/>
				<rect id="Rectangle_38_" x="45.8" y="66.1" class="st13" width="1" height="6.1"/>
				<rect id="Rectangle_39_" x="47.5" y="66.1" class="st13" width="1" height="6.1"/>
				<rect id="Rectangle_40_" x="49.3" y="66.1" class="st13" width="1" height="6.1"/>
				<rect id="Rectangle_41_" x="51" y="66.1" class="st13" width="1" height="6.1"/>
				<rect id="Rectangle_42_" x="55.6" y="68.7" class="st14" width="1" height="1"/>
				<path id="Path_232_" class="st15" d="M56.1,67.4c0.1,0,0.2-0.1,0.2-0.2S56.2,67,56.1,67c-0.1,0-0.2,0.1-0.2,0.2
					S56,67.4,56.1,67.4L56.1,67.4z"/>
				<path id="Path_233_" class="st16" d="M56.1,66.6c0.1,0,0.2-0.1,0.2-0.2s-0.1-0.3-0.2-0.3c-0.2,0-0.3,0.1-0.3,0.3
					C55.8,66.5,56,66.6,56.1,66.6L56.1,66.6z"/>
				<path id="Path_234_" class="st15" d="M56.1,68.2c0.1,0,0.2-0.1,0.2-0.2s-0.1-0.2-0.2-0.2c-0.1,0-0.2,0.1-0.2,0.2
					S56,68.2,56.1,68.2z"/>
				<path id="Path_235_" class="st17" d="M56.3,70.2c0-0.1-0.1-0.2-0.2-0.2c-0.1,0-0.2,0.1-0.2,0.2s0.1,0.2,0.2,0.2
					C56.2,70.3,56.3,70.3,56.3,70.2L56.3,70.2z"/>
				<rect id="Rectangle_43_" x="55.8" y="71.3" class="st17" width="1" height="1"/>
				<path id="Shape_5_" class="st10" d="M41.4,81.7h24v-7.4h-24C41.4,74.4,41.4,81.7,41.4,81.7z M56.3,80.6h-0.5v-0.3h0.5V80.6z
					 M55.8,79.2c0-0.1,0.1-0.2,0.3-0.2c0.1,0,0.2,0.1,0.2,0.2s-0.1,0.2-0.2,0.2C56,79.3,55.8,79.3,55.8,79.2z M56.1,75.1
					c0.1,0,0.3,0.1,0.2,0.3c0,0.1-0.1,0.2-0.2,0.2c-0.1,0-0.3-0.1-0.3-0.2C55.8,75.2,56,75.1,56.1,75.1L56.1,75.1z M56.1,76
					c0.1,0,0.2,0.1,0.2,0.2s-0.1,0.2-0.2,0.2c-0.1,0-0.2-0.1-0.2-0.2C55.9,76.1,56,76,56.1,76z M56.1,76.8c0.1,0,0.2,0.1,0.2,0.2
					s-0.1,0.2-0.2,0.2c-0.1,0-0.2-0.1-0.2-0.2C55.9,76.9,56,76.8,56.1,76.8z M55.7,77.6h0.8v0.8h-0.8V77.6z M51,75.1h0.9V81H51V75.1
					z M49.3,75.1h0.9V81h-0.9V75.1z M47.6,75.1h0.9V81h-0.9V75.1z M45.8,75.1h1V81h-0.9L45.8,75.1z M44.1,75.1H45V81h-0.9V75.1z
					 M42.3,75.1h0.9V81h-0.9V75.1z"/>
				<rect id="Rectangle_44_" x="42.3" y="75" class="st14" width="1" height="6.1"/>
				<rect id="Rectangle_45_" x="44.1" y="75" class="st14" width="1" height="6.1"/>
				<rect id="Rectangle_46_" x="45.8" y="75" class="st14" width="1" height="6.1"/>
				<rect id="Rectangle_47_" x="47.5" y="75" class="st14" width="1" height="6.1"/>
				<rect id="Rectangle_48_" x="49.3" y="75" class="st14" width="1" height="6.1"/>
				<rect id="Rectangle_49_" x="51" y="75" class="st14" width="1" height="6.1"/>
				<rect id="Rectangle_50_" x="55.6" y="77.6" class="st14" width="1" height="1"/>
				<path id="Path_236_" class="st15" d="M56.1,76.4c0.1,0,0.2-0.1,0.2-0.2S56.2,76,56.1,76c-0.1,0-0.2,0.1-0.2,0.2
					C55.9,76.3,56,76.4,56.1,76.4z"/>
				<path id="Path_237_" class="st16" d="M56.1,75.6c0.1,0,0.2-0.1,0.2-0.2s-0.1-0.3-0.2-0.3c-0.2,0-0.3,0.1-0.3,0.3
					C55.8,75.5,56,75.6,56.1,75.6L56.1,75.6z"/>
				<path id="Path_238_" class="st15" d="M56.1,77.4c0.1,0,0.2-0.1,0.2-0.2S56.2,77,56.1,77c-0.1,0-0.2,0.1-0.2,0.2
					C55.9,77.3,56,77.4,56.1,77.4z"/>
				<path id="Path_239_" class="st17" d="M56.3,79.2c0-0.1-0.1-0.2-0.2-0.2c-0.1,0-0.2,0.1-0.2,0.2s0.1,0.2,0.2,0.2
					S56.2,79.3,56.3,79.2C56.4,79.2,56.3,79.3,56.3,79.2L56.3,79.2z"/>
				<rect id="Rectangle_51_" x="55.8" y="80.3" class="st17" width="1" height="1"/>
			</g>
			<g id="Central" transform="translate(196.000000, 0.000000)">
				
					<linearGradient id="Rectangle_116_" gradientUnits="userSpaceOnUse" x1="-485.5235" y1="243.6273" x2="-484.4649" y2="243.6273" gradientTransform="matrix(42.1312 0 0 -79.3986 20495.6328 19410.2637)">
					<stop  offset="0" style="stop-color:#50E2EA"/>
					<stop  offset="0.36" style="stop-color:#4FDEE8"/>
					<stop  offset="0.76" style="stop-color:#2F7AC2"/>
					<stop  offset="1" style="stop-color:#2F7AC2"/>
				</linearGradient>
				<rect id="Rectangle_52_" x="39.9" y="25" class="st18" width="44.6" height="83.2"/>
				<rect id="Rectangle_53_" x="42.8" y="28.7" class="st10" width="39" height="10.2"/>
				<rect id="Rectangle_54_" x="44" y="29.6" class="st19" width="1.3" height="8.3"/>
				<rect id="Rectangle_55_" x="46.3" y="29.6" class="st19" width="1.3" height="8.3"/>
				<rect id="Rectangle_56_" x="48.6" y="29.6" class="st19" width="1.3" height="8.3"/>
				<rect id="Rectangle_57_" x="50.9" y="29.6" class="st19" width="1.3" height="8.3"/>
				<rect id="Rectangle_58_" x="53.2" y="29.6" class="st19" width="1.3" height="8.3"/>
				<rect id="Rectangle_59_" x="55.5" y="29.6" class="st19" width="1.3" height="8.3"/>
				<rect id="Rectangle_60_" x="61.7" y="33.3" class="st14" width="1" height="1"/>
				<path id="Path_240_" class="st15" d="M62.6,31.2c0,0.2-0.2,0.3-0.3,0.3c-0.2,0-0.3-0.2-0.3-0.3s0-0.2,0.1-0.3
					c0.1-0.1,0.2-0.1,0.3-0.1C62.5,31,62.6,31.1,62.6,31.2z"/>
				<path id="Path_241_" class="st16" d="M62.6,30.1c0,0.2-0.2,0.3-0.3,0.3s-0.2,0-0.3-0.1c0-0.1,0-0.2,0-0.3c0-0.2,0.2-0.3,0.3-0.3
					C62.4,29.8,62.6,30,62.6,30.1L62.6,30.1z"/>
				<path id="Path_242_" class="st15" d="M62.6,32.4c0,0.2-0.2,0.3-0.3,0.3s-0.2,0-0.3-0.1s0-0.2,0-0.3c0-0.2,0.2-0.3,0.3-0.3
					C62.4,32.1,62.6,32.2,62.6,32.4L62.6,32.4z"/>
				<path id="Path_243_" class="st17" d="M62.6,35.4c0,0.2-0.2,0.3-0.3,0.3c-0.2,0-0.3-0.2-0.3-0.3s0-0.2,0.1-0.3s0.2-0.1,0.3-0.1
					C62.5,35,62.6,35.2,62.6,35.4L62.6,35.4z"/>
				<rect id="Rectangle_61_" x="61.9" y="36.9" class="st17" width="1" height="1"/>
				<path id="Path_244_" class="st13" d="M79,31.7h-5.1V36H79c0.8-0.4,1.3-1.3,1.3-2.1C80.3,32.9,79.9,32.1,79,31.7L79,31.7z"/>
				<path id="Path_245_" class="st20" d="M81.2,29.9c0,0.3-0.3,0.5-0.5,0.5s-0.5-0.3-0.5-0.5c0-0.3,0.3-0.5,0.5-0.5
					S81.2,29.5,81.2,29.9L81.2,29.9z"/>
				<rect id="Rectangle_62_" x="42.8" y="41" class="st10" width="39" height="10.2"/>
				<rect id="Rectangle_63_" x="44" y="42" class="st19" width="1.3" height="8.3"/>
				<rect id="Rectangle_64_" x="46.3" y="42" class="st19" width="1.3" height="8.3"/>
				<rect id="Rectangle_65_" x="48.6" y="42" class="st19" width="1.3" height="8.3"/>
				<rect id="Rectangle_66_" x="50.9" y="42" class="st19" width="1.3" height="8.3"/>
				<rect id="Rectangle_67_" x="53.2" y="42" class="st19" width="1.3" height="8.3"/>
				<rect id="Rectangle_68_" x="55.5" y="42" class="st19" width="1.3" height="8.3"/>
				<rect id="Rectangle_69_" x="61.7" y="45.6" class="st14" width="1" height="1"/>
				<path id="Path_246_" class="st15" d="M62.6,43.6c0,0.2-0.2,0.3-0.3,0.3s-0.2,0-0.3-0.1c0-0.1,0-0.2,0-0.3c0-0.2,0.2-0.3,0.3-0.3
					C62.4,43.2,62.6,43.4,62.6,43.6L62.6,43.6z"/>
				<path id="Path_247_" class="st16" d="M62.6,42.4c0,0.2-0.2,0.3-0.3,0.3c-0.2,0-0.3-0.2-0.3-0.3s0-0.2,0.1-0.3s0.2-0.1,0.3-0.1
					C62.5,42.1,62.6,42.3,62.6,42.4z"/>
				<path id="Path_248_" class="st15" d="M62.6,44.7c0,0.2-0.2,0.3-0.3,0.3c-0.2,0-0.3-0.2-0.3-0.3s0-0.2,0.1-0.3s0.2-0.1,0.3-0.1
					C62.5,44.4,62.6,44.5,62.6,44.7z"/>
				<path id="Path_249_" class="st17" d="M62.6,47.6c0,0.2-0.2,0.3-0.3,0.3s-0.2,0-0.3-0.1c0-0.1,0-0.2,0-0.3c0-0.2,0.2-0.3,0.3-0.3
					C62.4,47.4,62.6,47.4,62.6,47.6L62.6,47.6z"/>
				<rect id="Rectangle_70_" x="61.9" y="49.2" class="st17" width="1" height="1"/>
				<path id="Path_250_" class="st13" d="M79,43.9h-5.1v4.2H79c0.8-0.4,1.3-1.3,1.3-2.1C80.3,45,79.8,44.3,79,43.9L79,43.9z"/>
				<path id="Path_251_" class="st20" d="M81.2,42.3c0,0.3-0.3,0.5-0.5,0.5s-0.5-0.3-0.5-0.5s0.3-0.5,0.5-0.5S81.2,42,81.2,42.3
					L81.2,42.3z"/>
				<rect id="Rectangle_71_" x="42.8" y="53.4" class="st10" width="39" height="10.2"/>
				<rect id="Rectangle_72_" x="44" y="54.3" class="st19" width="1.3" height="8.3"/>
				<rect id="Rectangle_73_" x="46.3" y="54.3" class="st19" width="1.3" height="8.3"/>
				<rect id="Rectangle_74_" x="48.6" y="54.3" class="st19" width="1.3" height="8.3"/>
				<rect id="Rectangle_75_" x="50.9" y="54.3" class="st19" width="1.3" height="8.3"/>
				<rect id="Rectangle_76_" x="53.2" y="54.3" class="st19" width="1.3" height="8.3"/>
				<rect id="Rectangle_77_" x="55.5" y="54.3" class="st19" width="1.3" height="8.3"/>
				<rect id="Rectangle_78_" x="61.7" y="57.9" class="st14" width="1" height="1"/>
				<path id="Path_252_" class="st15" d="M62.6,55.9c0,0.2-0.2,0.3-0.3,0.3S62,56,62,55.9c0-0.2,0.2-0.3,0.3-0.3
					C62.4,55.6,62.6,55.8,62.6,55.9z"/>
				<path id="Path_253_" class="st16" d="M62.6,54.7c0,0.2-0.2,0.3-0.3,0.3c-0.2,0-0.3-0.2-0.3-0.3s0-0.2,0.1-0.3s0.2-0.1,0.3-0.1
					C62.5,54.5,62.6,54.6,62.6,54.7L62.6,54.7z"/>
				<path id="Path_254_" class="st15" d="M62.6,57.1c0,0.2-0.2,0.3-0.3,0.3s-0.2,0-0.2-0.1C62,57.2,62,57.1,62,57.1
					c0-0.1,0-0.2,0.1-0.3s0.2-0.1,0.3-0.1C62.5,56.8,62.6,57,62.6,57.1z"/>
				<path id="Path_255_" class="st17" d="M62.6,60.1c0,0.2-0.2,0.3-0.3,0.3s-0.2,0-0.3-0.1c0-0.2,0-0.2,0-0.3c0-0.2,0.2-0.3,0.3-0.3
					C62.4,59.8,62.6,59.9,62.6,60.1L62.6,60.1z"/>
				<rect id="Rectangle_79_" x="61.9" y="61.5" class="st17" width="1" height="1"/>
				<path id="Path_256_" class="st13" d="M79,56.3h-5.1v4.3H79c0.8-0.4,1.3-1.3,1.3-2.1C80.4,57.6,79.9,56.7,79,56.3z"/>
				<path id="Path_257_" class="st20" d="M81.2,54.5c0,0.3-0.3,0.5-0.5,0.5s-0.5-0.3-0.5-0.5c0-0.3,0.3-0.5,0.5-0.5
					S81.2,54.2,81.2,54.5L81.2,54.5z"/>
				<rect id="Rectangle_80_" x="42.8" y="65.7" class="st10" width="39" height="10.2"/>
				<rect id="Rectangle_81_" x="44" y="66.7" class="st19" width="1.3" height="8.3"/>
				<rect id="Rectangle_82_" x="46.3" y="66.7" class="st19" width="1.3" height="8.3"/>
				<rect id="Rectangle_83_" x="48.6" y="66.7" class="st19" width="1.3" height="8.3"/>
				<rect id="Rectangle_84_" x="50.9" y="66.7" class="st19" width="1.3" height="8.3"/>
				<rect id="Rectangle_85_" x="53.2" y="66.7" class="st19" width="1.3" height="8.3"/>
				<rect id="Rectangle_86_" x="55.5" y="66.7" class="st19" width="1.3" height="8.3"/>
				<rect id="Rectangle_87_" x="61.7" y="70.3" class="st14" width="1" height="1"/>
				<path id="Path_258_" class="st15" d="M62.6,68.2c0,0.2-0.2,0.3-0.3,0.3c-0.2,0-0.3-0.2-0.3-0.3c0-0.1,0-0.2,0.1-0.3
					c0.1-0.1,0.2-0.1,0.3-0.1C62.5,67.9,62.6,68,62.6,68.2z"/>
				<path id="Path_259_" class="st16" d="M62.6,67.1c0,0.2-0.2,0.3-0.3,0.3s-0.2,0-0.3-0.1c0-0.1,0-0.2,0-0.3c0-0.2,0.2-0.3,0.3-0.3
					C62.4,66.8,62.6,66.9,62.6,67.1z"/>
				<path id="Path_260_" class="st15" d="M62.6,69.3c0,0.2-0.2,0.3-0.3,0.3s-0.2,0-0.3-0.1c0-0.1,0-0.2,0-0.3c0-0.2,0.2-0.3,0.3-0.3
					C62.4,69.1,62.6,69.2,62.6,69.3L62.6,69.3z"/>
				<path id="Path_261_" class="st17" d="M62.6,72.3c0,0.2-0.2,0.3-0.3,0.3c-0.2,0-0.3-0.2-0.3-0.3c0-0.1,0-0.2,0.1-0.3
					c0.1-0.1,0.2-0.1,0.3-0.1C62.5,72.1,62.6,72.1,62.6,72.3z"/>
				<rect id="Rectangle_88_" x="61.9" y="73.9" class="st17" width="1" height="1"/>
				<path id="Path_262_" class="st13" d="M79,68.6h-5.1v4.3H79c0.8-0.4,1.3-1.3,1.3-2.1C80.3,69.9,79.9,69.1,79,68.6z"/>
				<path id="Path_263_" class="st20" d="M81.2,66.8c0,0.3-0.3,0.5-0.5,0.5s-0.5-0.3-0.5-0.5s0.3-0.5,0.5-0.5S81.2,66.6,81.2,66.8
					L81.2,66.8z"/>
				<rect id="Rectangle_89_" x="42.8" y="78" class="st10" width="39" height="10.2"/>
				<rect id="Rectangle_90_" x="44" y="78.9" class="st19" width="1.3" height="8.3"/>
				<rect id="Rectangle_91_" x="46.3" y="78.9" class="st19" width="1.3" height="8.3"/>
				<rect id="Rectangle_92_" x="48.6" y="78.9" class="st19" width="1.3" height="8.3"/>
				<rect id="Rectangle_93_" x="50.9" y="78.9" class="st19" width="1.3" height="8.3"/>
				<rect id="Rectangle_94_" x="53.2" y="78.9" class="st19" width="1.3" height="8.3"/>
				<rect id="Rectangle_95_" x="55.5" y="78.9" class="st19" width="1.3" height="8.3"/>
				<rect id="Rectangle_96_" x="61.7" y="82.6" class="st14" width="1" height="1"/>
				<path id="Path_264_" class="st15" d="M62.6,80.5c0,0.2-0.2,0.3-0.3,0.3s-0.2,0-0.3-0.1c0-0.1,0-0.2,0-0.2c0-0.2,0.2-0.3,0.3-0.3
					C62.4,80.3,62.6,80.4,62.6,80.5z"/>
				<path id="Path_265_" class="st16" d="M62.6,79.4c0,0.2-0.2,0.3-0.3,0.3c-0.2,0-0.3-0.2-0.3-0.3c0-0.1,0-0.2,0.1-0.3
					s0.2-0.1,0.3-0.1C62.5,79.1,62.6,79.3,62.6,79.4L62.6,79.4z"/>
				<path id="Path_266_" class="st15" d="M62.6,81.7c0,0.2-0.2,0.3-0.3,0.3c-0.2,0-0.3-0.2-0.3-0.3s0-0.2,0.1-0.3
					c0.1-0.1,0.2-0.1,0.3-0.1C62.5,81.4,62.6,81.5,62.6,81.7z"/>
				<path id="Path_267_" class="st17" d="M62.6,84.7c0,0.2-0.2,0.3-0.3,0.3s-0.2,0-0.3-0.1c0-0.2,0-0.2,0-0.3c0-0.2,0.2-0.3,0.3-0.3
					C62.4,84.3,62.6,84.5,62.6,84.7L62.6,84.7z"/>
				<rect id="Rectangle_97_" x="61.9" y="86.2" class="st17" width="1" height="1"/>
				<path id="Path_268_" class="st13" d="M79,80.8h-5.1v4.5H79c0.8-0.4,1.3-1.3,1.3-2.1C80.4,82.2,79.9,81.3,79,80.8z"/>
				<path id="Path_269_" class="st20" d="M81.2,79.2c0,0.3-0.3,0.5-0.5,0.5s-0.5-0.3-0.5-0.5s0.3-0.5,0.5-0.5S81.2,78.8,81.2,79.2
					L81.2,79.2z"/>
				<rect id="Rectangle_98_" x="42.8" y="90.3" class="st10" width="39" height="10.2"/>
				<rect id="Rectangle_99_" x="44" y="91.3" class="st14" width="1.3" height="8.3"/>
				<rect id="Rectangle_100_" x="46.3" y="91.3" class="st14" width="1.3" height="8.3"/>
				<rect id="Rectangle_101_" x="48.6" y="91.3" class="st14" width="1.3" height="8.3"/>
				<rect id="Rectangle_102_" x="50.9" y="91.3" class="st14" width="1.3" height="8.3"/>
				<rect id="Rectangle_103_" x="53.2" y="91.3" class="st14" width="1.3" height="8.3"/>
				<rect id="Rectangle_104_" x="55.5" y="91.3" class="st14" width="1.3" height="8.3"/>
				<rect id="Rectangle_105_" x="61.7" y="94.9" class="st14" width="1" height="1"/>
				<path id="Path_270_" class="st15" d="M62.6,92.9c0,0.2-0.2,0.3-0.3,0.3s-0.2,0-0.3-0.1c0-0.1,0-0.2,0-0.3c0-0.2,0.2-0.3,0.3-0.3
					C62.4,92.5,62.6,92.7,62.6,92.9z"/>
				<path id="Path_271_" class="st16" d="M62.6,91.8c0,0.2-0.2,0.3-0.3,0.3c-0.2,0-0.3-0.2-0.3-0.3s0-0.2,0.1-0.3
					c0.1-0.1,0.2-0.1,0.3-0.1C62.5,91.4,62.6,91.6,62.6,91.8L62.6,91.8z"/>
				<path id="Path_272_" class="st15" d="M62.6,94c0,0.2-0.2,0.3-0.3,0.3c-0.2,0-0.3-0.2-0.3-0.3c0-0.1,0-0.2,0.1-0.3
					c0.1-0.1,0.2-0.1,0.3-0.1C62.5,93.7,62.6,93.8,62.6,94z"/>
				<path id="Path_273_" class="st17" d="M62.6,96.9c0,0.2-0.2,0.3-0.3,0.3s-0.2,0-0.3-0.1c0-0.1,0-0.2,0-0.3c0-0.2,0.2-0.3,0.3-0.3
					C62.4,96.7,62.6,96.8,62.6,96.9z"/>
				<rect id="Rectangle_106_" x="61.9" y="98.5" class="st17" width="1" height="1"/>
				<path id="Path_274_" class="st14" d="M79,93.3h-5.1v4.3H79c0.8-0.4,1.3-1.3,1.3-2.1C80.4,94.5,79.9,93.7,79,93.3z"/>
				<path id="Path_275_" class="st20" d="M81.2,91.4c0,0.3-0.3,0.5-0.5,0.5s-0.5-0.3-0.5-0.5c0-0.3,0.3-0.5,0.5-0.5
					S81.2,91.2,81.2,91.4L81.2,91.4z"/>
			</g>
			<path id="Path_276_" class="st21" d="M248.6,101c-1.4-4.5-5.1-7.7-9.8-8.6c0.2-0.6,0.3-1.3,0.2-1.9c-0.1-4.3-3.3-8-7.6-8.7
				c-4.3-0.8-8.6,1.5-10.2,5.6c-2.1-1.7-4.8-2.7-7.5-2.7c-6.4,0-11.7,4.9-12,11.1l-0.5,0.9h-0.5c-3.4-2.7-8.2-2.7-11.7-0.3
				c-1.5,1-2,2.8-1.5,4.5c0.5,1.6,2.1,2.7,3.9,2.7h58.2c0.6,0,1-0.4,1.1-0.9c0.1-0.6-0.2-1.1-0.8-1.3
				C249.5,101.2,249.1,101.1,248.6,101z"/>
			<path id="Path_277_" class="st4" d="M195.7,101.5h35c5.1,0,9.9-2.7,12.5-7.2c-1.4-0.9-2.8-1.4-4.4-1.6c0.2-0.7,0.3-1.3,0.2-2
				c-0.1-4.5-3.3-8.1-7.6-9c-4.4-0.9-8.7,1.6-10.3,5.7c-2.1-1.8-4.8-2.7-7.5-2.7c-6.4,0-11.7,5-12.1,11.5l-0.5,0.9h-0.6
				c-3.4-2.7-8.2-2.8-11.8-0.3c-0.7,0.5-1.1,1.1-1.4,1.9C189.7,100.5,192.7,101.5,195.7,101.5z"/>
			<path id="Path_278_" class="st4" d="M299.3,107.5c0-3.6-2.1-6.8-5.5-8.1c-1.5-6.5-7.8-10.7-14.4-9.4c-0.9-4.5-4.3-8.1-8.7-9.1
				c-4.5-1-9.2,0.6-11.9,4.2c-0.8-0.3-1.6-0.3-2.5-0.3c-4.3,0-8.1,2.9-9.2,7c-2.3-2.1-5.4-3.2-8.6-3.2c-5.5,0-10.4,3.4-12.3,8.5
				c-2.4-0.8-5.1-0.4-7.1,1c-2.1,1.5-3.3,3.9-3.3,6.3c0,0.4,0,0.9,0,1.4c0.3,1.7,1.9,3,3.7,3h78.2c0.4,0.1,0.8-0.1,1.1-0.3
				C299,108.3,299.3,107.9,299.3,107.5z"/>
			<path id="Path_279_" class="st4" d="M279.9,104.6c5.4-0.4,9.9-4.5,10.9-9.8c-2.4-3.2-6.1-5.1-10.1-5.1c-0.8,0-1.5,0.1-2.1,0.2
				c-0.9-4.5-4.3-8.1-8.8-9.2c-4.5-1-9.2,0.6-12,4.3c-0.9-0.3-1.6-0.3-2.5-0.3c-4.4,0-8.1,2.9-9.3,7.1c-2.4-2.1-5.4-3.3-8.6-3.3
				c-5.5,0-10.5,3.4-12.3,8.6c-2.4-0.8-5.1-0.4-7.1,1c-2.1,1.5-3.3,3.9-3.3,6.3l0,0L279.9,104.6L279.9,104.6z"/>
			<g id="Notebook" transform="translate(135.000000, 47.000000)">
				<rect id="Rectangle_107_" x="44.8" y="27.6" class="st2" width="48.8" height="32.6"/>
				<rect id="Rectangle_108_" x="45.8" y="28.5" class="st4" width="46.7" height="30.2"/>
				<polygon id="Path_280_" class="st22" points="93.6,60.2 69.1,60.2 44.8,60.2 37.3,63.2 69.1,63.2 101.1,63.2 				"/>
				<polygon id="Path_281_" class="st23" points="69.1,63.2 37.3,63.2 37.3,64.4 69.1,64.4 101.1,64.4 101.1,63.2 				"/>
				<path id="Path_282_" class="st24" d="M99.6,63.8c0,0,0,0.3-0.2,0.3h-1.5c-0.1,0-0.2-0.1-0.2-0.3l0,0c0-0.1,0.1-0.2,0.2-0.2h1.5
					C99.4,63.5,99.6,63.5,99.6,63.8L99.6,63.8z"/>
				<rect id="Rectangle_109_" x="88.3" y="58.7" class="st25" width="2.6" height="1.4"/>
				<path id="Path_283_" class="st26" d="M70.5,63.8c0,0.2-0.1,0.3-0.3,0.3h-2c-0.1,0-0.2-0.1-0.2-0.3l0,0c0-0.1,0.1-0.2,0.2-0.2h2
					C70.3,63.6,70.3,63.6,70.5,63.8C70.5,63.6,70.5,63.7,70.5,63.8L70.5,63.8z"/>
			</g>
			<rect id="Rectangle_110_" x="185.1" y="76.3" class="st10" width="39.1" height="26.2"/>
			
				<linearGradient id="Rectangle_117_" gradientUnits="userSpaceOnUse" x1="102.6171" y1="243.3818" x2="102.6171" y2="244.4318" gradientTransform="matrix(35 0 0 -22 -3387 5457)">
				<stop  offset="0" style="stop-color:#0D3C4D"/>
				<stop  offset="0.98" style="stop-color:#2890B6"/>
			</linearGradient>
			<rect id="Rectangle_111_" x="186.1" y="79.5" class="st27" width="37" height="23.1"/>
			<rect id="Rectangle_112_" x="221" y="77.5" class="st28" width="1" height="1"/>
			<rect id="Rectangle_113_" x="218.9" y="77.5" class="st29" width="1" height="1"/>
			<rect id="Rectangle_114_" x="216.8" y="77.5" class="st30" width="1" height="1"/>
			<path id="Path_284_" class="st31" d="M216.2,91.9c-0.1,0-0.2,0-0.3,0l-1.1-1.1c-0.2-0.2-0.2-0.4,0-0.6c0.1-0.1,0.2-0.1,0.3-0.1
				s0.2,0,0.3,0.1l0.9,0.9l2-2c0.2-0.2,0.4-0.2,0.6,0c0.2,0.2,0.2,0.4,0,0.6l-2.3,2.2C216.4,92,216.3,92,216.2,91.9z"/>
			<path id="Shape_6_" class="st31" d="M195.8,94.2c-1.7,0.1-3.3-0.9-4-2.5c-0.7-1.5-0.3-3.4,0.9-4.6s3.1-1.6,4.6-0.9
				c1.6,0.7,2.7,2.2,2.6,3.9V91h-6.4c0.3,1,1.2,1.6,2.3,1.7c0.9,0,1.6-0.4,2.1-1.2l0,0l1.4,0.9l0,0
				C198.4,93.5,197.2,94.2,195.8,94.2L195.8,94.2z M198.1,89.2c-0.3-0.9-1.2-1.6-2.3-1.6c-1,0-2,0.7-2.3,1.6H198.1z"/>
			<path id="Path_285_" class="st31" d="M201,94.2v-1.7h3.9c0.4,0,0.8-0.3,0.8-0.9s-0.3-0.9-0.8-0.9h-1.7c-1.2-0.2-2.1-1.2-2.1-2.5
				s0.9-2.4,2.1-2.5h2.5v1.7h-2.4c-0.3,0.1-0.7,0.4-0.7,0.9c0,0.4,0.3,0.8,0.7,0.9h1.6c1.4,0,2.4,1.1,2.4,2.5s-1.1,2.5-2.4,2.5H201z
				"/>
			<path id="Shape_7_" class="st31" d="M217.8,94.2c-2.3-0.2-4.1-2-4.1-4.1s1.8-3.9,4.1-4.1c0.9,0,1.8,0.3,2.6,0.8v-3.1h1.7v6.5
				C222.1,92.4,220.2,94.2,217.8,94.2z M217.8,87.7c-0.7,0-1.4,0.3-1.9,0.8s-0.8,1.1-0.7,1.8c0,1.3,1.1,2.4,2.6,2.4s2.6-1,2.6-2.4
				c0-0.7-0.2-1.3-0.7-1.8C219.1,87.9,218.5,87.7,217.8,87.7z"/>
			<path id="Path_286_" class="st31" d="M191.1,91.3l1.4,1.8h-1.8c-2.1,0-3.5-0.9-3.5-3.3v-7.2h2.1v2.1h1.6l1.6,1.8h-3.3v3.2
				c0,1,0.5,1.5,1.5,1.5L191.1,91.3z"/>
			<path id="Path_287_" class="st31" d="M212.3,91.3l1.4,1.8h-1.8c-2.1,0-3.5-0.9-3.5-3.3v-7.1h2v2.2h1.7l1.6,1.8h-3.3v3.2
				c0,1,0.5,1.5,1.5,1.5L212.3,91.3z"/>
			<ellipse id="Oval_6_" class="st32" cx="198.3" cy="66.4" rx="13.2" ry="13.1"/>
			<ellipse id="Oval_5_" class="st32" cx="150.7" cy="129.3" rx="13.2" ry="13.1"/>
			<text transform="matrix(1.0087 0 0 1 323.2607 259.8525)" class="st1 st33 st34"> </text>
			<text transform="matrix(1.0087 0 0 1 191.7725 71.9858)" class="st4 st35 st36">A</text>
			<text transform="matrix(1.0087 0 0 1 145.0459 135.751)" class="st4 st35 st36">B</text>
			<text transform="matrix(1.0087 0 0 1 96.2188 72.3682)" class="st4 st33 st37">TESTD Hosting</text>
			<text transform="matrix(1.0087 0 0 1 175.3652 73.2256)" class="st4 st33 st38"> </text>
			<text transform="matrix(1.0087 0 0 1 107.0688 85.998)" class="st4 st33 st37">(Option A)</text>
			<text transform="matrix(1.0087 0 0 1 170.8232 147.4814)" class="st4 st33 st37">On-premises Hosting</text>
			<text transform="matrix(1.0087 0 0 1 287.0703 156.0537)" class="st4 st33 st38"> </text>
			<text transform="matrix(1.0087 0 0 1 200.8008 161.1123)" class="st4 st33 st37">(Option B)</text>
			<ellipse id="Oval_4_" class="st39" cx="60.3" cy="73.3" rx="31.7" ry="31.5"/>
			<text transform="matrix(1.0087 0 0 1 46.54 87.9043)" class="st4 st33 st40">3</text>
		</g>
	</g>
</g>
</svg>
