<?xml version="1.0" encoding="utf-8"?>
<!-- Generator: Adobe Illustrator 24.1.3, SVG Export Plug-In . SVG Version: 6.00 Build 0)  -->
<!DOCTYPE svg PUBLIC "-//W3C//DTD SVG 1.1//EN" "http://www.w3.org/Graphics/SVG/1.1/DTD/svg11.dtd" [
	<!ENTITY ns_extend "http://ns.adobe.com/Extensibility/1.0/">
	<!ENTITY ns_ai "http://ns.adobe.com/AdobeIllustrator/10.0/">
	<!ENTITY ns_graphs "http://ns.adobe.com/Graphs/1.0/">
	<!ENTITY ns_vars "http://ns.adobe.com/Variables/1.0/">
	<!ENTITY ns_imrep "http://ns.adobe.com/ImageReplacement/1.0/">
	<!ENTITY ns_sfw "http://ns.adobe.com/SaveForWeb/1.0/">
	<!ENTITY ns_custom "http://ns.adobe.com/GenericCustomNamespace/1.0/">
	<!ENTITY ns_adobe_xpath "http://ns.adobe.com/XPath/1.0/">
]>
<svg version="1.1" id="Layer_1" xmlns:x="&ns_extend;" xmlns:i="&ns_ai;" xmlns:graph="&ns_graphs;"
	 xmlns="http://www.w3.org/2000/svg" xmlns:xlink="http://www.w3.org/1999/xlink" x="0px" y="0px" viewBox="0 0 364 287"
	 style="enable-background:new 0 0 364 287;" xml:space="preserve">
<style type="text/css">
	.st0{fill:#FDCA21;}
	.st1{fill:#0F84A9;}
	.st2{fill:#FFFFFF;}
	.st3{fill:#01B3E4;}
	.st4{fill:#25DD83;}
	.st5{opacity:0.15;}
	.st6{opacity:0.2;}
	.st7{fill:url(#Path_12_);}
	.st8{fill:url(#Shape_6_);}
	.st9{fill:url(#Shape_7_);}
	.st10{fill:url(#Shape_8_);}
	.st11{fill:#B0E0F8;}
	.st12{fill:#E0A126;}
	.st13{fill-rule:evenodd;clip-rule:evenodd;fill:#FDCA21;}
	.st14{font-family:'Montserrat-Medium';}
	.st15{font-size:44.2895px;}
</style>
<metadata>
	<sfw  xmlns="&ns_sfw;">
		<slices></slices>
		<sliceSourceBounds  bottomLeftOrigin="true" height="220.3" width="299.9" x="31.5" y="40.5"></sliceSourceBounds>
	</sfw>
</metadata>
<g id="Page-1">
	<g id="How-It-Works" transform="translate(-404.000000, -810.000000)">
		<g id="_x34__x5F_request" transform="translate(349.000000, 810.000000)">
			<g id="Group-5" transform="translate(55.000000, 0.000000)">
				<path id="Path" class="st0" d="M82,71.8l231.6-1.3c10.2,0,18.3,6.9,17.8,15.1l-17.1,146.9c-0.4,8.2-9.1,14.5-19.2,14L84.8,233.3
					c-11.6-0.7-20.7-8.5-20.9-18l-3.6-125C60,80.2,69.8,71.9,82,71.8z"/>
				<path id="Path_1_" class="st1" d="M296.6,243.2h-1.2L85,230c-10-0.6-17.7-7-17.9-14.9L63.6,90.3c-0.1-3.4,1.3-6.8,3.8-9.2
					c4-3.9,9.2-5.9,14.7-5.8L313.7,74c4.4-0.2,8.7,1.5,11.8,4.6c1.8,1.9,2.9,4.5,2.8,7.1l-17.1,146.7
					C310.8,238.4,304.2,243.2,296.6,243.2z"/>
				<path id="Path_2_" class="st2" d="M275.8,94c-13.3,1.3-26.5-2.8-36.6-11.3C229,91.3,215.7,95.4,202.4,94c0,0-6.8,61.7,36.7,73.9
					C282.6,155.7,275.8,94,275.8,94z"/>
				<path id="Path_3_" class="st3" d="M239.1,160.2c-26.9-9.2-29.5-43.2-29.3-57.9c10.5-0.5,20.6-3.8,29.3-9.6
					c8.7,5.8,18.8,9.2,29.3,9.6C268.6,117.1,265.9,151.1,239.1,160.2z"/>
				<path id="Path_4_" class="st4" d="M238.5,96L238.5,96v60.9l0,0c24.2-8.2,26.6-38.9,26.6-52.2C255.6,104.2,246.4,101.2,238.5,96z
					"/>
				<path id="Shape" class="st4" d="M239.2,161.3h-0.3c-27.8-9.4-30.4-44.5-30.3-59.1v-0.7h0.8c10.5-0.5,20.6-3.9,29.2-9.7l0.4-0.3
					l0.4,0.3c8.7,5.8,18.8,9.1,29.2,9.5h0.8v0.8C269.5,116.7,267,151.8,239.2,161.3L239.2,161.3z M210.2,102.9
					c0,14.7,2.8,47.7,29,56.8c26.1-9.1,29-42.2,29-56.8c-10.3-0.6-20.3-3.9-29-9.5C230.5,99,220.5,102.3,210.2,102.9L210.2,102.9z"
					/>
				<g id="Group" transform="translate(153.000000, 51.000000)" class="st5">
					<path id="Path_5_" class="st2" d="M106.7,104.4c15.4-17.3,16.1-44.6,15.7-55.7c0-3.2-0.3-5-0.3-5c-13.3,1.3-26.5-2.8-36.7-11.3
						C75.1,40.9,61.9,45,48.6,43.7C48.6,43.7,89.2,68.2,106.7,104.4z"/>
				</g>
				<g id="Group_1_" transform="translate(154.000000, 74.000000)" class="st6">
					<path id="Path_6_" d="M91.2,110.1c8.7-2.4,16.6-7.1,22.8-13.5c-3.6-5.5-8.8-9.7-15-12.1c0.2-1.4,0.2-2.8,0.2-4.2
						C99.2,55.3,79,35,54.1,35c-1.8,0-3.6,0.1-5.4,0.3C48.8,55.5,53.2,99.3,91.2,110.1z"/>
				</g>
				
					<linearGradient id="Path_12_" gradientUnits="userSpaceOnUse" x1="144.2314" y1="278.3289" x2="145.3387" y2="278.3289" gradientTransform="matrix(136 0 0 -91.0003 -19490 25492.0918)">
					<stop  offset="0" style="stop-color:#FFFFFF"/>
					<stop  offset="0.66" style="stop-color:#FBFCFC"/>
					<stop  offset="1" style="stop-color:#F6F7F7"/>
				</linearGradient>
				<path id="Path_7_" class="st7" d="M254.6,161.5c0.6-2.8,0.8-5.6,0.8-8.4c0.1-18.2-12.4-34.2-30.3-38.3
					c-17.8-4.2-36.1,4.5-44.2,20.9c-2.8-1.2-5.7-1.8-8.7-1.8c-12.7,0-23,10.3-23,22.9c0,1.4,0.2,2.9,0.4,4.3
					c-14.2,1.4-24.8,13.6-24.1,27.8s12.4,25.4,26.6,25.5h97.1c13.8,0.1,25.4-10.3,26.7-24C277.4,176.7,268.2,164.2,254.6,161.5
					L254.6,161.5z"/>
				<path id="Shape_1_" class="st2" d="M111.6,165.7c-4.3,0-7.8,3.4-8.2,7.6c-0.3,4.3,2.7,8.2,6.9,8.8c4.2,0.7,8.2-2.1,9.2-6.3H171
					V172h-51.4C118.6,168.4,115.3,165.8,111.6,165.7L111.6,165.7z M111.6,178.6c-1.8,0-3.4-1.1-4.1-2.8s-0.3-3.6,0.9-5
					c1.3-1.3,3.2-1.7,4.9-1c1.7,0.7,2.8,2.4,2.8,4.2C116,176.5,114.1,178.5,111.6,178.6z"/>
				
					<linearGradient id="Shape_6_" gradientUnits="userSpaceOnUse" x1="138.8781" y1="277.8607" x2="138.8781" y2="278.9674" gradientTransform="matrix(15 0 0 -90 -1905.0005 25150)">
					<stop  offset="0" style="stop-color:#FFFFFF"/>
					<stop  offset="0.18" style="stop-color:#FCFEFF"/>
					<stop  offset="0.31" style="stop-color:#F3FBFE"/>
					<stop  offset="0.43" style="stop-color:#E2F6FC"/>
					<stop  offset="0.54" style="stop-color:#CCF0FA"/>
					<stop  offset="0.64" style="stop-color:#AEE7F6"/>
					<stop  offset="0.74" style="stop-color:#8ADCF3"/>
					<stop  offset="0.83" style="stop-color:#60CFEE"/>
					<stop  offset="0.92" style="stop-color:#2FC1E9"/>
					<stop  offset="1" style="stop-color:#01B3E4"/>
				</linearGradient>
				<path id="Shape_2_" class="st8" d="M178,42.8c-4.2,0.1-7.6,3.2-8.1,7.2s2.2,7.9,6.2,8.9v83.5l3.8-6.8V58.9
					c3.8-0.8,6.6-4,6.6-7.9c0-2.2-0.9-4.3-2.5-5.8S180.2,42.8,178,42.8L178,42.8z M178,55.5c-2.5,0-4.5-2-4.5-4.5
					c0-2.4,2-4.5,4.5-4.5s4.5,2,4.5,4.5C182.6,53.5,180.5,55.5,178,55.5L178,55.5z"/>
				
					<linearGradient id="Shape_7_" gradientUnits="userSpaceOnUse" x1="139.0033" y1="277.9138" x2="139.0033" y2="279.0207" gradientTransform="matrix(15 0 0 -87 -1887.999 24301)">
					<stop  offset="0" style="stop-color:#FFFFFF"/>
					<stop  offset="0.36" style="stop-color:#A6E4F5"/>
					<stop  offset="1" style="stop-color:#01B3E4"/>
				</linearGradient>
				<path id="Shape_3_" class="st9" d="M197,26.2c-4.2,0.1-7.7,3.2-8.2,7.2s2.2,7.8,6.3,8.8v80l3.9,0.3V42.3c4.1-1,6.8-4.8,6.3-8.8
					C204.8,29.4,201.2,26.4,197,26.2L197,26.2z M197,38.8c-2.5,0-4.6-2-4.6-4.5s2.1-4.5,4.6-4.5s4.6,2,4.6,4.5
					c0,1.2-0.5,2.3-1.3,3.1C199.4,38.4,198.2,38.8,197,38.8L197,38.8z"/>
				
					<linearGradient id="Shape_8_" gradientUnits="userSpaceOnUse" x1="138.6677" y1="278.3049" x2="138.6677" y2="279.4148" gradientTransform="matrix(14 0 0 -61 -1725.999 17096)">
					<stop  offset="0" style="stop-color:#FFFFFF"/>
					<stop  offset="0.14" style="stop-color:#FBFEFF"/>
					<stop  offset="0.26" style="stop-color:#F0FBFD"/>
					<stop  offset="0.39" style="stop-color:#DDF5FB"/>
					<stop  offset="0.51" style="stop-color:#C3EDF9"/>
					<stop  offset="0.63" style="stop-color:#A1E3F5"/>
					<stop  offset="0.75" style="stop-color:#77D6F1"/>
					<stop  offset="0.86" style="stop-color:#45C7EB"/>
					<stop  offset="0.98" style="stop-color:#0DB7E5"/>
					<stop  offset="1" style="stop-color:#01B3E4"/>
				</linearGradient>
				<path id="Shape_4_" class="st10" d="M215.2,51.7c-4,0.2-7.1,3.3-7.6,7.2c-0.4,4,2,7.7,5.8,8.8v51.5h3.7V67.8
					c3.9-1,6.4-4.8,6-8.8C222.5,54.9,219.1,51.8,215.2,51.7z M215.2,64.3c-1.8,0-3.4-1.1-4-2.7c-0.7-1.7-0.3-3.6,0.9-4.9
					c1.3-1.3,3.1-1.7,4.7-0.9c1.6,0.7,2.7,2.4,2.7,4.1C219.5,62.3,217.6,64.3,215.2,64.3L215.2,64.3z"/>
				<path id="Shape_5_" class="st2" d="M96.1,182.4c-4.3,0-7.8,3.4-8.2,7.6c-0.3,4.3,2.7,8.2,6.9,8.8s8.2-2.1,9.2-6.3h51.4v-3.8H104
					C103.2,185.1,99.9,182.4,96.1,182.4z M96.1,195.1c-1.8,0-3.4-1.1-4.1-2.8s-0.3-3.6,0.9-5c1.3-1.3,3.2-1.7,4.9-1
					c1.7,0.7,2.8,2.4,2.8,4.2C100.5,193.1,98.5,195.1,96.1,195.1L96.1,195.1z"/>
				<path id="Rectangle" class="st0" d="M181.9,165.7h45.6c0.6,0,1,0.4,1,1v37.8c0,0.6-0.4,1-1,1h-45.6c-0.6,0-1-0.4-1-1v-37.8
					C180.9,166.2,181.4,165.7,181.9,165.7z"/>
				<path id="Path_8_" class="st11" d="M192.3,165.7v-6.4c0-6.7,5.5-12.2,12.2-12.2h0.4c6.7,0,12.2,5.5,12.2,12.2v6.4h5.8v-6.4
					c0-9.9-8.1-18-18.1-18h-0.4c-9.9,0-18,8.1-18.1,18v6.4H192.3z"/>
				<path id="Path_9_" class="st12" d="M210.8,182c-0.1-3.2-2.6-5.9-5.9-6.2s-6.4,1.7-7.2,4.8s0.9,6.3,4,7.5v8.7h4.6V188
					C209.1,187.2,210.8,184.7,210.8,182L210.8,182z"/>
				<path id="Path_10_" class="st2" d="M220.8,197.3c0,0.9,0.8,1.7,1.7,1.7l0,0c0.9,0,1.7-0.8,1.7-1.7v-5.5c0-0.9-0.8-1.7-1.7-1.7
					l0,0c-0.9,0-1.7,0.8-1.7,1.7V197.3z"/>
				<path id="Path_11_" class="st2" d="M220.8,185.1c0,0.9,0.8,1.8,1.7,1.8l0,0c0.9,0,1.7-0.8,1.7-1.8V172c0-0.9-0.8-1.8-1.7-1.8
					l0,0c-0.9,0-1.7,0.8-1.7,1.8V185.1z"/>
				<circle id="Oval" class="st13" cx="64.7" cy="75" r="33.2"/>
				<text transform="matrix(1 0 0 1 47.1787 90.4502)" class="st2 st14 st15">4</text>
			</g>
		</g>
	</g>
</g>
</svg>
