<?xml version="1.0" encoding="UTF-8"?>
<svg width="288px" height="180px" viewBox="0 0 288 180" version="1.1" xmlns="http://www.w3.org/2000/svg" xmlns:xlink="http://www.w3.org/1999/xlink">
    <title>4_request</title>
    <defs>
        <linearGradient x1="-0.00159361836%" y1="50.0818396%" x2="99.9072269%" y2="50.0818396%" id="linearGradient-1">
            <stop stop-color="#FFFFFF" offset="0%"></stop>
            <stop stop-color="#FBFCFC" offset="66%"></stop>
            <stop stop-color="#F6F7F7" offset="100%"></stop>
        </linearGradient>
        <linearGradient x1="49.3062752%" y1="100%" x2="49.3062752%" y2="0.0010207109%" id="linearGradient-2">
            <stop stop-color="#FFFFFF" offset="0%"></stop>
            <stop stop-color="#FCFEFF" offset="18%"></stop>
            <stop stop-color="#F3FBFE" offset="31%"></stop>
            <stop stop-color="#E2F6FC" offset="43%"></stop>
            <stop stop-color="#CCF0FA" offset="54%"></stop>
            <stop stop-color="#AEE7F6" offset="64%"></stop>
            <stop stop-color="#8ADCF3" offset="74%"></stop>
            <stop stop-color="#60CFEE" offset="83%"></stop>
            <stop stop-color="#2FC1E9" offset="92%"></stop>
            <stop stop-color="#01B3E4" offset="100%"></stop>
        </linearGradient>
        <linearGradient x1="50%" y1="100%" x2="50%" y2="0%" id="linearGradient-3">
            <stop stop-color="#FFFFFF" offset="0%"></stop>
            <stop stop-color="#A6E4F5" offset="36%"></stop>
            <stop stop-color="#01B3E4" offset="100%"></stop>
        </linearGradient>
        <linearGradient x1="49.5082814%" y1="100.238095%" x2="49.5082814%" y2="0%" id="linearGradient-4">
            <stop stop-color="#FFFFFF" offset="0%"></stop>
            <stop stop-color="#FBFEFF" offset="14%"></stop>
            <stop stop-color="#F0FBFD" offset="26%"></stop>
            <stop stop-color="#DDF5FB" offset="39%"></stop>
            <stop stop-color="#C3EDF9" offset="51%"></stop>
            <stop stop-color="#A1E3F5" offset="63%"></stop>
            <stop stop-color="#77D6F1" offset="75%"></stop>
            <stop stop-color="#45C7EB" offset="86%"></stop>
            <stop stop-color="#0DB7E5" offset="98%"></stop>
            <stop stop-color="#01B3E4" offset="100%"></stop>
        </linearGradient>
    </defs>
    <g id="Page-1" stroke="none" stroke-width="1" fill="none" fill-rule="evenodd">
        <g id="375px_how_testd_works" transform="translate(-43.000000, -328.000000)">
            <g id="4_request" transform="translate(43.000000, 328.000000)">
                <g id="4_request3" transform="translate(68.080000, 0.000000)" fill-rule="nonzero">
                    <path d="M131.41245,122.34915 L130.75905,122.34915 L12.38475,114.90765 C6.75825,114.58095 2.43855,110.9691 2.3115,106.52235 L0.332416367,36.06405 C0.305154557,34.1132948 1.07944379,32.2366276 2.47485,30.87315 C4.69108609,28.7159621 7.67712403,27.5333082 10.7694,27.588 L141.0138,26.8257 C143.492162,26.7528468 145.892414,27.6972082 147.6567,29.4393 C148.717113,30.5065672 149.288671,31.9650264 149.23575,33.4686 L139.61625,116.16 C139.4166,119.6448 135.73215,122.34915 131.41245,122.34915 Z" id="Path" stroke="#FDCA21" stroke-width="1.5" fill="#0F84A9"></path>
                    <path d="M119.46975,38.2239 C112.010554,38.9669078 104.567801,36.6627311 98.8332,31.8351 C93.0900003,36.6600559 85.642913,38.9635486 78.1785,38.2239 C78.1785,38.2239 74.3307,72.963 98.8332,79.86 C123.31755,72.963 119.46975,38.2239 119.46975,38.2239 Z" id="Path" fill="#FFFFFF"></path>
                    <path d="M98.8332,75.3951 C83.6235,70.2042 82.1352,50.9652 82.22595,42.6162 C88.1534606,42.3430539 93.8946561,40.4606948 98.8332,37.1712 C103.758878,40.4594339 109.488105,42.341984 115.40415,42.6162 C115.51305,50.98335 113.9703,70.22235 98.8332,75.3951 Z" id="Path" fill="#01B3E4"></path>
                    <path d="M98.9421,39.14955 L98.9421,39.14955 L98.9421,73.4349 L98.9421,73.4349 C112.5183,68.7885 113.87955,51.52785 113.8251,44.0319 C108.513403,43.7827949 103.369185,42.0952403 98.9421,39.14955 Z" id="Path" fill="#25DD83"></path>
                    <path d="M98.8332,75.84885 L98.688,75.84885 C83.16975,70.54905 81.71775,50.87445 81.8085,42.67065 L81.8085,42.27135 L82.2078,42.27135 C88.0473387,41.9792903 93.6959332,40.0964255 98.5428,36.82635 L98.77875,36.663 L99.0147,36.82635 C103.864053,40.0786211 109.516064,41.9312245 115.3497,42.1806 L115.76715,42.1806 L115.76715,42.59805 C115.76715,50.82 114.35145,70.4946 98.88765,75.77625 L98.8332,75.84885 Z M82.66155,43.0155 C82.66155,51.2556 84.2043,69.8412 98.8332,74.94135 C113.3532,69.85935 115.00485,51.2556 114.986846,43.0155 C109.224147,42.7014154 103.648931,40.8597149 98.8332,37.6794 C94.0091629,40.8564427 88.4290394,42.6976955 82.66155,43.0155 L82.66155,43.0155 Z" id="Shape" fill="#25DD83"></path>
                    <g id="Group" opacity="0.15" transform="translate(78.045000, 30.855000)" fill="#FFFFFF">
                        <path d="M32.7672,41.5272 C41.4066,31.7625 41.8422,16.42575 41.60625,10.164 C41.60625,8.349 41.42475,7.3689 41.42475,7.3689 C33.9655537,8.1119078 26.522801,5.80773106 20.7882,0.9801 C15.0450003,5.80505586 7.59791305,8.10854857 0.1335,7.3689 C0.1335,7.3689 22.94805,21.1266 32.7672,41.5272 Z" id="Path"></path>
                    </g>
                    <g id="Group" opacity="0.2" transform="translate(78.195000, 46.375000)" fill="#000000">
                        <path d="M23.9778,42.28775 C28.8697953,40.9607785 33.3106431,38.3326496 36.828,34.6829 C34.7678702,31.6157803 31.8338872,29.2382424 28.4064,27.8585 C28.479,27.072 28.5153,26.29155 28.5153,25.51715 C28.5153,11.4835945 17.1388555,0.10715 3.1053,0.10715 C2.09241118,0.11279179 1.0805743,0.173380825 0.07425,0.28865 C0.0198,11.5961 2.5245,36.2438 23.9778,42.28775 Z" id="Path"></path>
                    </g>
                    <path d="M107.763,76.4478 C108.09316,74.8904832 108.257426,73.3025739 108.25305,71.71065 C108.303713,61.4580352 101.26483,52.5299174 91.2834999,50.1864746 C81.3021696,47.8430319 71.0254398,52.705745 66.50805,61.90965 C64.9555476,61.2617325 63.2898282,60.9285886 61.60755,60.92955 C54.4905326,60.92955 48.72105,66.6990326 48.72105,73.81605 C48.7258319,74.6262163 48.8048118,75.4342418 48.957,76.23 C41.016485,77.0133059 35.0807942,83.8788298 35.4531958,91.8491914 C35.8255974,99.819553 42.375591,106.101704 50.35455,106.141403 L104.7501,106.141403 C112.473416,106.181081 118.96316,100.346877 119.742828,92.6629121 C120.522497,84.9789477 115.336915,77.9600832 107.763,76.4478 L107.763,76.4478 Z" id="Path" fill="url(#linearGradient-1)"></path>
                    <path d="M27.1044,78.335397 C24.6948217,78.3326559 22.6895878,80.1859934 22.5029063,82.5883308 C22.3162248,84.9906682 24.0110761,87.1315331 26.3921522,87.5010624 C28.7732282,87.8705918 31.0372294,86.3441182 31.58745,83.9982 L60.62745,83.9982 L60.62745,81.8928 L31.58745,81.8928 C31.0815729,79.8218931 29.2360849,78.3574573 27.1044,78.335397 L27.1044,78.335397 Z M27.1044,85.4502 C26.0897241,85.4575529 25.170864,84.8519864 24.7774588,83.9166503 C24.3840536,82.9813142 24.5938419,81.9010348 25.3087311,81.1809274 C26.0236203,80.46082 27.1023455,80.2431808 28.0405179,80.6297733 C28.9786903,81.0163657 29.59095,81.9307975 29.59095,82.9455 C29.59095,84.3217505 28.4806144,85.4402272 27.1044,85.4502 Z" id="Shape" fill="#FFFFFF"></path>
                    <path d="M64.69305,9.2202 C62.3878479,9.26604039 60.4709886,11.007879 60.2053138,13.2981792 C59.939639,15.5884794 61.4068556,17.7228708 63.64035,18.2952 L63.64035,65.3037 L65.74575,61.47405 L65.74575,18.2589 C67.8558973,17.8353688 69.3746167,15.9825312 69.37575,13.8303 C69.3759032,12.5949421 68.8802444,11.4112072 67.9999169,10.5445281 C67.1195893,9.67784911 65.9282547,9.20074554 64.69305,9.2202 L64.69305,9.2202 Z M64.69305,16.335 C63.3097424,16.335 62.18835,15.2136076 62.18835,13.8303 C62.18835,12.4469924 63.3097424,11.3256 64.69305,11.3256 C66.0763576,11.3256 67.19775,12.4469924 67.19775,13.8303 C67.19775,15.2136076 66.0763576,16.335 64.69305,16.335 L64.69305,16.335 Z" id="Shape" fill="url(#linearGradient-2)"></path>
                    <path d="M75.0567,0 C72.7514979,0.0458403855 70.8346386,1.787679 70.5689638,4.0779792 C70.303289,6.36827941 71.7705056,8.50267081 74.004,9.075 L74.004,54.21405 L76.1094,54.35925 L76.1094,9.09315 C78.3428944,8.52082081 79.810111,6.38642941 79.5444362,4.0961292 C79.2787614,1.805829 77.3619021,0.0639903855 75.0567,0.01815 L75.0567,0 Z M75.0567,7.1148 C73.6733924,7.1148 72.552,5.99340761 72.552,4.6101 C72.552,3.22679239 73.6733924,2.1054 75.0567,2.1054 C76.4400076,2.1054 77.5614,3.22679239 77.5614,4.6101 C77.5614,5.27438774 77.2975127,5.91146799 76.8277904,6.38119035 C76.358068,6.85091272 75.7209877,7.1148 75.0567,7.1148 L75.0567,7.1148 Z" id="Shape" fill="url(#linearGradient-3)"></path>
                    <path d="M85.52925,14.0481 C83.2602054,14.1451644 81.3968397,15.8742791 81.1306941,18.1297505 C80.8645484,20.385222 82.2742686,22.5005608 84.4584,23.1231 L84.4584,52.1631 L86.58195,52.1631 L86.58195,23.1231 C88.8154444,22.5507708 90.282661,20.4163794 90.0169862,18.1260792 C89.7513114,15.835779 87.8344521,14.0939404 85.52925,14.0481 Z M85.52925,21.1629 C84.5129275,21.1702384 83.592927,20.5626941 83.2005997,19.6251203 C82.8082724,18.6875466 83.0214077,17.6058422 83.7400749,16.8871749 C84.4587422,16.1685077 85.5404466,15.9553724 86.4780203,16.3476997 C87.4155941,16.740027 88.0231384,17.6600275 88.0158,18.67635 C88.0158,20.0496336 86.9025336,21.1629 85.52925,21.1629 L85.52925,21.1629 Z" id="Shape" fill="url(#linearGradient-4)"></path>
                    <path d="M18.7554,88.118247 C16.3458217,88.1155059 14.3405878,89.9688434 14.1539063,92.3711808 C13.9672248,94.7735182 15.6620761,96.9143831 18.0431522,97.2839124 C20.4242282,97.6534418 22.6882294,96.1269682 23.23845,93.78105 L52.27845,93.78105 L52.27845,91.67565 L23.23845,91.67565 C22.7383448,89.6010513 20.8893685,88.1338475 18.7554,88.118247 Z M18.7554,95.23305 C17.7407241,95.2404029 16.821864,94.6348364 16.4284588,93.6995003 C16.0350536,92.7641642 16.2448419,91.6838848 16.9597311,90.9637774 C17.6746203,90.24367 18.7533455,90.0260308 19.6915179,90.4126233 C20.6296903,90.7992157 21.24195,91.7136475 21.24195,92.72835 C21.24195,94.1046005 20.1316144,95.2230772 18.7554,95.23305 L18.7554,95.23305 Z" id="Shape" fill="#FFFFFF"></path>
                    <rect id="Rectangle" fill="#FDCA21" x="66.18135" y="78.35355" width="26.66235" height="22.5423" rx="1.65165"></rect>
                    <path d="M72.46125,78.3354 L72.46125,74.7054 C72.471224,70.8803831 75.5695331,67.782074 79.39455,67.7721 L79.64865,67.7721 C83.4736669,67.782074 86.571976,70.8803831 86.58195,74.7054 L86.58195,78.3354 L89.88525,78.3354 L89.88525,74.7054 C89.8752386,69.0589712 85.2950876,64.48695 79.64865,64.48695 L79.39455,64.48695 C73.7481124,64.48695 69.1679614,69.0589712 69.15795,74.7054 L69.15795,78.3354 L72.46125,78.3354 Z" id="Path" fill="#B0E0F8"></path>
                    <path d="M83.20605,87.61005 C83.1713243,85.7888233 81.7922227,84.2753603 79.9820573,84.0719542 C78.171892,83.8685481 76.4912924,85.0381961 76.0532383,86.8062971 C75.6151841,88.5743981 76.5553458,90.3933504 78.2511,91.05855 L78.2511,95.9772 L80.7921,95.9772 L80.7921,91.05855 C82.2491402,90.5405607 83.2180671,89.1563794 83.20605,87.61005 L83.20605,87.61005 Z" id="Path" fill="#E0A126"></path>
                    <path d="M88.94145,96.21315 C88.94145,96.7444203 89.3721297,97.1751 89.9034,97.1751 L89.9034,97.1751 C90.4346703,97.1751 90.86535,96.7444203 90.86535,96.21315 L90.86535,92.98245 C90.86535,92.4511797 90.4346703,92.0205 89.9034,92.0205 L89.9034,92.0205 C89.3721297,92.0205 88.94145,92.4511797 88.94145,92.98245 L88.94145,96.21315 Z" id="Path" fill="#FFFFFF"></path>
                    <path d="M88.94145,89.17095 C88.94145,89.7022203 89.3721297,90.1329 89.9034,90.1329 L89.9034,90.1329 C90.4346703,90.1329 90.86535,89.7022203 90.86535,89.17095 L90.86535,81.91095 C90.86535,81.3796797 90.4346703,80.949 89.9034,80.949 L89.9034,80.949 C89.3721297,80.949 88.94145,81.3796797 88.94145,81.91095 L88.94145,89.17095 Z" id="Path" fill="#FFFFFF"></path>
                </g>
                <circle id="Oval" fill="#FDCA21" cx="75" cy="33" r="12"></circle>
                <text id="1" font-family="Montserrat-SemiBold, Montserrat" font-size="18" font-weight="500" fill="#FFFFFF">
                    <tspan x="68.889" y="40">4</tspan>
                </text>
            </g>
        </g>
    </g>
</svg>