<?xml version="1.0" encoding="UTF-8"?>
<svg width="182px" height="165px" viewBox="0 0 182 165" version="1.1" xmlns="http://www.w3.org/2000/svg" xmlns:xlink="http://www.w3.org/1999/xlink">
    <title>6_permission3</title>
    <g id="Page-1" stroke="none" stroke-width="1" fill="none" fill-rule="evenodd">
        <g id="375px_how_testd_works" transform="translate(-96.000000, -339.000000)">
            <g id="6_permission3" transform="translate(96.000000, 339.000000)">
                <g transform="translate(16.020000, 0.000000)" fill-rule="nonzero">
                    <path d="M131.721,110.078 C131.5395,110.078 131.358,110.078 130.995,110.078 L12.657,102.6365 C7.0305,102.2735 2.6745,98.6435 2.493,94.2875 L0.678,23.8655 C0.678,22.0505 1.404,20.2355 2.856,18.602 C4.8525,16.6055 7.7565,15.335 11.0235,15.335 L141.3405,14.609 C144.063,14.609 146.4225,15.5165 148.056,17.15 C148.782,18.0575 149.6895,19.328 149.6895,21.143 L140.07,103.907 C139.707,107.3555 136.077,110.078 131.721,110.078 Z" id="XMLID_1_" stroke="#FDCA21" stroke-width="1.5" fill="#0F84A9"></path>
                    <g id="Group" transform="translate(51.135000, 53.450000)">
                        <g transform="translate(14.520000, 0.000000)">
                            <circle id="Oval" fill="#FFCA47" cx="9.9825" cy="9.6195" r="8.712"></circle>
                            <path d="M9.9825,1.2705 C14.52,1.2705 18.3315,5.082 18.3315,9.6195 C18.3315,14.157 14.52,17.9685 9.9825,17.9685 C5.445,17.9685 1.6335,14.157 1.6335,9.6195 C1.6335,5.082 5.445,1.2705 9.9825,1.2705 M9.9825,0.363 C4.9005,0.363 0.726,4.5375 0.726,9.6195 C0.726,14.7015 4.9005,18.876 9.9825,18.876 C15.0645,18.876 19.239,14.7015 19.239,9.6195 C19.239,4.5375 15.0645,0.363 9.9825,0.363 L9.9825,0.363 Z" id="Shape" fill="#FFFFFF"></path>
                        </g>
                        <g transform="translate(0.000000, 21.465000)">
                            <path d="M43.3785,45.69 C41.019,45.69 39.204,43.3305 39.204,40.608 L39.204,13.383 C39.204,13.2015 38.6595,12.1125 37.5705,12.1125 C36.4815,12.1125 35.937,13.2015 35.937,13.2015 L35.937,45.69 L13.2495,45.69 L13.2495,13.2015 C13.2495,13.02 12.705,11.931 11.616,11.931 C10.7085,11.931 10.164,12.4755 9.9825,13.02 L9.9825,13.02 L9.9825,40.4265 C9.9825,43.3305 8.1675,45.5085 5.808,45.5085 C3.4485,45.5085 1.6335,43.149 1.6335,40.4265 L1.6335,11.0235 C1.6335,6.6675 5.445,0.4965 11.4345,0.4965 L37.752,0.4965 C43.7415,0.4965 47.553,6.6675 47.553,11.0235 L47.553,40.4265 C47.553,43.3305 45.5565,45.69 43.3785,45.69 Z" id="Path" fill="#FFCA47"></path>
                            <path d="M37.752,1.041 C43.56,1.041 47.19,7.0305 47.19,11.0235 L47.19,40.4265 C47.19,42.9675 45.5565,45.1455 43.3785,45.1455 C41.382,45.1455 39.567,42.9675 39.567,40.4265 L39.567,13.2015 L39.567,13.02 L39.567,12.8385 C39.3855,12.294 38.6595,11.3865 37.5705,11.3865 C36.4815,11.3865 35.7555,12.294 35.574,12.8385 L35.574,13.02 L35.574,13.2015 L35.574,45.1455 L13.794,45.1455 L13.794,13.2015 L13.794,13.02 L13.794,12.8385 C13.6125,12.294 12.8865,11.3865 11.7975,11.3865 C10.7085,11.3865 9.9825,12.1125 9.801,12.8385 L9.801,13.02 L9.801,13.2015 L9.801,40.4265 C9.801,42.9675 8.1675,45.1455 5.9895,45.1455 C3.993,45.1455 2.178,42.9675 2.178,40.4265 L2.178,11.0235 C2.178,6.849 5.808,1.041 11.616,1.041 L37.752,1.041 M37.752,0.1335 L11.253,0.1335 C5.082,0.1335 0.9075,6.486 0.9075,11.0235 L0.9075,40.4265 C0.9075,43.512 3.0855,46.053 5.6265,46.053 C8.1675,46.053 10.3455,43.512 10.3455,40.4265 L10.3455,13.2015 C10.3455,13.2015 10.7085,12.294 11.616,12.294 C12.5235,12.294 12.8865,13.2015 12.8865,13.2015 L12.8865,46.053 L36.3,46.053 L36.3,13.2015 C36.3,13.2015 36.663,12.294 37.5705,12.294 C38.478,12.294 38.841,13.2015 38.841,13.2015 L38.841,40.4265 C38.841,43.512 41.019,46.053 43.56,46.053 C46.101,46.053 48.279,43.512 48.279,40.4265 L48.279,11.0235 C47.916,6.486 43.923,0.1335 37.752,0.1335 L37.752,0.1335 Z" id="Shape" fill="#FFFFFF"></path>
                        </g>
                    </g>
                    <g id="Group" transform="translate(14.520000, 0.000000)">
                        <g transform="translate(74.730000, 0.000000)">
                            <g transform="translate(4.630000, 0.000000)">
                                <path d="M3.1745,6.26 C1.541,6.26 0.2705,4.9895 0.2705,3.356 C0.2705,1.7225 1.541,0.452 3.1745,0.452 C4.808,0.452 6.0785,1.7225 6.0785,3.356 C6.0785,4.9895 4.808,6.26 3.1745,6.26 Z" id="Path" fill="#FFCA47"></path>
                                <path d="M3.1745,0.815 C4.6265,0.815 5.897,2.0855 5.897,3.5375 C5.897,4.9895 4.6265,6.26 3.1745,6.26 C1.7225,6.26 0.452,4.9895 0.452,3.5375 C0.452,1.904 1.7225,0.815 3.1745,0.815 M3.1745,0.2705 C1.541,0.2705 0.089,1.7225 0.089,3.356 C0.089,4.9895 1.541,6.4415 3.1745,6.4415 C4.808,6.4415 6.26,4.9895 6.26,3.356 C6.26,1.7225 4.808,0.2705 3.1745,0.2705 L3.1745,0.2705 Z" id="Shape" fill="#FFFFFF"></path>
                            </g>
                            <g transform="translate(0.000000, 6.260000)">
                                <path d="M9.801,26.3175 C8.712,26.3175 7.986,25.41 7.986,24.5025 L7.986,14.52 C7.986,14.3385 7.8045,14.3385 7.8045,14.3385 L7.623,24.321 C7.623,25.41 6.7155,26.136 5.808,26.136 C4.9005,26.136 3.993,25.2285 3.993,24.321 L3.993,4.356 L3.993,12.1605 C3.993,13.2495 3.267,13.9755 2.3595,13.9755 C1.452,13.9755 0.726,13.068 0.726,12.1605 L0.726,3.63 C0.726,2.178 1.9965,0.1815 3.993,0.1815 L11.616,0.1815 C13.6125,0.1815 14.883,2.178 14.883,3.63 L14.883,11.979 C14.883,13.068 14.157,13.794 13.2495,13.794 C12.342,13.794 11.616,12.8865 11.616,11.979 L11.616,4.356 L11.616,24.684 C11.616,25.5915 10.7085,26.3175 9.801,26.3175 Z" id="Path" fill="#FFCA47"></path>
                                <path d="M11.616,0.5445 C13.431,0.5445 14.52,2.3595 14.52,3.63 L14.52,11.979 C14.52,12.8865 13.9755,13.6125 13.2495,13.6125 C12.5235,13.6125 11.979,12.8865 11.979,11.979 L11.979,4.356 C11.979,4.356 11.979,4.1745 11.7975,4.1745 C11.616,4.1745 11.616,4.356 11.616,4.356 L11.616,24.684 C11.616,25.5915 10.89,26.3175 9.9825,26.3175 C9.075,26.3175 8.349,25.5915 8.349,24.684 L8.349,14.7015 C8.349,14.7015 8.349,14.3385 7.986,14.3385 C7.623,14.3385 7.623,14.7015 7.623,14.7015 L7.623,24.684 C7.623,25.5915 6.897,26.3175 5.9895,26.3175 C5.082,26.3175 4.356,25.5915 4.356,24.684 L4.356,4.356 C4.356,4.356 4.356,4.1745 4.1745,4.1745 C3.993,4.1745 3.993,4.356 3.993,4.356 L3.993,12.1605 C3.993,13.068 3.4485,13.794 2.7225,13.794 C1.9965,13.794 1.452,13.068 1.452,12.1605 L1.452,3.63 C1.452,2.3595 2.541,0.5445 4.356,0.5445 L11.616,0.5445 M11.616,0 L3.993,0 C1.815,0 0.5445,2.178 0.5445,3.63 L0.5445,11.979 C0.5445,13.068 1.2705,13.9755 2.3595,13.9755 C2.904,13.9755 3.4485,13.6125 3.8115,13.2495 L3.8115,24.321 C3.8115,25.41 4.719,26.3175 5.808,26.3175 C6.7155,26.3175 7.4415,25.773 7.8045,24.8655 C7.986,25.773 8.8935,26.3175 9.801,26.3175 C10.89,26.3175 11.7975,25.41 11.7975,24.321 L11.7975,13.2495 C12.1605,13.6125 12.705,13.9755 13.2495,13.9755 C14.157,13.9755 15.0645,13.068 15.0645,11.979 L15.0645,3.63 C15.0645,2.178 13.6125,0 11.616,0 L11.616,0 Z" id="Shape" fill="#FFFFFF"></path>
                            </g>
                        </g>
                        <g transform="translate(32.170000, 0.000000)">
                            <g transform="translate(4.445000, 0.000000)">
                                <path d="M3.0855,6.26 C1.452,6.26 0.1815,4.9895 0.1815,3.356 C0.1815,1.7225 1.452,0.452 3.0855,0.452 C4.719,0.452 5.9895,1.7225 5.9895,3.356 C5.9895,4.9895 4.719,6.26 3.0855,6.26 Z" id="Path" fill="#FFCA47"></path>
                                <path d="M3.0855,0.815 C4.5375,0.815 5.808,2.0855 5.808,3.5375 C5.808,4.9895 4.5375,6.26 3.0855,6.26 C1.6335,6.26 0.363,4.9895 0.363,3.5375 C0.363,1.904 1.6335,0.815 3.0855,0.815 M3.0855,0.2705 C1.452,0.2705 0,1.7225 0,3.356 C0,4.9895 1.452,6.4415 3.0855,6.4415 C4.719,6.4415 6.171,4.9895 6.171,3.356 C6.171,1.7225 4.719,0.2705 3.0855,0.2705 L3.0855,0.2705 Z" id="Shape" fill="#FFFFFF"></path>
                            </g>
                            <g transform="translate(0.000000, 6.260000)">
                                <path d="M9.527,26.3175 C8.438,26.3175 7.712,25.41 7.712,24.5025 L7.712,14.52 C7.712,14.52 7.5305,14.52 7.5305,14.52 C7.5305,14.52 7.5305,14.52 7.5305,14.52 L7.5305,24.5025 C7.5305,25.5915 6.623,26.3175 5.7155,26.3175 C4.6265,26.3175 3.9005,25.41 3.9005,24.5025 L3.9005,4.356 L3.9005,12.1605 C3.9005,13.2495 3.1745,13.9755 2.267,13.9755 C1.3595,13.9755 0.6335,13.068 0.6335,12.1605 L0.6335,3.63 C0.6335,2.178 1.904,0.1815 3.9005,0.1815 L11.5235,0.1815 C13.52,0.1815 14.7905,2.178 14.7905,3.63 L14.7905,11.979 C14.7905,13.068 14.0645,13.794 13.157,13.794 C12.2495,13.794 11.5235,12.8865 11.5235,11.979 L11.5235,4.356 L11.5235,24.684 C11.342,25.5915 10.4345,26.3175 9.527,26.3175 Z" id="Path" fill="#FFCA47"></path>
                                <path d="M11.342,0.5445 C13.157,0.5445 14.246,2.3595 14.246,3.63 L14.246,11.979 C14.246,12.8865 13.7015,13.6125 12.9755,13.6125 C12.2495,13.6125 11.705,12.8865 11.705,11.979 L11.705,4.356 C11.705,4.356 11.705,4.1745 11.5235,4.1745 C11.342,4.1745 11.342,4.356 11.342,4.356 L11.342,24.684 C11.342,25.5915 10.616,26.3175 9.7085,26.3175 C8.801,26.3175 8.075,25.5915 8.075,24.684 L8.075,14.7015 C8.075,14.7015 8.075,14.3385 7.712,14.3385 C7.349,14.3385 7.349,14.7015 7.349,14.7015 L7.349,24.684 C7.349,25.5915 6.623,26.3175 5.7155,26.3175 C4.808,26.3175 4.082,25.5915 4.082,24.684 L4.082,4.356 C4.082,4.356 4.082,4.1745 3.9005,4.1745 C3.719,4.1745 3.719,4.356 3.719,4.356 L3.719,12.1605 C3.719,13.068 3.1745,13.794 2.4485,13.794 C1.7225,13.794 1.178,13.068 1.178,12.1605 L1.178,3.63 C1.178,2.3595 2.267,0.5445 4.082,0.5445 L11.342,0.5445 M11.342,0 L3.719,0 C1.541,0 0.2705,2.178 0.2705,3.63 L0.2705,11.979 C0.2705,13.068 0.9965,13.9755 2.0855,13.9755 C2.63,13.9755 3.1745,13.6125 3.5375,13.2495 L3.5375,24.321 C3.5375,25.41 4.445,26.3175 5.534,26.3175 C6.4415,26.3175 7.1675,25.773 7.5305,24.8655 C7.712,25.773 8.6195,26.3175 9.527,26.3175 C10.616,26.3175 11.5235,25.41 11.5235,24.321 L11.5235,13.068 C11.8865,13.431 12.431,13.794 12.9755,13.794 C13.883,13.794 14.7905,12.8865 14.7905,11.7975 L14.7905,3.63 C14.609,2.178 13.3385,0 11.342,0 L11.342,0 Z" id="Shape" fill="#FFFFFF"></path>
                            </g>
                        </g>
                        <g transform="translate(107.400000, 32.670000)">
                            <g transform="translate(3.630000, 0.000000)">
                                <path d="M3.8115,6.4415 C2.178,6.4415 0.9075,5.171 0.9075,3.5375 C0.9075,1.904 2.178,0.6335 3.8115,0.6335 C5.445,0.6335 6.7155,1.904 6.7155,3.5375 C6.7155,5.171 5.445,6.4415 3.8115,6.4415 Z" id="Path" fill="#FFCA47"></path>
                                <path d="M3.8115,0.815 C5.2635,0.815 6.534,2.0855 6.534,3.5375 C6.534,4.9895 5.2635,6.26 3.8115,6.26 C2.3595,6.26 1.089,4.9895 1.089,3.5375 C1.089,2.0855 2.3595,0.815 3.8115,0.815 M3.8115,0.452 C2.178,0.452 0.726,1.904 0.726,3.5375 C0.726,5.171 2.178,6.623 3.8115,6.623 C5.445,6.623 6.897,5.171 6.897,3.5375 C6.897,1.7225 5.6265,0.452 3.8115,0.452 L3.8115,0.452 Z" id="Shape" fill="#FFFFFF"></path>
                            </g>
                            <g transform="translate(0.000000, 6.260000)">
                                <path d="M9.438,26.499 C8.349,26.499 7.623,25.5915 7.623,24.684 L7.623,14.7015 L7.0785,14.7015 L7.26,14.7015 L7.26,24.684 C7.26,25.773 6.3525,26.499 5.445,26.499 C4.5375,26.499 3.63,25.5915 3.63,24.684 L3.63,4.356 L3.63,12.1605 C3.63,13.2495 2.904,13.9755 1.9965,13.9755 C1.089,13.9755 0.363,13.068 0.363,12.1605 L0.363,3.8115 C0.363,2.3595 1.6335,0.363 3.63,0.363 L11.253,0.363 C13.2495,0.363 14.52,2.3595 14.52,3.8115 L14.52,12.1605 C14.52,13.2495 13.794,13.9755 12.8865,13.9755 C11.979,13.9755 11.253,13.068 11.253,12.1605 L11.253,4.356 L11.253,24.684 C11.253,25.773 10.3455,26.499 9.438,26.499 Z" id="Path" fill="#FFCA47"></path>
                                <path d="M11.253,0.726 C13.068,0.726 14.157,2.541 14.157,3.8115 L14.157,12.1605 C14.157,13.068 13.6125,13.794 12.8865,13.794 C12.1605,13.794 11.616,13.068 11.616,12.1605 L11.616,4.356 C11.616,4.356 11.616,4.1745 11.4345,4.1745 C11.253,4.1745 11.253,4.356 11.253,4.356 L11.253,24.684 C11.253,25.5915 10.527,26.3175 9.6195,26.3175 C8.712,26.3175 7.986,25.5915 7.986,24.684 L7.986,14.7015 C7.986,14.7015 7.986,14.3385 7.623,14.3385 C7.26,14.3385 7.26,14.7015 7.26,14.7015 L7.26,24.684 C7.26,25.5915 6.534,26.3175 5.6265,26.3175 C4.719,26.3175 3.993,25.5915 3.993,24.684 L3.993,4.356 C3.993,4.356 3.993,4.1745 3.8115,4.1745 C3.63,4.1745 3.63,4.356 3.63,4.356 L3.63,12.1605 C3.63,13.068 3.0855,13.794 2.3595,13.794 C1.6335,13.794 1.089,13.068 1.089,12.1605 L1.089,3.8115 C1.089,2.541 2.178,0.726 3.993,0.726 L11.253,0.726 M11.253,0.1815 L3.63,0.1815 C1.452,0.1815 0.1815,2.3595 0.1815,3.8115 L0.1815,12.1605 C0.1815,13.2495 0.9075,14.157 1.9965,14.157 C2.541,14.157 3.0855,13.794 3.4485,13.431 L3.4485,24.5025 C3.4485,25.5915 4.356,26.499 5.445,26.499 C6.3525,26.499 7.0785,25.9545 7.4415,25.047 C7.623,25.9545 8.5305,26.499 9.438,26.499 C10.527,26.499 11.4345,25.5915 11.4345,24.5025 L11.4345,13.431 C11.7975,13.794 12.342,14.157 12.8865,14.157 C13.794,14.157 14.7015,13.2495 14.7015,12.1605 L14.7015,3.8115 C14.7015,2.3595 13.431,0.1815 11.253,0.1815 L11.253,0.1815 Z" id="Shape" fill="#FFFFFF"></path>
                            </g>
                        </g>
                        <g transform="translate(0.000000, 32.670000)">
                            <g transform="translate(3.945000, 0.000000)">
                                <path d="M3.4485,6.4415 C1.815,6.4415 0.5445,5.171 0.5445,3.5375 C0.5445,1.904 1.815,0.6335 3.4485,0.6335 C5.082,0.6335 6.3525,1.904 6.3525,3.5375 C6.3525,5.171 5.082,6.4415 3.4485,6.4415 Z" id="Path" fill="#FFCA47"></path>
                                <path d="M3.4485,0.815 C4.9005,0.815 6.171,2.0855 6.171,3.5375 C6.171,4.9895 4.9005,6.26 3.4485,6.26 C1.9965,6.26 0.726,4.9895 0.726,3.5375 C0.726,2.0855 1.9965,0.815 3.4485,0.815 M3.4485,0.452 C1.815,0.452 0.363,1.904 0.363,3.5375 C0.363,5.171 1.815,6.623 3.4485,6.623 C5.082,6.623 6.534,5.171 6.534,3.5375 C6.534,1.7225 5.082,0.452 3.4485,0.452 L3.4485,0.452 Z" id="Shape" fill="#FFFFFF"></path>
                            </g>
                            <g transform="translate(0.000000, 6.260000)">
                                <path d="M9.39,26.499 C8.301,26.499 7.575,25.5915 7.575,24.684 L7.575,14.7015 L7.212,14.7015 L7.212,24.684 C7.212,25.773 6.3045,26.499 5.397,26.499 C4.308,26.499 3.582,25.5915 3.582,24.684 L3.582,4.356 L3.582,12.1605 C3.582,13.2495 2.856,13.9755 1.9485,13.9755 C1.041,13.9755 0.315,13.068 0.315,12.1605 L0.315,3.8115 C0.315,2.3595 1.5855,0.363 3.582,0.363 L11.205,0.363 C13.2015,0.363 14.472,2.3595 14.472,3.8115 L14.472,12.1605 C14.472,13.2495 13.746,13.9755 12.8385,13.9755 C11.931,13.9755 11.205,13.068 11.205,12.1605 L11.205,4.356 L11.205,24.684 C11.205,25.773 10.2975,26.499 9.39,26.499 Z" id="Path" fill="#FFCA47"></path>
                                <path d="M11.205,0.726 C13.02,0.726 14.109,2.541 14.109,3.8115 L14.109,12.1605 C14.109,13.068 13.5645,13.794 12.8385,13.794 C12.1125,13.794 11.568,13.068 11.568,12.1605 L11.568,4.356 C11.568,4.356 11.568,4.1745 11.3865,4.1745 C11.205,4.1745 11.205,4.356 11.205,4.356 L11.205,24.684 C11.205,25.5915 10.479,26.3175 9.5715,26.3175 C8.664,26.3175 7.938,25.5915 7.938,24.684 L7.938,14.7015 C7.938,14.7015 7.938,14.3385 7.575,14.3385 C7.212,14.3385 7.212,14.7015 7.212,14.7015 L7.212,24.684 C7.212,25.5915 6.486,26.3175 5.5785,26.3175 C4.671,26.3175 3.945,25.5915 3.945,24.684 L3.945,4.356 C3.945,4.356 3.945,4.1745 3.7635,4.1745 C3.582,4.1745 3.582,4.356 3.582,4.356 L3.582,12.1605 C3.582,13.068 3.0375,13.794 2.3115,13.794 C1.5855,13.794 1.041,13.068 1.041,12.1605 L1.041,3.8115 C1.041,2.541 2.13,0.726 3.945,0.726 L11.205,0.726 M11.205,0.1815 L3.582,0.1815 C1.404,0.1815 0.1335,2.3595 0.1335,3.8115 L0.1335,12.1605 C0.1335,13.2495 0.8595,14.157 1.9485,14.157 C2.493,14.157 3.0375,13.794 3.4005,13.431 L3.4005,24.5025 C3.4005,25.5915 4.308,26.499 5.397,26.499 C6.3045,26.499 7.0305,25.9545 7.3935,25.047 C7.575,25.9545 8.4825,26.499 9.39,26.499 C10.479,26.499 11.3865,25.5915 11.3865,24.5025 L11.3865,13.431 C11.7495,13.794 12.294,14.157 12.8385,14.157 C13.746,14.157 14.6535,13.2495 14.6535,12.1605 L14.6535,3.8115 C14.472,2.3595 13.2015,0.1815 11.205,0.1815 L11.205,0.1815 Z" id="Shape" fill="#FFFFFF"></path>
                            </g>
                        </g>
                    </g>
                    <polygon id="Path" fill="#FFFFFF" points="132.447 74.3225 121.92 65.6105 121.92 69.422 103.407 69.422 103.407 79.223 121.92 79.223 121.92 82.853"></polygon>
                    <polygon id="Path" fill="#FFFFFF" points="47.868 69.422 29.355 69.422 29.355 65.6105 18.828 74.3225 29.355 82.853 29.355 79.223 47.868 79.223"></polygon>
                    <polygon id="Path" fill="#FFFFFF" points="57.306 50.183 44.238 37.115 46.9605 34.574 33.348 33.3035 34.6185 46.7345 37.341 44.1935 50.409 57.2615"></polygon>
                    <polygon id="Path" fill="#FFFFFF" points="93.969 50.183 107.037 37.115 104.3145 34.574 117.927 33.3035 116.6565 46.7345 113.934 44.1935 100.866 57.2615"></polygon>
                    <polygon id="Path" fill="#FFFFFF" points="75.6375 17.15 66.9255 27.677 70.737 27.677 70.737 41.2895 80.538 41.2895 80.538 27.677 84.168 27.677"></polygon>
                </g>
                <circle id="Oval" fill="#FDCA21" cx="22" cy="16" r="12"></circle>
                <text id="1" font-family="Montserrat-SemiBold, Montserrat" font-size="18" font-weight="500" fill="#FFFFFF">
                    <tspan x="16.357" y="22">6</tspan>
                </text>
            </g>
        </g>
    </g>
</svg>