<?xml version="1.0" encoding="utf-8"?>
<!-- Generator: Adobe Illustrator 24.1.3, SVG Export Plug-In . SVG Version: 6.00 Build 0)  -->
<!DOCTYPE svg PUBLIC "-//W3C//DTD SVG 1.1//EN" "http://www.w3.org/Graphics/SVG/1.1/DTD/svg11.dtd" [
	<!ENTITY ns_extend "http://ns.adobe.com/Extensibility/1.0/">
	<!ENTITY ns_ai "http://ns.adobe.com/AdobeIllustrator/10.0/">
	<!ENTITY ns_graphs "http://ns.adobe.com/Graphs/1.0/">
	<!ENTITY ns_vars "http://ns.adobe.com/Variables/1.0/">
	<!ENTITY ns_imrep "http://ns.adobe.com/ImageReplacement/1.0/">
	<!ENTITY ns_sfw "http://ns.adobe.com/SaveForWeb/1.0/">
	<!ENTITY ns_custom "http://ns.adobe.com/GenericCustomNamespace/1.0/">
	<!ENTITY ns_adobe_xpath "http://ns.adobe.com/XPath/1.0/">
]>
<svg version="1.1" id="Layer_1" xmlns:x="&ns_extend;" xmlns:i="&ns_ai;" xmlns:graph="&ns_graphs;"
	 xmlns="http://www.w3.org/2000/svg" xmlns:xlink="http://www.w3.org/1999/xlink" x="0px" y="0px" viewBox="0 0 364 287"
	 style="enable-background:new 0 0 364 287;" xml:space="preserve">
<style type="text/css">
	.st0{fill:#FDCA21;}
	.st1{fill:#0F84A9;}
	.st2{fill-rule:evenodd;clip-rule:evenodd;fill:#FDCA21;}
	.st3{fill:#FFFFFF;}
	.st4{font-family:'Montserrat-Medium';}
	.st5{font-size:45.6343px;}
	.st6{fill:#FFCA47;}
</style>
<metadata>
	<sfw  xmlns="&ns_sfw;">
		<slices></slices>
		<sliceSourceBounds  bottomLeftOrigin="true" height="227.2" width="300" x="26.9" y="29.9"></sliceSourceBounds>
	</sfw>
</metadata>
<g id="Page-1">
	<g id="How-It-Works" transform="translate(-1260.000000, -824.000000)">
		<g id="_x36__x5F_permission3" transform="translate(1260.000000, 824.000000)">
			<g id="Group-7">
				<path id="Path" class="st0" d="M72.8,63.3l236-1.3c10.5,0,18.8,6.9,18.1,15.5L309.5,228c-0.3,8.3-9.2,14.8-19.3,14.1L75.8,228.7
					c-11.8-0.7-21.1-8.6-21.4-18.5L50.9,82.1C50.5,71.8,60.4,63.3,72.8,63.3z"/>
				<path id="XMLID_1_" class="st1" d="M292.2,236.5c-0.3,0-0.7,0-1.3,0L77.1,223c-10.1-0.6-18.1-7.2-18.3-15L55.5,81
					c0-3.2,1.3-6.6,3.9-9.5c3.6-3.6,8.9-5.9,14.7-5.9l235.4-1.3c4.9,0,9.2,1.6,12.1,4.6c1.3,1.6,3,3.9,3,7.2l-17.4,149.3
					C306.7,231.6,300.1,236.5,292.2,236.5z"/>
				<circle id="Oval" class="st2" cx="61.2" cy="64.2" r="34.3"/>
				<text transform="matrix(1 0 0 1 45.2944 81.2158)" class="st3 st4 st5">6</text>
				<g id="Group" transform="translate(105.000000, 93.000000)">
					<g transform="translate(22.954733, 0.000000)">
						<ellipse id="Oval_1_" class="st6" cx="62" cy="60.3" rx="15.9" ry="15.6"/>
						<path id="Shape" class="st3" d="M62,45.4c8.3,0,15.2,6.8,15.2,14.9s-6.9,15-15.2,15s-15.2-6.8-15.2-14.9S53.7,45.4,62,45.4
							 M62,43.8c-9.3,0-16.9,7.5-16.9,16.5S52.7,76.9,62,76.9s16.9-7.5,16.9-16.5S71.2,43.8,62,43.8L62,43.8z"/>
					</g>
					<g transform="translate(0.000000, 33.757476)">
						<path id="Path_1_" class="st6" d="M119.3,129.6c-4.3,0-7.6-4.3-7.6-9.1V71.7c0-0.3-1-2.3-3-2.3s-3,2-3,2v58.1H64.4v-58
							c0-0.3-1-2.3-3-2.3c-1.6,0-2.6,0.9-3,2l0,0v49.1c0,5.2-3.3,9.1-7.6,9.1s-7.6-4.3-7.6-9.1V67.5c0-7.8,6.9-18.8,17.8-18.8h48
							c10.9,0,17.8,11.1,17.8,18.8v52.6C126.9,125.3,123.2,129.6,119.3,129.6z"/>
						<path id="Shape_1_" class="st3" d="M109,49.6c10.6,0,17.2,10.7,17.2,17.9v52.6c0,4.5-3,8.4-6.9,8.4c-3.7,0-6.9-3.9-6.9-8.4
							V71.4v-0.3v-0.3c-0.3-0.9-1.6-2.6-3.7-2.6c-2,0-3.3,1.6-3.7,2.6v0.3v0.3v57.2H65.4V71.4v-0.3v-0.3c-0.3-0.9-1.6-2.6-3.7-2.6
							c-2,0-3.3,1.3-3.7,2.6v0.3v0.3v48.8c0,4.5-3,8.4-6.9,8.4c-3.7,0-6.9-3.9-6.9-8.4V67.5c0-7.5,6.6-17.9,17.2-17.9H109 M109,48
							H60.8C49.5,48,42,59.3,42,67.5v52.6c0,5.5,4,10.1,8.6,10.1s8.6-4.5,8.6-10.1V71.4c0,0,0.7-1.6,2.3-1.6s2.3,1.6,2.3,1.6v58.8
							h42.6V71.4c0,0,0.7-1.6,2.3-1.6c1.6,0,2.3,1.6,2.3,1.6v48.8c0,5.5,4,10.1,8.6,10.1s8.6-4.5,8.6-10.1V67.5
							C127.6,59.4,120.3,48,109,48L109,48z"/>
					</g>
				</g>
				<g id="Group_1_" transform="translate(47.000000, 7.000000)">
					<g transform="translate(117.874761, 0.000000)">
						<g transform="translate(6.949412, 0.000000)">
							<path id="Path_2_" class="st6" d="M57.2,42.7c-3,0-5.2-2.3-5.2-5.2s2.3-5.2,5.2-5.2s5.2,2.3,5.2,5.2S60.2,42.7,57.2,42.7z"/>
							<path id="Shape_2_" class="st3" d="M57.2,32.9c2.6,0,4.9,2.3,4.9,4.9c0,2.6-2.3,4.9-4.9,4.9s-4.9-2.3-4.9-4.9
								C52.3,34.8,54.6,32.9,57.2,32.9 M57.2,31.9c-3,0-5.5,2.6-5.5,5.5s2.6,5.5,5.5,5.5s5.5-2.6,5.5-5.5
								C62.7,34.6,60.2,31.9,57.2,31.9L57.2,31.9z"/>
						</g>
						<g transform="translate(0.000000, 10.241069)">
							<path id="Path_3_" class="st6" d="M67.8,79.9c-2,0-3.2-1.6-3.2-3.2v-18c0-0.3-0.3-0.3-0.3-0.3l-0.3,18c0,2-1.6,3.2-3.2,3.2
								s-3.2-1.6-3.2-3.2v-36v14.1c0,2-1.3,3.2-3,3.2c-1.6,0-3-1.6-3-3.2V39c0-2.6,2.3-6.2,5.9-6.2H71c3.6,0,5.9,3.6,5.9,6.2v15
								c0,2-1.3,3.2-3,3.2s-3-1.6-3-3.2V40.3v36.6C71,78.5,69.4,79.9,67.8,79.9z"/>
							<path id="Shape_3_" class="st3" d="M71,33.4c3.2,0,5.2,3.2,5.2,5.5v15c0,1.6-1,3-2.3,3s-2.3-1.3-2.3-3V40.3
								c0,0,0-0.3-0.3-0.3S71,40.3,71,40.3v36.6c0,1.6-1.3,3-3,3s-3-1.3-3-3v-18c0,0,0-0.7-0.7-0.7c-0.7,0-0.7,0.7-0.7,0.7v18
								c0,1.6-1.3,3-3,3s-2.6-1.4-2.6-3V40.3c0,0,0-0.3-0.3-0.3s-0.3,0.3-0.3,0.3v14.1c0,1.6-1,3-2.3,3s-2.3-1.3-2.3-3V39
								c0-2.3,2-5.5,5.2-5.5L71,33.4 M71,32.5H57.3c-3.9,0-6.2,3.9-6.2,6.6v15c0,2,1.3,3.6,3.2,3.6c1,0,2-0.7,2.6-1.3v19.9
								c0,2,1.6,3.6,3.6,3.6c1.6,0,3-1,3.6-2.6c0.3,1.6,2,2.6,3.6,2.6c2,0,3.6-1.6,3.6-3.6v-20c0.7,0.7,1.6,1.3,2.6,1.3
								c1.6,0,3.2-1.6,3.2-3.6V39C77.2,36.4,74.6,32.5,71,32.5L71,32.5z"/>
						</g>
					</g>
					<g transform="translate(50.343451, 0.000000)">
						<g transform="translate(7.373804, 0.000000)">
							<path id="Path_4_" class="st6" d="M47.2,42.7c-3,0-5.2-2.3-5.2-5.2s2.3-5.2,5.2-5.2s5.2,2.3,5.2,5.2S50.1,42.7,47.2,42.7z"/>
							<path id="Shape_4_" class="st3" d="M47.2,32.9c2.6,0,4.9,2.3,4.9,4.9c0,2.6-2.4,4.9-4.9,4.9s-4.9-2.3-4.9-4.9
								C42.3,34.8,44.6,32.9,47.2,32.9 M47.2,31.9c-3,0-5.5,2.6-5.5,5.5s2.6,5.5,5.5,5.5s5.5-2.6,5.5-5.5
								C52.8,34.6,50.1,31.9,47.2,31.9L47.2,31.9z"/>
						</g>
						<g transform="translate(0.000000, 10.241069)">
							<path id="Path_5_" class="st6" d="M58.1,79.9c-2,0-3.2-1.6-3.2-3.2v-18h-0.3l0,0v18c0,2-1.6,3.2-3.2,3.2
								c-2,0-3.2-1.6-3.2-3.2V40.3v14.1c0,2-1.3,3.2-3,3.2c-1.6,0-3-1.6-3-3.2V39c0-2.6,2.3-6.2,5.9-6.2h13.7c3.6,0,5.9,3.6,5.9,6.2
								v15c0,2-1.3,3.2-3,3.2c-1.7,0-3-1.6-3-3.2V40.3v36.6C61.5,78.5,59.8,79.9,58.1,79.9z"/>
							<path id="Shape_5_" class="st3" d="M61.5,33.4c3.2,0,5.2,3.2,5.2,5.5v15c0,1.6-1,3-2.3,3c-1.3,0-2.3-1.3-2.3-3V40.3
								c0,0,0-0.3-0.3-0.3s-0.3,0.3-0.3,0.3v36.6c0,1.6-1.3,3-3,3c-1.6,0-3-1.3-3-3v-18c0,0,0-0.7-0.7-0.7S54,58.9,54,58.9v18
								c0,1.6-1.3,3-3,3s-2.7-1.4-2.7-3V40.3c0,0,0-0.3-0.3-0.3s-0.3,0.3-0.3,0.3v14.1c0,1.6-1,3-2.3,3s-2.3-1.3-2.3-3V39
								c0-2.3,2-5.5,5.2-5.5L61.5,33.4 M61.5,32.5H47.7c-3.9,0-6.2,3.9-6.2,6.6v15c0,2,1.3,3.6,3.2,3.6c1,0,2-0.7,2.6-1.3v19.9
								c0,2,1.6,3.6,3.6,3.6c1.6,0,3-1,3.6-2.6c0.3,1.6,2,2.6,3.6,2.6c2,0,3.6-1.6,3.6-3.6V56c0.7,0.7,1.6,1.3,2.6,1.3
								c1.6,0,3.2-1.6,3.2-3.6V39C67.3,36.4,65,32.5,61.5,32.5L61.5,32.5z"/>
						</g>
					</g>
					<g transform="translate(169.438337, 52.567568)">
						<g transform="translate(6.729286, 0.000000)">
							<path id="Path_6_" class="st6" d="M64,49.3c-3,0-5.2-2.3-5.2-5.2s2.3-5.2,5.2-5.2c3,0,5.2,2.3,5.2,5.2S67,49.3,64,49.3z"/>
							<path id="Shape_6_" class="st3" d="M64,39.2c2.6,0,4.9,2.3,4.9,4.9S66.6,49,64,49s-4.9-2.3-4.9-4.9S61.5,39.2,64,39.2
								 M64,38.5c-3,0-5.5,2.6-5.5,5.5s2.6,5.5,5.5,5.5c3,0,5.5-2.6,5.5-5.5C69.7,40.8,67.4,38.5,64,38.5L64,38.5z"/>
						</g>
						<g transform="translate(0.000000, 9.241069)">
							<path id="Path_7_" class="st6" d="M74.4,87.4c-2,0-3.2-1.6-3.2-3.2v-18h-1h0.3v18c0,2-1.6,3.2-3.2,3.2S64,85.8,64,84.2V47.5
								v14.1c0,2-1.3,3.2-3,3.2c-1.6,0-3-1.6-3-3.2v-15c0-2.6,2.3-6.2,5.9-6.2h13.7c3.6,0,5.9,3.6,5.9,6.2v15c0,2-1.3,3.2-3,3.2
								s-2.9-1.6-2.9-3.2V47.5v36.6C77.6,86.1,76,87.4,74.4,87.4z"/>
							<path id="Shape_7_" class="st3" d="M77.6,41c3.2,0,5.2,3.2,5.2,5.5v15c0,1.6-1,3-2.3,3s-2.3-1.3-2.3-3v-14c0,0,0-0.3-0.3-0.3
								s-0.3,0.3-0.3,0.3v36.6c0,1.6-1.3,3-3,3s-3-1.3-3-3V66.2c0,0,0-0.7-0.7-0.7s-0.7,0.7-0.7,0.7v18c0,1.6-1.3,3-3,3s-3-1.3-3-3
								V47.5c0,0,0-0.3-0.3-0.3s-0.3,0.3-0.3,0.3v14.1c0,1.6-1,3-2.3,3s-2.3-1.3-2.3-3v-15c0-2.3,2-5.5,5.2-5.5L77.6,41 M77.6,40
								H63.9c-3.9,0-6.2,3.9-6.2,6.6v15c0,2,1.3,3.6,3.2,3.6c1,0,2-0.7,2.6-1.3v19.9c0,2,1.6,3.6,3.6,3.6c1.6,0,3-1,3.6-2.6
								c0.3,1.6,2,2.6,3.6,2.6c2,0,3.6-1.6,3.6-3.6V63.9c0.7,0.7,1.6,1.3,2.6,1.3c1.6,0,3.2-1.6,3.2-3.6v-15
								C83.9,43.9,81.6,40,77.6,40L77.6,40z"/>
						</g>
					</g>
					<g transform="translate(0.000000, 52.567568)">
						<g transform="translate(6.153678, 0.000000)">
							<path id="Path_8_" class="st6" d="M40.6,49.3c-3,0-5.2-2.3-5.2-5.2s2.3-5.2,5.2-5.2s5.2,2.3,5.2,5.2S43.5,49.3,40.6,49.3z"/>
							<path id="Shape_8_" class="st3" d="M40.6,39.2c2.6,0,4.9,2.3,4.9,4.9S43.2,49,40.6,49s-4.9-2.3-4.9-4.9S38,39.2,40.6,39.2
								 M40.6,38.5c-3,0-5.5,2.6-5.5,5.5s2.6,5.5,5.5,5.5s5.5-2.6,5.5-5.5C46.2,40.8,43.5,38.5,40.6,38.5L40.6,38.5z"/>
						</g>
						<g transform="translate(0.000000, 9.241069)">
							<path id="Path_9_" class="st6" d="M50.3,87.4c-2,0-3.2-1.6-3.2-3.2v-18h-0.7v18c0,2-1.6,3.2-3.2,3.2c-2,0-3.2-1.6-3.2-3.2
								V47.5v14.1c0,2-1.3,3.2-3,3.2s-3-1.6-3-3.2v-15c0-2.6,2.3-6.2,5.9-6.2h13.7c3.6,0,5.9,3.6,5.9,6.2v15c0,2-1.3,3.2-3,3.2
								s-3-1.6-3-3.2V47.5v36.6C53.6,86.1,52,87.4,50.3,87.4z"/>
							<path id="Shape_9_" class="st3" d="M53.6,41c3.2,0,5.2,3.2,5.2,5.5v15c0,1.6-1,3-2.3,3s-2.3-1.3-2.3-3v-14c0,0,0-0.3-0.3-0.3
								s-0.3,0.3-0.3,0.3v36.6c0,1.6-1.3,3-3,3c-1.6,0-3-1.3-3-3V66.2c0,0,0-0.7-0.7-0.7s-0.7,0.7-0.7,0.7v18c0,1.6-1.3,3-3,3
								s-3-1.3-3-3V47.5c0,0,0-0.3-0.3-0.3s-0.3,0.3-0.3,0.3v14.1c0,1.6-1,3-2.3,3s-2-1.4-2-3v-15c0-2.3,2-5.5,5.2-5.5L53.6,41
								 M53.6,40H39.9c-3.9,0-6.2,3.9-6.2,6.6v15c0,2,1.3,3.6,3.2,3.6c1,0,2-0.7,2.6-1.3v19.9c0,2,1.6,3.6,3.6,3.6
								c1.6,0,3-1,3.6-2.6c0.3,1.6,2,2.6,3.6,2.6c2,0,3.6-1.6,3.6-3.6V63.9c0.7,0.7,1.6,1.3,2.6,1.3c1.6,0,3.2-1.6,3.2-3.6v-15
								C59.5,43.9,57.2,40,53.6,40L53.6,40z"/>
						</g>
					</g>
				</g>
				<polygon id="Path_10_" class="st3" points="292.7,173.4 273.7,157.8 273.7,164.6 240.3,164.6 240.3,182.1 273.7,182.1 
					273.7,188.6 				"/>
				<polygon id="Path_11_" class="st3" points="139.8,164.6 106.4,164.6 106.4,157.8 87.3,173.4 106.4,188.6 106.4,182.1 
					139.8,182.1 				"/>
				<polygon id="Path_12_" class="st3" points="157,127.8 133.3,104.2 138.2,99.6 113.6,97.3 115.9,121.6 120.8,117 144.4,140.7 
									"/>
				<polygon id="Path_13_" class="st3" points="224.2,127.8 247.9,104.2 243,99.6 267.6,97.3 265.3,121.6 260.4,117 236.8,140.7 
									"/>
				<polygon id="Path_14_" class="st3" points="190.8,70 175.2,88.9 182,88.9 182,113.3 199.5,113.3 199.5,88.9 206,88.9 				"/>
			</g>
		</g>
	</g>
</g>
</svg>
