<?xml version="1.0" encoding="UTF-8"?>
<svg width="42px" height="39px" viewBox="0 0 42 39" version="1.1" xmlns="http://www.w3.org/2000/svg" xmlns:xlink="http://www.w3.org/1999/xlink">
    <title>linkedIn_white</title>
    <g id="Page-1" stroke="none" stroke-width="1" fill="none" fill-rule="evenodd">
        <g id="connect_with_us" transform="translate(-929.000000, -654.000000)" fill="#3ECCCD" fill-rule="nonzero">
            <g id="linkedIn_white" transform="translate(929.000000, 654.000000)">
                <path d="M9.49675472,39 L9.49675472,12.6743817 L0.532528302,12.6743817 L0.532528302,39 L9.49675472,39 L9.49675472,39 Z M5.00830189,9.0884591 C8.14007547,9.0884591 10.08,7.07292327 10.08,4.55041218 C10.0166038,1.96607483 8.12739623,0 5.07169811,0 C2.00332075,0 0,1.96607483 0,4.53804692 C0,7.06055802 1.93992453,9.07609385 4.95758491,9.07609385 L5.00830189,9.07609385 L5.00830189,9.0884591 Z" id="Shape"></path>
                <path d="M14.56,39 L23.5415185,39 L23.5415185,24.3132074 C23.5415185,23.5350174 23.605037,22.7444751 23.8337037,22.1886251 C24.4815926,20.6198928 25.9552222,18.9893995 28.4451481,18.9893995 C31.6972963,18.9893995 33.0057778,21.3980829 33.0057778,24.9308185 L33.0057778,39 L42,39 L42,23.9179363 C42,15.8395827 37.5664074,12.084507 31.6591852,12.084507 C26.8063704,12.084507 24.6848519,14.7155304 23.5034074,16.5189549 L23.5669259,16.5189549 L23.5669259,12.7021182 L14.5854074,12.7021182 C14.687037,15.1725627 14.56,39 14.56,39 L14.56,39 Z" id="Path"></path>
            </g>
        </g>
    </g>
</svg>