<?xml version="1.0" encoding="UTF-8"?>
<svg width="24px" height="22px" viewBox="0 0 24 22" version="1.1" xmlns="http://www.w3.org/2000/svg" xmlns:xlink="http://www.w3.org/1999/xlink">
    <title>linkedIn_white</title>
    <g id="Page-1" stroke="none" stroke-width="1" fill="none" fill-rule="evenodd">
        <g id="connect_with_us" transform="translate(-598.000000, -1132.000000)" fill="#CECECE" fill-rule="nonzero">
            <g id="Coffee_shop" transform="translate(287.000000, 752.000000)">
                <g id="linkedIn_white" transform="translate(311.000000, 380.000000)">
                    <path d="M5.42671698,22 L5.42671698,7.14965124 L0.304301887,7.14965124 L0.304301887,22 L5.42671698,22 L5.42671698,22 Z M2.86188679,5.12682308 C4.6514717,5.12682308 5.76,3.98985415 5.76,2.56689918 C5.72377358,1.10906785 4.64422642,0 2.89811321,0 C1.14475472,0 0,1.10906785 0,2.55992391 C0,3.98287888 1.1085283,5.11984781 2.83290566,5.11984781 L2.86188679,5.11984781 L2.86188679,5.12682308 Z" id="Shape"></path>
                    <path d="M8.32,22 L13.4522963,22 L13.4522963,13.7151426 C13.4522963,13.2761636 13.4885926,12.8302167 13.6192593,12.5166603 C13.9894815,11.6317344 14.8315556,10.7119689 16.2543704,10.7119689 C18.1127407,10.7119689 18.8604444,12.0707134 18.8604444,14.0635386 L18.8604444,22 L24,22 L24,13.4921692 C24,8.93514922 21.4665185,6.81690141 18.090963,6.81690141 C15.3179259,6.81690141 14.1056296,8.30106846 13.4305185,9.31838484 L13.4668148,9.31838484 L13.4668148,7.16529743 L8.33451852,7.16529743 C8.39259259,8.55888151 8.32,22 8.32,22 L8.32,22 Z" id="Path"></path>
                </g>
            </g>
        </g>
    </g>
</svg>