<?xml version="1.0" encoding="UTF-8"?>
<svg width="36px" height="30px" viewBox="0 0 36 30" version="1.1" xmlns="http://www.w3.org/2000/svg" xmlns:xlink="http://www.w3.org/1999/xlink">
    <title>twitter_white</title>
    <g id="Page-1" stroke="none" stroke-width="1" fill="none" fill-rule="evenodd">
        <g id="connect_with_us" transform="translate(-995.000000, -663.000000)" fill="#3ECCCD" fill-rule="nonzero">
            <g id="twitter_white" transform="translate(995.000000, 663.000000)">
                <path d="M11.3312102,30 C24.9076433,30 32.3407643,18.4585238 32.3407643,8.455258 C32.3407643,8.13193991 32.3312102,7.7988243 32.3216561,7.47550621 C33.7643312,6.40757675 35.0159236,5.0751143 36,3.5467015 C34.6815287,4.1443501 33.2579618,4.55584585 31.7579618,4.74199869 C33.2770701,3.80143697 34.4522293,2.32201176 34.9968153,0.558458524 C33.5636943,1.4206401 31.9968153,2.05747877 30.3057325,2.39059438 C28.9585987,0.91116917 27.0382166,0 24.9171975,0 C20.8471338,0 17.5318471,3.38994121 17.5318471,7.57348138 C17.5318471,8.16133246 17.589172,8.74918354 17.7229299,9.30764206 C11.5987261,8.98432397 6.1433121,5.98628347 2.50318471,1.39124755 C1.86305732,2.5081646 1.50955414,3.81123449 1.50955414,5.20248204 C1.50955414,7.82821685 2.81847134,10.1502286 4.7866242,11.5022861 C3.58280255,11.463096 2.42675159,11.1201829 1.44267516,10.5519268 C1.44267516,10.5813194 1.44267516,10.610712 1.44267516,10.649902 C1.44267516,14.3239713 3.98407643,17.3807969 7.36624204,18.0764206 C6.74522293,18.2429784 6.08598726,18.3409536 5.42675159,18.3409536 C4.94904459,18.3409536 4.49044586,18.291966 4.04140127,18.2037884 C4.97770701,21.2116264 7.70063694,23.4062704 10.9394904,23.455258 C8.40764331,25.4833442 5.21656051,26.708034 1.76751592,26.708034 C1.17515924,26.708034 0.582802548,26.6786414 0,26.6002613 C3.27707006,28.7459177 7.1656051,30 11.3312102,30" id="Path"></path>
            </g>
        </g>
    </g>
</svg>