<?xml version="1.0" encoding="UTF-8"?>
<svg width="25px" height="20px" viewBox="0 0 25 20" version="1.1" xmlns="http://www.w3.org/2000/svg" xmlns:xlink="http://www.w3.org/1999/xlink">
    <title>twitter_white copy</title>
    <g id="Page-1" stroke="none" stroke-width="1" fill="none" fill-rule="evenodd">
        <g id="connect_with_us" transform="translate(-1110.000000, -1134.000000)" fill="#CECECE" fill-rule="nonzero">
            <g id="Barbershop" transform="translate(761.000000, 752.000000)">
                <g id="twitter_white-copy" transform="translate(349.000000, 382.000000)">
                    <path d="M7.86889597,20 C17.2969745,20 22.4588641,12.3056826 22.4588641,5.63683867 C22.4588641,5.42129327 22.4522293,5.1992162 22.4455945,4.9836708 C23.4474522,4.27171783 24.3166136,3.38340954 25,2.36446767 C24.0843949,2.76290007 23.0958068,3.03723057 22.0541401,3.16133246 C23.1090764,2.53429131 23.9251592,1.54800784 24.3033439,0.372305683 C23.308121,0.947093403 22.2200106,1.37165251 21.0456476,1.59372959 C20.110138,0.607446114 18.7765393,0 17.3036093,0 C14.4771762,0 12.1748938,2.25996081 12.1748938,5.04898759 C12.1748938,5.44088831 12.2147028,5.83278903 12.3075902,6.20509471 C8.05467091,5.98954931 4.26618896,3.99085565 1.73832272,0.927498367 C1.29378981,1.67210973 1.04830149,2.54082299 1.04830149,3.46832136 C1.04830149,5.21881123 1.95727176,6.76681907 3.32404459,7.66819073 C2.48805732,7.64206401 1.68524416,7.41345526 1.00185775,7.0346179 C1.00185775,7.05421293 1.00185775,7.07380797 1.00185775,7.09993468 C1.00185775,9.54931417 2.76671975,11.5871979 5.11544586,12.0509471 C4.68418259,12.1619856 4.22638004,12.2273024 3.76857749,12.2273024 C3.43683652,12.2273024 3.11836518,12.194644 2.80652866,12.1358589 C3.45674098,14.1410843 5.34766454,15.6041803 7.59686837,15.6368387 C5.83864119,16.9888961 3.62261146,17.805356 1.22744161,17.805356 C0.816082803,17.805356 0.404723992,17.7857609 0,17.7335075 C2.2757431,19.1639451 4.97611465,20 7.86889597,20" id="Path"></path>
                </g>
            </g>
        </g>
    </g>
</svg>